<?xml version="1.0" encoding="UTF-8" standalone="no"?>
<!-- Created with Inkscape (http://www.inkscape.org/) -->

<svg
   xmlns:dc="http://purl.org/dc/elements/1.1/"
   xmlns:cc="http://creativecommons.org/ns#"
   xmlns:rdf="http://www.w3.org/1999/02/22-rdf-syntax-ns#"
   xmlns:svg="http://www.w3.org/2000/svg"
   xmlns="http://www.w3.org/2000/svg"
   xmlns:sodipodi="http://sodipodi.sourceforge.net/DTD/sodipodi-0.dtd"
   xmlns:inkscape="http://www.inkscape.org/namespaces/inkscape"
   width="283.46457"
   height="283.46457"
   id="svg2"
   version="1.1"
   inkscape:version="0.91 r13725"
   sodipodi:docname="Gosper (inkscape).svg">
  <sodipodi:namedview
     id="base"
     pagecolor="#ffffff"
     bordercolor="#666666"
     borderopacity="1.0"
     inkscape:pageopacity="0.0"
     inkscape:pageshadow="2"
     inkscape:zoom="2.3036389"
     inkscape:cx="141.73228"
     inkscape:cy="141.73228"
     inkscape:document-units="mm"
     inkscape:current-layer="layer1"
     showgrid="false"
     units="mm"
     inkscape:window-width="1436"
     inkscape:window-height="855"
     inkscape:window-x="0"
     inkscape:window-y="1"
     inkscape:window-maximized="1" />
  <defs
     id="defs4" />
  <metadata
     id="metadata7">
    <rdf:RDF>
      <cc:Work
         rdf:about="">
        <dc:format>image/svg+xml</dc:format>
        <dc:type
           rdf:resource="http://purl.org/dc/dcmitype/StillImage" />
        <dc:title />
      </cc:Work>
    </rdf:RDF>
  </metadata>
  <g
     inkscape:label="Layer 1"
     inkscape:groupmode="layer"
     id="layer1"
     transform="translate(0,-768.89763)">
    <polyline
       id="polyline2997"
       points="500,2500,500,2400,586,2350,586,2450,673,2500,673,2400,673,2300,586,2250,586,2150,673,2100,759,2050,759,2150,673,2200,759,2250,846,2200,933,2250,933,2350,933,2450,846,2400,846,2300,759,2350,759,2450,846,2500,846,2600,759,2550,673,2600,759,2650,846,2700,933,2650,933,2550,1019,2500,1019,2600,1106,2650,1106,2550,1106,2450,1019,2400,1019,2300,1106,2250,1106,2350,1192,2400,1192,2300,1192,2200,1106,2150,1019,2200,933,2150,846,2100,933,2050,1019,2100,1019,2000,933,1950,933,1850,1019,1800,1019,1900,1106,1950,1106,1850,1106,1750,1019,1700,1019,1600,1106,1550,1192,1500,1192,1600,1106,1650,1192,1700,1279,1650,1279,1550,1366,1500,1452,1450,1452,1550,1366,1600,1452,1650,1539,1600,1625,1650,1625,1750,1625,1850,1539,1800,1539,1700,1452,1750,1452,1850,1366,1900,1279,1850,1366,1800,1366,1700,1279,1750,1192,1800,1192,1900,1279,1950,1279,2050,1192,2000,1106,2050,1192,2100,1279,2150,1366,2100,1366,2000,1452,1950,1539,1900,1539,2000,1452,2050,1539,2100,1625,2050,1712,2100,1712,2200,1625,2150,1539,2200,1625,2250,1712,2300,1799,2250,1885,2300,1885,2400,1885,2500,1799,2450,1799,2350,1712,2400,1712,2500,1799,2550,1799,2650,1799,2750,1712,2700,1712,2600,1625,2650,1625,2750,1539,2800,1452,2750,1366,2700,1452,2650,1539,2700,1539,2600,1452,2550,1452,2450,1539,2400,1539,2500,1625,2550,1625,2450,1625,2350,1539,2300,1452,2350,1366,2300,1452,2250,1452,2150,1366,2200,1279,2250,1279,2350,1366,2400,1366,2500,1366,2600,1279,2550,1279,2450,1192,2500,1192,2600,1279,2650,1279,2750,1192,2700,1106,2750,1192,2800,1279,2850,1366,2800,1452,2850,1452,2950,1452,3050,1366,3000,1366,2900,1279,2950,1279,3050,1192,3100,1106,3050,1019,3000,1106,2950,1192,3000,1192,2900,1106,2850,1019,2900,933,2850,1019,2800,1019,2700,933,2750,846,2800,846,2900,933,2950,933,3050,846,3000,759,3050,846,3100,933,3150,1019,3100,1106,3150,1106,3250,1019,3200,933,3250,1019,3300,1106,3350,1192,3300,1192,3200,1279,3150,1366,3100,1366,3200,1279,3250,1366,3300,1452,3250,1452,3150,1539,3100,1539,3200,1625,3250,1625,3150,1625,3050,1539,3000,1539,2900,1625,2850,1712,2800,1712,2900,1625,2950,1712,3000,1799,2950,1885,3000,1885,3100,1885,3200,1799,3150,1799,3050,1712,3100,1712,3200,1799,3250,1799,3350,1712,3300,1625,3350,1712,3400,1799,3450,1885,3400,1885,3300,1972,3250,1972,3350,2058,3400,2058,3300,2058,3200,1972,3150,1972,3050,2058,3000,2058,3100,2145,3150,2145,3050,2145,2950,2058,2900,1972,2950,1885,2900,1799,2850,1885,2800,1972,2850,1972,2750,1885,2700,1885,2600,1972,2550,1972,2650,2058,2700,2058,2600,2058,2500,1972,2450,1972,2350,2058,2300,2145,2250,2145,2350,2058,2400,2145,2450,2232,2400,2318,2450,2318,2550,2318,2650,2232,2600,2232,2500,2145,2550,2145,2650,2232,2700,2232,2800,2145,2750,2058,2800,2145,2850,2232,2900,2318,2850,2318,2750,2405,2700,2405,2800,2491,2850,2491,2750,2491,2650,2405,2600,2405,2500,2491,2450,2491,2550,2578,2600,2578,2500,2578,2400,2491,2350,2405,2400,2318,2350,2232,2300,2318,2250,2405,2300,2405,2200,2318,2150,2232,2200,2145,2150,2232,2100,2232,2000,2145,2050,2058,2100,2058,2200,1972,2250,1885,2200,1799,2150,1885,2100,1972,2150,1972,2050,1885,2000,1799,2050,1712,2000,1625,1950,1712,1900,1799,1950,1799,1850,1712,1800,1712,1700,1799,1650,1885,1600,1885,1700,1799,1750,1885,1800,1972,1750,2058,1800,2058,1900,1972,1850,1885,1900,1972,1950,2058,2000,2145,1950,2145,1850,2232,1800,2232,1900,2318,1950,2318,1850,2318,1750,2232,1700,2145,1750,2058,1700,1972,1650,2058,1600,2145,1650,2145,1550,2058,1500,2058,1400,2145,1350,2145,1450,2232,1500,2232,1400,2232,1300,2145,1250,2145,1150,2232,1100,2318,1050,2318,1150,2232,1200,2318,1250,2405,1200,2491,1250,2491,1350,2491,1450,2405,1400,2405,1300,2318,1350,2318,1450,2405,1500,2405,1600,2318,1550,2232,1600,2318,1650,2405,1700,2491,1650,2491,1550,2578,1500,2578,1600,2665,1650,2665,1550,2665,1450,2578,1400,2578,1300,2665,1250,2665,1350,2751,1400,2751,1300,2751,1200,2665,1150,2578,1200,2491,1150,2405,1100,2491,1050,2578,1100,2578,1000,2491,950,2491,850,2578,800,2578,900,2665,950,2665,850,2665,750,2578,700,2578,600,2665,550,2751,500,2751,600,2665,650,2751,700,2838,650,2838,550,2924,500,3011,450,3011,550,2924,600,3011,650,3098,600,3184,650,3184,750,3184,850,3098,800,3098,700,3011,750,3011,850,2924,900,2838,850,2924,800,2924,700,2838,750,2751,800,2751,900,2838,950,2838,1050,2751,1000,2665,1050,2751,1100,2838,1150,2924,1100,2924,1000,3011,950,3098,900,3098,1000,3011,1050,3098,1100,3184,1050,3184,950,3271,900,3271,1000,3357,1050,3357,950,3357,850,3271,800,3271,700,3357,650,3444,600,3444,700,3357,750,3444,800,3531,750,3531,650,3617,600,3704,550,3704,650,3617,700,3704,750,3790,700,3877,750,3877,850,3877,950,3790,900,3790,800,3704,850,3704,950,3617,1000,3531,950,3617,900,3617,800,3531,850,3444,900,3444,1000,3531,1050,3531,1150,3444,1100,3357,1150,3444,1200,3531,1250,3617,1200,3617,1100,3704,1050,3790,1000,3790,1100,3704,1150,3790,1200,3877,1150,3964,1200,3964,1300,3877,1250,3790,1300,3877,1350,3964,1400,4050,1350,4137,1400,4137,1500,4137,1600,4050,1550,4050,1450,3964,1500,3964,1600,4050,1650,4050,1750,4050,1850,3964,1800,3964,1700,3877,1750,3877,1850,3790,1900,3704,1850,3617,1800,3704,1750,3790,1800,3790,1700,3704,1650,3704,1550,3790,1500,3790,1600,3877,1650,3877,1550,3877,1450,3790,1400,3704,1450,3617,1400,3704,1350,3704,1250,3617,1300,3531,1350,3531,1450,3617,1500,3617,1600,3617,1700,3531,1650,3531,1550,3444,1600,3444,1700,3357,1750,3271,1700,3357,1650,3357,1550,3271,1600,3184,1650,3184,1750,3098,1800,3011,1750,2924,1700,3011,1650,3098,1700,3098,1600,3011,1550,3011,1450,3098,1400,3184,1350,3184,1450,3098,1500,3184,1550,3271,1500,3271,1400,3357,1350,3357,1450,3444,1500,3444,1400,3444,1300,3357,1250,3271,1300,3184,1250,3271,1200,3271,1100,3184,1150,3098,1200,3098,1300,3011,1350,2924,1300,3011,1250,3011,1150,2924,1200,2838,1250,2838,1350,2924,1400,2924,1500,2924,1600,2838,1550,2838,1450,2751,1500,2751,1600,2838,1650,2838,1750,2751,1700,2665,1750,2751,1800,2838,1850,2924,1800,3011,1850,3011,1950,3011,2050,2924,2000,2924,1900,2838,1950,2838,2050,2751,2100,2665,2050,2578,2000,2665,1950,2751,2000,2751,1900,2665,1850,2578,1900,2491,1850,2578,1800,2578,1700,2491,1750,2405,1800,2405,1900,2491,1950,2491,2050,2405,2000,2318,2050,2405,2100,2491,2150,2578,2100,2665,2150,2665,2250,2578,2200,2491,2250,2578,2300,2665,2350,2751,2300,2751,2200,2838,2150,2924,2100,2924,2200,2838,2250,2924,2300,3011,2250,3011,2150,3098,2100,3098,2200,3184,2250,3184,2150,3184,2050,3098,2000,3098,1900,3184,1850,3271,1800,3271,1900,3184,1950,3271,2000,3357,1950,3357,1850,3444,1800,3531,1750,3531,1850,3444,1900,3531,1950,3617,1900,3704,1950,3704,2050,3704,2150,3617,2100,3617,2000,3531,2050,3531,2150,3444,2200,3357,2150,3444,2100,3444,2000,3357,2050,3271,2100,3271,2200,3357,2250,3357,2350,3271,2300,3184,2350,3271,2400,3357,2450,3444,2400,3444,2300,3531,2250,3617,2200,3617,2300,3531,2350,3617,2400,3704,2350,3790,2400,3790,2500,3704,2450,3617,2500,3704,2550,3790,2600,3877,2550,3964,2600,3964,2700,3964,2800,3877,2750,3877,2650,3790,2700,3790,2800,3704,2850,3617,2800,3531,2750,3617,2700,3704,2750,3704,2650,3617,2600,3531,2650,3444,2600,3531,2550,3531,2450,3444,2500,3357,2550,3357,2650,3444,2700,3444,2800,3357,2750,3271,2800,3357,2850,3444,2900,3531,2850,3617,2900,3617,3000,3531,2950,3444,3000,3531,3050,3617,3100,3704,3050,3704,2950,3790,2900,3877,2850,3877,2950,3790,3000,3877,3050,3964,3000,4050,3050,4050,3150,3964,3100,3877,3150,3964,3200,4050,3250,4137,3200,4223,3250,4223,3350,4223,3450,4137,3400,4137,3300,4050,3350,4050,3450,4137,3500,4137,3600,4137,3700,4050,3650,4050,3550,3964,3600,3964,3700,3877,3750,3790,3700,3704,3650,3790,3600,3877,3650,3877,3550,3790,3500,3790,3400,3877,3350,3877,3450,3964,3500,3964,3400,3964,3300,3877,3250,3790,3300,3704,3250,3790,3200,3790,3100,3704,3150,3617,3200,3617,3300,3704,3350,3704,3450,3704,3550,3617,3500,3617,3400,3531,3450,3531,3550,3617,3600,3617,3700,3531,3650,3444,3700,3531,3750,3617,3800,3704,3750,3790,3800,3790,3900,3790,4000,3704,3950,3704,3850,3617,3900,3617,4000,3704,4050,3704,4150,3704,4250,3617,4200,3617,4100,3531,4150,3531,4250,3444,4300,3357,4250,3271,4200,3357,4150,3444,4200,3444,4100,3357,4050,3357,3950,3444,3900,3444,4000,3531,4050,3531,3950,3531,3850,3444,3800,3357,3850,3271,3800,3357,3750,3357,3650,3271,3700,3184,3750,3184,3850,3271,3900,3271,4000,3271,4100,3184,4050,3184,3950,3098,4000,3098,4100,3011,4150,2924,4100,3011,4050,3011,3950,2924,4000,2838,4050,2838,4150,2751,4200,2665,4150,2578,4100,2665,4050,2751,4100,2751,4000,2665,3950,2578,4000,2491,3950,2405,3900,2491,3850,2578,3900,2578,3800,2491,3750,2491,3650,2578,3600,2665,3550,2665,3650,2578,3700,2665,3750,2751,3700,2838,3750,2838,3850,2751,3800,2665,3850,2751,3900,2838,3950,2924,3900,2924,3800,3011,3750,3011,3850,3098,3900,3098,3800,3098,3700,3011,3650,2924,3700,2838,3650,2751,3600,2838,3550,2924,3600,2924,3500,2838,3450,2838,3350,2924,3300,2924,3400,3011,3450,3011,3350,3011,3250,2924,3200,2924,3100,3011,3050,3098,3000,3098,3100,3011,3150,3098,3200,3184,3150,3271,3200,3271,3300,3271,3400,3184,3350,3184,3250,3098,3300,3098,3400,3184,3450,3184,3550,3098,3500,3011,3550,3098,3600,3184,3650,3271,3600,3271,3500,3357,3450,3357,3550,3444,3600,3444,3500,3444,3400,3357,3350,3357,3250,3444,3200,3444,3300,3531,3350,3531,3250,3531,3150,3444,3100,3357,3150,3271,3100,3184,3050,3271,3000,3357,3050,3357,2950,3271,2900,3184,2950,3098,2900,3184,2850,3184,2750,3098,2800,3011,2850,3011,2950,2924,3000,2838,2950,2751,2900,2838,2850,2924,2900,2924,2800,2838,2750,2838,2650,2924,2600,3011,2550,3011,2650,2924,2700,3011,2750,3098,2700,3098,2600,3184,2550,3184,2650,3271,2700,3271,2600,3271,2500,3184,2450,3098,2500,3011,2450,3098,2400,3098,2300,3011,2350,2924,2400,2924,2500,2838,2550,2751,2500,2838,2450,2838,2350,2751,2400,2665,2450,2665,2550,2751,2600,2751,2700,2751,2800,2665,2750,2665,2650,2578,2700,2578,2800,2665,2850,2665,2950,2578,2900,2491,2950,2578,3000,2665,3050,2751,3000,2838,3050,2838,3150,2838,3250,2751,3200,2751,3100,2665,3150,2665,3250,2751,3300,2751,3400,2751,3500,2665,3450,2665,3350,2578,3400,2578,3500,2491,3550,2405,3500,2318,3450,2405,3400,2491,3450,2491,3350,2405,3300,2405,3200,2491,3150,2491,3250,2578,3300,2578,3200,2578,3100,2491,3050,2405,3100,2318,3050,2405,3000,2405,2900,2318,2950,2232,3000,2232,3100,2318,3150,2318,3250,2318,3350,2232,3300,2232,3200,2145,3250,2145,3350,2232,3400,2232,3500,2145,3450,2058,3500,2145,3550,2232,3600,2318,3550,2405,3600,2405,3700,2405,3800,2318,3750,2318,3650,2232,3700,2232,3800,2145,3850,2058,3800,1972,3750,2058,3700,2145,3750,2145,3650,2058,3600,1972,3650,1885,3600,1972,3550,1972,3450,1885,3500,1799,3550,1799,3650,1885,3700,1885,3800,1799,3750,1712,3800,1799,3850,1885,3900,1972,3850,2058,3900,2058,4000,1972,3950,1885,4000,1972,4050,2058,4100,2145,4050,2145,3950,2232,3900,2318,3850,2318,3950,2232,4000,2318,4050,2405,4000,2491,4050,2491,4150,2405,4100,2318,4150,2405,4200,2491,4250,2578,4200,2665,4250,2665,4350,2665,4450,2578,4400,2578,4300,2491,4350,2491,4450,2578,4500,2578,4600,2578,4700,2491,4650,2491,4550,2405,4600,2405,4700,2318,4750,2232,4700,2145,4650,2232,4600,2318,4650,2318,4550,2232,4500,2232,4400,2318,4350,2318,4450,2405,4500,2405,4400,2405,4300,2318,4250,2232,4300,2145,4250,2232,4200,2232,4100,2145,4150,2058,4200,2058,4300,2145,4350,2145,4450,2145,4550,2058,4500,2058,4400,1972,4450,1972,4550,1885,4600,1799,4550,1885,4500,1885,4400,1799,4450,1712,4500,1712,4600,1625,4650,1539,4600,1452,4550,1539,4500,1625,4550,1625,4450,1539,4400,1452,4450,1366,4400,1279,4350,1366,4300,1452,4350,1452,4250,1366,4200,1366,4100,1452,4050,1539,4000,1539,4100,1452,4150,1539,4200,1625,4150,1712,4200,1712,4300,1625,4250,1539,4300,1625,4350,1712,4400,1799,4350,1799,4250,1885,4200,1885,4300,1972,4350,1972,4250,1972,4150,1885,4100,1799,4150,1712,4100,1625,4050,1712,4000,1799,4050,1799,3950,1712,3900,1625,3950,1539,3900,1625,3850,1625,3750,1539,3800,1452,3850,1452,3950,1366,4000,1279,3950,1192,3900,1279,3850,1366,3900,1366,3800,1279,3750,1279,3650,1366,3600,1452,3550,1452,3650,1366,3700,1452,3750,1539,3700,1539,3600,1625,3550,1625,3650,1712,3700,1712,3600,1712,3500,1625,3450,1539,3500,1452,3450,1539,3400,1539,3300,1452,3350,1366,3400,1366,3500,1279,3550,1192,3500,1279,3450,1279,3350,1192,3400,1106,3450,1106,3550,1192,3600,1192,3700,1192,3800,1106,3750,1106,3650,1019,3700,1019,3800,1106,3850,1106,3950,1019,3900,933,3950,1019,4000,1106,4050,1192,4000,1279,4050,1279,4150,1279,4250,1192,4200,1192,4100,1106,4150,1106,4250,1019,4300,933,4250,846,4200,933,4150,1019,4200,1019,4100,933,4050,846,4100,759,4050,846,4000,846,3900,759,3950,673,4000,673,4100,759,4150,759,4250,673,4200,586,4250,673,4300,759,4350,846,4300,933,4350,933,4450,846,4400,759,4450,846,4500,933,4550,1019,4500,1019,4400,1106,4350,1192,4300,1192,4400,1106,4450,1192,4500,1279,4450,1366,4500,1366,4600,1279,4550,1192,4600,1279,4650,1366,4700,1452,4650,1539,4700,1539,4800,1539,4900,1452,4850,1452,4750,1366,4800,1366,4900,1279,4950,1192,4900,1106,4850,1192,4800,1279,4850,1279,4750,1192,4700,1106,4750,1019,4700,1106,4650,1106,4550,1019,4600,933,4650,933,4750,1019,4800,1019,4900,933,4850,846,4900,933,4950,1019,5000,1106,4950,1192,5000,1192,5100,1106,5050,1019,5100,1106,5150,1192,5200,1279,5150,1279,5050,1366,5000,1452,4950,1452,5050,1366,5100,1452,5150,1539,5100,1539,5000,1625,4950,1625,5050,1712,5100,1712,5000,1712,4900,1625,4850,1625,4750,1712,4700,1799,4650,1799,4750,1712,4800,1799,4850,1885,4800,1885,4700,1972,4650,2058,4600,2058,4700,1972,4750,2058,4800,2145,4750,2232,4800,2232,4900,2232,5000,2145,4950,2145,4850,2058,4900,2058,5000,1972,5050,1885,5000,1972,4950,1972,4850,1885,4900,1799,4950,1799,5050,1885,5100,1885,5200,1799,5150,1712,5200,1799,5250,1885,5300,1972,5250,1972,5150,2058,5100,2145,5050,2145,5150,2058,5200,2145,5250,2232,5200,2232,5100,2318,5050,2318,5150,2405,5200,2405,5100,2405,5000,2318,4950,2318,4850,2405,4800,2491,4750,2491,4850,2405,4900,2491,4950,2578,4900,2665,4950,2665,5050,2665,5150,2578,5100,2578,5000,2491,5050,2491,5150,2578,5200,2578,5300,2491,5250,2405,5300,2491,5350,2578,5400,2665,5350,2665,5250,2751,5200,2751,5300,2838,5350,2838,5250,2838,5150,2751,5100,2751,5000,2838,4950,2838,5050,2924,5100,2924,5000,2924,4900,2838,4850,2751,4900,2665,4850,2578,4800,2665,4750,2751,4800,2751,4700,2665,4650,2665,4550,2751,4500,2751,4600,2838,4650,2838,4550,2838,4450,2751,4400,2751,4300,2838,4250,2924,4200,2924,4300,2838,4350,2924,4400,3011,4350,3011,4250,3098,4200,3184,4150,3184,4250,3098,4300,3184,4350,3271,4300,3357,4350,3357,4450,3357,4550,3271,4500,3271,4400,3184,4450,3184,4550,3098,4600,3011,4550,3098,4500,3098,4400,3011,4450,2924,4500,2924,4600,3011,4650,3011,4750,2924,4700,2838,4750,2924,4800,3011,4850,3098,4800,3098,4700,3184,4650,3271,4600,3271,4700,3184,4750,3271,4800,3357,4750,3444,4800,3444,4900,3357,4850,3271,4900,3357,4950,3444,5000,3531,4950,3617,5000,3617,5100,3617,5200,3531,5150,3531,5050,3444,5100,3444,5200,3531,5250,3531,5350,3531,5450,3444,5400,3444,5300,3357,5350,3357,5450,3271,5500,3184,5450,3098,5400,3184,5350,3271,5400,3271,5300,3184,5250,3184,5150,3271,5100,3271,5200,3357,5250,3357,5150,3357,5050,3271,5000,3184,5050,3098,5000,3184,4950,3184,4850,3098,4900,3011,4950,3011,5050,3098,5100,3098,5200,3098,5300,3011,5250,3011,5150,2924,5200,2924,5300,3011,5350,3011,5450,2924,5400,2838,5450,2924,5500,3011,5550,3098,5500,3184,5550,3184,5650,3184,5750,3098,5700,3098,5600,3011,5650,3011,5750,2924,5800,2838,5750,2751,5700,2838,5650,2924,5700,2924,5600,2838,5550,2751,5600,2665,5550,2751,5500,2751,5400,2665,5450,2578,5500,2578,5600,2665,5650,2665,5750,2578,5700,2491,5750,2578,5800,2665,5850,2751,5800,2838,5850,2838,5950,2751,5900,2665,5950,2751,6000,2838,6050,2924,6000,2924,5900,3011,5850,3098,5800,3098,5900,3011,5950,3098,6000,3184,5950,3184,5850,3271,5800,3271,5900,3357,5950,3357,5850,3357,5750,3271,5700,3271,5600,3357,5550,3444,5500,3444,5600,3357,5650,3444,5700,3531,5650,3617,5700,3617,5800,3617,5900,3531,5850,3531,5750,3444,5800,3444,5900,3531,5950,3531,6050,3444,6000,3357,6050,3444,6100,3531,6150,3617,6100,3617,6000,3704,5950,3704,6050,3790,6100,3790,6000,3790,5900,3704,5850,3704,5750,3790,5700,3790,5800,3877,5850,3877,5750,3877,5650,3790,5600,3704,5650,3617,5600,3531,5550,3617,5500,3704,5550,3704,5450,3617,5400,3617,5300,3704,5250,3704,5350,3790,5400,3790,5300,3790,5200,3704,5150,3704,5050,3790,5000,3877,4950,3877,5050,3790,5100,3877,5150,3964,5100,4050,5150,4050,5250,4050,5350,3964,5300,3964,5200,3877,5250,3877,5350,3964,5400,3964,5500,3877,5450,3790,5500,3877,5550,3964,5600,4050,5550,4050,5450,4137,5400,4137,5500,4223,5550,4223,5450,4223,5350,4137,5300,4137,5200,4223,5150,4223,5250,4310,5300,4310,5200,4310,5100,4223,5050,4137,5100,4050,5050,3964,5000,4050,4950,4137,5000,4137,4900,4050,4850,3964,4900,3877,4850,3964,4800,3964,4700,3877,4750,3790,4800,3790,4900,3704,4950,3617,4900,3531,4850,3617,4800,3704,4850,3704,4750,3617,4700,3531,4750,3444,4700,3357,4650,3444,4600,3531,4650,3531,4550,3444,4500,3444,4400,3531,4350,3617,4300,3617,4400,3531,4450,3617,4500,3704,4450,3790,4500,3790,4600,3704,4550,3617,4600,3704,4650,3790,4700,3877,4650,3877,4550,3964,4500,3964,4600,4050,4650,4050,4550,4050,4450,3964,4400,3877,4450,3790,4400,3704,4350,3790,4300,3877,4350,3877,4250,3790,4200,3790,4100,3877,4050,3877,4150,3964,4200,3964,4100,3964,4000,3877,3950,3877,3850,3964,3800,4050,3750,4050,3850,3964,3900,4050,3950,4137,3900,4223,3950,4223,4050,4223,4150,4137,4100,4137,4000,4050,4050,4050,4150,4137,4200,4137,4300,4050,4250,3964,4300,4050,4350,4137,4400,4223,4350,4223,4250,4310,4200,4310,4300,4397,4350,4397,4250,4397,4150,4310,4100,4310,4000,4397,3950,4397,4050,4483,4100,4483,4000,4483,3900,4397,3850,4310,3900,4223,3850,4137,3800,4223,3750,4310,3800,4310,3700,4223,3650,4223,3550,4310,3500,4310,3600,4397,3650,4397,3550,4397,3450,4310,3400,4310,3300,4397,3250,4483,3200,4483,3300,4397,3350,4483,3400,4570,3350,4570,3250,4656,3200,4743,3150,4743,3250,4656,3300,4743,3350,4830,3300,4916,3350,4916,3450,4916,3550,4830,3500,4830,3400,4743,3450,4743,3550,4656,3600,4570,3550,4656,3500,4656,3400,4570,3450,4483,3500,4483,3600,4570,3650,4570,3750,4483,3700,4397,3750,4483,3800,4570,3850,4656,3800,4656,3700,4743,3650,4830,3600,4830,3700,4743,3750,4830,3800,4916,3750,5003,3800,5003,3900,4916,3850,4830,3900,4916,3950,5003,4000,5089,3950,5176,4000,5176,4100,5176,4200,5089,4150,5089,4050,5003,4100,5003,4200,5089,4250,5089,4350,5089,4450,5003,4400,5003,4300,4916,4350,4916,4450,4830,4500,4743,4450,4656,4400,4743,4350,4830,4400,4830,4300,4743,4250,4743,4150,4830,4100,4830,4200,4916,4250,4916,4150,4916,4050,4830,4000,4743,4050,4656,4000,4743,3950,4743,3850,4656,3900,4570,3950,4570,4050,4656,4100,4656,4200,4656,4300,4570,4250,4570,4150,4483,4200,4483,4300,4570,4350,4570,4450,4483,4400,4397,4450,4483,4500,4570,4550,4656,4500,4743,4550,4743,4650,4743,4750,4656,4700,4656,4600,4570,4650,4570,4750,4483,4800,4397,4750,4310,4700,4397,4650,4483,4700,4483,4600,4397,4550,4310,4600,4223,4550,4310,4500,4310,4400,4223,4450,4137,4500,4137,4600,4223,4650,4223,4750,4137,4700,4050,4750,4137,4800,4223,4850,4310,4800,4397,4850,4397,4950,4310,4900,4223,4950,4310,5000,4397,5050,4483,5000,4483,4900,4570,4850,4656,4800,4656,4900,4570,4950,4656,5000,4743,4950,4743,4850,4830,4800,4830,4900,4916,4950,4916,4850,4916,4750,4830,4700,4830,4600,4916,4550,5003,4500,5003,4600,4916,4650,5003,4700,5089,4650,5176,4700,5176,4800,5176,4900,5089,4850,5089,4750,5003,4800,5003,4900,5089,4950,5089,5050,5003,5000,4916,5050,5003,5100,5089,5150,5176,5100,5176,5000,5263,4950,5263,5050,5349,5100,5349,5000,5349,4900,5263,4850,5263,4750,5349,4700,5349,4800,5436,4850,5436,4750,5436,4650,5349,4600,5263,4650,5176,4600,5089,4550,5176,4500,5263,4550,5263,4450,5176,4400,5176,4300,5263,4250,5263,4350,5349,4400,5349,4300,5349,4200,5263,4150,5263,4050,5349,4000,5436,3950,5436,4050,5349,4100,5436,4150,5522,4100,5609,4150,5609,4250,5609,4350,5522,4300,5522,4200,5436,4250,5436,4350,5522,4400,5522,4500,5436,4450,5349,4500,5436,4550,5522,4600,5609,4550,5609,4450,5696,4400,5696,4500,5782,4550,5782,4450,5782,4350,5696,4300,5696,4200,5782,4150,5782,4250,5869,4300,5869,4200,5869,4100,5782,4050,5696,4100,5609,4050,5522,4000,5609,3950,5696,4000,5696,3900,5609,3850,5522,3900,5436,3850,5522,3800,5522,3700,5436,3750,5349,3800,5349,3900,5263,3950,5176,3900,5089,3850,5176,3800,5263,3850,5263,3750,5176,3700,5089,3750,5003,3700,4916,3650,5003,3600,5089,3650,5089,3550,5003,3500,5003,3400,5089,3350,5176,3300,5176,3400,5089,3450,5176,3500,5263,3450,5349,3500,5349,3600,5263,3550,5176,3600,5263,3650,5349,3700,5436,3650,5436,3550,5522,3500,5522,3600,5609,3650,5609,3550,5609,3450,5522,3400,5436,3450,5349,3400,5263,3350,5349,3300,5436,3350,5436,3250,5349,3200,5263,3250,5176,3200,5263,3150,5263,3050,5176,3100,5089,3150,5089,3250,5003,3300,4916,3250,4830,3200,4916,3150,5003,3200,5003,3100,4916,3050,4916,2950,5003,2900,5089,2850,5089,2950,5003,3000,5089,3050,5176,3000,5176,2900,5263,2850,5263,2950,5349,3000,5349,2900,5349,2800,5263,2750,5176,2800,5089,2750,5176,2700,5176,2600,5089,2650,5003,2700,5003,2800,4916,2850,4830,2800,4916,2750,4916,2650,4830,2700,4743,2750,4743,2850,4830,2900,4830,3000,4830,3100,4743,3050,4743,2950,4656,3000,4656,3100,4570,3150,4483,3100,4570,3050,4570,2950,4483,3000,4397,3050,4397,3150,4310,3200,4223,3150,4137,3100,4223,3050,4310,3100,4310,3000,4223,2950,4137,3000,4050,2950,3964,2900,4050,2850,4137,2900,4137,2800,4050,2750,4050,2650,4137,2600,4223,2550,4223,2650,4137,2700,4223,2750,4310,2700,4397,2750,4397,2850,4310,2800,4223,2850,4310,2900,4397,2950,4483,2900,4483,2800,4570,2750,4570,2850,4656,2900,4656,2800,4656,2700,4570,2650,4483,2700,4397,2650,4310,2600,4397,2550,4483,2600,4483,2500,4397,2450,4310,2500,4223,2450,4310,2400,4310,2300,4223,2350,4137,2400,4137,2500,4050,2550,3964,2500,3877,2450,3964,2400,4050,2450,4050,2350,3964,2300,3877,2350,3790,2300,3704,2250,3790,2200,3877,2250,3877,2150,3790,2100,3790,2000,3877,1950,3964,1900,3964,2000,3877,2050,3964,2100,4050,2050,4137,2100,4137,2200,4050,2150,3964,2200,4050,2250,4137,2300,4223,2250,4223,2150,4310,2100,4310,2200,4397,2250,4397,2150,4397,2050,4310,2000,4223,2050,4137,2000,4050,1950,4137,1900,4223,1950,4223,1850,4137,1800,4137,1700,4223,1650,4223,1750,4310,1800,4310,1700,4310,1600,4223,1550,4223,1450,4310,1400,4397,1350,4397,1450,4310,1500,4397,1550,4483,1500,4483,1400,4570,1350,4656,1300,4656,1400,4570,1450,4656,1500,4743,1450,4830,1500,4830,1600,4830,1700,4743,1650,4743,1550,4656,1600,4656,1700,4570,1750,4483,1700,4570,1650,4570,1550,4483,1600,4397,1650,4397,1750,4483,1800,4483,1900,4397,1850,4310,1900,4397,1950,4483,2000,4570,1950,4570,1850,4656,1800,4743,1750,4743,1850,4656,1900,4743,1950,4830,1900,4916,1950,4916,2050,4830,2000,4743,2050,4830,2100,4916,2150,5003,2100,5089,2150,5089,2250,5089,2350,5003,2300,5003,2200,4916,2250,4916,2350,4830,2400,4743,2350,4656,2300,4743,2250,4830,2300,4830,2200,4743,2150,4656,2200,4570,2150,4656,2100,4656,2000,4570,2050,4483,2100,4483,2200,4570,2250,4570,2350,4483,2300,4397,2350,4483,2400,4570,2450,4656,2400,4743,2450,4743,2550,4656,2500,4570,2550,4656,2600,4743,2650,4830,2600,4830,2500,4916,2450,5003,2400,5003,2500,4916,2550,5003,2600,5089,2550,5089,2450,5176,2400,5176,2500,5263,2550,5263,2450,5263,2350,5176,2300,5176,2200,5263,2150,5349,2100,5349,2200,5263,2250,5349,2300,5436,2250,5522,2300,5522,2400,5522,2500,5436,2450,5436,2350,5349,2400,5349,2500,5436,2550,5436,2650,5349,2600,5263,2650,5349,2700,5436,2750,5522,2700,5522,2600,5609,2550,5609,2650,5696,2700,5696,2600,5696,2500,5609,2450,5609,2350,5696,2300,5696,2400,5782,2450,5782,2350,5782,2250,5696,2200,5609,2250,5522,2200,5436,2150,5522,2100,5609,2150,5609,2050,5522,2000,5436,2050,5349,2000,5436,1950,5436,1850,5349,1900,5263,1950,5263,2050,5176,2100,5089,2050,5003,2000,5089,1950,5176,2000,5176,1900,5089,1850,5003,1900,4916,1850,4830,1800,4916,1750,5003,1800,5003,1700,4916,1650,4916,1550,5003,1500,5089,1450,5089,1550,5003,1600,5089,1650,5176,1600,5263,1650,5263,1750,5176,1700,5089,1750,5176,1800,5263,1850,5349,1800,5349,1700,5436,1650,5436,1750,5522,1800,5522,1700,5522,1600,5436,1550,5349,1600,5263,1550,5176,1500,5263,1450,5349,1500,5349,1400,5263,1350,"
       transform="matrix(0.046258,0,0,0.046258,-3.5653873,757.45346)"
       style="fill-opacity:0;stroke:#000000;stroke-width:30;stroke-linejoin:round" />
  </g>
  <WCB
     pausedposy="0"
     pausedposx="0"
     lastknownposy="0"
     lastknownposx="0"
     lastpathnc="0"
     lastpath="0"
     node="0"
     layer="0" />
</svg>
