<?xml version="1.0" encoding="UTF-8" standalone="no"?>
<!-- Created with Inkscape (http://www.inkscape.org/) -->

<svg
   xmlns:dc="http://purl.org/dc/elements/1.1/"
   xmlns:cc="http://creativecommons.org/ns#"
   xmlns:rdf="http://www.w3.org/1999/02/22-rdf-syntax-ns#"
   xmlns:svg="http://www.w3.org/2000/svg"
   xmlns="http://www.w3.org/2000/svg"
   xmlns:sodipodi="http://sodipodi.sourceforge.net/DTD/sodipodi-0.dtd"
   xmlns:inkscape="http://www.inkscape.org/namespaces/inkscape"
   width="11in"
   height="8.5in"
   viewBox="0 0 11 8.5"
   id="svg4270"
   version="1.1"
   inkscape:version="0.91 r13725"
   sodipodi:docname="Gosper Curve.svg">
  <defs
     id="defs4272" />
  <sodipodi:namedview
     inkscape:document-units="in"
     pagecolor="#ffffff"
     bordercolor="#666666"
     borderopacity="1.0"
     inkscape:pageopacity="0.0"
     inkscape:pageshadow="2"
     inkscape:zoom="0.43415836"
     inkscape:cx="-52.428804"
     inkscape:cy="380"
     inkscape:current-layer="layer1"
     id="namedview4274"
     showgrid="false"
     inkscape:window-width="1680"
     inkscape:window-height="1005"
     inkscape:window-x="0"
     inkscape:window-y="1"
     inkscape:window-maximized="1" />
  <metadata
     id="metadata4276">
    <rdf:RDF>
      <cc:Work
         rdf:about="">
        <dc:format>image/svg+xml</dc:format>
        <dc:type
           rdf:resource="http://purl.org/dc/dcmitype/StillImage" />
        <dc:title></dc:title>
      </cc:Work>
    </rdf:RDF>
  </metadata>
  <g
     inkscape:label="Layer 1"
     inkscape:groupmode="layer"
     id="layer1">
    <path
       inkscape:connector-curvature="0"
       style="fill-opacity:0;stroke:#000000;stroke-width:0.01541933;stroke-linejoin:round"
       d="m 2.3035224,3.2976023 0,-0.1190496 0.1024016,-0.059525 0,0.1190498 0.1035923,0.059525 0,-0.1190496 0,-0.1190498 -0.1035923,-0.059525 0,-0.1190498 0.1035923,-0.059525 0.1024016,-0.059525 0,0.1190498 -0.1024016,0.059525 0.1024016,0.059525 0.1035922,-0.059525 0.1035923,0.059525 0,0.1190498 0,0.1190498 -0.1035923,-0.059525 0,-0.1190498 -0.1035922,0.059525 0,0.1190498 0.1035922,0.059525 0,0.1190498 -0.1035922,-0.059525 -0.1024016,0.059525 0.1024016,0.059525 0.1035922,0.059525 0.1035923,-0.059525 0,-0.1190498 0.1024016,-0.059525 0,0.1190498 0.1035923,0.059525 0,-0.1190498 0,-0.1190496 -0.1035923,-0.059525 0,-0.1190498 0.1035923,-0.059525 0,0.1190498 0.1024015,0.059525 0,-0.1190498 0,-0.1190498 -0.1024015,-0.059525 -0.1035923,0.059525 -0.1024016,-0.059525 -0.1035923,-0.059525 0.1035923,-0.059525 0.1024016,0.059525 0,-0.1190497 -0.1024016,-0.059525 0,-0.1190498 0.1024016,-0.059525 0,0.1190498 0.1035923,0.059525 0,-0.1190498 0,-0.1190498 -0.1035923,-0.059525 0,-0.1190497 0.1035923,-0.059525 0.1024015,-0.059525 0,0.1190498 -0.1024015,0.059525 0.1024015,0.059525 0.1035923,-0.059525 0,-0.1190497 0.1035923,-0.059525 0.1024016,-0.059525 0,0.1190497 -0.1024016,0.059525 0.1024016,0.059525 0.1035923,-0.059525 0.1024016,0.059525 0,0.1190498 0,0.1190498 -0.1024016,-0.059525 0,-0.1190498 -0.1035923,0.059525 0,0.1190498 -0.1024016,0.059525 -0.1035923,-0.059525 0.1035923,-0.059525 0,-0.1190498 -0.1035923,0.059525 -0.1035923,0.059525 0,0.1190498 0.1035923,0.059525 0,0.1190496 -0.1035923,-0.059525 -0.1024015,0.059525 0.1024015,0.059525 0.1035923,0.059525 0.1035923,-0.059525 0,-0.1190497 0.1024016,-0.059525 0.1035923,-0.059525 0,0.1190497 -0.1035923,0.059525 0.1035923,0.059525 0.1024016,-0.059525 0.1035922,0.059525 0,0.1190498 -0.1035922,-0.059525 -0.1024016,0.059525 0.1024016,0.059525 0.1035922,0.059525 0.1035923,-0.059525 0.1024016,0.059525 0,0.1190498 0,0.1190496 -0.1024016,-0.059525 0,-0.1190498 -0.1035923,0.059525 0,0.1190496 0.1035923,0.059525 0,0.1190498 0,0.1190498 -0.1035923,-0.059525 0,-0.1190498 -0.1035922,0.059525 0,0.1190498 -0.1024016,0.059525 -0.1035923,-0.059525 -0.1024016,-0.059525 0.1024016,-0.059525 0.1035923,0.059525 0,-0.1190498 -0.1035923,-0.059525 0,-0.1190496 0.1035923,-0.059525 0,0.1190496 0.1024016,0.059525 0,-0.1190496 0,-0.1190498 -0.1024016,-0.059525 -0.1035923,0.059525 -0.1024016,-0.059525 0.1024016,-0.059525 0,-0.1190498 -0.1024016,0.059525 -0.1035923,0.059525 0,0.1190498 0.1035923,0.059525 0,0.1190496 0,0.1190498 -0.1035923,-0.059525 0,-0.1190496 -0.1035923,0.059525 0,0.1190498 0.1035923,0.059525 0,0.1190498 -0.1035923,-0.059525 -0.1024015,0.059525 0.1024015,0.059525 0.1035923,0.059525 0.1035923,-0.059525 0.1024016,0.059525 0,0.1190497 0,0.1190497 -0.1024016,-0.059525 0,-0.1190497 -0.1035923,0.059525 0,0.1190497 -0.1035923,0.059524 -0.1024015,-0.059525 -0.1035923,-0.059525 0.1035923,-0.059525 0.1024015,0.059525 0,-0.1190497 -0.1024015,-0.059525 -0.1035923,0.059525 -0.1024016,-0.059525 0.1024016,-0.059525 0,-0.1190498 -0.1024016,0.059525 -0.1035923,0.059525 0,0.1190497 0.1035923,0.059525 0,0.1190497 -0.1035923,-0.059525 -0.1035922,0.059525 0.1035922,0.059525 0.1035923,0.059525 0.1024016,-0.059525 0.1035923,0.059525 0,0.1190498 L 2.921504,4.130951 2.8191024,4.190476 2.921504,4.250001 3.0250963,4.309526 3.1274978,4.250001 l 0,-0.1190497 0.1035923,-0.059525 0.1035923,-0.059525 0,0.1190498 -0.1035923,0.059525 0.1035923,0.059525 0.1024016,-0.059525 0,-0.1190498 0.1035923,-0.059525 0,0.1190498 0.1024016,0.059525 0,-0.1190498 0,-0.1190498 -0.1024016,-0.059525 0,-0.1190497 0.1024016,-0.059525 0.1035922,-0.059525 0,0.1190497 -0.1035922,0.059525 0.1035922,0.059525 0.1035923,-0.059525 0.1024016,0.059525 0,0.1190498 0,0.1190498 -0.1024016,-0.059525 0,-0.1190498 -0.1035923,0.059525 0,0.1190498 0.1035923,0.059525 0,0.1190497 -0.1035923,-0.059525 -0.1035922,0.059525 0.1035922,0.059525 0.1035923,0.059525 0.1024016,-0.059525 0,-0.1190498 0.1035922,-0.059525 0,0.1190497 0.1024017,0.059525 0,-0.1190498 0,-0.1190497 -0.1024017,-0.059525 0,-0.1190498 0.1024017,-0.059525 0,0.1190498 0.1035922,0.059525 0,-0.1190498 0,-0.1190497 L 4.1586579,3.7738017 4.0562562,3.8333267 3.952664,3.7738017 3.8502624,3.7142767 3.952664,3.6547517 l 0.1035922,0.059525 0,-0.1190498 -0.1035922,-0.059525 0,-0.1190498 0.1035922,-0.059525 0,0.1190498 0.1024017,0.059525 0,-0.1190498 0,-0.1190498 -0.1024017,-0.059525 0,-0.1190498 0.1024017,-0.059525 0.1035922,-0.059525 0,0.1190498 -0.1035922,0.059525 0.1035922,0.059525 0.1035923,-0.059525 0.1024016,0.059525 0,0.1190496 0,0.1190498 -0.1024016,-0.059525 0,-0.1190498 -0.1035923,0.059525 0,0.1190498 0.1035923,0.059525 0,0.1190498 -0.1035923,-0.059525 -0.1035922,0.059525 0.1035922,0.059525 0.1035923,0.059525 0.1024016,-0.059525 0,-0.1190498 0.1035922,-0.059525 0,0.1190498 0.1024016,0.059525 0,-0.1190498 0,-0.1190498 -0.1024016,-0.059525 0,-0.1190498 0.1024016,-0.059525 0,0.1190496 0.1035923,0.059525 0,-0.1190498 0,-0.1190496 L 4.6742378,3.1190273 4.5718362,3.1785523 4.468244,3.1190273 4.3658424,3.0595023 4.468244,2.9999773 l 0.1035922,0.059525 0,-0.1190498 -0.1035922,-0.059525 -0.1024016,0.059525 -0.1035923,-0.059525 0.1035923,-0.059525 0,-0.1190497 -0.1035923,0.059525 -0.1035922,0.059525 0,0.1190498 -0.1024017,0.059525 -0.1035922,-0.059525 -0.1024016,-0.059525 0.1024016,-0.059525 0.1035922,0.059525 0,-0.1190498 -0.1035922,-0.059524 -0.1024016,0.059525 -0.1035923,-0.059525 -0.1035922,-0.059525 0.1035922,-0.059525 0.1035923,0.059525 0,-0.1190498 -0.1035923,-0.059525 0,-0.1190498 0.1035923,-0.059525 0.1024016,-0.059525 0,0.1190497 -0.1024016,0.059525 0.1024016,0.059525 0.1035922,-0.059525 0.1024017,0.059525 0,0.1190498 -0.1024017,-0.059525 -0.1035922,0.059525 0.1035922,0.059525 0.1024017,0.059525 0.1035922,-0.059525 0,-0.1190498 0.1035923,-0.059525 0,0.1190498 0.1024016,0.059525 0,-0.1190498 0,-0.1190498 -0.1024016,-0.059525 -0.1035923,0.059525 -0.1035922,-0.059525 -0.1024017,-0.059525 0.1024017,-0.059525 0.1035922,0.059525 0,-0.1190497 -0.1035922,-0.059525 0,-0.1190497 0.1035922,-0.059525 0,0.1190498 0.1035923,0.059525 0,-0.1190497 0,-0.1190498 -0.1035923,-0.059525 0,-0.1190497 0.1035923,-0.059525 0.1024016,-0.059525 0,0.1190497 -0.1024016,0.059525 0.1024016,0.059525 0.1035922,-0.059525 0.1024016,0.059525 0,0.1190498 0,0.1190498 -0.1024016,-0.059525 0,-0.1190498 -0.1035922,0.059525 0,0.1190498 0.1035922,0.059525 0,0.1190498 -0.1035922,-0.059525 -0.1024016,0.059525 0.1024016,0.059525 0.1035922,0.059525 0.1024016,-0.059525 0,-0.1190497 0.1035923,-0.059525 0,0.1190498 0.1035922,0.059525 0,-0.1190497 0,-0.1190497 -0.1035922,-0.059525 0,-0.1190498 0.1035922,-0.059525 0,0.1190497 0.1024017,0.059525 0,-0.1190498 0,-0.1190497 -0.1024017,-0.059525 -0.1035922,0.059525 -0.1035923,-0.059525 -0.1024016,-0.059525 0.1024016,-0.059525 0.1035923,0.059525 0,-0.1190497 -0.1035923,-0.059525 0,-0.1190498 0.1035923,-0.059525 0,0.1190498 0.1035922,0.059525 0,-0.1190498 0,-0.1190498 -0.1035922,-0.059525 0,-0.1190497 0.1035922,-0.0595249 0.1024017,-0.0595249 0,0.11904979 -0.1024017,0.059525 0.1024017,0.059525 0.1035922,-0.059525 0,-0.11904979 0.1024016,-0.0595249 0.1035923,-0.0595249 0,0.11904976 -0.1035923,0.0595249 0.1035923,0.059525 0.1035922,-0.059525 0.1024016,0.059525 0,0.1190498 0,0.1190497 -0.1024016,-0.059525 0,-0.1190497 -0.1035922,0.059525 0,0.1190497 -0.1035923,0.059525 -0.1024016,-0.059525 0.1024016,-0.059525 0,-0.1190497 -0.1024016,0.059525 -0.1035922,0.059525 0,0.1190497 0.1035922,0.059525 0,0.1190498 -0.1035922,-0.059525 -0.1024017,0.059525 0.1024017,0.059525 0.1035922,0.059525 0.1024016,-0.059525 0,-0.1190498 0.1035923,-0.059525 0.1035922,-0.059525 0,0.1190498 -0.1035922,0.059525 0.1035922,0.059525 0.1024016,-0.059525 0,-0.1190498 0.1035923,-0.059525 0,0.1190498 0.1024016,0.059525 0,-0.1190498 0,-0.1190497 -0.1024016,-0.059525 0,-0.1190498 0.1024016,-0.059525 0.1035923,-0.059525 0,0.1190498 -0.1035923,0.059525 0.1035923,0.059525 0.1035922,-0.059525 0,-0.1190498 0.1024016,-0.059525 0.1035923,-0.0595249 0,0.11904976 -0.1035923,0.059525 0.1035923,0.059525 0.1024016,-0.059525 0.1035922,0.059525 0,0.1190497 0,0.1190498 -0.1035922,-0.059525 0,-0.1190498 -0.1024016,0.059525 0,0.1190498 -0.1035923,0.059525 -0.1024016,-0.059525 0.1024016,-0.059525 0,-0.1190498 -0.1024016,0.059525 -0.1035922,0.059525 0,0.1190498 0.1035922,0.059525 0,0.1190498 -0.1035922,-0.059525 -0.1035923,0.059525 0.1035923,0.059525 0.1035922,0.059525 0.1024016,-0.059525 0,-0.1190498 0.1035923,-0.059525 0.1024016,-0.059525 0,0.1190497 -0.1024016,0.059525 0.1024016,0.059525 0.1035922,-0.059525 0.1035923,0.059525 0,0.1190498 -0.1035923,-0.059525 -0.1035922,0.059525 0.1035922,0.059525 0.1035923,0.059525 0.1024016,-0.059525 0.1035923,0.059525 0,0.1190497 0,0.1190498 -0.1035923,-0.059525 0,-0.1190497 -0.1024016,0.059525 0,0.1190498 0.1024016,0.059525 0,0.1190498 0,0.1190498 -0.1024016,-0.059525 0,-0.1190498 -0.1035923,0.059525 0,0.1190498 -0.1035922,0.059525 -0.1024016,-0.059525 -0.1035923,-0.059525 0.1035923,-0.059525 0.1024016,0.059525 0,-0.1190498 -0.1024016,-0.059525 0,-0.1190497 0.1024016,-0.059525 0,0.1190498 0.1035922,0.059525 0,-0.1190497 0,-0.1190497 -0.1035922,-0.059525 -0.1024016,0.059525 -0.1035923,-0.059525 0.1035923,-0.059525 0,-0.1190498 -0.1035923,0.059525 -0.1024016,0.059525 0,0.1190498 0.1024016,0.059525 0,0.1190498 0,0.1190497 -0.1024016,-0.059525 0,-0.1190497 -0.1035922,0.059525 0,0.1190497 -0.1035923,0.059525 -0.1024016,-0.059525 0.1024016,-0.059525 0,-0.1190497 -0.1024016,0.059525 -0.1035923,0.059525 0,0.1190498 -0.1024016,0.059525 -0.1035922,-0.059525 -0.1035923,-0.059525 0.1035923,-0.059525 0.1035922,0.059525 0,-0.1190497 -0.1035922,-0.059525 0,-0.1190497 0.1035922,-0.059525 0.1024016,-0.059525 0,0.1190498 -0.1024016,0.059525 0.1024016,0.059525 0.1035923,-0.059525 0,-0.1190497 0.1024016,-0.059525 0,0.1190498 0.1035923,0.059525 0,-0.1190497 0,-0.1190498 -0.1035923,-0.059525 -0.1024016,0.059525 -0.1035923,-0.059525 0.1035923,-0.059525 0,-0.1190497 -0.1035923,0.059525 -0.1024016,0.059525 0,0.1190497 -0.1035922,0.059525 -0.1035923,-0.059525 0.1035923,-0.059525 0,-0.1190497 -0.1035923,0.059525 -0.1024016,0.059525 0,0.1190497 0.1024016,0.059525 0,0.1190497 0,0.1190498 -0.1024016,-0.059525 0,-0.1190497 -0.1035922,0.059525 0,0.1190498 0.1035922,0.059525 0,0.1190498 -0.1035922,-0.059525 -0.1024017,0.059525 0.1024017,0.059525 0.1035922,0.059525 0.1024016,-0.059525 0.1035923,0.059525 0,0.1190498 0,0.1190496 -0.1035923,-0.059525 0,-0.1190497 -0.1024016,0.059525 0,0.1190496 -0.1035922,0.059525 -0.1024017,-0.059525 -0.1035922,-0.059525 0.1035922,-0.059525 0.1024017,0.059525 0,-0.1190497 -0.1024017,-0.059526 -0.1035922,0.059525 -0.1035923,-0.059525 0.1035923,-0.059525 0,-0.1190498 -0.1035923,0.059525 -0.1024016,0.059525 0,0.1190498 0.1024016,0.059525 0,0.1190496 -0.1024016,-0.059525 -0.1035922,0.059525 0.1035922,0.059525 0.1024016,0.059525 0.1035923,-0.059525 0.1035922,0.059525 0,0.1190498 -0.1035922,-0.059525 -0.1035923,0.059525 0.1035923,0.059525 0.1035922,0.059525 0.1024017,-0.059525 0,-0.1190498 0.1035922,-0.059525 0.1024016,-0.059525 0,0.1190498 -0.1024016,0.059525 0.1024016,0.059525 0.1035923,-0.059525 0,-0.1190498 0.1035922,-0.059525 0,0.1190498 0.1024016,0.059525 0,-0.1190498 0,-0.1190498 -0.1024016,-0.059525 0,-0.1190497 0.1024016,-0.059525 0.1035923,-0.059525 0,0.1190498 -0.1035923,0.059525 0.1035923,0.059525 0.1024016,-0.059525 0,-0.1190498 0.1035923,-0.059525 0.1035922,-0.059525 0,0.1190498 -0.1035922,0.059525 0.1035922,0.059525 0.1024016,-0.059525 0.1035923,0.059525 0,0.1190496 0,0.1190498 -0.1035923,-0.059525 0,-0.1190497 -0.1024016,0.059525 0,0.1190498 -0.1035922,0.059525 -0.1035923,-0.059525 0.1035923,-0.059525 0,-0.1190497 -0.1035923,0.059525 -0.1024016,0.059525 0,0.1190498 0.1024016,0.059525 0,0.1190498 -0.1024016,-0.059525 -0.1035923,0.059525 0.1035923,0.059525 0.1024016,0.059525 0.1035923,-0.059525 0,-0.1190498 0.1035922,-0.059525 0.1024016,-0.059525 0,0.1190498 -0.1024016,0.059525 0.1024016,0.059525 0.1035923,-0.059525 0.1024016,0.059525 0,0.1190496 L 6.1185762,3.238078 6.0149839,3.297603 6.1185762,3.357128 6.2209778,3.416653 6.32457,3.357128 l 0.1035923,0.059525 0,0.1190498 0,0.1190498 -0.1035923,-0.059525 0,-0.1190498 -0.1035922,0.059525 0,0.1190498 -0.1024016,0.059525 -0.1035923,-0.059525 -0.1024016,-0.059525 0.1024016,-0.059525 0.1035923,0.059525 0,-0.1190498 -0.1035923,-0.059525 -0.1024016,0.059525 -0.1035922,-0.059525 0.1035922,-0.059525 0,-0.1190496 -0.1035922,0.059525 -0.1035923,0.059525 0,0.1190498 0.1035923,0.059525 0,0.1190498 -0.1035923,-0.059525 -0.1024016,0.059525 0.1024016,0.059525 0.1035923,0.059525 0.1035922,-0.059525 0.1024016,0.059525 0,0.1190497 -0.1024016,-0.059525 -0.1035922,0.059525 0.1035922,0.059525 0.1024016,0.059525 0.1035923,-0.059525 0,-0.1190497 0.1024016,-0.059525 0.1035922,-0.059525 0,0.1190497 -0.1035922,0.059525 0.1035922,0.059525 0.1035923,-0.059525 0.1024016,0.059525 0,0.1190498 -0.1024016,-0.059525 -0.1035923,0.059525 0.1035923,0.059525 0.1024016,0.059525 0.1035923,-0.059525 0.1024016,0.059525 0,0.1190497 0,0.1190498 -0.1024016,-0.059525 0,-0.1190498 -0.1035923,0.059525 0,0.1190498 0.1035923,0.059525 0,0.1190498 0,0.1190497 -0.1035923,-0.059525 0,-0.1190498 -0.1024016,0.059525 0,0.1190497 L 6.32457,4.7857262 6.2209778,4.7262012 6.1185762,4.6666762 6.2209778,4.6071512 6.32457,4.6666762 l 0,-0.1190498 -0.1035922,-0.059525 0,-0.1190497 0.1035922,-0.059525 0,0.1190498 0.1035923,0.059525 0,-0.1190497 0,-0.1190498 L 6.32457,4.190477 6.2209778,4.250002 6.1185762,4.190477 6.2209778,4.130952 l 0,-0.1190498 -0.1024016,0.059525 -0.1035923,0.059525 0,0.1190497 0.1035923,0.059525 0,0.1190498 0,0.1190497 -0.1035923,-0.059525 0,-0.1190497 -0.1024016,0.059525 0,0.1190497 0.1024016,0.059525 0,0.1190497 -0.1024016,-0.059525 -0.1035922,0.059525 0.1035922,0.059525 0.1024016,0.059525 0.1035923,-0.059525 0.1024016,0.059525 0,0.1190498 0,0.1190497 -0.1024016,-0.059525 0,-0.1190498 -0.1035923,0.059525 0,0.1190497 0.1035923,0.059525 0,0.1190497 0,0.1190498 -0.1035923,-0.059525 0,-0.1190498 -0.1024016,0.059525 0,0.1190498 L 5.8089901,5.4405 5.7053978,5.380975 5.6029962,5.32145 5.7053978,5.261925 5.8089901,5.32145 l 0,-0.1190498 -0.1035923,-0.059525 0,-0.1190497 0.1035923,-0.059525 0,0.1190497 0.1035922,0.059525 0,-0.1190497 0,-0.1190498 -0.1035922,-0.059525 -0.1035923,0.059525 -0.1024016,-0.059525 0.1024016,-0.059525 0,-0.1190497 -0.1024016,0.059525 -0.1035923,0.059525 0,0.1190498 0.1035923,0.059525 0,0.1190497 0,0.1190497 -0.1035923,-0.059525 0,-0.1190497 -0.1024016,0.059525 0,0.1190497 -0.1035922,0.059525 -0.1035923,-0.059525 0.1035923,-0.059525 0,-0.1190497 -0.1035923,0.059525 -0.1024016,0.059525 0,0.1190497 -0.1035922,0.059525 -0.1024017,-0.059525 -0.1035922,-0.059525 0.1035922,-0.059525 0.1024017,0.059525 0,-0.1190497 -0.1024017,-0.059527 -0.1035922,0.059525 -0.1035923,-0.059525 -0.1024016,-0.059525 0.1024016,-0.059525 0.1035923,0.059525 0,-0.1190498 -0.1035923,-0.059525 0,-0.1190497 0.1035923,-0.059525 0.1035922,-0.059525 0,0.1190498 -0.1035922,0.059525 0.1035922,0.059525 0.1024017,-0.059525 0.1035922,0.059525 0,0.1190498 -0.1035922,-0.059525 -0.1024017,0.059525 0.1024017,0.059525 0.1035922,0.059525 0.1024016,-0.059525 0,-0.1190498 0.1035923,-0.059525 0,0.1190498 0.1035922,0.059525 0,-0.1190498 0,-0.1190498 -0.1035922,-0.059525 -0.1035923,0.059525 -0.1024016,-0.059525 -0.1035922,-0.059525 0.1035922,-0.059525 0.1024016,0.059525 0,-0.1190498 -0.1024016,-0.059525 0,-0.1190498 0.1024016,-0.059525 0,0.1190498 0.1035923,0.059525 0,-0.1190498 0,-0.1190497 -0.1035923,-0.059525 0,-0.1190498 0.1035923,-0.059525 0.1035922,-0.059525 0,0.1190498 -0.1035922,0.059525 0.1035922,0.059525 0.1024016,-0.059525 0.1035923,0.059525 0,0.1190497 0,0.1190498 -0.1035923,-0.059525 0,-0.1190497 L 5.3970023,4.25 l 0,0.1190498 0.1024016,0.059525 0,0.1190497 -0.1024016,-0.059525 -0.1035922,0.059525 0.1035922,0.059525 0.1024016,0.059525 0.1035923,-0.059525 0,-0.1190498 0.1024016,-0.059525 0,0.1190497 0.1035923,0.059525 0,-0.1190498 0,-0.1190497 -0.1035923,-0.059525 0,-0.1190497 0.1035923,-0.059525 0,0.1190497 0.1035922,0.059525 0,-0.1190497 0,-0.1190498 L 5.8089901,4.0119009 5.7053978,4.0714258 5.6029962,4.0119009 5.4994039,3.952376 5.6029962,3.892851 l 0.1024016,0.059525 0,-0.1190497 -0.1024016,-0.059525 -0.1035923,0.059525 -0.1024016,-0.059525 0.1024016,-0.059525 0,-0.1190498 -0.1024016,0.059525 -0.1035922,0.059525 0,0.1190497 -0.1035923,0.059525 -0.1024016,-0.059525 -0.1035922,-0.059525 0.1035922,-0.059525 0.1024016,0.059525 0,-0.1190497 -0.1024016,-0.059525 0,-0.1190498 0.1024016,-0.059525 0.1035923,-0.059525 0,0.1190498 -0.1035923,0.059525 0.1035923,0.059525 0.1035922,-0.059525 0,-0.1190498 0.1024016,-0.059525 0,0.1190498 0.1035923,0.059525 0,-0.1190498 0,-0.1190498 -0.1035923,-0.059525 -0.1024016,0.059525 -0.1035922,-0.059525 0.1035922,-0.059525 0,-0.1190498 -0.1035922,0.059525 -0.1035923,0.059525 0,0.1190496 -0.1024016,0.059525 -0.1035922,-0.059525 0.1035922,-0.059525 0,-0.1190498 -0.1035922,0.059525 -0.1024017,0.059525 0,0.1190496 0.1024017,0.059525 0,0.1190498 0,0.1190498 -0.1024017,-0.059525 0,-0.1190498 -0.1035922,0.059525 0,0.1190498 0.1035922,0.059525 0,0.1190497 -0.1035922,-0.059525 -0.1035923,0.059525 0.1035923,0.059525 0.1035922,0.059525 0.1024017,-0.059525 0.1035922,0.059525 0,0.1190498 0,0.1190498 -0.1035922,-0.059525 0,-0.1190498 -0.1024017,0.059525 0,0.1190498 0.1024017,0.059525 0,0.1190498 0,0.1190497 -0.1024017,-0.059525 0,-0.1190498 -0.1035922,0.059525 0,0.1190497 -0.1035923,0.059525 -0.1024016,-0.059525 -0.1035922,-0.059525 0.1035922,-0.059525 0.1024016,0.059525 0,-0.1190498 L 4.5718362,4.25 l 0,-0.1190497 0.1024016,-0.059525 0,0.1190498 0.1035923,0.059525 0,-0.1190497 0,-0.1190498 -0.1035923,-0.059525 -0.1024016,0.059525 -0.1035922,-0.059525 0.1035922,-0.059525 0,-0.1190497 -0.1035922,0.059525 -0.1024016,0.059525 0,0.1190498 0.1024016,0.059525 0,0.1190498 0,0.1190497 -0.1024016,-0.059525 0,-0.1190497 -0.1035923,0.059525 0,0.1190497 0.1035923,0.059525 0,0.1190497 -0.1035923,-0.059525 -0.1035922,0.059525 0.1035922,0.059525 0.1035923,0.059525 0.1024016,-0.059525 0.1035922,0.059525 0,0.1190497 0,0.1190498 -0.1035922,-0.059525 0,-0.1190497 -0.1024016,0.059525 0,0.1190498 -0.1035923,0.059525 -0.1035922,-0.059525 -0.1024017,-0.059525 0.1024017,-0.059525 0.1035922,0.059525 0,-0.1190497 -0.1035922,-0.059525 -0.1024017,0.059525 -0.1035922,-0.059525 0.1035922,-0.059525 0,-0.1190497 -0.1035922,0.059525 -0.1024016,0.059525 0,0.1190498 0.1024016,0.059525 0,0.1190498 -0.1024016,-0.059525 -0.1035923,0.059525 0.1035923,0.059525 0.1024016,0.059525 0.1035922,-0.059525 0.1024017,0.059525 0,0.1190497 -0.1024017,-0.059525 -0.1035922,0.059525 0.1035922,0.059525 0.1024017,0.059525 0.1035922,-0.059525 0,-0.1190497 0.1035923,-0.059525 0.1024016,-0.059525 0,0.1190498 -0.1024016,0.059525 0.1024016,0.059525 0.1035922,-0.059525 0.1024016,0.059525 0,0.1190497 -0.1024016,-0.059525 -0.1035922,0.059525 0.1035922,0.059525 0.1024016,0.059525 0.1035923,-0.059525 0.1035922,0.059525 0,0.1190498 0,0.1190498 -0.1035922,-0.059525 0,-0.1190498 -0.1035923,0.059525 0,0.1190498 0.1035923,0.059525 0,0.1190498 0,0.1190498 -0.1035923,-0.059525 0,-0.1190498 -0.1024016,0.059525 0,0.1190498 -0.1035922,0.059525 -0.1024016,-0.059525 -0.1035923,-0.059525 0.1035923,-0.059525 0.1024016,0.059525 0,-0.1190498 -0.1024016,-0.059525 0,-0.1190496 0.1024016,-0.059525 0,0.1190498 0.1035922,0.059525 0,-0.1190496 0,-0.1190498 -0.1035922,-0.059525 -0.1024016,0.059525 -0.1035923,-0.059525 0.1035923,-0.059525 0,-0.1190498 -0.1035923,0.059525 -0.1035922,0.059525 0,0.1190498 0.1035922,0.059525 0,0.1190498 0,0.1190496 -0.1035922,-0.059525 0,-0.1190496 -0.1024017,0.059525 0,0.1190496 -0.1035922,0.059525 -0.1024016,-0.059525 0.1024016,-0.059525 0,-0.1190496 -0.1024016,0.059525 -0.1035923,0.059525 0,0.1190498 L 3.6430779,5.857174 3.5406763,5.797649 3.437084,5.738124 3.5406763,5.678599 l 0.1024016,0.059525 0,-0.1190496 L 3.5406763,5.5595478 3.437084,5.6190727 3.3346824,5.5595478 3.2310901,5.5000229 3.3346824,5.440498 3.437084,5.500023 l 0,-0.1190498 -0.1024016,-0.059525 0,-0.1190498 0.1024016,-0.059525 0.1035923,-0.059525 0,0.1190497 -0.1035923,0.059525 0.1035923,0.059525 0.1024016,-0.059525 0.1035922,0.059525 0,0.1190498 -0.1035922,-0.059525 -0.1024016,0.059525 0.1024016,0.059525 0.1035922,0.059525 0.1035923,-0.059525 0,-0.1190498 0.1024016,-0.059525 0,0.1190498 0.1035922,0.059525 0,-0.1190498 0,-0.1190498 -0.1035922,-0.059525 -0.1024016,0.059525 -0.1035923,-0.059525 -0.1035922,-0.059525 0.1035922,-0.059525 0.1035923,0.059525 0,-0.1190497 L 3.7466701,4.964299 3.6430779,5.0238239 3.5406763,4.964299 3.6430779,4.904774 l 0,-0.1190498 -0.1024016,0.059525 -0.1035923,0.059525 0,0.1190498 L 3.3346824,5.083349 3.2310901,5.023824 3.1274978,4.964299 3.2310901,4.904774 l 0.1035923,0.059525 0,-0.1190498 -0.1035923,-0.059525 0,-0.1190497 0.1035923,-0.059525 0.1024016,-0.059525 0,0.1190498 -0.1024016,0.059525 0.1024016,0.059525 0.1035923,-0.059525 0,-0.1190497 0.1024016,-0.059525 0,0.1190498 0.1035922,0.059525 0,-0.1190497 0,-0.1190498 -0.1035922,-0.059525 -0.1024016,0.059525 -0.1035923,-0.059525 0.1035923,-0.059525 0,-0.1190498 -0.1035923,0.059525 -0.1024016,0.059525 0,0.1190497 -0.1035923,0.059525 -0.1035923,-0.059525 0.1035923,-0.059525 0,-0.1190498 -0.1035923,0.059525 -0.1024015,0.059525 0,0.1190497 0.1024015,0.059525 0,0.1190497 0,0.1190498 -0.1024015,-0.059525 0,-0.1190497 -0.1035923,0.059525 0,0.1190498 0.1035923,0.059525 0,0.1190498 -0.1035923,-0.059525 -0.1024016,0.059525 0.1024016,0.059525 0.1035923,0.059525 0.1024015,-0.059525 0.1035923,0.059525 0,0.1190497 0,0.1190498 -0.1035923,-0.059525 0,-0.1190498 -0.1024015,0.059525 0,0.1190498 -0.1035923,0.059525 -0.1024016,-0.059525 -0.1035923,-0.059525 0.1035923,-0.059525 0.1024016,0.059525 0,-0.1190498 -0.1024016,-0.059525 -0.1035923,0.059525 -0.1035922,-0.059525 0.1035922,-0.059525 0,-0.1190497 -0.1035922,0.059525 -0.1024016,0.059525 0,0.1190497 0.1024016,0.059525 0,0.1190498 -0.1024016,-0.059525 -0.1035923,0.059525 0.1035923,0.059525 0.1024016,0.059525 0.1035922,-0.059525 0.1035923,0.059525 0,0.1190498 -0.1035923,-0.059525 -0.1035922,0.059525 0.1035922,0.059525 0.1035923,0.059525 0.1024016,-0.059525 0,-0.1190496 0.1035923,-0.059525 0.1024015,-0.059525 0,0.1190498 -0.1024015,0.059525 0.1024015,0.059525 0.1035923,-0.059525 0.1035923,0.059525 0,0.1190498 -0.1035923,-0.059525 -0.1035923,0.059525 0.1035923,0.059525 0.1035923,0.059525 0.1024016,-0.059525 0.1035923,0.059525 0,0.1190498 0,0.1190498 -0.1035923,-0.059525 0,-0.1190498 -0.1024016,0.059525 0,0.1190498 L 3.2310901,6.214323 3.1274978,6.154798 3.0250963,6.095273 3.1274978,6.035748 l 0.1035923,0.059525 0,-0.1190498 L 3.1274978,5.916697 3.0250963,5.9762219 2.921504,5.916697 l 0.1035923,-0.059525 0,-0.1190498 -0.1035923,0.059525 -0.1024016,0.059525 0,0.1190498 0.1024016,0.059525 0,0.1190498 -0.1024016,-0.059525 -0.1035923,0.059525 0.1035923,0.059525 0.1024016,0.059525 0.1035923,-0.059525 0.1024015,0.059525 0,0.1190498 -0.1024015,-0.059525 -0.1035923,0.059525 0.1035923,0.059525 0.1024015,0.059525 0.1035923,-0.059525 0,-0.1190498 0.1035923,-0.059525 0.1024016,-0.059525 0,0.1190497 -0.1024016,0.059525 0.1024016,0.059525 0.1035923,-0.059525 0,-0.1190498 0.1024016,-0.059525 0,0.1190497 0.1035922,0.059525 0,-0.1190498 0,-0.1190496 -0.1035922,-0.059525 0,-0.1190498 0.1035922,-0.059525 0.1035923,-0.059525 0,0.1190498 -0.1035923,0.059525 0.1035923,0.059525 0.1024016,-0.059525 0,-0.1190498 0.1035922,-0.059525 0.1024017,-0.059525 0,0.1190498 -0.1024017,0.059525 0.1024017,0.059525 0.1035922,-0.059525 0.1035923,0.059525 0,0.1190498 0,0.1190496 -0.1035923,-0.059525 0,-0.1190497 -0.1035922,0.059525 0,0.1190496 -0.1024017,0.059525 -0.1035922,-0.059525 0.1035922,-0.059525 0,-0.1190497 -0.1035922,0.059525 -0.1024016,0.059525 0,0.1190497 0.1024016,0.059525 0,0.1190498 -0.1024016,-0.059525 -0.1035923,0.059525 0.1035923,0.059525 0.1024016,0.059525 0.1035922,-0.059525 0,-0.1190498 0.1024017,-0.059525 0.1035922,-0.059525 0,0.1190498 -0.1035922,0.059525 0.1035922,0.059525 0.1035923,-0.059525 0,-0.1190498 0.1024016,-0.059525 0,0.1190498 0.1035922,0.059525 0,-0.1190498 0,-0.1190498 -0.1035922,-0.059525 0,-0.1190497 0.1035922,-0.059525 0.1024016,-0.059525 0,0.1190498 -0.1024016,0.059525 0.1024016,0.059525 0.1035923,-0.059525 0.1035922,0.059525 0,0.1190497 0,0.1190498 -0.1035922,-0.059525 0,-0.1190498 -0.1035923,0.059525 0,0.1190498 0.1035923,0.059525 0,0.1190498 -0.1035923,-0.059525 -0.1024016,0.059525 0.1024016,0.059525 0.1035923,0.059525 0.1035922,-0.059525 0,-0.1190497 0.1024017,-0.059525 0,0.1190498 0.1035922,0.059525 0,-0.1190497 0,-0.1190498 -0.1035922,-0.059525 0,-0.1190498 0.1035922,-0.059525 0,0.1190497 0.1024016,0.059525 0,-0.1190498 0,-0.1190496 -0.1024016,-0.059525 -0.1035922,0.059525 -0.1024017,-0.059525 -0.1035922,-0.059525 0.1035922,-0.059525 0.1024017,0.059525 0,-0.1190498 -0.1024017,-0.059525 0,-0.1190498 0.1024017,-0.059525 0,0.1190498 0.1035922,0.059525 0,-0.1190498 0,-0.1190496 -0.1035922,-0.059525 0,-0.1190498 0.1035922,-0.059525 0.1024016,-0.059525 0,0.1190498 -0.1024016,0.059525 0.1024016,0.059525 0.1035923,-0.059525 0,-0.1190498 0.1035922,-0.059525 0.1024016,-0.059525 0,0.1190498 -0.1024016,0.059525 0.1024016,0.059525 0.1035923,-0.059525 0.1024016,0.059525 0,0.1190498 0,0.1190496 -0.1024016,-0.059525 0,-0.1190496 -0.1035923,0.059525 0,0.1190496 -0.1024016,0.059525 -0.1035922,-0.059525 0.1035922,-0.059525 0,-0.1190496 -0.1035922,0.059525 -0.1035923,0.059525 0,0.1190498 0.1035923,0.059525 0,0.1190498 -0.1035923,-0.059525 -0.1024016,0.059525 0.1024016,0.059525 0.1035923,0.059525 0.1035922,-0.059525 0,-0.1190498 0.1024016,-0.059525 0.1035923,-0.059525 0,0.1190498 -0.1035923,0.059525 0.1035923,0.059525 0.1024016,-0.059525 0.1035923,0.059525 0,0.1190498 -0.1035923,-0.059525 -0.1024016,0.059525 0.1024016,0.059525 0.1035923,0.059525 0.1035922,-0.059525 0.1024016,0.059525 0,0.1190498 0,0.1190498 -0.1024016,-0.059525 0,-0.1190498 -0.1035922,0.059525 0,0.1190498 0.1035922,0.059525 0,0.1190497 0,0.1190498 -0.1035922,-0.059525 0,-0.1190497 -0.1035923,0.059525 0,0.1190498 -0.1024016,0.059525 -0.1035923,-0.059525 -0.1024016,-0.059525 0.1024016,-0.059525 0.1035923,0.059525 0,-0.1190497 -0.1035923,-0.059525 0,-0.1190498 0.1035923,-0.059525 0,0.1190498 0.1024016,0.059525 0,-0.1190498 0,-0.1190498 L 5.6029962,6.273847 5.4994039,6.333372 5.3970023,6.273847 5.4994039,6.214322 l 0,-0.1190497 -0.1024016,0.059525 -0.1035922,0.059525 0,0.1190497 0.1035922,0.059525 0,0.1190498 0,0.1190498 -0.1035922,-0.059525 0,-0.1190498 -0.1035923,0.059525 0,0.1190498 0.1035923,0.059525 0,0.1190498 -0.1035923,-0.059525 -0.1024016,0.059525 0.1024016,0.059525 0.1035923,0.059525 0.1035922,-0.059525 0.1024016,0.059525 0,0.1190498 0,0.1190497 -0.1024016,-0.059525 0,-0.1190498 -0.1035922,0.059525 0,0.1190497 -0.1035923,0.059525 -0.1024016,-0.059525 -0.1035922,-0.059525 0.1035922,-0.059525 0.1024016,0.059525 0,-0.1190498 L 5.0874162,6.928621 4.983824,6.988146 4.8814223,6.928621 4.983824,6.869096 l 0,-0.1190497 -0.1024017,0.059525 -0.1035922,0.059525 0,0.1190498 0.1035922,0.059525 0,0.1190497 -0.1035922,-0.059525 -0.1035923,0.059525 0.1035923,0.059525 0.1035922,0.059525 0.1024017,-0.059525 0.1035922,0.059525 0,0.1190498 -0.1035922,-0.059525 -0.1024017,0.059525 0.1024017,0.059525 0.1035922,0.059525 0.1024016,-0.059525 0,-0.1190497 0.1035923,-0.059525 0.1035922,-0.059525 0,0.1190498 -0.1035922,0.059525 0.1035922,0.059525 0.1024016,-0.059525 0,-0.1190498 0.1035923,-0.059525 0,0.1190498 0.1024016,0.059525 0,-0.1190498 0,-0.1190498 -0.1024016,-0.059525 0,-0.1190498 0.1024016,-0.059525 0.1035923,-0.059525 0,0.1190498 -0.1035923,0.059525 0.1035923,0.059525 0.1035922,-0.059525 0.1024016,0.059525 0,0.1190497 0,0.1190498 -0.1024016,-0.059525 0,-0.1190498 -0.1035922,0.059525 0,0.1190498 0.1035922,0.059525 0,0.1190497 -0.1035922,-0.059525 -0.1035923,0.059525 0.1035923,0.059525 0.1035922,0.059525 0.1024016,-0.059525 0,-0.1190498 0.1035923,-0.059525 0,0.1190497 0.1024016,0.059525 0,-0.1190498 0,-0.1190497 -0.1024016,-0.059525 0,-0.1190498 0.1024016,-0.059525 0,0.1190497 0.1035922,0.059525 0,-0.1190498 0,-0.1190497 -0.1035922,-0.059525 -0.1024016,0.059525 -0.1035923,-0.059525 -0.1024016,-0.059525 0.1024016,-0.059525 0.1035923,0.059525 0,-0.1190497 -0.1035923,-0.059525 0,-0.1190497 0.1035923,-0.059525 0,0.1190497 0.1024016,0.059525 0,-0.1190497 0,-0.1190498 -0.1024016,-0.059525 0,-0.1190498 0.1024016,-0.059525 0.1035922,-0.059525 0,0.1190497 -0.1035922,0.059525 0.1035922,0.059525 0.1035923,-0.059525 0.1024016,0.059525 0,0.1190498 0,0.1190497 -0.1024016,-0.059525 0,-0.1190498 -0.1035923,0.059525 0,0.1190497 0.1035923,0.059525 0,0.1190497 -0.1035923,-0.059525 -0.1035922,0.059525 0.1035922,0.059525 0.1035923,0.059525 0.1024016,-0.059525 0,-0.1190497 0.1035923,-0.059525 0,0.1190497 0.1024016,0.059525 0,-0.1190497 0,-0.1190498 -0.1024016,-0.059525 0,-0.1190498 0.1024016,-0.059525 0,0.1190498 0.1035922,0.059525 0,-0.1190498 0,-0.1190498 -0.1035922,-0.059525 -0.1024016,0.059525 -0.1035923,-0.059525 -0.1024016,-0.059525 0.1024016,-0.059525 0.1035923,0.059525 0,-0.1190496 -0.1035923,-0.059525 -0.1024016,0.059525 -0.1035923,-0.059525 0.1035923,-0.059525 0,-0.1190498 -0.1035923,0.059525 -0.1035922,0.059525 0,0.1190498 -0.1024016,0.059525 -0.1035923,-0.059525 -0.1024016,-0.059525 0.1024016,-0.059525 0.1035923,0.059525 0,-0.1190498 L 6.0149839,5.916697 5.9125823,5.9762219 5.8089901,5.916697 5.7053978,5.8571721 l 0.1035923,-0.059525 0.1035922,0.059525 0,-0.1190498 -0.1035922,-0.059525 0,-0.1190496 0.1035922,-0.059525 0.1024016,-0.059525 0,0.1190498 -0.1024016,0.059525 0.1024016,0.059525 0.1035923,-0.059525 0.1024016,0.059525 0,0.1190498 -0.1024016,-0.059525 -0.1035923,0.059525 0.1035923,0.059525 0.1024016,0.059525 0.1035922,-0.059525 0,-0.1190498 0.1035923,-0.059525 0,0.1190498 0.1024016,0.059525 0,-0.1190498 0,-0.1190496 L 6.4281623,5.559548 6.32457,5.619073 6.2209778,5.559548 6.1185762,5.500023 6.2209778,5.440498 6.32457,5.500023 l 0,-0.1190498 -0.1035922,-0.059525 0,-0.1190498 0.1035922,-0.059525 0,0.1190497 0.1035923,0.059525 0,-0.1190498 0,-0.1190497 -0.1035923,-0.059525 0,-0.1190498 0.1035923,-0.059525 0.1024016,-0.059525 0,0.1190498 -0.1024016,0.059525 0.1024016,0.059525 0.1035923,-0.059525 0.1024016,0.059525 0,0.1190497 0,0.1190497 -0.1024016,-0.059525 0,-0.1190497 -0.1035923,0.059525 0,0.1190497 0.1035923,0.059525 0,0.1190498 -0.1035923,-0.059525 -0.1024016,0.059525 0.1024016,0.059525 0.1035923,0.059525 0.1024016,-0.059525 0,-0.1190498 0.1035922,-0.059525 0,0.1190498 0.1035923,0.059525 0,-0.1190498 0,-0.1190498 -0.1035923,-0.059525 0,-0.1190497 0.1035923,-0.059525 0,0.1190497 0.1024016,0.059525 0,-0.1190497 0,-0.1190497 L 6.9437423,4.9047738 6.84015,4.9642988 6.7365578,4.9047738 6.6341562,4.8452488 6.7365578,4.7857238 6.84015,4.8452488 l 0,-0.1190498 -0.1035922,-0.059525 0,-0.1190498 0.1035922,-0.059525 0,0.1190498 0.1035923,0.059525 0,-0.1190498 0,-0.1190497 -0.1035923,-0.059525 0,-0.1190498 0.1035923,-0.059525 0.1024016,-0.059525 0,0.1190497 -0.1024016,0.059525 0.1024016,0.059525 0.1035922,-0.059525 0,-0.1190497 0.1024016,-0.059525 0.1035923,-0.059525 0,0.1190498 -0.1035923,0.059525 0.1035923,0.059525 0.1035923,-0.059525 0.1024016,0.059525 0,0.1190498 0,0.1190497 -0.1024016,-0.059525 0,-0.1190497 -0.1035923,0.059525 0,0.1190497 -0.1035923,0.059525 -0.1024016,-0.059525 0.1024016,-0.059525 0,-0.1190497 -0.1024016,0.059525 -0.1035922,0.059525 0,0.1190498 0.1035922,0.059525 0,0.1190497 -0.1035922,-0.059525 -0.1024016,0.059525 0.1024016,0.059525 0.1035922,0.059525 0.1024016,-0.059525 0,-0.1190498 0.1035923,-0.059525 0.1035923,-0.059525 0,0.1190497 -0.1035923,0.059525 0.1035923,0.059525 0.1024016,-0.059525 0.1035922,0.059525 0,0.1190498 -0.1035922,-0.059525 -0.1024016,0.059525 0.1024016,0.059525 0.1035922,0.059525 0.1024016,-0.059525 0.1035923,0.059525 0,0.1190497 0,0.1190498 -0.1035923,-0.059525 0,-0.1190497 -0.1024016,0.059525 0,0.1190498 0.1024016,0.059525 0,0.1190498 0,0.1190498 -0.1024016,-0.059525 0,-0.1190498 -0.1035922,0.059525 0,0.1190498 L 7.4593223,5.6785977 7.35573,5.6190727 7.2521377,5.5595477 7.35573,5.5000227 l 0.1035923,0.059525 0,-0.1190498 -0.1035923,-0.059525 0,-0.1190498 0.1035923,-0.059525 0,0.1190498 0.1024016,0.059525 0,-0.1190498 0,-0.1190497 L 7.4593223,5.0833484 7.35573,5.1428734 7.2521377,5.0833484 7.35573,5.0238234 l 0,-0.1190498 -0.1035923,0.059525 -0.1024016,0.059525 0,0.1190497 0.1024016,0.059525 0,0.1190498 0,0.1190498 -0.1024016,-0.059525 0,-0.1190498 -0.1035922,0.059525 0,0.1190498 0.1035922,0.059525 0,0.1190498 -0.1035922,-0.059525 -0.1024016,0.059525 0.1024016,0.059525 0.1035922,0.059525 0.1024016,-0.059525 0.1035923,0.059525 0,0.1190498 0,0.1190498 -0.1035923,-0.059525 0,-0.1190498 -0.1024016,0.059525 0,0.1190498 -0.1035922,0.059525 -0.1024016,-0.059525 -0.1035923,-0.059525 0.1035923,-0.059525 0.1024016,0.059525 0,-0.1190498 L 6.9437423,5.7381225 6.84015,5.7976475 6.7365578,5.7381225 6.84015,5.6785975 l 0,-0.1190496 -0.1035922,0.059525 -0.1024016,0.059525 0,0.1190498 0.1024016,0.059525 0,0.1190498 -0.1024016,-0.059525 -0.1035923,0.059525 0.1035923,0.059525 0.1024016,0.059525 0.1035922,-0.059525 0.1035923,0.059525 0,0.1190497 -0.1035923,-0.059525 -0.1035922,0.059525 0.1035922,0.059525 0.1035923,0.059525 0.1024016,-0.059525 0,-0.1190496 0.1035922,-0.059525 0.1024016,-0.059525 0,0.1190498 -0.1024016,0.059525 0.1024016,0.059525 0.1035923,-0.059525 0,-0.1190497 0.1035923,-0.059525 0,0.1190498 0.1024016,0.059525 0,-0.1190497 0,-0.1190498 -0.1024016,-0.059525 0,-0.1190498 0.1024016,-0.059525 0.1035922,-0.059525 0,0.1190498 -0.1035922,0.059525 0.1035922,0.059525 0.1024016,-0.059525 0.1035923,0.059525 0,0.1190498 0,0.1190498 -0.1035923,-0.059525 0,-0.1190498 -0.1024016,0.059525 0,0.1190498 0.1024016,0.059525 0,0.1190497 -0.1024016,-0.059525 -0.1035922,0.059525 0.1035922,0.059525 0.1024016,0.059525 0.1035923,-0.059525 0,-0.1190498 0.1035922,-0.059525 0,0.1190497 0.1024016,0.059525 0,-0.1190498 0,-0.1190496 -0.1024016,-0.059525 0,-0.1190498 0.1024016,-0.059525 0,0.1190498 0.1035923,0.059525 0,-0.1190498 0,-0.1190498 L 8.0773038,5.7976482 7.9749022,5.8571732 7.87131,5.7976482 7.7677177,5.7381232 7.87131,5.6785982 l 0.1035922,0.059525 0,-0.1190496 -0.1035922,-0.059525 0,-0.1190498 0.1035922,-0.059525 0,0.1190498 0.1024016,0.059525 0,-0.1190498 0,-0.1190498 -0.1024016,-0.059525 0,-0.1190497 0.1024016,-0.059525 0.1035923,-0.059525 0,0.1190497 -0.1035923,0.059525 0.1035923,0.059525 0.1024016,-0.059525 0.1035923,0.059525 0,0.1190498 0,0.1190498 -0.1035923,-0.059525 0,-0.1190498 -0.1024016,0.059525 0,0.1190498 0.1024016,0.059525 0,0.1190496 -0.1024016,-0.059525 -0.1035923,0.059525 0.1035923,0.059525 0.1024016,0.059525 0.1035923,-0.059525 0,-0.1190496 0.1035922,-0.059525 0,0.1190496 0.1024016,0.059525 0,-0.1190496 0,-0.1190498 -0.1024016,-0.059525 0,-0.1190498 0.1024016,-0.059525 0,0.1190498 0.1035923,0.059525 0,-0.1190498 0,-0.1190498 L 8.5928838,5.1428742 8.4904822,5.2023992 8.38689,5.1428742 8.2832977,5.0833492 8.38689,5.0238242 l 0.1035922,0.059525 0,-0.1190497 -0.1035922,-0.059525 -0.1035923,0.059525 -0.1024016,-0.059525 0.1024016,-0.059525 0,-0.1190498 -0.1024016,0.059525 -0.1035923,0.059525 0,0.1190498 L 7.9749022,5.0238245 7.87131,4.9642995 7.7677177,4.9047745 7.87131,4.8452495 l 0.1035922,0.059525 0,-0.1190498 L 7.87131,4.7261994 7.7677177,4.7857243 7.6653161,4.7261994 7.5617239,4.6666746 l 0.1035922,-0.059525 0.1024016,0.059525 0,-0.1190498 -0.1024016,-0.059525 0,-0.1190497 0.1024016,-0.059525 0.1035923,-0.059525 0,0.1190498 L 7.7677177,4.428575 7.87131,4.4881 7.9749022,4.428575 8.0773038,4.4881 l 0,0.1190498 -0.1024016,-0.059525 -0.1035922,0.059525 0.1035922,0.059525 0.1024016,0.059525 0.1035923,-0.059525 0,-0.1190498 0.1024016,-0.059525 0,0.1190498 0.1035923,0.059525 0,-0.1190498 0,-0.1190497 -0.1035923,-0.059525 -0.1024016,0.059525 -0.1035923,-0.059525 -0.1024016,-0.059525 0.1024016,-0.059525 0.1035923,0.059525 0,-0.1190497 -0.1035923,-0.059525 -0.1024016,0.059525 -0.1035922,-0.059525 0.1035922,-0.059525 0,-0.1190498 -0.1035922,0.059525 -0.1035923,0.059525 0,0.1190498 -0.1024016,0.059525 -0.1035922,-0.059525 -0.1024016,-0.059525 0.1024016,-0.059525 0.1035922,0.059525 0,-0.1190498 -0.1035922,-0.059525 0,-0.1190497 0.1035922,-0.059525 0.1024016,-0.059525 0,0.1190497 -0.1024016,0.059525 0.1024016,0.059525 0.1035923,-0.059525 0,-0.1190497 0.1035922,-0.059525 0,0.1190497 0.1024016,0.059525 0,-0.1190497 0,-0.1190497 L 7.9749022,3.5952264 7.87131,3.6547514 7.7677177,3.5952264 7.87131,3.5357014 l 0,-0.1190498 -0.1035923,0.059525 -0.1024016,0.059525 0,0.1190498 -0.1035922,0.059525 -0.1024016,-0.059525 0.1024016,-0.059525 0,-0.1190498 -0.1024016,0.059525 -0.1035923,0.059525 0,0.1190498 0.1035923,0.059525 0,0.1190497 0,0.1190498 -0.1035923,-0.059525 0,-0.1190497 -0.1035923,0.059525 0,0.1190498 -0.1024016,0.059525 -0.1035922,-0.059525 0.1035922,-0.059525 0,-0.1190497 -0.1035922,0.059525 -0.1024016,0.059525 0,0.1190498 L 6.84015,4.1309511 6.7365578,4.0714261 6.6341562,4.0119011 6.7365578,3.9523761 6.84015,4.0119011 l 0,-0.1190498 -0.1035922,-0.059525 -0.1024016,0.059525 -0.1035923,-0.059525 -0.1024016,-0.059525 0.1024016,-0.059525 0.1035923,0.059525 0,-0.1190497 -0.1035923,-0.059525 0,-0.1190498 0.1035923,-0.059525 0.1024016,-0.059525 0,0.1190498 -0.1024016,0.059525 0.1024016,0.059525 0.1035922,-0.059525 0.1035923,0.059525 0,0.1190498 -0.1035923,-0.059525 -0.1035922,0.059525 0.1035922,0.059525 0.1035923,0.059525 0.1024016,-0.059525 0,-0.1190497 0.1035922,-0.059525 0,0.1190498 0.1024016,0.059525 0,-0.1190497 0,-0.1190498 L 7.1497361,3.476177 7.0461439,3.5357019 6.9437423,3.476177 6.84015,3.4166521 l 0.1035923,-0.059525 0.1024016,0.059525 0,-0.1190498 L 6.9437423,3.2380773 6.84015,3.2976023 6.7365578,3.2380773 6.84015,3.1785523 l 0,-0.1190498 -0.1035922,0.059525 -0.1024016,0.059525 0,0.1190496 -0.1035923,0.059525 -0.1024016,-0.059525 -0.1035923,-0.059525 0.1035923,-0.059525 0.1024016,0.059525 0,-0.1190498 L 6.4281623,3.0595023 6.32457,3.1190273 6.2209778,3.0595023 6.1185762,2.9999773 6.2209778,2.9404523 6.32457,2.9999773 l 0,-0.1190498 -0.1035922,-0.059525 0,-0.1190497 0.1035922,-0.059525 0.1035923,-0.059525 0,0.1190497 -0.1035923,0.059525 0.1035923,0.059525 0.1024016,-0.059525 0.1035923,0.059525 0,0.1190498 -0.1035923,-0.059525 -0.1024016,0.059525 0.1024016,0.059525 0.1035923,0.059525 0.1024016,-0.059525 0,-0.1190498 0.1035922,-0.059525 0,0.1190498 0.1035923,0.059525 0,-0.1190498 0,-0.1190498 L 6.84015,2.7023527 6.7365578,2.7618777 6.6341562,2.7023527 6.5305639,2.6428277 l 0.1035923,-0.059525 0.1024016,0.059525 0,-0.1190498 -0.1024016,-0.059525 0,-0.1190498 0.1024016,-0.059525 0,0.1190498 0.1035922,0.059525 0,-0.1190498 0,-0.1190497 -0.1035922,-0.059525 0,-0.1190497 0.1035922,-0.059525 0.1035923,-0.059525 0,0.1190498 -0.1035923,0.059525 0.1035923,0.059525 0.1024016,-0.059525 0,-0.1190497 0.1035922,-0.059525 0.1024016,-0.059525 0,0.1190498 -0.1024016,0.059525 0.1024016,0.059525 0.1035923,-0.059525 0.1035923,0.059525 0,0.1190498 0,0.1190497 -0.1035923,-0.059525 0,-0.1190497 -0.1035923,0.059525 0,0.1190497 -0.1024016,0.059525 -0.1035922,-0.059525 0.1035922,-0.059525 0,-0.1190497 -0.1035922,0.059525 -0.1024016,0.059525 0,0.1190498 0.1024016,0.059525 0,0.1190498 L 6.9437423,2.523778 6.84015,2.583303 6.9437423,2.642828 7.0461439,2.702353 7.1497361,2.642828 l 0,-0.1190498 0.1024016,-0.059525 0.1035923,-0.059525 0,0.1190498 -0.1035923,0.059525 0.1035923,0.059525 0.1035923,-0.059525 0.1024016,0.059525 0,0.1190496 -0.1024016,-0.059525 -0.1035923,0.059525 0.1035923,0.059525 0.1024016,0.059525 0.1035922,-0.059525 0.1024016,0.059525 0,0.1190498 0,0.1190498 -0.1024016,-0.059525 0,-0.1190498 -0.1035922,0.059525 0,0.1190498 L 7.4593223,3.1785522 7.35573,3.1190272 7.2521377,3.0595022 7.35573,2.9999772 l 0.1035923,0.059525 0,-0.1190498 -0.1035923,-0.059525 -0.1035923,0.059525 -0.1024016,-0.059525 0.1024016,-0.059525 0,-0.1190497 -0.1024016,0.059525 -0.1035922,0.059525 0,0.1190498 0.1035922,0.059525 0,0.1190498 -0.1035922,-0.059525 -0.1024016,0.059525 0.1024016,0.059525 0.1035922,0.059525 0.1024016,-0.059525 0.1035923,0.059525 0,0.1190496 -0.1035923,-0.059525 -0.1024016,0.059525 0.1024016,0.059525 0.1035923,0.059525 0.1035923,-0.059525 0,-0.1190498 0.1024016,-0.059525 0.1035922,-0.059525 0,0.1190496 -0.1035922,0.059525 0.1035922,0.059525 0.1024016,-0.059525 0,-0.1190496 0.1035923,-0.059525 0,0.1190496 0.1035922,0.059525 0,-0.1190496 0,-0.1190498 -0.1035922,-0.059525 0,-0.1190498 0.1035922,-0.059525 0.1024016,-0.059525 0,0.1190498 -0.1024016,0.059525 0.1024016,0.059525 0.1035923,-0.059525 0.1024016,0.059525 0,0.1190498 0,0.1190496 -0.1024016,-0.059525 0,-0.1190498 -0.1035923,0.059525 0,0.1190496 0.1035923,0.059525 0,0.1190498 -0.1035923,-0.059525 -0.1024016,0.059525 0.1024016,0.059525 0.1035923,0.059525 0.1024016,-0.059525 0,-0.1190498 0.1035923,-0.059525 0,0.1190498 0.1035922,0.059525 0,-0.1190498 0,-0.1190498 -0.1035922,-0.059525 0,-0.1190498 0.1035922,-0.059525 0,0.1190498 0.1024016,0.059525 0,-0.1190498 0,-0.1190498 L 8.4904822,2.9404531 8.38689,2.999978 8.2832977,2.9404531 8.1808961,2.8809282 8.2832977,2.8214032 8.38689,2.8809282 l 0,-0.1190498 -0.1035923,-0.059525 -0.1024016,0.059525 -0.1035923,-0.059525 0.1035923,-0.059525 0,-0.1190498 -0.1035923,0.059525 -0.1024016,0.059525 0,0.1190496 L 7.87131,2.8214032 7.7677177,2.7618782 7.6653161,2.7023532 7.7677177,2.6428282 7.87131,2.7023532 l 0,-0.1190497 L 7.7677177,2.523779 7.6653161,2.5833039 7.5617239,2.523779 7.4593223,2.4642541 l 0.1024016,-0.059525 0.1035922,0.059525 0,-0.1190498 -0.1035922,-0.059525 0,-0.1190497 0.1035922,-0.059525 0.1024016,-0.059525 0,0.1190497 -0.1024016,0.059525 0.1024016,0.059525 0.1035923,-0.059525 0.1035922,0.059525 0,0.1190498 -0.1035922,-0.059525 -0.1035923,0.059525 0.1035923,0.059525 0.1035922,0.059525 0.1024016,-0.059525 0,-0.1190498 0.1035923,-0.059525 0,0.1190498 0.1024016,0.059525 0,-0.1190498 0,-0.1190497 L 8.1808961,2.1666297 8.0773038,2.2261546 7.9749022,2.1666297 7.87131,2.1071048 7.9749022,2.04758 l 0.1024016,0.059525 0,-0.1190497 -0.1024016,-0.059525"
       id="polyline2997" />
  </g>
</svg>
