<?xml version="1.0" encoding="UTF-8" standalone="no"?>
<!-- Created with Inkscape (http://www.inkscape.org/) -->

<svg
   xmlns:dc="http://purl.org/dc/elements/1.1/"
   xmlns:cc="http://creativecommons.org/ns#"
   xmlns:rdf="http://www.w3.org/1999/02/22-rdf-syntax-ns#"
   xmlns:svg="http://www.w3.org/2000/svg"
   xmlns="http://www.w3.org/2000/svg"
   xmlns:sodipodi="http://sodipodi.sourceforge.net/DTD/sodipodi-0.dtd"
   xmlns:inkscape="http://www.inkscape.org/namespaces/inkscape"
   inkscape:version="0.91 r13725"
   version="1.1"
   id="svg15158"
   viewBox="0 0 297 210"
   height="210mm"
   width="297mm"
   sodipodi:docname="AxiDraw-Name-Huge.svg">
  <sodipodi:namedview
     inkscape:window-maximized="1"
     inkscape:window-y="1"
     inkscape:window-x="0"
     inkscape:window-height="855"
     inkscape:window-width="1436"
     showgrid="false"
     id="namedview15162"
     inkscape:current-layer="layer8"
     inkscape:cy="372.04724"
     inkscape:cx="526.1811"
     inkscape:zoom="0.87757672"
     inkscape:pageshadow="2"
     inkscape:pageopacity="0.0"
     borderopacity="1.0"
     bordercolor="#666666"
     pagecolor="#ffffff"
     inkscape:document-units="mm" />
  <defs
     id="defs15160" />
  <metadata
     id="metadata15164">
    <rdf:RDF>
      <cc:Work
         rdf:about="">
        <dc:format>image/svg+xml</dc:format>
        <dc:type
           rdf:resource="http://purl.org/dc/dcmitype/StillImage" />
        <dc:title></dc:title>
      </cc:Work>
    </rdf:RDF>
  </metadata>
  <g
     id="layer1"
     inkscape:groupmode="layer"
     inkscape:label="1-outline"
     style="display:inline">
    <path
       inkscape:connector-curvature="0"
       id="path4829"
       d="m 20.358722,59.795647 a 3.6243177,3.6243177 0 0 0 -0.09049,0.01323 3.6243177,3.6243177 0 0 0 -0.252094,0.03582 3.6243177,3.6243177 0 0 0 -0.01606,0.0017 3.6243177,3.6243177 0 0 0 -0.0176,0.0037 A 3.6243177,3.6243177 0 0 0 17.090737,62.739 L 1.5385815,109.16099 a 3.6244417,3.6244417 0 1 0 6.873649,2.30201 l 3.8781755,-11.575178 23.996688,-2.531397 6.137052,10.504265 a 3.6243177,3.6243177 0 1 0 6.257701,-3.6566 L 24.046174,62.041317 a 3.6243177,3.6243177 0 0 0 -3.493622,-2.253161 3.6243177,3.6243177 0 0 0 -0.118395,0.0051 3.6243177,3.6243177 0 0 0 -0.07541,0.0024 z m 1.214112,12.380368 10.7036,18.316462 -17.45667,1.841495 6.75307,-20.157957 z"
       style="color:#000000;font-style:normal;font-variant:normal;font-weight:normal;font-stretch:normal;font-size:medium;line-height:normal;font-family:sans-serif;text-indent:0;text-align:start;text-decoration:none;text-decoration-line:none;text-decoration-style:solid;text-decoration-color:#000000;letter-spacing:normal;word-spacing:normal;text-transform:none;direction:ltr;block-progression:tb;writing-mode:lr-tb;baseline-shift:baseline;text-anchor:start;white-space:normal;clip-rule:nonzero;display:inline;overflow:visible;visibility:visible;opacity:1;isolation:auto;mix-blend-mode:normal;color-interpolation:sRGB;color-interpolation-filters:linearRGB;solid-color:#000000;solid-opacity:1;fill:none;fill-opacity:1;fill-rule:nonzero;stroke:#000000;stroke-width:0.50800008;stroke-linecap:round;stroke-linejoin:round;stroke-miterlimit:4;stroke-dasharray:none;stroke-dashoffset:0;stroke-opacity:1;color-rendering:auto;image-rendering:auto;shape-rendering:auto;text-rendering:auto;enable-background:accumulate" />
    <path
       inkscape:connector-curvature="0"
       id="path4833"
       d="m 83.03316,63.015054 a 2.7985239,2.7985239 0 0 0 -2.191163,1.416758 L 71.299265,80.862313 58.538242,66.784622 a 2.7985239,2.7985239 0 1 0 -4.146021,3.758172 L 68.350248,85.941101 57.912415,103.91291 a 2.7985239,2.7985239 0 1 0 4.838931,2.81036 l 9.542732,-16.430504 12.761034,14.077694 a 2.7985239,2.7985239 0 1 0 4.146021,-3.75818 L 75.243106,85.213977 85.680939,67.242165 A 2.7985239,2.7985239 0 0 0 83.03316,63.015054 Z"
       style="color:#000000;font-style:normal;font-variant:normal;font-weight:normal;font-stretch:normal;font-size:medium;line-height:normal;font-family:sans-serif;text-indent:0;text-align:start;text-decoration:none;text-decoration-line:none;text-decoration-style:solid;text-decoration-color:#000000;letter-spacing:normal;word-spacing:normal;text-transform:none;direction:ltr;block-progression:tb;writing-mode:lr-tb;baseline-shift:baseline;text-anchor:start;white-space:normal;clip-rule:nonzero;display:inline;overflow:visible;visibility:visible;opacity:1;isolation:auto;mix-blend-mode:normal;color-interpolation:sRGB;color-interpolation-filters:linearRGB;solid-color:#000000;solid-opacity:1;fill:none;fill-opacity:1;fill-rule:nonzero;stroke:#000000;stroke-width:0.50800008;stroke-linecap:round;stroke-linejoin:round;stroke-miterlimit:4;stroke-dasharray:none;stroke-dashoffset:0;stroke-opacity:1;color-rendering:auto;image-rendering:auto;shape-rendering:auto;text-rendering:auto;enable-background:accumulate" />
    <path
       inkscape:connector-curvature="0"
       id="path4835"
       d="m 98.992391,61.32432 a 2.7985239,2.7985239 0 0 0 -2.442979,3.11184 l 3.866458,36.65259 a 2.7985239,2.7985239 0 1 0 5.56526,-0.58707 L 102.11466,63.849084 A 2.7985239,2.7985239 0 0 0 98.992391,61.32432 Z"
       style="color:#000000;font-style:normal;font-variant:normal;font-weight:normal;font-stretch:normal;font-size:medium;line-height:normal;font-family:sans-serif;text-indent:0;text-align:start;text-decoration:none;text-decoration-line:none;text-decoration-style:solid;text-decoration-color:#000000;letter-spacing:normal;word-spacing:normal;text-transform:none;direction:ltr;block-progression:tb;writing-mode:lr-tb;baseline-shift:baseline;text-anchor:start;white-space:normal;clip-rule:nonzero;display:inline;overflow:visible;visibility:visible;opacity:1;isolation:auto;mix-blend-mode:normal;color-interpolation:sRGB;color-interpolation-filters:linearRGB;solid-color:#000000;solid-opacity:1;fill:none;fill-opacity:1;fill-rule:nonzero;stroke:#000000;stroke-width:0.50800008;stroke-linecap:round;stroke-linejoin:round;stroke-miterlimit:4;stroke-dasharray:none;stroke-dashoffset:0;stroke-opacity:1;color-rendering:auto;image-rendering:auto;shape-rendering:auto;text-rendering:auto;enable-background:accumulate" />
    <path
       inkscape:connector-curvature="0"
       id="path4831"
       d="m 116.98344,49.602762 a 3.6243177,3.6243177 0 0 0 -2.37502,1.313628 3.6243177,3.6243177 0 0 0 -0.0639,0.07715 3.6243177,3.6243177 0 0 0 -0.0249,0.03519 3.6243177,3.6243177 0 0 0 -0.6396,3.177465 l 4.59283,43.538325 a 3.6243177,3.6243177 0 0 0 1.3391,3.0264 3.6243177,3.6243177 0 0 0 0.0772,0.0639 3.6243177,3.6243177 0 0 0 0.0138,0.0112 3.6243177,3.6243177 0 0 0 3.19069,0.64545 l 11.30514,-1.19258 a 3.6243177,3.6243177 0 0 0 0.004,-3.8e-4 c 5.95406,-0.634776 12.17407,-2.902299 16.84101,-7.60757 4.66692,-4.705264 7.47484,-11.855087 6.75015,-20.988293 -0.73679,-9.285849 -5.32881,-15.767773 -10.95051,-19.358912 -5.62169,-3.59114 -12.02433,-4.551537 -17.19423,-4.006167 -5.22624,0.463857 -7.32416,0.751128 -12.19475,1.248594 a 3.6243177,3.6243177 0 0 0 -0.67032,0.01673 z m 4.42528,6.882932 c 2.86541,-0.310574 5.24002,-0.590055 9.13941,-0.935448 a 3.6243177,3.6243177 0 0 0 0.0607,-0.0046 c 3.57583,-0.377212 8.59177,0.389442 12.53024,2.905335 3.93847,2.5159 7.05017,6.521059 7.62966,13.824377 0.59174,7.455962 -1.47978,12.093277 -4.67148,15.311212 -3.19046,3.216829 -7.8071,5.006962 -12.45937,5.50376 l -8.27571,0.872999 -3.95349,-37.47767 z"
       style="color:#000000;font-style:normal;font-variant:normal;font-weight:normal;font-stretch:normal;font-size:medium;line-height:normal;font-family:sans-serif;text-indent:0;text-align:start;text-decoration:none;text-decoration-line:none;text-decoration-style:solid;text-decoration-color:#000000;letter-spacing:normal;word-spacing:normal;text-transform:none;direction:ltr;block-progression:tb;writing-mode:lr-tb;baseline-shift:baseline;text-anchor:start;white-space:normal;clip-rule:nonzero;display:inline;overflow:visible;visibility:visible;opacity:1;isolation:auto;mix-blend-mode:normal;color-interpolation:sRGB;color-interpolation-filters:linearRGB;solid-color:#000000;solid-opacity:1;fill:none;fill-opacity:1;fill-rule:nonzero;stroke:#000000;stroke-width:0.50800008;stroke-linecap:round;stroke-linejoin:round;stroke-miterlimit:4;stroke-dasharray:none;stroke-dashoffset:0;stroke-opacity:1;color-rendering:auto;image-rendering:auto;shape-rendering:auto;text-rendering:auto;enable-background:accumulate" />
    <path
       inkscape:connector-curvature="0"
       id="path4837"
       d="m 169.80612,53.854221 a 2.7985239,2.7985239 0 0 0 -1.83032,1.01112 2.7985239,2.7985239 0 0 0 -0.0577,0.06731 2.7985239,2.7985239 0 0 0 -0.008,0.01164 2.7985239,2.7985239 0 0 0 -0.49955,2.472594 l 1.74524,16.544275 a 2.7985239,2.7985239 0 0 0 0.0959,0.90883 l 1.97779,18.74864 a 2.7985239,2.7985239 0 1 0 5.56525,-0.587075 L 175.06301,76.615581 187.15937,75.339543 198.49,92.067297 a 2.7985435,2.7985435 0 1 0 4.63491,-3.137656 L 192.89118,73.821373 c 1.98015,-0.805837 3.99962,-1.850046 5.64677,-3.896672 a 2.7985239,2.7985239 0 0 0 0.2542,-0.374574 c 0.87393,-1.540772 1.29175,-2.958727 1.75455,-3.967172 a 2.7985239,2.7985239 0 0 0 0.25505,-1.169274 c -8.9e-4,-1.514662 -0.2515,-2.753452 -0.3227,-3.692184 a 2.7985239,2.7985239 0 0 0 -0.30836,-1.079203 c -0.6498,-1.248998 -1.37489,-2.063358 -1.752,-2.651306 l 0.1164,0.198652 c -1.16004,-2.18564 -3.16761,-3.499294 -5.17095,-4.233142 -2.00334,-0.733846 -4.09116,-0.960098 -6.0081,-0.87796 a 2.7985239,2.7985239 0 0 0 -0.13956,0.0092 c -5.66508,0.52609 -11.29908,1.177358 -16.90031,1.752194 a 2.7985239,2.7985239 0 0 0 -0.51023,0.01403 z m 3.41627,5.311838 c 4.81659,-0.50832 9.62319,-1.048538 14.38888,-1.492688 1.25479,-0.05195 2.70791,0.128193 3.82809,0.538551 1.12446,0.41191 1.82326,0.980923 2.15281,1.601772 a 2.7985239,2.7985239 0 0 0 0.1164,0.198652 c 0.56313,0.87799 0.97077,1.407146 1.25714,1.856626 0.0844,0.796591 0.16105,1.517941 0.19507,2.071372 -0.42248,1.002914 -0.78688,1.936729 -1.11734,2.577391 -1.20054,1.399023 -3.18063,2.209168 -5.60972,3.035093 a 2.7985239,2.7985239 0 0 0 -0.62822,0.09145 l -13.32952,1.406123 -1.25366,-11.884294 z"
       style="color:#000000;font-style:normal;font-variant:normal;font-weight:normal;font-stretch:normal;font-size:medium;line-height:normal;font-family:sans-serif;text-indent:0;text-align:start;text-decoration:none;text-decoration-line:none;text-decoration-style:solid;text-decoration-color:#000000;letter-spacing:normal;word-spacing:normal;text-transform:none;direction:ltr;block-progression:tb;writing-mode:lr-tb;baseline-shift:baseline;text-anchor:start;white-space:normal;clip-rule:nonzero;display:inline;overflow:visible;visibility:visible;opacity:1;isolation:auto;mix-blend-mode:normal;color-interpolation:sRGB;color-interpolation-filters:linearRGB;solid-color:#000000;solid-opacity:1;fill:none;fill-opacity:1;fill-rule:nonzero;stroke:#000000;stroke-width:0.50800008;stroke-linecap:round;stroke-linejoin:round;stroke-miterlimit:4;stroke-dasharray:none;stroke-dashoffset:0;stroke-opacity:1;color-rendering:auto;image-rendering:auto;shape-rendering:auto;text-rendering:auto;enable-background:accumulate" />
    <path
       inkscape:connector-curvature="0"
       id="path4839"
       d="m 226.3003,47.89828 a 2.7985239,2.7985239 0 0 0 -0.0761,0.01172 2.7985239,2.7985239 0 0 0 -0.18637,0.02704 2.7985239,2.7985239 0 0 0 -0.0142,0.0015 2.7985239,2.7985239 0 0 0 -0.014,0.0033 2.7985239,2.7985239 0 0 0 -2.22605,2.247496 l -12.59142,38.055389 a 2.7985239,2.7985239 0 1 0 5.31357,1.75847 l 3.15887,-9.546093 19.83211,-2.092077 5.08119,8.676853 a 2.7985239,2.7985239 0 1 0 4.82961,-2.82847 l -20.2546,-34.588674 a 2.7985239,2.7985239 0 0 0 -2.72338,-1.73259 2.7985239,2.7985239 0 0 0 -0.0412,0.0025 2.7985239,2.7985239 0 0 0 -0.0878,0.0037 z m 0.9672,9.577516 9.12755,15.588946 -14.80324,1.561586 5.67569,-17.150532 z"
       style="color:#000000;font-style:normal;font-variant:normal;font-weight:normal;font-stretch:normal;font-size:medium;line-height:normal;font-family:sans-serif;text-indent:0;text-align:start;text-decoration:none;text-decoration-line:none;text-decoration-style:solid;text-decoration-color:#000000;letter-spacing:normal;word-spacing:normal;text-transform:none;direction:ltr;block-progression:tb;writing-mode:lr-tb;baseline-shift:baseline;text-anchor:start;white-space:normal;clip-rule:nonzero;display:inline;overflow:visible;visibility:visible;opacity:1;isolation:auto;mix-blend-mode:normal;color-interpolation:sRGB;color-interpolation-filters:linearRGB;solid-color:#000000;solid-opacity:1;fill:none;fill-opacity:1;fill-rule:nonzero;stroke:#000000;stroke-width:0.50800008;stroke-linecap:round;stroke-linejoin:round;stroke-miterlimit:4;stroke-dasharray:none;stroke-dashoffset:0;stroke-opacity:1;color-rendering:auto;image-rendering:auto;shape-rendering:auto;text-rendering:auto;enable-background:accumulate" />
    <path
       inkscape:connector-curvature="0"
       id="path4841"
       d="m 250.95972,45.295172 a 2.7985239,2.7985239 0 0 0 -2.24986,3.900497 l 14.79497,35.220469 a 2.7985239,2.7985239 0 0 0 2.74278,2.018836 2.7985239,2.7985239 0 0 0 0.19691,-0.01155 2.7985239,2.7985239 0 0 0 0.11964,-0.01078 2.7985239,2.7985239 0 0 0 0.085,-0.0145 2.7985239,2.7985239 0 0 0 0.21535,-0.04255 2.7985239,2.7985239 0 0 0 2.14098,-2.575455 l 4.81005,-27.747798 10.49686,26.143883 a 2.7985239,2.7985239 0 0 0 2.69708,2.06331 2.7985239,2.7985239 0 0 0 0.0144,3.24e-4 2.7985239,2.7985239 0 0 0 0.009,-9.61e-4 2.7985239,2.7985239 0 0 0 0.19102,-0.0094 2.7985239,2.7985239 0 0 0 0.10772,-0.0077 2.7985239,2.7985239 0 0 0 0.0959,-0.01381 2.7985239,2.7985239 0 0 0 2.39748,-2.586318 l 7.11687,-37.513919 a 2.7987428,2.7987428 0 1 0 -5.49921,-1.04325 l -5.3911,28.421707 -10.60871,-26.418581 a 2.7985239,2.7985239 0 0 0 -2.4277,-2.039468 2.7985239,2.7985239 0 0 0 -0.25184,-0.01323 2.7985239,2.7985239 0 0 0 -0.0501,-2.51e-4 2.7985239,2.7985239 0 0 0 -0.18552,0.0088 2.7985239,2.7985239 0 0 0 -0.13505,0.0124 2.7985239,2.7985239 0 0 0 -0.0932,0.01352 2.7985239,2.7985239 0 0 0 -0.22893,0.04573 2.7985239,2.7985239 0 0 0 -2.13997,2.568142 l -4.85678,28.037554 -11.20313,-26.673002 a 2.7985239,2.7985239 0 0 0 -2.91078,-1.732635 z"
       style="color:#000000;font-style:normal;font-variant:normal;font-weight:normal;font-stretch:normal;font-size:medium;line-height:normal;font-family:sans-serif;text-indent:0;text-align:start;text-decoration:none;text-decoration-line:none;text-decoration-style:solid;text-decoration-color:#000000;letter-spacing:normal;word-spacing:normal;text-transform:none;direction:ltr;block-progression:tb;writing-mode:lr-tb;baseline-shift:baseline;text-anchor:start;white-space:normal;clip-rule:nonzero;display:inline;overflow:visible;visibility:visible;opacity:1;isolation:auto;mix-blend-mode:normal;color-interpolation:sRGB;color-interpolation-filters:linearRGB;solid-color:#000000;solid-opacity:1;fill:none;fill-opacity:1;fill-rule:nonzero;stroke:#000000;stroke-width:0.50800008;stroke-linecap:round;stroke-linejoin:round;stroke-miterlimit:4;stroke-dasharray:none;stroke-dashoffset:0;stroke-opacity:1;color-rendering:auto;image-rendering:auto;shape-rendering:auto;text-rendering:auto;enable-background:accumulate" />
  </g>
  <g
     inkscape:groupmode="layer"
     id="layer8"
     inkscape:label="2-fill">
    <path
       inkscape:connector-curvature="0"
       d="m 17.764045,61.674478 0.662275,-0.66228 c 0.652283,-0.652266 2.301527,-1.104156 1.649271,-0.451893 l -2.454194,2.454193 c -0.652284,0.652266 -1.255502,2.452884 -0.603221,1.800591 l 4.115623,-4.115605 c 0.652284,-0.652266 1.490284,-0.292924 0.838003,0.359369 l -5.556843,5.556854 c -0.652284,0.652265 -1.255502,2.452883 -0.603221,1.80059 l 6.795783,-6.795801 c 0.652284,-0.652266 1.170349,0.02703 0.518066,0.679296 l -7.917072,7.917068 c -0.652284,0.652266 -1.255501,2.452884 -0.603221,1.80059 L 23.5481,63.074654 c 0.652284,-0.652265 1.093876,0.103498 0.441593,0.755764 l -9.987647,9.987626 c -0.652283,0.652265 -1.255501,2.452883 -0.60322,1.80059 L 24.431285,64.586181 c 0.652284,-0.652265 1.093876,0.103498 0.441592,0.755764 L 12.795578,77.419227 c -0.652284,0.652266 -1.255501,2.452884 -0.603221,1.800591 l 13.122112,-13.12211 c 0.652284,-0.652266 1.093876,0.103498 0.441593,0.755764 L 11.589109,81.020411 c -0.652283,0.652266 -1.255501,2.452884 -0.60322,1.80059 l 9.620938,-9.62094 c 0.652284,-0.652266 0.04906,1.148297 -0.603196,1.80056 l -9.620966,9.620943 c -0.6522832,0.652266 -1.2555008,2.452884 -0.60322,1.800591 l 9.620991,-9.620974 c 0.652283,-0.652266 0.04906,1.148297 -0.603196,1.80056 l -9.6210155,9.621004 c -0.6522837,0.652266 -1.2555013,2.452884 -0.6032205,1.80059 l 9.62104,-9.621034 c 0.652284,-0.652266 0.04906,1.148297 -0.603196,1.800559 l -9.6210645,9.621066 c -0.6522837,0.652265 -1.2555012,2.452883 -0.6032205,1.80059 l 9.621092,-9.621068 c 0.652284,-0.652266 0.04906,1.148297 -0.603196,1.80056 l -9.6211164,9.621099 c -0.6522837,0.652265 -1.2555013,2.452883 -0.6032205,1.80059 l 9.6211409,-9.621129 c 0.652284,-0.652266 0.04906,1.148297 -0.603196,1.80056 l -9.6211654,9.621159 c -0.6522837,0.652266 -1.2555013,2.452883 -0.6032205,1.800593 l 9.6211909,-9.621192 c 0.652283,-0.652266 0.10001,1.097369 -0.552274,1.749635 l -9.6721403,9.672117 c -0.6522837,0.65227 -1.2555012,2.45288 -0.6032205,1.80059 L 15.155538,93.019721 c 0.652284,-0.652266 1.990856,-0.793471 1.338572,-0.141206 L 3.1439892,106.22862 c -0.6522837,0.65227 -1.2555012,2.45289 -0.6032204,1.80059 L 17.832682,92.73731 c 0.652284,-0.652265 1.990856,-0.793471 1.338573,-0.141205 L 2.131374,109.63599 c -0.6522836,0.65227 -0.5191718,1.71654 0.1331119,1.06427 l 8.6929221,-8.69292 c 0.652284,-0.65227 0.04899,1.14838 -0.603297,1.80065 l -7.7275269,7.72752 c -0.6522837,0.65227 -0.1226111,1.31999 0.5296697,0.66769 l 6.5945599,-6.59456 c 0.6522833,-0.65226 0.048986,1.14839 -0.6032973,1.80066 l -5.3065323,5.30655 c -0.6522837,0.65226 0.2120744,0.98528 0.8643581,0.33302 l 3.8389074,-3.83889 c 0.6522837,-0.65227 0.048986,1.14839 -0.6032972,1.80065 l -2.1053355,2.10534 c -0.6522836,0.65226 0.7988347,0.39853 1.4511155,-0.25376 l 0.4112354,-0.41123 M 26.686825,67.120103 22.289781,71.517149 c -0.652284,0.652266 -0.210637,1.408024 0.441617,0.755733 l 3.907799,-3.907823 c 0.652284,-0.652265 1.093876,0.103498 0.441592,0.755764 l -3.907777,3.907765 c -0.652284,0.652265 -0.210637,1.408023 0.441616,0.755733 l 3.907753,-3.907735 c 0.652284,-0.652265 1.093876,0.103498 0.441593,0.755764 l -3.907701,3.907701 c -0.652284,0.652266 -0.210637,1.408023 0.441617,0.755733 l 3.907676,-3.907671 c 0.652284,-0.652266 1.093876,0.103498 0.441592,0.755763 l -3.907651,3.907641 c -0.652284,0.652266 -0.210637,1.408023 0.441616,0.755733 l 3.9076,-3.907607 c 0.652284,-0.652266 1.093876,0.103498 0.441592,0.755763 l -3.907575,3.907577 c -0.652283,0.652266 -0.210636,1.408023 0.441617,0.755733 l 3.90755,-3.907546 c 0.652284,-0.652266 1.093876,0.103498 0.441593,0.755763 l -3.907498,3.907513 c -0.652284,0.652266 -0.210637,1.408023 0.441616,0.755733 l 3.907474,-3.907482 c 0.652284,-0.652266 1.093876,0.103497 0.441592,0.755763 l -3.907449,3.907452 c -0.652283,0.652266 -0.210636,1.408023 0.441617,0.755733 l 3.9074,-3.907391 c 0.652283,-0.652266 1.093876,0.103498 0.441592,0.755763 l -3.907375,3.907361 c -0.652284,0.652266 -0.210636,1.408023 0.441617,0.755733 l 3.907323,-3.907327 c 0.652283,-0.652266 1.093887,0.103608 0.441592,0.755763 l -3.907298,3.907297 c -0.652284,0.652266 -0.210637,1.408023 0.441617,0.755733 l 3.907273,-3.907266 c 0.652284,-0.652266 1.093876,0.103497 0.441592,0.755763 l -3.907221,3.907233 c -0.652284,0.652266 -0.210636,1.408024 0.441617,0.755733 l 3.907197,-3.907203 c 0.652283,-0.652265 1.093876,0.103498 0.441592,0.755764 l -3.907172,3.907172 c -0.652284,0.652266 -0.210637,1.408024 0.441617,0.755733 l 3.90712,-3.907139 c 0.652283,-0.652265 1.093876,0.103498 0.441592,0.755764 l -3.907096,3.907108 c -0.652283,0.652266 -0.210636,1.408024 0.441617,0.755733 l 3.907074,-3.90705 c 0.652284,-0.652266 1.093876,0.103497 0.441592,0.755763 l -4.396239,4.396238 m -18.912448,9.333894 7.022658,-7.02268 c 0.652284,-0.652265 1.990856,-0.79347 1.338572,-0.141205 l -6.533468,6.533462 c -0.652283,0.652265 0.686289,0.51106 1.338573,-0.141205 l 6.533468,-6.533462 c 0.652283,-0.652266 1.990856,-0.793471 1.338572,-0.141205 l -6.533468,6.533461 c -0.652284,0.652266 0.686289,0.511061 1.338572,-0.141205 l 6.533468,-6.533461 c 0.652284,-0.652266 1.990856,-0.793471 1.338572,-0.141206 l -6.533468,6.533462 c -0.652283,0.652266 0.686289,0.51106 1.338573,-0.141205 l 6.533468,-6.533462 c 0.652283,-0.652266 1.990856,-0.793471 1.338572,-0.141205 l -6.533468,6.533462 c -0.652284,0.652265 0.686289,0.51106 1.338572,-0.141206 l 7.022658,-7.022679 M 25.534178,98.20697 37.237544,86.50359 c 0.652284,-0.652265 1.093876,0.103498 0.441592,0.755764 L 27.36194,97.576547 c -0.652284,0.652266 0.686289,0.51106 1.338572,-0.141205 l 9.42022,-9.420197 c 0.652283,-0.652266 1.093887,0.103608 0.441592,0.755763 l -8.52324,8.523229 c -0.652283,0.652265 0.686289,0.51106 1.338573,-0.141206 l 7.626259,-7.626259 c 0.652284,-0.652266 1.093876,0.103497 0.441592,0.755763 l -6.729279,6.729291 c -0.652284,0.652266 0.686289,0.511061 1.338572,-0.141205 l 5.832302,-5.832295 c 0.652284,-0.652266 1.093876,0.103498 0.441593,0.755763 l -4.935322,4.935327 c -0.652284,0.652265 0.686288,0.51106 1.338572,-0.141206 l 4.038342,-4.038357 c 0.652284,-0.652266 1.093876,0.103498 0.441592,0.755763 l -3.906997,3.906987 c -0.652283,0.652266 -0.210713,1.408087 0.441568,0.755794 l 3.907021,-3.907017 c 0.652284,-0.652266 1.093876,0.103498 0.441593,0.755763 l -3.907047,3.907048 c -0.652283,0.652266 -0.210713,1.408089 0.441568,0.755794 l 3.907071,-3.907078 c 0.652284,-0.652266 1.093876,0.103497 0.441592,0.755763 l -3.907095,3.90711 c -0.652284,0.65226 -0.210713,1.40808 0.441567,0.75579 l 3.90712,-3.907136 c 0.652284,-0.652266 1.093876,0.103497 0.441593,0.755763 l -3.907148,3.907143 c -0.652284,0.65226 -0.210713,1.40809 0.441568,0.75579 l 3.907172,-3.90717 c 0.652284,-0.652265 1.093876,0.103498 0.441592,0.755764 l -3.907197,3.907206 c -0.652283,0.65226 -0.210713,1.40808 0.441568,0.75579 l 3.907221,-3.90723 c 0.652284,-0.652268 1.093876,0.10349 0.441593,0.75576 l -3.907274,3.90727 c -0.652284,0.65226 -0.210713,1.40808 0.441568,0.75579 l 3.907298,-3.9073 c 0.652284,-0.65226 1.093876,0.1035 0.441592,0.75577 l -3.907323,3.90732 c -0.652283,0.65227 -0.210713,1.40809 0.441568,0.7558 l 3.90735,-3.90733 c 0.652284,-0.65227 1.093876,0.1035 0.441593,0.75576 l -3.851265,3.85127 c -0.652284,0.65227 -0.02557,1.22296 0.626708,0.57066 l 3.666176,-3.66617 c 0.652284,-0.65226 1.034496,0.16289 0.382212,0.81515 l -3.259522,3.25952 c -0.652284,0.65226 0.344934,0.85244 0.997215,0.20015 l 2.466278,-2.46627 c 0.652283,-0.65226 0.327457,0.86985 -0.324744,1.52211 l -1.375776,1.37577"
       style="fill:none;fill-opacity:1;stroke:#c94848;stroke-width:0.50800008;stroke-miterlimit:4;stroke-dasharray:none;stroke-opacity:1"
       id="path17397" />
    <path
       inkscape:connector-curvature="0"
       d="m 53.922625,68.621144 2.044871,-2.044889 c 0.652284,-0.652266 1.60814,-0.410766 0.955856,0.241499 l -2.299914,2.299923 c -0.652284,0.652265 -0.192843,1.390201 0.459441,0.737935 l 2.561704,-2.561706 c 0.652283,-0.652265 1.243481,-0.04602 0.591191,0.606189 l -2.583603,2.583606 c -0.652283,0.652266 -0.08297,1.280324 0.569317,0.628058 l 2.583603,-2.583606 c 0.652284,-0.652266 1.221598,-0.02424 0.569317,0.628059 l -2.583603,2.583606 c -0.652284,0.652266 -0.08297,1.280324 0.569317,0.628058 l 2.583603,-2.583606 c 0.652284,-0.652266 1.221598,-0.02423 0.569317,0.628058 l -2.583603,2.583607 c -0.652284,0.652266 -0.08297,1.280324 0.569317,0.628058 l 2.583603,-2.583606 c 0.652283,-0.652266 1.221597,-0.02424 0.569316,0.628058 l -2.583603,2.583607 c -0.652283,0.652265 -0.08297,1.280324 0.569317,0.628058 l 2.583603,-2.583606 c 0.652284,-0.652266 1.221598,-0.02424 0.569317,0.628058 l -2.583603,2.583607 c -0.652284,0.652265 -0.08297,1.280324 0.569317,0.628058 l 2.583603,-2.583606 c 0.652284,-0.652266 1.221598,-0.02424 0.569317,0.628058 l -2.583603,2.583607 c -0.652284,0.652265 -0.08297,1.280324 0.569317,0.628058 l 2.583603,-2.583606 c 0.652283,-0.652266 1.221597,-0.02423 0.569316,0.628058 l -2.58363,2.58361 c -0.652284,0.652265 -0.08297,1.280324 0.569317,0.628058 l 2.58363,-2.583609 c 0.652284,-0.652266 1.221598,-0.02423 0.569317,0.628058 l -2.58363,2.583609 c -0.652284,0.652266 -0.08297,1.280325 0.569316,0.628059 l 2.583628,-2.583637 c 0.652284,-0.652266 1.221598,-0.02424 0.569317,0.628059 l -2.583628,2.583636 c -0.652284,0.652266 -0.08297,1.280324 0.569317,0.628059 l 2.583628,-2.583637 c 0.652283,-0.652266 1.221597,-0.02424 0.569317,0.628058 l -2.583628,2.583637 c -0.652284,0.652266 -0.08297,1.280324 0.569317,0.628059 l 2.583627,-2.583637 c 0.652284,-0.652266 1.221598,-0.02424 0.569317,0.628058 l -2.583627,2.583637 c -0.652284,0.652266 -0.08297,1.280324 0.569316,0.628059 l 3.072846,-3.072858 m 9.253386,-14.04298 2.762628,-2.76261 c 0.652284,-0.652266 1.66961,-0.472237 1.017329,0.180056 l -4.949646,4.949638 c -0.652283,0.652265 -2.311193,3.508542 -1.658909,2.856276 l 7.363213,-7.363203 c 0.652284,-0.652265 1.168687,0.02868 0.516403,0.680947 l -9.538525,9.538533 c -0.652284,0.652265 -2.311193,3.508542 -1.658909,2.856276 L 85.268007,66.012615 c 0.652284,-0.652265 0.655379,0.541982 0.0031,1.194275 L 68.177053,84.300941 c -0.652283,0.652266 -0.08297,1.280324 0.569317,0.628058 L 83.371074,70.304292 c 0.652283,-0.652265 -1.006604,2.203953 -1.658885,2.856246 L 68.812597,86.060125 c -0.652283,0.652266 -2.31114,3.508509 -1.658884,2.856246 L 80.053305,76.016784 c 0.652283,-0.652266 -1.006604,2.203953 -1.658885,2.856246 L 65.494828,91.772617 c -0.652283,0.652266 -2.31114,3.508509 -1.658884,2.856246 L 76.735536,81.729276 c 0.652283,-0.652266 -1.006604,2.203953 -1.658885,2.856246 L 62.177059,97.485109 c -0.652283,0.652266 -2.31114,3.508511 -1.658884,2.856241 L 74.745386,86.114129 c 0.652284,-0.652265 1.221598,-0.02423 0.569317,0.628059 L 58.738717,103.31818 c -0.652284,0.65226 -1.098428,2.29581 -0.446175,1.64352 L 70.101608,93.152643 c 0.652284,-0.652266 -1.006628,2.203983 -1.658909,2.856276 l -9.91598,9.915981 c -0.652284,0.65226 -0.175221,1.37259 0.477063,0.72032 l 7.780035,-7.780027 c 0.652284,-0.652266 -1.006628,2.203987 -1.658909,2.856277 l -5.409336,5.40933 c -0.652284,0.65227 0.300302,0.89706 0.952586,0.2448 l 3.287061,-3.28705 m 12.418043,-17.207555 -3.072845,3.072858 c -0.652284,0.652265 -0.08297,1.280324 0.569317,0.628058 l 2.583627,-2.583637 c 0.652284,-0.652265 1.221598,-0.02424 0.569317,0.628059 l -2.583628,2.583636 c -0.652283,0.652266 -0.08297,1.280325 0.569317,0.628059 l 2.583628,-2.583637 c 0.652284,-0.652266 1.221598,-0.02424 0.569317,0.628059 l -2.583628,2.583636 c -0.652284,0.652266 -0.08297,1.280324 0.569317,0.628059 l 2.583628,-2.583637 c 0.652283,-0.652266 1.221597,-0.02424 0.569317,0.628058 l -2.583628,2.583637 c -0.652284,0.652266 -0.08297,1.280324 0.569317,0.628059 l 2.583627,-2.583637 c 0.652284,-0.652266 1.221598,-0.02423 0.569317,0.628058 l -2.583628,2.583637 c -0.652283,0.652266 -0.08297,1.280324 0.569317,0.628059 l 2.583631,-2.58361 c 0.652284,-0.652265 1.221598,-0.02423 0.569317,0.628059 l -2.583631,2.583609 c -0.652284,0.652266 -0.08297,1.280324 0.569317,0.628059 l 2.583631,-2.58361 c 0.652283,-0.652265 1.221597,-0.02423 0.569316,0.628059 l -2.583603,2.583606 c -0.652283,0.652266 -0.08297,1.280324 0.569317,0.628059 l 2.583603,-2.583607 c 0.652284,-0.652265 1.221598,-0.02423 0.569317,0.628059 l -2.583603,2.583606 c -0.652284,0.652266 -0.08297,1.280322 0.569317,0.628059 L 84.4238,96.79112 c 0.652284,-0.652265 1.221598,-0.02423 0.569317,0.628059 l -2.583603,2.583601 c -0.652284,0.65227 -0.08297,1.28033 0.569316,0.62806 l 2.583604,-2.583603 c 0.652283,-0.652265 1.221597,-0.02424 0.569316,0.628059 l -2.583603,2.583604 c -0.652283,0.65227 -0.08297,1.28033 0.569317,0.62806 l 2.583603,-2.583606 c 0.652284,-0.652266 1.221598,-0.02424 0.569317,0.628059 l -2.583603,2.583607 c -0.652284,0.65226 -0.08297,1.28032 0.569317,0.62806 l 2.583603,-2.58361 c 0.652284,-0.652265 1.221598,-0.0242 0.569317,0.62806 l -2.573788,2.57378 c -0.652283,0.65226 0.0393,1.15809 0.69155,0.5058 l 2.393127,-2.39313 c 0.652284,-0.65226 0.895342,0.30201 0.243144,0.95429 l -1.715781,1.71571 c -0.652283,0.65226 0.862521,0.33485 1.514801,-0.31744 l 0.6621,-0.66209"
       style="fill:none;fill-opacity:1;stroke:#c94848;stroke-width:0.50800008;stroke-miterlimit:4;stroke-dasharray:none;stroke-opacity:1"
       id="path17367" />
    <path
       inkscape:connector-curvature="0"
       d="M 96.824048,64.035474 98.768911,62.0906 c 0.652283,-0.652266 1.665929,-0.468566 1.01365,0.183699 l -2.38502,2.385036 c -0.652284,0.652266 -0.538026,1.735387 0.114258,1.083122 l 3.007471,-3.007496 c 0.65229,-0.652266 1.18487,0.0125 0.53259,0.664769 l -3.425834,3.425823 c -0.652283,0.652266 -0.538026,1.735387 0.114258,1.083121 l 3.593226,-3.593248 c 0.65228,-0.652266 0.77167,0.425695 0.11939,1.077961 l -3.598388,3.598384 c -0.652284,0.652266 -0.538026,1.735387 0.114257,1.083121 l 3.598391,-3.598384 c 0.65228,-0.652266 0.76654,0.430828 0.11425,1.083121 l -3.598383,3.598384 c -0.652284,0.652266 -0.538026,1.735387 0.114258,1.083122 l 3.598385,-3.598385 c 0.65229,-0.652265 0.76654,0.430828 0.11426,1.083121 l -3.598387,3.598385 c -0.652284,0.652266 -0.538026,1.735387 0.114258,1.083121 l 3.598389,-3.598384 c 0.65228,-0.652266 0.76654,0.430828 0.11426,1.083121 l -3.598392,3.598384 c -0.652283,0.652266 -0.538025,1.735387 0.114258,1.083122 l 3.598384,-3.598385 c 0.65229,-0.652265 0.76654,0.430828 0.11426,1.083121 l -3.598386,3.598385 c -0.652284,0.652266 -0.538026,1.735387 0.114258,1.083121 l 3.598388,-3.598384 c 0.65228,-0.652266 0.76654,0.430828 0.11426,1.083121 l -3.59839,3.598384 c -0.652284,0.652266 -0.538026,1.735387 0.114258,1.083122 l 3.598392,-3.598385 c 0.65228,-0.652265 0.76653,0.430828 0.11425,1.083121 l -3.598385,3.598385 c -0.652283,0.652265 -0.538025,1.735387 0.114258,1.083121 l 3.598387,-3.598384 c 0.65228,-0.652266 0.76654,0.430828 0.11426,1.083121 l -3.598389,3.598384 c -0.652284,0.652266 -0.538026,1.735387 0.114258,1.083122 l 3.598391,-3.598385 c 0.65228,-0.652266 0.76654,0.430828 0.11425,1.083121 l -3.598383,3.598385 c -0.652284,0.652265 -0.538026,1.735387 0.114258,1.083121 l 3.598385,-3.598384 c 0.65229,-0.652266 0.76654,0.430828 0.11426,1.083121 l -3.598388,3.598384 c -0.652283,0.652266 -0.538025,1.735387 0.114258,1.083122 l 3.59839,-3.598385 c 0.65228,-0.652266 0.76654,0.430828 0.11426,1.083121 l -3.59839,3.598385 c -0.652286,0.652265 -0.538028,1.735387 0.11426,1.083121 l 3.59838,-3.598384 c 0.65229,-0.652266 0.76654,0.430828 0.11426,1.083121 l -3.59839,3.598384 c -0.65228,0.652266 -0.538022,1.735387 0.11426,1.083121 l 3.59839,-3.598384 c 0.65228,-0.652266 0.76654,0.430828 0.11426,1.083121 l -3.59839,3.598385 c -0.652284,0.652265 -0.53803,1.735387 0.11426,1.083121 l 3.59838,-3.598385 c 0.65229,-0.652265 0.76654,0.430829 0.11426,1.083122 l -3.59838,3.598384 c -0.65229,0.652266 -0.53803,1.735387 0.11425,1.083121 l 3.59839,-3.598384 c 0.65228,-0.652266 0.76654,0.430828 0.11426,1.083121 l -3.59839,3.598385 c -0.65228,0.652265 -0.55272,1.750094 0.0996,1.097804 l 3.61308,-3.613095 c 0.65229,-0.652266 0.76654,0.430828 0.11426,1.083121 l -3.47504,3.475034 c -0.65229,0.65227 -0.16913,1.3665 0.48315,0.71423 l 3.10617,-3.106173 c 0.65229,-0.652266 0.76654,0.430828 0.11426,1.083123 l -2.5393,2.5393 c -0.65228,0.65227 0.22851,0.96886 0.88079,0.31657 l 1.77277,-1.77275 c 0.65228,-0.65227 0.40761,0.78976 -0.24467,1.44203 l -0.60899,0.60899"
       style="fill:none;fill-opacity:1;stroke:#c94848;stroke-width:0.50800008;stroke-miterlimit:4;stroke-dasharray:none;stroke-opacity:1"
       id="path17392" />
    <path
       inkscape:connector-curvature="0"
       d="m 116.96057,49.885795 -2.38135,2.381364 c -0.65228,0.652266 -0.6196,1.816984 0.0327,1.164691 l 3.13477,-3.134766 c 0.65228,-0.652266 1.99279,-0.795428 1.34051,-0.143163 l -4.35113,4.35113 c -0.65229,0.652266 -0.53803,1.735387 0.11425,1.083121 l 5.57739,-5.577386 c 0.65228,-0.652265 1.99279,-0.795428 1.34051,-0.143162 l -6.80367,6.803645 c -0.65228,0.652266 -0.53803,1.735387 0.11426,1.083121 l 8.03039,-8.030397 c 0.65229,-0.652266 1.97998,-0.782612 1.32773,-0.130349 l -9.24384,9.243837 c -0.65228,0.652266 -0.53802,1.735387 0.11426,1.083121 l 10.4573,-10.457307 c 0.65229,-0.652266 1.97998,-0.782612 1.32773,-0.130349 l -11.67075,11.670747 c -0.65228,0.652266 -0.53802,1.735387 0.11426,1.083121 L 128.4201,49.202597 c 0.65228,-0.652266 1.96744,-0.770075 1.31519,-0.117812 l -6.49012,6.490125 c -0.65229,0.652266 0.68161,0.515756 1.33389,-0.136537 l 6.43834,-6.438359 c 0.65228,-0.652265 1.86288,-0.665516 1.2106,-0.01322 l -6.31506,6.315045 c -0.65228,0.652266 0.68161,0.515756 1.33389,-0.136537 l 6.16639,-6.166403 c 0.65228,-0.652266 1.75247,-0.555111 1.10019,0.09718 l -5.93269,5.932684 c -0.65228,0.652265 0.68161,0.515756 1.33389,-0.136537 l 5.69486,-5.694855 c 0.65229,-0.652266 1.67676,-0.479392 1.02448,0.172874 l -5.42739,5.427379 c -0.65228,0.652266 0.65654,0.54083 1.30882,-0.111464 l 5.14788,-5.147865 c 0.65228,-0.652265 1.6067,-0.409334 0.95445,0.242929 l -4.92808,4.928077 c -0.65228,0.652266 0.46546,0.731903 1.11775,0.07966 l 4.76477,-4.764814 c 0.65229,-0.652266 1.5649,-0.367524 0.91262,0.284769 l -4.60046,4.600468 c -0.65228,0.652265 0.37096,0.82641 1.02324,0.174117 l 4.46531,-4.465301 c 0.65229,-0.652266 1.53006,-0.332683 0.87778,0.319583 l -4.36141,4.361396 c -0.65228,0.652266 0.30512,0.892268 0.9574,0.239974 l 4.22811,-4.228123 c 0.65228,-0.652266 1.47639,-0.279019 0.82411,0.373274 l -4.15129,4.151286 c -0.65228,0.652266 0.2414,0.955951 0.89368,0.303685 l 4.04836,-4.048374 c 0.65229,-0.652266 1.41374,-0.216366 0.76145,0.4359 l -3.9818,3.981804 c -0.65229,0.652265 0.17764,1.019723 0.82992,0.367457 l 3.91334,-3.913333 c 0.65228,-0.652266 1.36415,-0.166777 0.71187,0.485516 l -3.86615,3.86614 c -0.65228,0.652266 0.11205,1.085331 0.76433,0.433065 l 3.7974,-3.79739 c 0.65228,-0.652265 1.34786,-0.150477 0.69558,0.501788 l -3.79577,3.795743 c -0.65228,0.652265 0.0486,1.148878 0.70077,0.496593 l 3.7331,-3.733116 c 0.65229,-0.652266 1.27909,-0.08178 0.62681,0.570569 l -3.72155,3.721573 c -0.65228,0.652266 -0.0156,1.212942 0.6367,0.560676 l 3.71167,-3.711653 c 0.65228,-0.652266 1.22359,-0.02612 0.5713,0.626067 l -3.70524,3.705244 c -0.65228,0.652266 -0.086,1.283403 0.56624,0.63111 l 3.69669,-3.696688 c 0.65228,-0.652266 1.20997,-0.0126 0.55768,0.639665 l -3.73711,3.7371 c -0.65228,0.652266 -0.16233,1.359712 0.48995,0.707419 l 3.75622,-3.756229 c 0.65229,-0.652265 1.13871,0.05867 0.48643,0.710935 l -3.78464,3.784634 c -0.65228,0.652266 -0.24394,1.441312 0.40834,0.789019 l 3.86272,-3.862718 c 0.65228,-0.652265 1.11106,0.08621 0.45879,0.738589 l -3.92057,3.920579 c -0.65228,0.652265 -0.33035,1.527732 0.32193,0.875439 l 4.02936,-4.029368 c 0.65228,-0.652265 1.04816,0.149226 0.39588,0.801492 l -4.10332,4.103315 c -0.65228,0.652265 -0.39635,1.593716 0.25593,0.941451 l 4.22764,-4.227628 c 0.65228,-0.652266 1.00371,0.193653 0.35143,0.845946 l -4.34794,4.347926 c -0.65228,0.652266 -0.45098,1.648344 0.2013,0.996078 l 4.46947,-4.469468 c 0.65228,-0.652265 0.96144,0.235929 0.30908,0.888203 l -4.64216,4.64224 c -0.65229,0.652265 -0.52104,1.7184 0.13125,1.066135 l 4.77278,-4.772783 c 0.65229,-0.652265 0.8953,0.302069 0.24301,0.954362 l -4.95334,4.953339 c -0.65229,0.652266 -0.60896,1.806344 0.0433,1.154051 l 5.12807,-5.128049 c 0.65228,-0.652266 0.82705,0.37032 0.17477,1.022586 l -5.31751,5.317502 c -0.65229,0.652265 -0.72113,1.918494 -0.0688,1.266228 l 5.53943,-5.539432 c 0.65228,-0.652266 0.76792,0.42943 0.11564,1.081723 l -5.81486,5.814871 c -0.65228,0.652266 -0.88238,2.079734 -0.23009,1.427468 l 6.10408,-6.104065 c 0.65229,-0.652266 0.69037,0.507012 0.0381,1.159278 l -6.66831,6.668318 c -0.65229,0.652266 -1.29331,2.490682 -0.64103,1.838389 l 7.34742,-7.347429 c 0.65229,-0.652266 0.5848,0.612567 -0.0675,1.264861 l -22.94667,22.94666 c -0.65228,0.652262 -1.99085,0.793472 -1.33857,0.141205 l 8.36579,-8.365785 c 0.65228,-0.652265 -1.68323,0.485862 -2.33551,1.138128 l -7.36885,7.368862 c -0.65229,0.652262 -1.99086,0.793472 -1.33857,0.141202 l 6.93682,-6.936818 c 0.65228,-0.652266 -0.9285,-0.268874 -1.58078,0.383419 l -6.69462,6.694609 c -0.65228,0.65226 -1.99085,0.79347 -1.33857,0.1412 l 6.57681,-6.576822 c 0.65229,-0.652265 -0.7277,-0.469681 -1.37995,0.182609 l -6.53543,6.535423 c -0.65228,0.65226 -1.99086,0.79347 -1.33857,0.1412 l 6.53543,-6.535418 c 0.65228,-0.652265 -0.68629,-0.51106 -1.33857,0.141205 l -6.53244,6.532433 c -0.65228,0.65227 -1.94499,0.74764 -1.29273,0.0953 l 6.48659,-6.486605 c 0.65229,-0.652266 -0.68629,-0.51106 -1.33857,0.141205 l -6.11423,6.11423 c -0.65228,0.65227 -1.41894,0.22159 -0.76666,-0.4307 l 5.54232,-5.542325 c 0.65228,-0.652265 -0.68629,-0.51106 -1.33858,0.141206 l -4.80296,4.802986 c -0.65229,0.652263 -1.1113,-0.08608 -0.45901,-0.738343 l 4.99873,-4.998727 c 0.65228,-0.652266 0.53802,-1.735387 -0.11426,-1.083121 l -5.18943,5.189426 c -0.65229,0.652266 -0.67811,-0.519269 -0.0258,-1.171535 l 5.101,-5.101012 c 0.65229,-0.652266 0.53803,-1.735387 -0.11426,-1.083122 l -5.101,5.101013 c -0.65228,0.652265 -0.76654,-0.430828 -0.11426,-1.083121 l 5.10101,-5.101013 c 0.65228,-0.652265 0.53802,-1.735387 -0.11426,-1.083121 l -5.101,5.101012 c -0.65229,0.652266 -0.76654,-0.430828 -0.11426,-1.083121 l 5.101,-5.101012 c 0.65229,-0.652266 0.53803,-1.735387 -0.11426,-1.083122 l -5.101,5.101013 c -0.65228,0.652266 -0.76654,-0.430828 -0.11426,-1.083121 l 5.10101,-5.101013 c 0.65228,-0.652265 0.53802,-1.735387 -0.11426,-1.083121 l -5.10101,5.101012 c -0.65228,0.652266 -0.76653,-0.430828 -0.11425,-1.083121 l 5.101,-5.101012 c 0.65228,-0.652266 0.53803,-1.735387 -0.11426,-1.083122 l -5.101,5.101013 c -0.65229,0.652266 -0.76654,-0.430828 -0.11426,-1.083121 l 5.101,-5.101013 c 0.65229,-0.652265 0.53803,-1.735387 -0.11425,-1.083121 l -5.10101,5.101012 c -0.65228,0.652266 -0.76654,-0.430828 -0.11425,-1.083121 l 5.101,-5.101012 c 0.65228,-0.652266 0.53802,-1.735387 -0.11426,-1.083121 l -5.101,5.101012 c -0.65229,0.652266 -0.76654,-0.430828 -0.11426,-1.083121 l 5.101,-5.101013 c 0.65229,-0.652265 0.53803,-1.735387 -0.11425,-1.083121 l -5.10101,5.101013 c -0.65228,0.652265 -0.76654,-0.430829 -0.11426,-1.083122 l 5.10101,-5.101012 c 0.65228,-0.652266 0.53802,-1.735387 -0.11426,-1.083121 l -5.101,5.101012 c -0.65229,0.652266 -0.76654,-0.430828 -0.11426,-1.083121 l 5.101,-5.101013 c 0.65229,-0.652265 0.53803,-1.735387 -0.11426,-1.083121 l -5.101,5.101013 c -0.65228,0.652265 -0.76654,-0.430829 -0.11426,-1.083122 l 5.10101,-5.101012 c 0.65228,-0.652266 0.53802,-1.735387 -0.11426,-1.083121 l -5.10101,5.101012 c -0.65228,0.652266 -0.76653,-0.430828 -0.11425,-1.083121 l 5.101,-5.101013 c 0.65228,-0.652265 0.53803,-1.735386 -0.11426,-1.083121 l -5.101,5.101013 c -0.65228,0.652265 -0.76654,-0.430828 -0.11426,-1.083122 l 5.101,-5.101012 c 0.65229,-0.652266 0.53803,-1.735387 -0.11425,-1.083121 l -5.10101,5.101012 c -0.65228,0.652266 -0.76654,-0.430828 -0.11425,-1.083121 l 5.101,-5.101013 c 0.65228,-0.652265 0.53803,-1.735386 -0.11426,-1.083121 l -5.101,5.101013 c -0.65229,0.652265 -0.76654,-0.430828 -0.11426,-1.083122 l 5.101,-5.101012 c 0.65229,-0.652266 0.53803,-1.735387 -0.11425,-1.083121 l -5.10101,5.101012 c -0.65228,0.652266 -0.76654,-0.430828 -0.11426,-1.083121 l 5.10101,-5.101013 c 0.65228,-0.652265 0.53802,-1.735386 -0.11426,-1.083121 l -5.59022,5.590206 m 20.03353,36.243039 21.98208,-21.982063 c 0.65229,-0.652265 0.49906,0.698304 -0.15319,1.350567 l -19.94569,19.945692 c -0.65228,0.652266 0.86891,0.328449 1.52119,-0.323844 l 18.18292,-18.182901 c 0.65229,-0.652265 0.317,0.880384 -0.33529,1.53265 l -16.23546,16.235443 c -0.65228,0.652266 0.91098,0.286389 1.56326,-0.365904 l 14.20732,-14.20733 c 0.65229,-0.652265 -0.0815,1.278923 -0.73384,1.931189 L 143.8889,97.194192 c -0.65228,0.652265 1.5184,-0.321045 2.17068,-0.973311 l 8.54947,-8.549481 m -2.0351,3.232505 -3.08398,3.083965"
       style="fill:none;fill-opacity:1;stroke:#c94848;stroke-width:0.50800008;stroke-miterlimit:4;stroke-dasharray:none;stroke-opacity:1"
       id="path17382" />
    <path
       inkscape:connector-curvature="0"
       d="m 170.18202,54.137969 -2.10131,2.101294 c -0.65228,0.652266 -0.51074,1.708104 0.14154,1.055811 l 2.8101,-2.810111 c 0.65229,-0.652265 1.99184,-0.794464 1.33956,-0.142171 l -4.0354,4.035403 c -0.65228,0.652266 -0.53802,1.735387 0.11426,1.083121 l 5.2607,-5.260696 c 0.65228,-0.652266 1.99183,-0.794465 1.33955,-0.142171 l -6.48596,6.485986 c -0.65229,0.652265 -0.53803,1.735387 0.11425,1.083121 l 7.71127,-7.711279 c 0.65228,-0.652266 1.99183,-0.794465 1.33955,-0.142172 l -8.93656,8.936572 c -0.65228,0.652266 -0.53802,1.735387 0.11426,1.083121 l 3.59846,-3.598475 c 0.65228,-0.652266 0.76654,0.430828 0.11426,1.083121 l -3.59846,3.598476 c -0.65229,0.652265 -0.53803,1.735386 0.11425,1.083121 l 3.59847,-3.598476 c 0.65228,-0.652266 0.76653,0.430828 0.11425,1.083121 l -3.59846,3.598476 c -0.65228,0.652266 -0.53802,1.735387 0.11426,1.083121 l 3.59846,-3.598475 c 0.65229,-0.652266 0.76654,0.430828 0.11426,1.083121 l -3.59846,3.598476 c -0.65229,0.652265 -0.53803,1.735386 0.11426,1.083121 l 3.59846,-3.598476 c 0.65228,-0.652266 0.76654,0.430828 0.11426,1.083121 l -3.59847,3.598476 c -0.65228,0.652266 -0.53802,1.735387 0.11426,1.083121 l 3.59846,-3.598475 c 0.65229,-0.652266 0.76654,0.430828 0.11426,1.083121 l -3.59846,3.598476 c -0.65228,0.652265 -0.53803,1.735386 0.11426,1.083121 l 3.59846,-3.598476 c 0.65228,-0.652266 1.05999,0.137376 0.40771,0.789642 l -3.89195,3.89193 c -0.65228,0.652266 -0.53802,1.735387 0.11426,1.083122 l 5.11626,-5.116258 c 0.65229,-0.652265 1.99086,-0.79347 1.33857,-0.141205 l -6.34057,6.340556 c -0.65229,0.652266 -0.53803,1.735387 0.11426,1.083122 l 7.56489,-7.564883 c 0.65228,-0.652266 1.99085,-0.793471 1.33857,-0.141205 l -8.78921,8.789209 c -0.65228,0.652265 -0.53802,1.735387 0.11426,1.083121 l 3.59839,-3.598384 c 0.65228,-0.652266 0.76654,0.430828 0.11426,1.083121 l -3.59839,3.598384 c -0.65229,0.652266 -0.53803,1.735387 0.11426,1.083122 l 3.59838,-3.598385 c 0.65229,-0.652266 0.76654,0.430828 0.11426,1.083121 l -3.59839,3.598385 c -0.65228,0.652265 -0.53802,1.735387 0.11426,1.083121 l 3.59839,-3.598384 c 0.65228,-0.652266 0.76654,0.430828 0.11426,1.083121 l -3.59839,3.598384 c -0.65228,0.652266 -0.53803,1.735387 0.11426,1.083121 l 3.59839,-3.598384 c 0.65228,-0.652266 0.76653,0.430828 0.11425,1.083121 l -3.59838,3.598385 c -0.65229,0.652265 -0.53803,1.735387 0.11425,1.083121 l 3.59839,-3.598385 c 0.65228,-0.652265 0.76654,0.430829 0.11426,1.083122 l -3.59839,3.598384 c -0.65228,0.652266 -0.53802,1.735387 0.11426,1.083121 l 3.59839,-3.598384 c 0.65228,-0.652266 0.76654,0.430828 0.11425,1.083121 l -3.60281,3.602831 c -0.65229,0.652266 -0.381,1.578378 0.27128,0.926085 l 3.44582,-3.445825 c 0.65228,-0.652266 0.76654,0.430828 0.11425,1.083121 l -3.06104,3.061038 c -0.65228,0.652266 0.0446,1.152777 0.69687,0.500511 l 2.47843,-2.478428 c 0.65229,-0.652265 0.81966,0.377724 0.16737,1.02999 l -2.14825,2.148238 m -0.0647,-37.053951 5.17705,-5.177044 c 0.65228,-0.652266 1.98451,-0.787125 1.33223,-0.13486 l -4.68411,4.684092 c -0.65228,0.652266 0.68367,0.513702 1.33596,-0.138591 l 4.68035,-4.680357 c 0.65228,-0.652266 1.98451,-0.787125 1.33223,-0.134859 l -4.67663,4.676624 c -0.65228,0.652266 0.68367,0.513702 1.33595,-0.138591 l 4.67291,-4.672893 c 0.65228,-0.652265 1.98451,-0.787125 1.33223,-0.134859 l -4.66918,4.66916 c -0.65229,0.652266 0.68367,0.513702 1.33595,-0.138591 l 4.6426,-4.642592 c 0.65228,-0.652265 1.85727,-0.659888 1.20498,-0.0076 l -4.51162,4.511622 c -0.65229,0.652266 0.68367,0.513702 1.33595,-0.138591 l 4.27541,-4.275411 c 0.65229,-0.652266 1.69836,-0.500982 1.04608,0.151283 l -3.98556,3.985539 c -0.65229,0.652266 0.68367,0.513702 1.33595,-0.138592 l 3.64833,-3.648343 c 0.65228,-0.652265 1.57145,-0.374199 0.91918,0.278205 l -3.33801,3.338002 c -0.65228,0.652265 0.4537,0.743661 1.10599,0.09139 l 3.107,-3.106987 c 0.65229,-0.652266 1.48066,-0.283365 0.82839,0.368983 l -2.92144,2.921449 c -0.65228,0.652266 0.2729,0.924495 0.92518,0.272202 l 2.75162,-2.751627 c 0.65229,-0.652265 1.38081,-0.18345 0.72853,0.468843 l -2.64754,2.647537 c -0.65228,0.652265 0.064,1.133362 0.71627,0.481099 l 2.59108,-2.591101 c 0.65228,-0.652265 1.2469,-0.04953 0.59464,0.602736 l -2.6058,2.605817 c -0.65229,0.652266 -0.17651,1.373868 0.47577,0.721575 l 2.66015,-2.660137 c 0.65229,-0.652265 1.11308,0.08427 0.4608,0.736568 l -2.63752,2.637519 c -0.65228,0.652266 -0.16885,1.366216 0.48343,0.71395 l 2.66199,-2.661973 c 0.65229,-0.652265 1.12977,0.06754 0.47749,0.719892 l -2.92156,2.921547 c -0.65229,0.652265 -0.54923,1.746586 0.10305,1.09432 l 3.27752,-3.277524 c 0.65229,-0.652266 1.05688,0.140488 0.40459,0.792781 l -4.75479,4.754772 m -19.24896,10.867368 5.16699,-5.166967 c 0.65228,-0.652266 1.99085,-0.793471 1.33857,-0.141205 l -4.67776,4.677773 c -0.65229,0.652266 0.68629,0.511061 1.33857,-0.141205 l 4.67776,-4.677773 c 0.65228,-0.652266 1.99086,-0.793471 1.33857,-0.141206 l -4.67776,4.677774 c -0.65228,0.652265 0.68629,0.51106 1.33857,-0.141205 l 4.67777,-4.677774 c 0.65228,-0.652265 1.9951,-0.797759 1.34282,-0.145466 l -4.68204,4.682037 c -0.65229,0.652266 0.68629,0.511061 1.33857,-0.141205 l 5.02667,-5.026664 c 0.65229,-0.652265 2.66096,-1.463589 2.00868,-0.811323 l -5.69678,5.696782 c -0.65228,0.652266 0.68629,0.51106 1.33858,-0.141205 l 12.97941,-12.979412 c 0.65228,-0.652266 0.77592,0.421433 0.12364,1.073727 l -11.97628,11.976271 c -0.65228,0.652265 -0.16875,1.366121 0.48353,0.713828 l 11.57161,-11.571632 c 0.65229,-0.652266 0.72584,0.47152 0.0736,1.123813 l -11.16167,11.16165 c -0.65228,0.652266 -0.16875,1.366121 0.48353,0.713828 L 199.4785,66.749373 c 0.65228,-0.652266 -0.20779,1.405163 -0.86005,2.057426 l -4.08745,4.087342 m -5.17908,5.179178 3.13465,-3.134641 c 0.65228,-0.652266 1.13581,0.06156 0.48352,0.713828 l -2.64542,2.645421 c -0.65229,0.652266 -0.16875,1.366121 0.48353,0.713828 l 2.64542,-2.645421 c 0.65229,-0.652265 1.13582,0.06156 0.48353,0.713829 l -2.64542,2.645421 c -0.65229,0.652265 -0.16876,1.366121 0.48352,0.713828 l 2.64543,-2.645421 c 0.65228,-0.652266 1.13581,0.06156 0.48353,0.713828 l -2.64543,2.645421 c -0.65228,0.652266 -0.16875,1.366122 0.48353,0.713828 l 2.64543,-2.645421 c 0.65228,-0.652265 1.13581,0.06156 0.48353,0.713829 l -2.64543,2.645421 c -0.65228,0.652265 -0.16875,1.366121 0.48353,0.713828 l 2.64543,-2.645421 c 0.65228,-0.652266 1.13581,0.06156 0.48353,0.713828 l -2.64543,2.645421 c -0.65228,0.652266 -0.16875,1.366122 0.48353,0.713828 l 2.64542,-2.645421 c 0.65229,-0.652265 1.13582,0.06156 0.48353,0.713829 l -2.64542,2.645421 c -0.65229,0.652265 -0.16875,1.366121 0.48353,0.713828 l 2.64542,-2.645421 c 0.65229,-0.652266 1.13582,0.06156 0.48353,0.713828 l -2.64542,2.645421 c -0.65229,0.652266 -0.16876,1.366122 0.48352,0.713828 l 2.64543,-2.645421 c 0.65228,-0.652265 1.13581,0.06156 0.48353,0.713829 l -2.64543,2.645421 c -0.65228,0.652265 -0.16875,1.366121 0.48353,0.713828 l 2.64543,-2.645421 c 0.65228,-0.652266 1.13581,0.06156 0.48353,0.713828 l -2.64543,2.645421 c -0.65228,0.652266 -0.16875,1.366122 0.48353,0.713828 l 2.64543,-2.645421 c 0.65228,-0.652265 1.13581,0.06156 0.48353,0.713829 l -2.64543,2.645421 c -0.65228,0.652265 -0.1179,1.315287 0.53435,0.662997 l 2.5946,-2.59459 c 0.65229,-0.652266 1.09254,0.104807 0.44029,0.757098 l -2.33918,2.339183 c -0.65229,0.652265 0.35059,0.846757 1.00288,0.194492 l 2.07784,-2.077865"
       style="fill:none;fill-opacity:1;stroke:#c94848;stroke-width:0.50800008;stroke-miterlimit:4;stroke-dasharray:none;stroke-opacity:1"
       id="path17372" />
    <path
       inkscape:connector-curvature="0"
       d="m 223.91298,50.696474 2.03085,-2.030833 c 0.65229,-0.652265 1.66473,-0.467353 1.01245,0.184913 l -3.14618,3.146154 c -0.65228,0.652265 -1.24435,2.441717 -0.59207,1.789452 l 4.48528,-4.485273 c 0.65228,-0.652265 1.18975,0.0076 0.53747,0.659886 l -5.61484,5.614841 c -0.65229,0.652266 -1.24435,2.441718 -0.59207,1.789452 l 6.65294,-6.652921 c 0.65228,-0.652266 1.09447,0.102877 0.44219,0.75517 l -7.6872,7.687203 c -0.65228,0.652265 -1.24435,2.441717 -0.59207,1.789451 l 8.7215,-8.721486 c 0.65228,-0.652265 1.09448,0.102878 0.4422,0.755171 l -9.75576,9.755767 c -0.65229,0.652266 -1.24436,2.441717 -0.59207,1.789452 l 10.79005,-10.790051 c 0.65228,-0.652265 1.09448,0.102878 0.4422,0.755171 l -2.69764,2.697623 c -0.65228,0.652265 -0.21011,1.407467 0.44218,0.755201 l 2.69766,-2.697653 c 0.65228,-0.652266 1.09447,0.102878 0.44219,0.755171 l -2.69768,2.697683 c -0.65228,0.652266 -0.21011,1.407467 0.44217,0.755202 l 2.69774,-2.697717 c 0.65228,-0.652266 1.09448,0.102877 0.4422,0.755171 l -2.69776,2.697747 c -0.65229,0.652266 -0.21011,1.407467 0.44217,0.755201 l 2.69778,-2.697805 c 0.65228,-0.652266 1.09448,0.102878 0.4422,0.755171 l -2.69783,2.697838 c -0.65229,0.652266 -0.21012,1.407467 0.44217,0.755202 l 2.69786,-2.697869 c 0.65228,-0.652266 1.09447,0.102877 0.44219,0.755171 l -2.69788,2.697899 c -0.65228,0.652266 -0.21011,1.407467 0.44217,0.755201 l 2.69794,-2.697933 c 0.65228,-0.652265 1.09448,0.102878 0.4422,0.755171 l -2.69796,2.697964 c -0.65229,0.652265 -0.21011,1.407466 0.44217,0.755201 l 2.69798,-2.697994 c 0.65229,-0.652265 1.09448,0.102878 0.4422,0.755171 l -2.69803,2.698027 c -0.65229,0.652266 -0.21012,1.407467 0.44217,0.755201 l 2.69806,-2.698057 c 0.65228,-0.652266 1.09448,0.102878 0.4422,0.755171 l -2.69809,2.698088 c -0.65228,0.652265 -0.21011,1.407467 0.44217,0.755201 l 2.69814,-2.698121 c 0.65229,-0.652266 1.09448,0.102877 0.4422,0.755171 l -2.69816,2.698151 c -0.65229,0.652266 -0.21011,1.407467 0.44217,0.755201 l 2.69819,-2.698182 c 0.65228,-0.652265 1.09448,0.102878 0.44219,0.755171 l -2.69823,2.698216 c -0.65229,0.652265 -0.21011,1.407467 0.44217,0.755201 l 2.69826,-2.698273 c 0.65228,-0.652266 1.09448,0.102877 0.4422,0.755171 l -3.18751,3.187496 m -10.04894,-13.898521 -7.43191,7.43192 c -0.65228,0.652266 -1.24435,2.441717 -0.59207,1.789452 l 6.94254,-6.942544 c 0.65228,-0.652266 0.06,1.137344 -0.59225,1.789609 l -6.94236,6.942359 c -0.65228,0.652265 -1.24435,2.441717 -0.59207,1.789452 l 6.94222,-6.942204 c 0.65228,-0.652266 0.06,1.137344 -0.59225,1.78961 l -6.94204,6.942018 c -0.65228,0.652265 -1.24435,2.441717 -0.59206,1.789451 l 6.94185,-6.94186 c 0.65229,-0.652265 0.06,1.137344 -0.59224,1.78961 l -6.94171,6.941705 c -0.65228,0.652266 -1.24435,2.441717 -0.59207,1.789452 l 6.94153,-6.94152 c 0.65229,-0.652266 0.06,1.137344 -0.59224,1.78961 l -6.94136,6.941362 c -0.65228,0.652265 -1.24435,2.441717 -0.59206,1.789451 l 7.1235,-7.123505 c 0.65228,-0.652266 1.84515,-0.647786 1.19287,0.0045 l -8.90844,8.90845 c -0.65228,0.652266 -1.24435,2.441717 -0.59207,1.789452 l 10.83909,-10.83908 c 0.65228,-0.652265 1.99085,-0.79347 1.33857,-0.141205 l -12.77678,12.776769 c -0.65228,0.652266 -0.7609,1.958253 -0.10861,1.305987 l 6.46759,-6.467601 c 0.65228,-0.652266 0.0601,1.137252 -0.59217,1.789545 l -5.52508,5.525063 c -0.65228,0.652266 -0.0929,1.290278 0.55937,0.637985 l 4.37351,-4.373526 c 0.65228,-0.652266 0.0601,1.137253 -0.59217,1.789546 l -3.02356,3.023552 c -0.65228,0.652265 0.4425,0.75486 1.09478,0.102567 l 1.8258,-1.825791 m 4.46842,-9.257949 5.16744,-5.167432 c 0.65228,-0.652265 1.99085,-0.79347 1.33857,-0.141205 l -4.67822,4.678211 c -0.65228,0.652266 0.68629,0.511061 1.33858,-0.141205 l 4.67821,-4.678211 c 0.65229,-0.652266 1.99086,-0.793471 1.33857,-0.141205 l -4.67821,4.678211 c -0.65229,0.652265 0.68629,0.51106 1.33857,-0.141205 l 4.67822,-4.678211 c 0.65228,-0.652266 1.99085,-0.793471 1.33857,-0.141206 l -4.67822,4.678211 c -0.65228,0.652266 0.68629,0.511061 1.33857,-0.141205 l 4.67822,-4.678211 c 0.65228,-0.652266 1.99086,-0.793471 1.33857,-0.141205 l -4.67821,4.678211 c -0.65229,0.652266 0.68629,0.51106 1.33857,-0.141205 l 8.07694,-8.076937 c 0.65228,-0.652266 1.09449,0.102988 0.4422,0.755171 l -7.18059,7.180591 c -0.65229,0.652266 0.68629,0.51106 1.33857,-0.141205 l 6.28421,-6.284215 c 0.65229,-0.652266 1.09448,0.102877 0.4422,0.75517 l -5.38787,5.387842 c -0.65228,0.652266 0.68629,0.511061 1.33858,-0.141205 l 4.49149,-4.491493 c 0.65228,-0.652266 1.09447,0.102877 0.44219,0.755171 l -3.59511,3.595117 c -0.65229,0.652266 0.68546,0.511927 1.33771,-0.140363 l 2.6996,-2.699611 c 0.65228,-0.652266 1.09448,0.102878 0.4422,0.755171 l -2.6997,2.699705 c -0.65228,0.652265 -0.21006,1.407433 0.44222,0.75514 l 2.6997,-2.699677 c 0.65228,-0.652266 1.09448,0.102878 0.4422,0.755171 l -2.69967,2.699674 c -0.65229,0.652266 -0.21006,1.407434 0.44222,0.75514 l 2.69967,-2.699674 c 0.65228,-0.652266 1.09448,0.102878 0.4422,0.755171 l -2.69967,2.699674 c -0.65229,0.652266 -0.21006,1.407434 0.44222,0.755141 l 2.69965,-2.699644 c 0.65228,-0.652266 1.09447,0.102878 0.44219,0.755171 l -2.69964,2.699644 c -0.65229,0.652265 -0.21006,1.407433 0.44222,0.75514 l 2.69965,-2.699644 c 0.65228,-0.652266 1.09447,0.102878 0.44219,0.755171 l -2.69962,2.699641 c -0.65228,0.652266 -0.21005,1.407434 0.44223,0.75514 l 2.69962,-2.699613 c 0.65228,-0.652266 1.09448,0.102878 0.4422,0.755171 l -2.69963,2.699613 c -0.65228,0.652266 -0.18483,1.382205 0.46742,0.729942 l 2.6744,-2.674384 c 0.65229,-0.652266 1.09448,0.102877 0.4422,0.755171 l -2.51378,2.513768 c -0.65228,0.652265 0.15386,1.04352 0.80614,0.391227 l 2.08149,-2.081506 c 0.65229,-0.652266 0.64564,0.551747 -0.007,1.204004 l -1.35682,1.356766"
       style="fill:none;fill-opacity:1;stroke:#c94848;stroke-width:0.50800008;stroke-miterlimit:4;stroke-dasharray:none;stroke-opacity:1"
       id="path17377" />
    <path
       inkscape:connector-curvature="0"
       d="m 250.45974,45.702301 -1.0935,1.093512 c -0.65228,0.652266 -0.72007,1.917436 -0.0678,1.265143 l 1.972,-1.972002 c 0.65229,-0.652266 1.4966,-0.299239 0.84435,0.353024 l -2.50751,2.507513 c -0.65228,0.652266 -0.29809,1.495443 0.3542,0.843178 l 2.78085,-2.780867 c 0.65228,-0.652266 1.0915,0.105807 0.43922,0.758128 l -2.8659,2.865919 c -0.65229,0.652266 -0.29809,1.495444 0.35419,0.843178 l 2.86588,-2.865889 c 0.65229,-0.652266 1.00643,0.190917 0.35418,0.843208 l -2.86586,2.865859 c -0.65228,0.652265 -0.29809,1.495443 0.3542,0.843177 l 2.8658,-2.865825 c 0.65228,-0.652266 1.00643,0.190918 0.35417,0.843208 l -2.86578,2.865795 c -0.65228,0.652266 -0.29808,1.495443 0.3542,0.843178 l 2.86576,-2.865765 c 0.65228,-0.652266 1.00642,0.190918 0.35417,0.843208 l -2.86573,2.865734 c -0.65229,0.652266 -0.29809,1.495444 0.35419,0.843178 l 2.86571,-2.865704 c 0.65228,-0.652266 1.00643,0.190918 0.35417,0.843208 l -2.86568,2.865674 c -0.65228,0.652265 -0.29809,1.495443 0.3542,0.843177 l 2.86563,-2.86564 c 0.65228,-0.652266 1.00642,0.190918 0.35417,0.843208 l -2.86561,2.86561 c -0.65228,0.652266 -0.29808,1.495443 0.3542,0.843178 l 2.86558,-2.86558 c 0.65228,-0.652265 1.00643,0.190918 0.35417,0.843208 l -2.86555,2.865549 c -0.65229,0.652266 -0.29809,1.495444 0.35419,0.843178 l 2.86554,-2.865519 c 0.65228,-0.652265 1.00642,0.190918 0.35417,0.843208 l -2.86551,2.865489 c -0.65228,0.652265 -0.29809,1.495443 0.3542,0.843177 l 2.86545,-2.865455 c 0.65229,-0.652265 1.00643,0.190918 0.35417,0.843209 l -2.86542,2.865424 c -0.65229,0.652265 -0.29809,1.495443 0.35419,0.843178 l 2.86541,-2.865394 c 0.65228,-0.652266 1.00642,0.190917 0.35417,0.843208 l -2.86538,2.865363 c -0.65228,0.652266 -0.29809,1.495443 0.3542,0.843178 l 2.86535,-2.865361 c 0.65228,-0.652265 1.00642,0.190918 0.35417,0.843208 l -2.86533,2.86533 c -0.65228,0.652266 -0.29808,1.495444 0.3542,0.843178 l 2.86528,-2.865297 c 0.65228,-0.652265 1.00642,0.190918 0.35417,0.843208 l -2.86525,2.865267 c -0.65229,0.652265 -0.29809,1.495443 0.35419,0.843177 l 2.86523,-2.865236 c 0.65228,-0.652265 1.00643,0.190918 0.35417,0.843209 l -2.8652,2.865205 c -0.65228,0.652266 -0.29809,1.495443 0.3542,0.843178 l 2.86517,-2.865175 c 0.65229,-0.652266 1.00643,0.190917 0.35418,0.843208 l -2.86513,2.865141 c -0.65228,0.652266 -0.29809,1.495444 0.3542,0.843178 l 2.8651,-2.865111 c 0.65228,-0.652266 1.00642,0.190918 0.35417,0.843208 l -2.86507,2.865081 c -0.65229,0.652265 -0.29809,1.495443 0.35419,0.843177 l 2.86505,-2.86505 c 0.65229,-0.652266 1.00643,0.190918 0.35418,0.843208 l -2.86503,2.86502 c -0.65228,0.652266 -0.29809,1.495443 0.3542,0.843178 l 3.35419,-3.354208 m 5.7281,-28.478297 1.05745,-1.057457 c 0.65228,-0.652266 1.8885,-0.69115 1.23622,-0.03886 l -2.09904,2.099051 c -0.65228,0.652266 -0.90315,2.100513 -0.25086,1.448248 l 3.21824,-3.218233 c 0.6522,-0.652257 1.29483,-0.09735 0.64262,0.554792 l -4.11173,4.11166 c -0.65228,0.652266 -0.90314,2.100513 -0.25086,1.448248 l 4.79577,-4.795771 c 0.6522,-0.652257 1.00133,0.196158 0.34831,0.848529 l -5.39497,5.395492 c -0.65228,0.652266 -0.90314,2.100513 -0.25086,1.448247 l 5.98948,-5.989486 c 0.6522,-0.652257 0.99527,0.202029 0.34334,0.854284 l -6.58368,6.58345 c -0.65228,0.652265 -0.90314,2.100513 -0.25086,1.448247 l 7.17734,-7.177354 c 0.6522,-0.652257 0.99527,0.202029 0.34335,0.854284 l -7.77156,7.77129 c -0.65228,0.652266 -0.90314,2.100513 -0.25086,1.448247 l 8.36521,-8.365194 c 0.6522,-0.652257 0.99527,0.202029 0.34335,0.854284 l -8.95939,8.959155 c -0.65228,0.652265 -0.90315,2.100513 -0.25086,1.448247 l 9.55305,-9.55306 c 0.6522,-0.652256 0.99527,0.202029 0.34334,0.854285 l -2.8902,2.890188 c -0.6522,0.652257 -0.3094,1.506627 0.34335,0.854312 l 2.89023,-2.890219 c 0.6522,-0.652257 0.99527,0.202029 0.34335,0.854285 l -2.89028,2.890279 c -0.6522,0.652257 -0.30912,1.506598 0.34335,0.854312 l 2.8903,-2.89031 c 0.6522,-0.652257 0.99527,0.202029 0.34335,0.854285 l -2.89035,2.890342 c -0.6522,0.652257 -0.30913,1.506598 0.34335,0.854312 l 2.89037,-2.890373 c 0.6522,-0.652257 0.99527,0.202029 0.34335,0.854284 l -2.89249,2.890625 c -0.6522,0.652257 -0.30913,1.506598 0.34335,0.854312 l 2.89045,-2.890437 c 0.6522,-0.652257 0.99527,0.202029 0.34335,0.854284 l -2.89048,2.890495 c -0.6522,0.652257 -0.30912,1.506598 0.34335,0.854312 l 2.89053,-2.890528 c 0.6522,-0.652257 0.99527,0.202029 0.34335,0.854284 l -2.89055,2.890559 c -0.6522,0.652257 -0.30941,1.506627 0.34335,0.854312 l 2.8906,-2.890592 c 0.6522,-0.652257 0.99527,0.202029 0.34335,0.854284 l -2.89063,2.890623 c -0.6522,0.652256 -0.3094,1.506626 0.34335,0.854311 l 2.89065,-2.890652 c 0.6522,-0.652257 0.99527,0.202028 0.34335,0.854284 l -2.89071,2.890686 c -0.6522,0.652257 -0.3094,1.506627 0.34335,0.854312 l 2.89073,-2.890744 c 0.6522,-0.652257 0.99527,0.202029 0.34335,0.854284 l -2.89078,2.890778 c -0.6522,0.652257 -0.30913,1.506598 0.34335,0.854312 l 2.8908,-2.890808 c 0.6522,-0.652257 0.99527,0.202029 0.34335,0.854284 l -2.89086,2.890841 c -0.6522,0.652257 -0.30912,1.506598 0.34335,0.854312 l 2.88692,-2.890453 c 0.6522,-0.652257 0.99527,0.202029 0.34335,0.854284 l -2.89091,2.890902 c -0.6522,0.652257 -0.30912,1.506598 0.34335,0.854312 l 2.89096,-2.890963 c 0.6522,-0.652257 0.99527,0.202029 0.34334,0.854285 l -2.89097,2.890993 c -0.65221,0.652257 -0.30941,1.506627 0.34335,0.854312 l 9.32045,-9.321544 c 0.6522,-0.652257 0.93265,-2.129978 0.28045,-1.477721 l -5.34275,5.342761 c -0.6524,0.652277 -0.37211,-0.825371 0.28018,-1.477637 l 5.3428,-5.342822 c 0.6522,-0.652257 0.93265,-2.129978 0.28045,-1.477721 l -5.34288,5.342886 c -0.6522,0.652257 -0.37202,-0.82538 0.28018,-1.477637 l 5.34293,-5.342919 c 0.6522,-0.652257 0.93265,-2.129978 0.28045,-1.477722 l -5.34298,5.342981 c -0.6522,0.652256 -0.37202,-0.825381 0.28018,-1.477638 l 5.34303,-5.34304 c 0.6522,-0.652257 0.93265,-2.129978 0.28045,-1.477722 l -5.34308,5.343102 c -0.6522,0.652257 -0.37202,-0.82538 0.28018,-1.477637 l 5.34316,-5.343138 c 0.6522,-0.652257 0.93265,-2.129978 0.28045,-1.477721 l -5.34321,5.343199 c -0.6522,0.652257 -0.37202,-0.82538 0.28018,-1.477637 l 5.34326,-5.34326 c 0.6522,-0.652257 0.93265,-2.129978 0.28045,-1.477721 l -5.34331,5.343321 c -0.6522,0.652257 -0.37202,-0.82538 0.28018,-1.477637 l 5.34336,-5.343354 c 0.6522,-0.652257 0.93265,-2.129978 0.28045,-1.477721 l -5.34341,5.343414 c -0.6522,0.652257 -0.37202,-0.82538 0.28018,-1.477637 l 5.34349,-5.343478 c 0.6522,-0.652257 0.88584,-2.083076 0.23336,-1.43079 l -5.29656,5.296592 c -0.65221,0.652257 -0.37203,-0.82538 0.28018,-1.477637 l 4.88749,-4.88751 c 0.6522,-0.652257 0.20039,-1.397815 -0.45181,-0.74553 l -4.15539,4.155391 c -0.65221,0.652257 -0.37203,-0.82538 0.28018,-1.477637 l 3.22593,-3.225778 c 0.6522,-0.652256 -0.20734,-0.98943 -0.86036,-0.337086 l -2.08526,2.085185 c -0.6522,0.652257 -0.2753,-0.921486 0.37635,-1.573712 l 0.85459,-0.854513 m -19.99254,16.400112 -5.68914,5.68916 c -0.65229,0.652265 -0.90315,2.100513 -0.25087,1.448247 l 5.19973,-5.199723 c 0.65229,-0.652266 0.4012,0.796173 -0.25108,1.448466 l -5.19951,5.199504 c -0.65228,0.652266 -0.90314,2.100513 -0.25086,1.448248 l 5.19928,-5.199286 c 0.65228,-0.652266 0.40119,0.796173 -0.25109,1.448466 l -5.19905,5.199067 c -0.65228,0.652266 -0.90314,2.100513 -0.25086,1.448248 l 5.19885,-5.198852 c 0.65228,-0.652265 0.40119,0.796173 -0.25109,1.448467 l -5.68784,5.687825 m 5.92591,-4.728629 -9.84404,9.844053 c -0.65228,0.652266 -0.29809,1.495443 0.3542,0.843178 l 8.74956,-8.749547 c 0.65228,-0.652266 0.40119,0.796173 -0.25109,1.448466 l -8.14427,8.144286 c -0.65229,0.652266 -0.29809,1.495443 0.35419,0.843178 l 7.53899,-7.538998 c 0.65228,-0.652266 0.40119,0.796173 -0.25109,1.448466 l -6.9337,6.933709 c -0.65228,0.652266 -0.29809,1.495444 0.3542,0.843178 l 6.32844,-6.328424 c 0.65228,-0.652265 0.40119,0.796173 -0.25109,1.448467 l -5.72315,5.723162 c -0.65229,0.652266 -0.29809,1.495443 0.35419,0.843178 l 5.11787,-5.117874 c 0.65229,-0.652266 0.40119,0.796173 -0.25109,1.448466 l -4.49025,4.490278 c -0.65228,0.652265 -0.1239,1.321262 0.52839,0.668969 l 3.71078,-3.710781 c 0.65228,-0.652266 0.40119,0.796173 -0.25109,1.448466 l -2.72117,2.721171 c -0.65229,0.652265 0.34773,0.849648 1.00001,0.197355 l 1.95929,-1.95928 m 23.50723,-16.323189 -9.1875,9.187499 c -0.6522,0.652257 -0.3094,1.506627 0.34335,0.854312 l 8.07495,-8.074947 c 0.6522,-0.652256 0.37203,0.825408 -0.28045,1.477722 l -7.45159,7.451583 c -0.6522,0.652257 -0.3094,1.506627 0.34335,0.854312 l 6.82821,-6.828218 c 0.6522,-0.652257 0.37202,0.825408 -0.28045,1.477721 l -6.20485,6.204855 c -0.6522,0.652257 -0.30913,1.506598 0.34335,0.854312 l 5.58149,-5.581492 c 0.6522,-0.652257 0.37202,0.825408 -0.28045,1.477721 l -4.95332,4.953309 c -0.6522,0.652257 -0.2379,1.435276 0.4143,0.783019 l 4.25862,-4.258613 c 0.65221,-0.652257 0.37203,0.825408 -0.28044,1.477721 l -3.35052,3.350536 c -0.6522,0.652257 0.20746,0.99067 0.85884,0.3385 l 2.21137,-2.211301 c 0.6522,-0.652257 0.39668,0.800628 -0.25552,1.452912 l -1.35728,1.357259"
       style="fill:none;fill-opacity:1;stroke:#c94848;stroke-width:0.50800008;stroke-miterlimit:4;stroke-dasharray:none;stroke-opacity:1"
       id="path17387" />
  </g>
  <WCB
     pausedposy="0"
     pausedposx="0"
     lastknownposy="0"
     lastknownposx="0"
     lastpathnc="0"
     lastpath="0"
     node="0"
     layer="0" />
</svg>
