<?xml version="1.0" encoding="UTF-8" standalone="no"?>
<!-- Created with Inkscape (http://www.inkscape.org/) -->

<svg
   xmlns:dc="http://purl.org/dc/elements/1.1/"
   xmlns:cc="http://creativecommons.org/ns#"
   xmlns:rdf="http://www.w3.org/1999/02/22-rdf-syntax-ns#"
   xmlns:svg="http://www.w3.org/2000/svg"
   xmlns="http://www.w3.org/2000/svg"
   xmlns:sodipodi="http://sodipodi.sourceforge.net/DTD/sodipodi-0.dtd"
   xmlns:inkscape="http://www.inkscape.org/namespaces/inkscape"
   width="11in"
   height="8.5in"
   viewBox="0 0 11 8.5"
   id="svg198899"
   version="1.1"
   inkscape:version="0.91 r13725"
   sodipodi:docname="HappyBirthday.svg">
  <sodipodi:namedview
     inkscape:document-units="in"
     pagecolor="#ffffff"
     bordercolor="#666666"
     borderopacity="1.0"
     inkscape:pageopacity="0.0"
     inkscape:pageshadow="2"
     inkscape:zoom="0.85359477"
     inkscape:cx="495"
     inkscape:cy="411.64952"
     inkscape:current-layer="layer4"
     id="namedview198903"
     showgrid="false"
     inkscape:window-width="1436"
     inkscape:window-height="855"
     inkscape:window-x="0"
     inkscape:window-y="1"
     inkscape:window-maximized="1" />
  <defs
     id="defs198901">
    <inkscape:path-effect
       back_thickness="0.25"
       front_thickness="1"
       stroke_width_bottom="1"
       stroke_width_top="1"
       fat_output="false"
       bottom_smth_variation="0;1"
       top_smth_variation="0;1"
       scale_tb="2"
       scale_tf="2"
       scale_bb="2"
       scale_bf="2"
       top_tgt_variation="0;1"
       bottom_tgt_variation="0;1"
       top_edge_variation="0;1"
       bottom_edge_variation="0;1"
       bender="5.5971029,5.3819233 , 0.05555555,0"
       do_bend="true"
       growth="0"
       dist_rdm="0;1"
       direction="5.5971029,5.3263677 , 0.13530632,0.1954036"
       is_visible="true"
       id="path-effect11947"
       effect="rough_hatches" />
    <inkscape:path-effect
       back_thickness="0.25"
       front_thickness="1"
       stroke_width_bottom="1"
       stroke_width_top="1"
       fat_output="false"
       bottom_smth_variation="0;1"
       top_smth_variation="0;1"
       scale_tb="2"
       scale_tf="2"
       scale_bb="2"
       scale_bf="2"
       top_tgt_variation="0;1"
       bottom_tgt_variation="0;1"
       top_edge_variation="0;1"
       bottom_edge_variation="0;1"
       bender="8.9694391,3.0432029 , 0.05555555,0"
       do_bend="true"
       growth="0"
       dist_rdm="0;1"
       direction="8.9694391,2.9876473 , -0.021842563,0.17602413"
       is_visible="true"
       id="path-effect10902"
       effect="rough_hatches" />
    <inkscape:path-effect
       back_thickness="0.25"
       front_thickness="1"
       stroke_width_bottom="1"
       stroke_width_top="1"
       fat_output="false"
       bottom_smth_variation="0;1"
       top_smth_variation="0;1"
       scale_tb="2"
       scale_tf="2"
       scale_bb="2"
       scale_bf="2"
       top_tgt_variation="0;1"
       bottom_tgt_variation="0;1"
       top_edge_variation="0;1"
       bottom_edge_variation="0;1"
       bender="5.4861814,4.250572 , 0.055555544,0"
       do_bend="true"
       growth="0"
       dist_rdm="0;1"
       direction="5.4861814,4.1950164 , -0.021842561,0.17602412"
       is_visible="true"
       id="path-effect10902-6"
       effect="rough_hatches" />
    <inkscape:path-effect
       back_thickness="0.25"
       front_thickness="1"
       stroke_width_bottom="1"
       stroke_width_top="1"
       fat_output="false"
       bottom_smth_variation="0;1"
       top_smth_variation="0;1"
       scale_tb="2"
       scale_tf="2"
       scale_bb="2"
       scale_bf="2"
       top_tgt_variation="0;1"
       bottom_tgt_variation="0;1"
       top_edge_variation="0;1"
       bottom_edge_variation="0;1"
       bender="8.7472167,2.6432028 , 0.055555544,0"
       do_bend="true"
       growth="0"
       dist_rdm="0;1"
       direction="8.7472167,2.5876472 , -0.021842561,0.17602412"
       is_visible="true"
       id="path-effect10902-9"
       effect="rough_hatches" />
    <inkscape:path-effect
       back_thickness="0.25"
       front_thickness="1"
       stroke_width_bottom="1"
       stroke_width_top="1"
       fat_output="false"
       bottom_smth_variation="0;1"
       top_smth_variation="0;1"
       scale_tb="2"
       scale_tf="2"
       scale_bb="2"
       scale_bf="2"
       top_tgt_variation="0;1"
       bottom_tgt_variation="0;1"
       top_edge_variation="0;1"
       bottom_edge_variation="0;1"
       bender="5.5971024,5.3819223 , 0.055555544,0"
       do_bend="true"
       growth="0"
       dist_rdm="0;1"
       direction="5.607468,5.3056353 , -0.088392064,0.29640872"
       is_visible="true"
       id="path-effect11947-7"
       effect="rough_hatches" />
  </defs>
  <metadata
     id="metadata198905">
    <rdf:RDF>
      <cc:Work
         rdf:about="">
        <dc:format>image/svg+xml</dc:format>
        <dc:type
           rdf:resource="http://purl.org/dc/dcmitype/StillImage" />
        <dc:title></dc:title>
      </cc:Work>
    </rdf:RDF>
  </metadata>
  <g
     style="display:inline"
     inkscape:groupmode="layer"
     id="layer2"
     inkscape:label="2-red">
    <path
       inkscape:original-d="m 8.6504669,2.2761845 c 0,0 1.0158359,-0.8502988 1.4875811,-0.028626 0.471746,0.8216731 -2.0652318,1.7189953 -2.0652318,1.7189953 0,0 -1.3510415,-2.2609959 -0.4852817,-2.5905836 0.8657592,-0.3295878 1.0629324,0.9002142 1.0629324,0.9002142 z"
       inkscape:path-effect="#path-effect10902-9"
       style="display:inline;fill:none;stroke:#ff0000;stroke-width:0.03333334;stroke-linecap:round;stroke-linejoin:round;stroke-miterlimit:4;stroke-dasharray:none;stroke-opacity:1"
       d="m 8.0521067,3.9311774 c 0,0 0.051955,0.024383 0.1228858,-0.00263 0.070918,-0.02701 -0.1341381,-0.016692 -0.1559239,-0.055232 -0.021788,-0.038544 0.2267527,0.028206 0.2949554,8.557e-4 0.068195,-0.027347 -0.3167323,-0.039401 -0.3379251,-0.077862 -0.021192,-0.038459 0.4061071,0.050503 0.4720476,0.022881 0.065952,-0.027627 -0.4932368,-0.061345 -0.513906,-0.099738 -0.020663,-0.038381 0.579871,0.072097 0.6437239,0.044227 C 8.6418551,3.735792 7.9135762,3.6810631 7.8934,3.6427325 7.8732372,3.6044274 8.6418834,3.7357753 8.703725,3.7076696 8.7656372,3.6795317 7.8732333,3.6044187 7.8535364,3.5661473 7.8338617,3.5279189 8.7656771,3.6795114 8.8255343,3.6511757 8.8855004,3.6227883 7.8338555,3.5279074 7.8146335,3.4896929 7.795444,3.451543 8.8855502,3.6227639 8.9434196,3.5942002 9.0014413,3.5655614 7.7954359,3.4515289 7.7766904,3.4133694 7.7579894,3.3753004 9.0014998,3.5655324 9.0573566,3.5367404 9.1134135,3.5078452 7.7579795,3.3752834 7.739717,3.3371778 7.7215124,3.299193 9.1134797,3.5078115 9.1672821,3.4787884 9.221336,3.4496298 7.7215006,3.2991731 7.7037315,3.2611204 7.6860351,3.2232237 9.2214095,3.4495907 9.2731004,3.4203327 9.325097,3.3909016 7.6860214,3.2232005 7.6687595,3.1852003 7.6515867,3.1473963 9.3251774,3.3908567 9.3746862,3.3613577 9.4245571,3.331643 7.651571,3.1473695 7.6348338,3.1094215 7.6182032,3.0717155 9.4246437,3.3315917 9.4718858,3.3018446 9.5195477,3.2718331 7.6181853,3.0716848 7.6019934,3.0337888 7.5859272,2.996187 9.5196402,3.2717746 9.5645165,3.2417709 9.609871,3.2114474 7.585907,2.996152 7.5702848,2.958308 7.5548086,2.9208176 9.609969,3.2113807 9.6523654,3.1811102 9.6952979,3.1504569 7.5547858,2.9207777 7.5397616,2.8829854 7.5249051,2.8456149 9.6954007,3.1503809 9.7351859,3.1198323 9.7755639,3.0888286 7.5248795,2.8455695 7.5104858,2.8078289 7.496283,2.7705885 9.7756712,3.0887413 9.8126947,3.0579021 9.8503654,3.026524 7.4962542,2.7705368 7.4825285,2.7328472 7.4690183,2.6957494 9.8504766,3.0264229 9.8845663,2.9952795 9.9193538,2.9634986 7.4689859,2.6956904 7.4559712,2.6580502 7.4431987,2.6211109 9.9194684,2.9633803 9.9504265,2.9319182 9.982128,2.8997007 7.443162,2.621043 7.4309075,2.5834496 7.4189247,2.5466895 9.9822451,2.8995596 10.009844,2.867765 10.038225,2.8350695 7.4188828,2.546611 7.4074456,2.5090586 7.396313,2.4725067 10.038343,2.8348967 10.062319,2.8027582 10.087106,2.7695324 7.3962648,2.472415 7.3857104,2.4348927 7.3754998,2.3985924 10.087224,2.7693123 10.107271,2.736826 10.128145,2.7029997 7.3754432,2.3984836 7.3658477,2.3609698 7.3566453,2.3249929 10.128257,2.7027016 10.144018,2.669884 10.1606,2.635355 7.3565772,2.3248617 7.3480283,2.2873111 7.3399431,2.2517977 10.160697,2.6349071 10.171753,2.6018328 10.183589,2.5664244 7.339858,2.2516375 7.3324547,2.2139415 7.3256418,2.1792514 10.183638,2.5656032 10.189512,2.5325531 10.196035,2.4958468 7.3255272,2.1790692 7.3193692,2.1408909 7.3141823,2.1087335 10.195853,2.4933131 10.196129,2.4619007 10.196442,2.426314 8.6561209,2.2707804 8.6967027,2.2402198 8.7376031,2.2094192 10.196577,2.4263507 10.190172,2.3896986 10.183803,2.3532523 8.7375524,2.2094783 8.7819668,2.1793581 8.8266272,2.149071 10.183966,2.353288 10.169851,2.3157254 10.155788,2.2783044 8.8264691,2.1491021 8.8751041,2.1194798 8.9239237,2.089745 10.155692,2.2783046 10.133179,2.2397357 10.11072,2.2012602 8.9236579,2.0897517 8.9777534,2.0607875 9.0319828,2.0317515 10.111006,2.2013058 10.082304,2.1619966 10.053645,2.1227454 9.0314641,2.0317183 9.093663,2.0037453 c 0.062287,-0.028013 0.960772,0.1191039 0.921836,0.07855 -0.038908,-0.040525 -0.8609816,-0.1067175 -0.7838493,-0.1328496 0.077175,-0.026147 0.7480418,0.092711 0.6855164,0.049253 -0.062513,-0.043449 -0.6192956,-0.076745 -0.490236,-0.096448 0.1290656,-0.019704 0.3597074,0.026724 0.3597074,0.026724 M 8.6460116,2.251794 c 0,0 -1.3325408,-0.1473316 -1.3369464,-0.1835985 C 7.3044822,2.0304681 8.6429712,2.2349891 8.63413,2.1967446 8.6257745,2.1606012 7.3045859,2.0313138 7.301904,1.9959001 7.2991134,1.9590507 8.6258406,2.1607837 8.6155624,2.1230169 8.6056076,2.0864381 7.2991304,1.9594776 7.2983379,1.9240603 7.297525,1.8877329 8.6056828,2.0865931 8.5938833,2.0489143 8.5823303,2.0120226 7.2975005,1.8880036 7.2989459,1.8527479 7.3004171,1.8168641 8.5824082,2.0121431 8.5689214,1.9744156 8.5556318,1.9372397 7.3003594,1.8170504 7.3044893,1.7820569 7.3086719,1.7466171 8.5557156,1.9373331 8.5402816,1.8994721 8.5250077,1.8620041 7.3085774,1.7467482 7.3160032,1.7121152 7.323497,1.677165 8.5251047,1.8620776 8.5073343,1.824006 8.4896935,1.7862123 7.3233512,1.677254 7.3349582,1.6431046 7.3466401,1.6087345 8.4898175,1.7862719 8.4691166,1.7478982 8.4485186,1.7097152 7.3464074,1.6087861 7.3635698,1.5752992 7.3808072,1.541666 8.448699,1.7097679 8.4241069,1.6709606 8.3995929,1.6322766 7.3803966,1.5416744 7.4054689,1.5091479 7.4306095,1.4765329 8.3999056,1.6323345 8.3697013,1.5928711 8.3395517,1.5534792 7.4297348,1.4764663 7.4674387,1.4454899 c 0.037758,-0.031021 0.872817,0.1080866 0.8333132,0.067503 -0.039471,-0.04055 -0.7982412,-0.09883 -0.7351948,-0.1266785 0.063078,-0.027863 0.6983875,0.086461 0.6379797,0.043314 -0.060396,-0.043139 -0.5817688,-0.072013 -0.4708997,-0.093947 0.1108727,-0.021934 0.3495036,0.025431 0.3495036,0.025431"
       id="path30814"
       inkscape:connector-curvature="0"
       sodipodi:nodetypes="czczc" />
    <path
       style="display:inline;fill:none;stroke:#ff0000;stroke-width:0.03333334;stroke-linecap:round;stroke-linejoin:round;stroke-miterlimit:4;stroke-dasharray:none;stroke-opacity:1"
       d="m 7.8480873,1.2906342 c -0.088488,0.00392 -0.1775437,0.019856 -0.2585525,0.055776 -0.064761,0.027177 -0.1309879,0.05895 -0.1784412,0.1115941 -0.053715,0.056564 -0.086342,0.129711 -0.1114498,0.2022097 -0.030527,0.096982 -0.032982,0.2001116 -0.028888,0.3008942 0.00983,0.1930037 0.055052,0.3822097 0.1114895,0.5663943 0.019762,0.062645 0.037932,0.1256518 0.063029,0.1861603 0.079836,0.2069745 0.1642131,0.4123605 0.2603196,0.6123775 0.090476,0.1879353 0.1863139,0.3732995 0.2886429,0.5550643 0.019883,0.035957 0.040939,0.071443 0.061142,0.107099 0.015472,0.012769 0.036324,0.00347 0.052083,-0.00417 0.2032931,-0.079447 0.406056,-0.1605389 0.6046184,-0.2512938 0.2535272,-0.1146816 0.501432,-0.2421745 0.7394827,-0.3863952 0.1287639,-0.07572 0.2525048,-0.1607643 0.3675349,-0.256257 0.07914,-0.066862 0.151755,-0.1412765 0.2229552,-0.2162827 0.04146,-0.045549 0.07631,-0.096612 0.104418,-0.1513371 0.02441,-0.045846 0.04729,-0.093116 0.06277,-0.1424257 0.02403,-0.085455 0.02313,-0.1788182 -0.008,-0.2623245 -0.02734,-0.059937 -0.0578,-0.1197961 -0.09573,-0.1741197 -0.0383,-0.052894 -0.086,-0.097849 -0.1343762,-0.1411718 -0.03113,-0.026699 -0.06635,-0.047584 -0.102963,-0.065692 -0.070755,-0.03764 -0.1473302,-0.065066 -0.2276696,-0.072046 -0.1403072,-0.01448 -0.2825249,0.00932 -0.4149844,0.055807 -0.089376,0.034882 -0.1785279,0.073323 -0.26354,0.1187269 -0.098172,0.051901 -0.193001,0.1104682 -0.2822934,0.176412 -0.00744,0.00748 -0.011984,0.00992 -0.012167,-0.00342 C 8.6500664,2.1307688 8.6285194,2.0493249 8.5991814,1.971735 8.5490174,1.8522136 8.4984844,1.7315477 8.4269315,1.6230088 8.3933525,1.5722619 8.3536545,1.5259121 8.31015,1.4836221 8.271173,1.443012 8.227357,1.4061848 8.1777272,1.3790881 8.1286131,1.3517147 8.0767581,1.327942 8.0236357,1.3106281 7.966807,1.294128 7.9071013,1.2886014 7.8480871,1.2906342 Z"
       id="path30814-6"
       inkscape:connector-curvature="0" />
    <path
       style="display:inline;fill:none;stroke:#ff0000;stroke-width:0.03333334;stroke-linecap:round;stroke-linejoin:round;stroke-miterlimit:4;stroke-dasharray:none;stroke-opacity:1"
       d="m 7.8505178,1.2357731 c -0.079591,8.17e-4 -0.1594434,0.014342 -0.2340278,0.042361 -0.038748,0.016369 -0.076357,0.037186 -0.1150408,0.054548 -0.050452,0.024146 -0.1003313,0.053124 -0.136348,0.096494 -0.054041,0.060604 -0.080496,0.1388763 -0.1130957,0.211881 -0.027388,0.061291 -0.032835,0.1304293 -0.035543,0.1970703 -0.00793,0.1796711 0.020431,0.3590148 0.063944,0.5328736 0.021739,0.083853 0.04482,0.1675478 0.073931,0.2491475 0.049774,0.1212988 0.096607,0.2447976 0.1471859,0.3661594 0.092261,0.2274408 0.1993916,0.4485642 0.3128413,0.6661127 0.066687,0.1269463 0.1355049,0.253139 0.20907,0.3760611 0.024004,0.026231 0.067061,0.02648 0.096528,0.00903 0.082666,-0.038696 0.1680883,-0.0711 0.2521515,-0.1065861 C 8.5153159,3.8723099 8.6583204,3.8130417 8.7983844,3.7471923 9.0537156,3.6288731 9.3021357,3.4958166 9.5432262,3.3507037 9.6324648,3.2974861 9.7207928,3.2416761 9.8011198,3.175361 c 0.04851,-0.039293 0.09306,-0.08257 0.136432,-0.1273867 0.05194,-0.053073 0.1055912,-0.1047542 0.1570632,-0.1580345 0.03054,-0.031381 0.05598,-0.067085 0.07583,-0.105934 0.03609,-0.066754 0.06751,-0.1367379 0.09431,-0.2072605 0.01461,-0.042602 0.01636,-0.088395 0.01613,-0.1330527 -0.0018,-0.048483 -0.01061,-0.097568 -0.0329,-0.1407301 C 10.215405,2.2327135 10.180545,2.1630887 10.137363,2.098767 10.106203,2.061572 10.069143,2.029648 10.035154,1.9949118 10.007114,1.9671618 9.979484,1.9378788 9.943484,1.9203188 9.878984,1.8840578 9.810365,1.8540718 9.742083,1.8269508 9.6404498,1.7988648 9.5333969,1.8037358 9.4295594,1.8142468 9.3386524,1.8254088 9.2497701,1.8505578 9.1670936,1.8894578 9.0114996,1.9554198 8.8601076,2.0326092 8.717549,2.1230306 8.707959,2.1323906 8.703125,2.1306306 8.70291,2.1171406 8.6805038,2.0152173 8.6319938,1.922322 8.5902109,1.8272646 8.5464739,1.7314013 8.5001479,1.6359181 8.4400592,1.5491773 8.3926122,1.4905717 8.3327494,1.4432795 8.2814115,1.3883628 8.2553095,1.3627666 8.2230445,1.3454621 8.1903445,1.3298763 8.1296845,1.2993945 8.0674922,1.2706486 8.0035408,1.2488291 7.9537038,1.235962 7.9017169,1.2345299 7.8505183,1.2357731 Z"
       id="path11989"
       inkscape:connector-curvature="0" />
  </g>
  <g
     inkscape:label="1-black"
     inkscape:groupmode="layer"
     id="layer1"
     style="display:inline">
    <g
       id="g200732"
       style="stroke-linecap:round;stroke-linejoin:round"
       transform="translate(-0.22222222,-0.4)">
      <path
         inkscape:connector-curvature="0"
         style="font-style:normal;font-variant:normal;font-weight:normal;font-stretch:normal;font-size:197.26834106px;line-height:125%;font-family:'Zar2 casual';-inkscape-font-specification:'Zar2 casual';text-align:start;letter-spacing:0px;word-spacing:0px;writing-mode:lr-tb;text-anchor:start;display:inline;fill:none;stroke:#000000;stroke-width:0.04444445;stroke-linecap:round;stroke-linejoin:round;stroke-miterlimit:4;stroke-dasharray:none;stroke-opacity:1"
         d="m 4.6048977,3.7453927 c 0.029897,0.00197 0.055238,0.027102 0.058013,0.056862 0.00929,0.056615 -0.00819,0.1132173 -0.025274,0.1666131 -0.03062,0.086478 -0.076048,0.1678802 -0.1253186,0.2453326 -0.044322,0.069396 -0.094305,0.1357881 -0.1556847,0.1909147 -0.046204,0.04371 -0.1026842,0.078872 -0.1644759,0.094799 -0.046271,0.011855 -0.1000594,0.00464 -0.1351769,-0.028479 -0.01775,-0.015653 -0.019121,-0.042581 -0.00957,-0.062834 0.040072,-0.086319 0.086084,-0.1698635 0.1331045,-0.2526097 0.04598,-0.078491 0.087151,-0.1606108 0.1459756,-0.2305918 0.058363,-0.063945 0.1238941,-0.1247162 0.2038227,-0.1608109 0.023519,-0.011055 0.047882,-0.02064 0.074581,-0.019196 z"
         id="path199604" />
      <path
         inkscape:connector-curvature="0"
         style="font-style:normal;font-variant:normal;font-weight:normal;font-stretch:normal;font-size:197.26834106px;line-height:125%;font-family:'Zar2 casual';-inkscape-font-specification:'Zar2 casual';text-align:start;letter-spacing:0px;word-spacing:0px;writing-mode:lr-tb;text-anchor:start;display:inline;fill:none;stroke:#000000;stroke-width:0.04444445;stroke-linecap:round;stroke-linejoin:round;stroke-miterlimit:4;stroke-dasharray:none;stroke-opacity:1"
         d="m 4.7524671,3.5453927 c -0.06531,0.0059 -0.1260575,0.030244 -0.1826251,0.062473 -0.07724,0.044964 -0.1469171,0.1017646 -0.2135554,0.1611377 -0.023064,0.020854 -0.0471,0.044384 -0.069097,0.067708 0.010357,-0.049242 0.030727,-0.1008718 0.013889,-0.1510417 -0.00875,-0.036999 -0.035127,-0.069342 -0.065949,-0.090539 -0.036049,-0.02471 -0.078717,-0.03697 -0.1221764,-0.041405 -0.011623,-0.00144 -0.012844,0.011395 -0.011808,0.020068 8.267e-4,0.019443 0.00335,0.041667 -0.0055,0.058581 C 4.0322182,3.8047341 3.9550747,3.9724997 3.8793417,4.1400881 3.77782,4.3626715 3.6712481,4.582892 3.5660088,4.803726 c -0.012164,0.033557 -0.016222,0.071876 -0.011069,0.1080148 0.00458,0.033779 0.014108,0.066329 0.028966,0.096523 0.012489,0.017414 0.032656,0.028114 0.0473,0.04397 0.023929,0.022279 0.049671,0.046558 0.083669,0.050377 0.00948,0.00123 0.020355,0.00451 0.029259,0.00111 0.0045,-0.012674 -0.0057,-0.025658 -0.00144,-0.038793 0.00434,-0.022794 0.012933,-0.044414 0.019821,-0.066511 0.028358,-0.07841 0.061949,-0.1554692 0.096272,-0.2317839 0.018118,-0.041824 0.04124,-0.081152 0.065334,-0.11957 0.017598,-0.030925 0.033653,-0.063697 0.047788,-0.095773 0.00421,-0.00718 0.010878,-0.00115 0.010764,0.00521 0.014165,0.0138 0.034375,0.021679 0.052778,0.029514 0.042918,0.014915 0.090293,0.024209 0.1366659,0.02319 0.070717,-7.233e-4 0.1409669,-0.018561 0.2054505,-0.045109 0.1058273,-0.044401 0.1967379,-0.117039 0.2797586,-0.195095 0.021842,-0.019866 0.0449,-0.042641 0.064233,-0.065203 0.085717,-0.09556 0.1574424,-0.2047811 0.2024339,-0.3254215 0.020918,-0.059226 0.038318,-0.1226409 0.041689,-0.1865176 0.00323,-0.064276 -0.00585,-0.1341668 -0.050803,-0.1830272 -0.038467,-0.044262 -0.096525,-0.066491 -0.1546345,-0.063685 -0.00259,7.78e-5 -0.00519,1.623e-4 -0.00778,2.434e-4 z"
         id="path199612" />
      <path
         inkscape:connector-curvature="0"
         style="font-style:normal;font-variant:normal;font-weight:normal;font-stretch:normal;font-size:197.26834106px;line-height:125%;font-family:'Zar2 casual';-inkscape-font-specification:'Zar2 casual';text-align:start;letter-spacing:0px;word-spacing:0px;writing-mode:lr-tb;text-anchor:start;display:inline;fill:none;stroke:#000000;stroke-width:0.04444445;stroke-linecap:round;stroke-linejoin:round;stroke-miterlimit:4;stroke-dasharray:none;stroke-opacity:1"
         d="m 5.7180921,3.7453927 c 0.030624,0.00163 0.055111,0.028366 0.057957,0.058263 0.00842,0.05498 -0.00783,0.109941 -0.024276,0.1618762 -0.033722,0.09532 -0.08469,0.1845087 -0.1400392,0.2690866 -0.04063,0.062154 -0.087097,0.1207204 -0.1422525,0.1704967 -0.046204,0.04371 -0.1026842,0.078872 -0.1644759,0.094799 -0.046423,0.011718 -0.1008957,0.00495 -0.135661,-0.02931 -0.015536,-0.013788 -0.018062,-0.036647 -0.0111,-0.055846 0.012967,-0.03198 0.030227,-0.063268 0.04577,-0.094539 0.053471,-0.1027961 0.1111987,-0.2034887 0.1702603,-0.3030539 0.029687,-0.048656 0.063934,-0.094811 0.1056869,-0.13364 0.056341,-0.057043 0.1232924,-0.1073621 0.1995895,-0.13327 0.012467,-0.00403 0.025519,-0.00498 0.038542,-0.00486 z"
         id="path199602" />
      <path
         inkscape:connector-curvature="0"
         style="font-style:normal;font-variant:normal;font-weight:normal;font-stretch:normal;font-size:197.26834106px;line-height:125%;font-family:'Zar2 casual';-inkscape-font-specification:'Zar2 casual';text-align:start;letter-spacing:0px;word-spacing:0px;writing-mode:lr-tb;text-anchor:start;display:inline;fill:none;stroke:#000000;stroke-width:0.04444445;stroke-linecap:round;stroke-linejoin:round;stroke-miterlimit:4;stroke-dasharray:none;stroke-opacity:1"
         d="m 5.8719116,3.545046 c -0.061537,0.0042 -0.1193408,0.025404 -0.1731804,0.054125 -0.09004,0.049787 -0.1704016,0.1155228 -0.2455696,0.1854584 -0.017428,0.015851 -0.035951,0.034241 -0.052778,0.052083 0.010423,-0.049214 0.030685,-0.1008902 0.013889,-0.1510417 -0.00875,-0.036999 -0.035127,-0.069342 -0.065949,-0.090539 -0.03607,-0.02472 -0.078747,-0.036986 -0.1222458,-0.041405 -0.014944,-5.722e-4 -0.012206,0.017729 -0.011805,0.027778 0.00106,0.016609 0.00208,0.035288 -0.00541,0.049491 -0.022642,0.065 -0.049477,0.1286629 -0.075971,0.1924618 C 5.0449248,4.0283093 4.9509067,4.230485 4.8562546,4.4323092 4.7976796,4.5568959 4.7378709,4.6809004 4.6785088,4.8051154 c -0.015959,0.045959 -0.016268,0.098659 -0.00262,0.1460457 0.00673,0.024141 0.012283,0.049382 0.03025,0.067762 0.024336,0.01957 0.045682,0.042078 0.070227,0.061383 0.021303,0.017431 0.04953,0.024754 0.076711,0.024603 0.00991,-0.00139 0.00406,-0.014882 0.00283,-0.021209 -0.00378,-0.018777 0.00477,-0.037596 0.00985,-0.055412 0.02356,-0.07222 0.05341,-0.14256 0.083861,-0.2124712 0.021917,-0.047706 0.041932,-0.096848 0.070797,-0.1408154 0.024329,-0.037116 0.042964,-0.077919 0.062387,-0.1177986 8.934e-4,-0.00607 0.00898,-0.014355 0.011677,-0.00521 7.445e-4,0.011435 0.014732,0.013127 0.02257,0.019445 0.060969,0.03242 0.1330347,0.041226 0.201846,0.036268 0.051013,-0.00399 0.1019586,-0.017451 0.1491956,-0.034532 0.1112728,-0.041542 0.2064441,-0.1157698 0.2930556,-0.1954861 0.026628,-0.024215 0.054245,-0.052089 0.078125,-0.079167 0.084391,-0.095744 0.1553339,-0.204678 0.1994783,-0.3248473 0.029144,-0.084457 0.051333,-0.1753232 0.035587,-0.2648704 -0.00728,-0.040533 -0.023607,-0.079525 -0.054226,-0.1082623 -0.033802,-0.034156 -0.079344,-0.053685 -0.1272157,-0.055434 -0.00697,-7.677e-4 -0.013999,-3.577e-4 -0.020985,-5.55e-5 z"
         id="path199614" />
      <path
         inkscape:connector-curvature="0"
         style="font-style:normal;font-variant:normal;font-weight:normal;font-stretch:normal;font-size:197.26834106px;line-height:125%;font-family:'Zar2 casual';-inkscape-font-specification:'Zar2 casual';text-align:start;letter-spacing:0px;word-spacing:0px;writing-mode:lr-tb;text-anchor:start;display:inline;fill:none;stroke:#000000;stroke-width:0.04444445;stroke-linecap:round;stroke-linejoin:round;stroke-miterlimit:4;stroke-dasharray:none;stroke-opacity:1"
         d="m 6.9798977,3.6037257 c -0.018124,-0.00155 -0.025896,0.017539 -0.032622,0.03136 -0.053698,0.1045648 -0.114256,0.2056261 -0.1755874,0.3055772 -0.065085,0.1033688 -0.1353781,0.2039857 -0.216715,0.2952941 -0.039963,0.043587 -0.08204,0.086807 -0.1331508,0.1174977 -0.021739,0.011807 -0.047497,0.02551 -0.072481,0.017632 -0.010423,-0.00522 -0.016552,-0.020022 -0.00833,-0.029861 0.056114,-0.1426271 0.1494109,-0.2668978 0.2065972,-0.4090278 0.016817,-0.050517 0.036836,-0.1063835 0.024611,-0.1609957 -0.00521,-0.032192 -0.026525,-0.058402 -0.051954,-0.077545 -0.040875,-0.034393 -0.089354,-0.059195 -0.1399269,-0.074069 -0.023155,-0.00695 -0.050781,-0.014236 -0.073008,-0.00371 -0.011911,0.012822 -0.00117,0.031143 -0.00109,0.046277 0.0096,0.086447 -0.014973,0.1724925 -0.047132,0.2515236 -0.056728,0.1385569 -0.126437,0.2714957 -0.1795565,0.411574 -0.017565,0.055416 -0.039638,0.116697 -0.023936,0.1759773 0.010681,0.044154 0.051177,0.077863 0.094333,0.086233 0.053696,0.010286 0.1078051,-0.00857 0.1556449,-0.031655 0.110395,-0.057182 0.2028323,-0.1421528 0.29375,-0.2256944 0.021437,-0.018831 0.043615,-0.041883 0.064583,-0.061806 0.00457,-0.00532 0.012485,-7.666e-4 0.00833,0.00534 -0.056022,0.1213654 -0.096529,0.2497289 -0.1612917,0.3670507 -0.038706,0.072337 -0.085208,0.1418181 -0.146348,0.1970588 -0.049211,0.046111 -0.110268,0.080689 -0.1760417,0.096181 -0.047119,0.01169 -0.097209,0.0098 -0.1430447,-0.00637 -0.057926,-0.019672 -0.1095154,-0.055166 -0.1601445,-0.089123 -0.014773,-0.00785 -0.029702,-0.021711 -0.047505,-0.019091 -0.00958,0.00199 -0.00951,0.016218 -0.012041,0.024567 -0.00425,0.029417 0.00157,0.06097 0.015166,0.086545 0.020887,0.035722 0.057425,0.060976 0.095833,0.073958 0.085402,0.029771 0.177858,0.02892 0.2669362,0.021362 0.057298,-0.0057 0.1149365,-0.020514 0.1667063,-0.04137 0.065347,-0.027765 0.1243855,-0.068479 0.179604,-0.1127686 0.034555,-0.027938 0.066433,-0.057883 0.095087,-0.090835 C 6.7287701,4.6885686 6.79647,4.5832894 6.859177,4.4762307 6.873673,4.4512097 6.887354,4.4258077 6.897455,4.3986507 6.931649,4.3154527 6.960165,4.2314618 6.991094,4.1468914 7.034429,4.0265603 7.073251,3.9050425 7.1247115,3.7879586 c 0.0082,-0.023527 0.034165,-0.041262 0.029191,-0.068508 -0.00462,-0.024531 -0.022724,-0.044095 -0.042395,-0.058679 -0.029186,-0.019645 -0.061157,-0.034954 -0.092029,-0.051834 -0.012568,-0.00494 -0.026175,-0.00638 -0.039583,-0.00521 z"
         id="path199608" />
      <path
         inkscape:connector-curvature="0"
         style="font-style:normal;font-variant:normal;font-weight:normal;font-stretch:normal;font-size:197.26834106px;line-height:125%;font-family:'Zar2 casual';-inkscape-font-specification:'Zar2 casual';text-align:start;letter-spacing:0px;word-spacing:0px;writing-mode:lr-tb;text-anchor:start;display:inline;fill:none;stroke:#000000;stroke-width:0.04444445;stroke-linecap:round;stroke-linejoin:round;stroke-miterlimit:4;stroke-dasharray:none;stroke-opacity:1"
         d="m 7.0285088,5.856852 c -0.00996,-2.488e-4 -0.00228,0.013133 -0.00354,0.019026 -0.00161,0.049857 -0.02204,0.096713 -0.03965,0.1422515 -0.035819,0.08901 -0.073744,0.1776768 -0.1206896,0.2613569 -0.016343,0.023686 -0.029494,0.049518 -0.043063,0.074935 -0.00141,-0.010729 -0.010527,-0.01608 -0.019768,-0.020747 -0.021954,-0.017349 -0.050466,-0.022681 -0.078149,-0.026128 -0.086405,-0.00642 -0.1719018,0.018576 -0.2500268,0.05355 -0.1007608,0.046096 -0.190893,0.1127173 -0.2731863,0.1864015 -0.030133,0.026648 -0.059792,0.054886 -0.087898,0.084701 -0.032065,0.036684 -0.06648,0.074697 -0.096438,0.114387 -0.067875,0.086989 -0.126815,0.1815242 -0.1677983,0.2842241 -0.01384,0.039957 -0.028707,0.081967 -0.034234,0.124906 -0.00859,0.054155 -0.00623,0.1142612 0.024859,0.1612051 0.02282,0.0348 0.060841,0.057546 0.101615,0.06218 0.054261,0.00725 0.1078231,-0.01057 0.1568382,-0.030596 0.1125982,-0.051334 0.209461,-0.1303106 0.301808,-0.2114804 0.037741,-0.034145 0.074509,-0.068291 0.1091832,-0.1062141 -0.01394,0.07458 -0.032166,0.1516484 -0.016319,0.2274305 0.00802,0.031793 0.026882,0.061204 0.047917,0.085417 0.021673,0.023334 0.047847,0.04321 0.078125,0.055208 0.00679,0.00124 0.014973,0.00514 0.022222,0.00486 0.0081,-0.011734 0.00405,-0.028694 0.00551,-0.042638 -0.00114,-0.026954 1.966e-4,-0.0548 0.012661,-0.078979 C 6.7114384,7.1466917 6.7793818,7.017863 6.8455237,6.8885803 6.9714231,6.6451519 7.1061835,6.4064152 7.2316338,6.1627543 c 0.020159,-0.043078 0.044781,-0.084702 0.048888,-0.1327701 0.001,-0.021937 -0.0038,-0.045052 -0.022847,-0.058202 -0.034951,-0.028252 -0.075426,-0.047926 -0.1143656,-0.070009 -0.035203,-0.018854 -0.071493,-0.03769 -0.1109817,-0.045269 -0.0013,3.34e-5 -0.00256,-1.4e-4 -0.00382,3.467e-4 z"
         id="path199592" />
      <path
         inkscape:connector-curvature="0"
         style="font-style:normal;font-variant:normal;font-weight:normal;font-stretch:normal;font-size:197.26834106px;line-height:125%;font-family:'Zar2 casual';-inkscape-font-specification:'Zar2 casual';text-align:start;letter-spacing:0px;word-spacing:0px;writing-mode:lr-tb;text-anchor:start;display:inline;fill:none;stroke:#000000;stroke-width:0.04444445;stroke-linecap:round;stroke-linejoin:round;stroke-miterlimit:4;stroke-dasharray:none;stroke-opacity:1"
         d="m 6.6212171,6.4276846 c 0.041161,-1.467e-4 0.08554,0.013916 0.1099226,0.048628 0.014329,0.022359 0.00776,0.052474 -0.00692,0.073034 -0.029678,0.053647 -0.06816,0.1018625 -0.1023395,0.1527039 -0.071239,0.1011325 -0.144654,0.2020751 -0.2345868,0.2874315 -0.04693,0.046523 -0.096055,0.092644 -0.1533028,0.1263761 -0.022906,0.011771 -0.046989,0.028331 -0.073889,0.02259 -0.018326,-0.00527 -0.026934,-0.023201 -0.031944,-0.039236 -0.00937,-0.034395 -0.00142,-0.070616 0.00614,-0.1045683 0.023634,-0.088396 0.068409,-0.169279 0.1146899,-0.2478623 0.049259,-0.082789 0.1053281,-0.1632298 0.1770833,-0.228125 0.041095,-0.038318 0.090977,-0.069294 0.1451178,-0.084588 0.016209,-0.00458 0.033223,-0.00622 0.050021,-0.00638 z"
         id="path199578" />
      <path
         inkscape:connector-curvature="0"
         style="font-style:normal;font-variant:normal;font-weight:normal;font-stretch:normal;font-size:197.26834106px;line-height:125%;font-family:'Zar2 casual';-inkscape-font-specification:'Zar2 casual';text-align:start;letter-spacing:0px;word-spacing:0px;writing-mode:lr-tb;text-anchor:start;display:inline;fill:none;stroke:#000000;stroke-width:0.04444445;stroke-linecap:round;stroke-linejoin:round;stroke-miterlimit:4;stroke-dasharray:none;stroke-opacity:1"
         d="m 7.8239949,6.4318546 c 0.04008,-0.00148 0.084165,0.016299 0.1012797,0.054338 0.012049,0.028198 0.00246,0.060785 -0.012134,0.086368 -0.026031,0.044792 -0.062507,0.082539 -0.094175,0.1233847 -0.067018,0.082128 -0.1364321,0.1622729 -0.2140685,0.2345198 -0.06379,0.060195 -0.1324979,0.1169236 -0.2085163,0.1612536 -0.027868,0.013942 -0.055262,0.030937 -0.087664,0.026941 -0.024471,-0.00611 -0.036854,-0.033685 -0.037883,-0.057416 -0.00313,-0.049981 0.019704,-0.095706 0.04067,-0.1394775 0.048532,-0.094721 0.1126302,-0.1804064 0.1794139,-0.2629549 0.025378,-0.031054 0.052022,-0.059458 0.079794,-0.087157 0.032867,-0.031658 0.069271,-0.063963 0.1093079,-0.088433 0.043771,-0.026412 0.091715,-0.050632 0.143975,-0.051367 z"
         id="path199576" />
      <path
         inkscape:connector-curvature="0"
         style="font-style:normal;font-variant:normal;font-weight:normal;font-stretch:normal;font-size:197.26834106px;line-height:125%;font-family:'Zar2 casual';-inkscape-font-specification:'Zar2 casual';text-align:start;letter-spacing:0px;word-spacing:0px;writing-mode:lr-tb;text-anchor:start;display:inline;fill:none;stroke:#000000;stroke-width:0.04444445;stroke-linecap:round;stroke-linejoin:round;stroke-miterlimit:4;stroke-dasharray:none;stroke-opacity:1"
         d="m 7.8646199,6.3075456 c -0.079371,0.00545 -0.1568345,0.027818 -0.2292421,0.058582 -0.1255304,0.054948 -0.2379732,0.1359375 -0.3402023,0.2264876 -0.030419,0.026345 -0.059133,0.055241 -0.087153,0.08507 -0.031851,0.036283 -0.065934,0.074008 -0.095459,0.113475 -0.054671,0.072498 -0.1042618,0.1495501 -0.1382215,0.2340944 -0.021346,0.058992 -0.040308,0.1238878 -0.031818,0.1880566 0.00486,0.039507 0.022267,0.076479 0.052119,0.103571 0.021825,0.019398 0.050833,0.033944 0.080998,0.037445 0.061984,0.00928 0.1236787,-0.01183 0.1792149,-0.035752 0.072205,-0.033187 0.1376276,-0.079161 0.2006121,-0.1272767 0.045868,-0.036289 0.091598,-0.07442 0.1338035,-0.1136134 0.015621,-0.015066 0.031912,-0.029425 0.047569,-0.045486 -0.020695,0.067904 -0.039372,0.141529 -0.019097,0.2118055 0.00736,0.03274 0.028137,0.062657 0.052738,0.084723 0.023209,0.019428 0.048245,0.03721 0.075734,0.049999 0.015012,0.00532 0.034467,0.013522 0.050347,0.00799 0.012367,-0.00602 0.012034,-0.020174 0.010764,-0.0325 3.489e-4,-0.044262 0.012824,-0.08821 0.028793,-0.1287492 0.024997,-0.060139 0.059379,-0.1156706 0.08857,-0.1737636 0.061025,-0.1148732 0.1234251,-0.2294262 0.1938566,-0.3385877 0.015978,-0.025446 0.040314,-0.046493 0.048482,-0.07595 0.00683,-0.026824 -0.010614,-0.050813 -0.027127,-0.070013 -0.022226,-0.026965 -0.052411,-0.049416 -0.08327,-0.068284 -0.00701,-0.00143 -0.016739,-0.0083 -0.00972,-0.015278 0.012752,-0.016551 0.016782,-0.039431 0.016667,-0.060764 -0.00142,-0.044993 -0.032361,-0.085551 -0.074982,-0.1001665 -0.038844,-0.013474 -0.08236,-0.016975 -0.1239767,-0.015111 z"
         id="path199582" />
      <path
         inkscape:connector-curvature="0"
         style="font-style:normal;font-variant:normal;font-weight:normal;font-stretch:normal;font-size:197.26834106px;line-height:125%;font-family:'Zar2 casual';-inkscape-font-specification:'Zar2 casual';text-align:start;letter-spacing:0px;word-spacing:0px;writing-mode:lr-tb;text-anchor:start;display:inline;fill:none;stroke:#000000;stroke-width:0.04444445;stroke-linecap:round;stroke-linejoin:round;stroke-miterlimit:4;stroke-dasharray:none;stroke-opacity:1"
         d="m 9.0517727,6.3436566 c -0.017344,-9.456e-4 -0.025126,0.015958 -0.031597,0.029834 -0.030601,0.060403 -0.064418,0.1190407 -0.098611,0.1774581 -0.082875,0.1423167 -0.1719412,0.2819505 -0.2790459,0.40753 -0.043284,0.048284 -0.088336,0.096118 -0.1431764,0.1317061 -0.022598,0.013067 -0.047996,0.026716 -0.075,0.022222 -0.01106,-0.00371 -0.020454,-0.018672 -0.012153,-0.029514 C 8.4679034,6.9398147 8.5619132,6.8155568 8.619044,6.6731784 8.634928,6.6301994 8.649133,6.5837574 8.64815,6.5367886 8.64644,6.5006226 8.63224,6.4650266 8.602768,6.4424686 8.552036,6.3972406 8.4892236,6.3647616 8.4223536,6.3517006 c -0.01397,-0.00193 -0.030417,-0.00359 -0.042803,0.00376 -0.013301,0.01402 -4.811e-4,0.033151 -9.034e-4,0.049577 0.00872,0.091119 -0.018504,0.1813625 -0.053966,0.2639141 -0.052754,0.1286541 -0.1174824,0.2521128 -0.1673531,0.3819945 -0.01799,0.052428 -0.039103,0.1086677 -0.034168,0.1658899 0.00283,0.034363 0.019294,0.067561 0.047927,0.087524 0.035014,0.027518 0.083248,0.031615 0.1258441,0.020502 0.069354,-0.015058 0.13016,-0.055166 0.1876719,-0.095998 0.084942,-0.062262 0.1615163,-0.1349273 0.2376556,-0.2074316 0.00617,-0.00463 0.011626,-0.014844 0.019444,-0.015278 0.00624,0.003 0.00208,0.011587 -0.00135,0.014379 C 8.6847607,7.1455348 8.6424637,7.2767482 8.5743272,7.395919 8.5379912,7.461597 8.4949162,7.524793 8.438926,7.5752516 8.38882,7.6236096 8.3250855,7.6587606 8.257405,7.6746876 c -0.044271,0.00998 -0.091072,0.00912 -0.1342578,-0.00546 -0.065284,-0.020288 -0.1215707,-0.062151 -0.1786657,-0.098841 -0.011993,-0.00582 -0.023667,-0.015108 -0.037153,-0.010417 -0.009,0.00677 -0.0079,0.019585 -0.010417,0.030208 -0.00294,0.036047 0.00656,0.074233 0.030903,0.1013889 0.023706,0.027254 0.060038,0.047761 0.095738,0.057414 0.085377,0.026423 0.1763475,0.023689 0.2643311,0.015503 0.084852,-0.010905 0.1681232,-0.038409 0.239993,-0.085186 0.050477,-0.031861 0.098721,-0.069245 0.1418429,-0.1091707 0.072486,-0.070695 0.134861,-0.1522915 0.1897915,-0.2380686 0.043596,-0.068963 0.089842,-0.1372445 0.1181173,-0.214345 0.029879,-0.074061 0.055153,-0.149881 0.083337,-0.2251304 0.038099,-0.1057713 0.073063,-0.2126889 0.115679,-0.3164751 0.012139,-0.031961 0.025953,-0.063954 0.045957,-0.091613 0.00855,-0.018786 0.00143,-0.042074 -0.012148,-0.057163 -0.026067,-0.035561 -0.069563,-0.049718 -0.1059027,-0.071875 -0.016108,-0.00877 -0.034332,-0.014133 -0.052778,-0.011806 z"
         id="path199580" />
      <path
         inkscape:connector-curvature="0"
         style="font-style:normal;font-variant:normal;font-weight:normal;font-stretch:normal;font-size:197.26834106px;line-height:125%;font-family:'Zar2 casual';-inkscape-font-specification:'Zar2 casual';text-align:start;letter-spacing:0px;word-spacing:0px;writing-mode:lr-tb;text-anchor:start;display:inline;fill:none;stroke:#000000;stroke-width:0.04444445;stroke-linecap:round;stroke-linejoin:round;stroke-miterlimit:4;stroke-dasharray:none;stroke-opacity:1"
         d="m 9.3389255,7.0679627 c -0.056183,0.00187 -0.1056414,0.043945 -0.1225695,0.096528 -0.019299,0.056717 -0.010851,0.129029 0.03527,0.1717279 0.033337,0.031541 0.082626,0.040851 0.127107,0.031671 0.046239,-0.00912 0.086731,-0.040001 0.1118119,-0.080133 0.024363,-0.037017 0.031605,-0.086937 0.016436,-0.1281271 -0.018803,-0.04468 -0.061697,-0.073476 -0.1079488,-0.084996 -0.019517,-0.00537 -0.039875,-0.00787 -0.060107,-0.00667 z"
         id="path10982" />
      <path
         inkscape:connector-curvature="0"
         style="font-style:normal;font-variant:normal;font-weight:normal;font-stretch:normal;font-size:197.26834106px;line-height:125%;font-family:'Zar2 casual';-inkscape-font-specification:'Zar2 casual';text-align:start;letter-spacing:0px;word-spacing:0px;writing-mode:lr-tb;text-anchor:start;display:inline;fill:none;stroke:#000000;stroke-width:0.04444445;stroke-linecap:round;stroke-linejoin:round;stroke-miterlimit:4;stroke-dasharray:none;stroke-opacity:1"
         d="M 9.8233005,5.679421 C 9.7982195,5.74162 9.7706165,5.8058101 9.7444695,5.8688663 9.6828625,6.0160065 9.621473,6.1632924 9.5656616,6.3127543 c -0.011138,0.033606 -0.025997,0.067604 -0.037016,0.101312 -0.033436,0.0951 -0.069005,0.1896836 -0.09429,0.2873527 -0.016343,0.069959 -0.027132,0.1452271 -0.00419,0.2149661 0.00978,0.02508 0.026962,0.049698 0.053091,0.058884 0.023272,0.00267 0.034527,-0.023129 0.043165,-0.040987 0.034163,-0.075908 0.071331,-0.1503992 0.108651,-0.2247932 0.1125524,-0.22009 0.2329297,-0.436083 0.3566715,-0.6500491 0.019672,-0.035977 0.042797,-0.070311 0.058832,-0.1081137 0.01335,-0.034748 0.02509,-0.07495 0.01578,-0.1128773 -0.01056,-0.027147 -0.03655,-0.043874 -0.05774,-0.062363 -0.04525,-0.034894 -0.094542,-0.064704 -0.1469365,-0.087533 -0.012032,-0.00453 -0.023647,-0.00876 -0.036636,-0.011563 l -9.689e-4,0.00136 -7.678e-4,0.00107 z"
         id="path199598" />
      <path
         inkscape:connector-curvature="0"
         style="font-style:normal;font-variant:normal;font-weight:normal;font-stretch:normal;font-size:197.26834106px;line-height:125%;font-family:'Zar2 casual';-inkscape-font-specification:'Zar2 casual';text-align:start;letter-spacing:0px;word-spacing:0px;writing-mode:lr-tb;text-anchor:start;display:inline;fill:none;stroke:#000000;stroke-width:0.04444445;stroke-linecap:round;stroke-linejoin:round;stroke-miterlimit:4;stroke-dasharray:none;stroke-opacity:1"
         d="m 5.4458699,5.579421 c -0.00661,0.0088 5.722e-4,0.022102 -0.00312,0.032639 -0.00347,0.029355 -0.017845,0.055995 -0.027333,0.082587 C 5.3609046,5.8240273 5.2983676,5.9499437 5.2310582,6.0730984 5.1673147,6.1793682 5.1067907,6.2875021 5.0471794,6.3961293 4.9872387,6.5032614 4.9283024,6.610973 4.8654407,6.7164372 4.800892,6.8267125 4.7362719,6.937651 4.6885782,7.0565043 c -0.013158,0.044297 -0.03611,0.091184 -0.027532,0.139309 0.01443,0.059553 0.054536,0.1119321 0.1033938,0.1490085 0.016391,0.013055 0.035157,0.024919 0.056984,0.019884 0.021913,-0.00684 0.031836,-0.031442 0.03843,-0.050746 C 4.904698,7.2052483 4.9651376,7.1029428 5.022797,7.0003051 5.074162,6.9126371 5.124925,6.8244877 5.1789386,6.7385147 5.2346676,6.6569367 5.3067323,6.5886814 5.3790421,6.5222882 c 0.047326,-0.040506 0.096964,-0.080697 0.155369,-0.1036312 0.017195,-0.00354 0.035379,0.00808 0.035163,0.026568 0.00395,0.035876 -0.016298,0.067327 -0.029759,0.099024 -0.033878,0.068527 -0.072639,0.1346042 -0.1029875,0.2048623 -0.044507,0.095213 -0.081202,0.1932075 -0.1018446,0.2965512 -0.011179,0.058241 -0.015238,0.1204896 0.00533,0.1771616 0.010211,0.028932 0.032588,0.054506 0.058545,0.071824 0.030676,0.023009 0.060403,0.049863 0.097705,0.061162 0.011759,0.00225 0.023687,-0.00581 0.024509,-0.017545 C 5.535494,7.2945921 5.536249,7.2474331 5.553395,7.2045667 5.583352,7.1157107 5.628288,7.0319996 5.669961,6.9478458 5.733653,6.8219687 5.8000166,6.6968627 5.8486467,6.5641438 c 0.013528,-0.038575 0.025597,-0.08207 0.01634,-0.1238565 -0.00813,-0.046404 -0.038654,-0.086008 -0.077689,-0.1119325 -0.040234,-0.028998 -0.092169,-0.036954 -0.1412775,-0.033371 -0.052721,0.00415 -0.1033794,0.021117 -0.1508455,0.042424 -0.056758,0.02725 -0.1091311,0.062791 -0.1589409,0.1011429 -0.014506,0.012133 -0.029212,0.024227 -0.046267,0.032538 0.028148,-0.047177 0.061859,-0.091006 0.089496,-0.1384398 0.1008136,-0.1601445 0.1988137,-0.3222749 0.2879348,-0.489338 0.016181,-0.033186 0.030494,-0.069829 0.024751,-0.1077935 -0.00624,-0.033365 -0.040516,-0.0473 -0.064923,-0.065946 -0.047391,-0.032298 -0.096337,-0.063119 -0.1494112,-0.085289 -0.00949,-0.00253 -0.021325,-0.00659 -0.031944,-0.00486 z"
         id="path199600" />
      <path
         inkscape:connector-curvature="0"
         style="font-style:normal;font-variant:normal;font-weight:normal;font-stretch:normal;font-size:197.26834106px;line-height:125%;font-family:'Zar2 casual';-inkscape-font-specification:'Zar2 casual';text-align:start;letter-spacing:0px;word-spacing:0px;writing-mode:lr-tb;text-anchor:start;display:inline;fill:none;stroke:#000000;stroke-width:0.04444445;stroke-linecap:round;stroke-linejoin:round;stroke-miterlimit:4;stroke-dasharray:none;stroke-opacity:1"
         d="m 4.7180921,5.808241 c -0.00693,0.00991 1.645e-4,0.023678 -0.00485,0.03486 -0.010766,0.051524 -0.04298,0.095417 -0.068119,0.1410715 -0.053994,0.091091 -0.1096256,0.1812853 -0.1641868,0.2719847 -0.089912,0.00207 -0.1806164,0.00323 -0.2690973,0.020833 -0.010645,0.00273 -0.026223,0.00496 -0.029861,0.016319 0.00489,0.013016 0.021625,0.015358 0.03233,0.022555 0.042495,0.019348 0.091334,0.024999 0.1383566,0.024758 0.027743,9.178e-4 0.055497,0.00212 0.083133,0.00477 -0.078326,0.1226438 -0.1543335,0.2470075 -0.2194659,0.3773257 -0.036077,0.069872 -0.067474,0.1423305 -0.092344,0.2162934 -0.029207,0.082938 -0.051947,0.1708727 -0.044787,0.2595059 0.00515,0.044715 0.021141,0.089978 0.055208,0.1208333 0.029666,0.023553 0.064178,0.046701 0.1024305,0.05382 0.010808,4.44e-5 0.021806,-0.00684 0.021663,-0.018159 0.00869,-0.035209 0.012601,-0.071576 0.025353,-0.1056837 0.030197,-0.091877 0.068829,-0.1813675 0.1107578,-0.2688326 0.093005,-0.1909843 0.2031006,-0.3730353 0.3116933,-0.555295 0.021853,-0.035347 0.043678,-0.070749 0.064213,-0.1068909 0.1012824,-0.00414 0.2024733,-0.01063 0.3038194,-0.013194 -0.00846,-0.035287 -0.042938,-0.058077 -0.077209,-0.063933 -0.059296,-0.011306 -0.1200827,-0.00653 -0.1800829,-0.0069 0.040845,-0.065657 0.081862,-0.1339783 0.094097,-0.2111111 0.00205,-0.02314 -0.00517,-0.045565 -0.022287,-0.061489 -0.043665,-0.052827 -0.094724,-0.097495 -0.1454825,-0.1440059 -0.00613,-0.0067 -0.016394,-0.00976 -0.025286,-0.00944 z"
         id="path199594" />
      <path
         inkscape:connector-curvature="0"
         style="font-style:normal;font-variant:normal;font-weight:normal;font-stretch:normal;font-size:197.26834106px;line-height:125%;font-family:'Zar2 casual';-inkscape-font-specification:'Zar2 casual';text-align:start;letter-spacing:0px;word-spacing:0px;writing-mode:lr-tb;text-anchor:start;display:inline;fill:none;stroke:#000000;stroke-width:0.04444445;stroke-linecap:round;stroke-linejoin:round;stroke-miterlimit:4;stroke-dasharray:none;stroke-opacity:1"
         d="m 3.5048977,6.2874071 c -0.01337,-9.767e-4 -0.029943,0.00968 -0.024171,0.024578 0.00714,0.069083 -0.00186,0.1412493 -0.034102,0.2030378 -0.055023,0.1227045 -0.1074695,0.2465355 -0.1609565,0.369914 -0.026959,0.063598 -0.055591,0.1278813 -0.080771,0.1913592 -0.022366,0.060442 -0.039538,0.1283159 -0.01875,0.1916667 0.010098,0.027363 0.033326,0.046133 0.058729,0.058819 0.034209,0.020601 0.069477,0.03962 0.1079376,0.049167 0.012736,-0.00171 0.013357,-0.018158 0.018736,-0.027216 0.084461,-0.1926113 0.1805596,-0.3805455 0.2920063,-0.5589003 0.052993,-0.080784 0.1124251,-0.1591994 0.1885054,-0.2192829 0.027591,-0.020598 0.057621,-0.038674 0.089641,-0.050851 0.024721,-0.00811 0.053178,0.00555 0.061806,0.029514 0.00758,0.016057 0.00263,0.033586 0.00197,0.050261 -5.8e-4,0.012419 0.00909,0.024542 0.022334,0.021961 0.029991,-0.00223 0.053231,-0.024311 0.074054,-0.043927 0.035831,-0.037117 0.056189,-0.085215 0.063793,-0.1355871 0.00551,-0.034156 0.00261,-0.071726 -0.014956,-0.1012803 -0.015794,-0.02399 -0.043402,-0.036598 -0.071711,-0.034136 -0.054994,0.00111 -0.1044683,0.030408 -0.1451788,0.065292 -0.05309,0.042941 -0.096134,0.096491 -0.1375891,0.1503403 -0.017708,0.022578 -0.033231,0.046868 -0.053482,0.067354 0.00724,-0.0605 0.039693,-0.1187004 0.02839,-0.1807771 -0.00652,-0.030561 -0.036153,-0.050143 -0.063621,-0.062186 -0.042316,-0.02146 -0.086873,-0.03547 -0.1326537,-0.048393 -0.022745,-0.0061 -0.04618,-0.012701 -0.069962,-0.010727 z"
         id="path199586" />
      <path
         inkscape:connector-curvature="0"
         style="font-style:normal;font-variant:normal;font-weight:normal;font-stretch:normal;font-size:197.26834106px;line-height:125%;font-family:'Zar2 casual';-inkscape-font-specification:'Zar2 casual';text-align:start;letter-spacing:0px;word-spacing:0px;writing-mode:lr-tb;text-anchor:start;display:inline;fill:none;stroke:#000000;stroke-width:0.04444445;stroke-linecap:round;stroke-linejoin:round;stroke-miterlimit:4;stroke-dasharray:none;stroke-opacity:1"
         d="m 3.3576755,5.882889 c -0.046159,0.0033 -0.089764,0.027575 -0.1197917,0.060764 -0.02888,0.029613 -0.043959,0.068183 -0.055369,0.1067957 -0.00958,0.035728 -0.017713,0.073843 -0.00984,0.1106852 0.00401,0.02296 0.0207,0.044973 0.04519,0.049255 0.031696,0.00649 0.063499,-0.00495 0.091158,-0.018625 0.037648,-0.020031 0.07376,-0.046167 0.098939,-0.081128 0.022984,-0.035227 0.036722,-0.075887 0.047802,-0.1162778 0.00755,-0.030335 0.00845,-0.0678 -0.015796,-0.090983 -0.022002,-0.019918 -0.054082,-0.021612 -0.082292,-0.020486 z"
         id="path199588" />
      <path
         inkscape:connector-curvature="0"
         style="font-style:normal;font-variant:normal;font-weight:normal;font-stretch:normal;font-size:197.26834106px;line-height:125%;font-family:'Zar2 casual';-inkscape-font-specification:'Zar2 casual';text-align:start;letter-spacing:0px;word-spacing:0px;writing-mode:lr-tb;text-anchor:start;display:inline;fill:none;stroke:#000000;stroke-width:0.04444445;stroke-linecap:round;stroke-linejoin:round;stroke-miterlimit:4;stroke-dasharray:none;stroke-opacity:1"
         d="m 2.9719116,6.3068511 c -0.010445,0.00569 -0.00105,0.020342 -0.00452,0.030051 -0.00429,0.035784 -0.023525,0.066955 -0.035295,0.1007154 -0.079528,0.1858213 -0.1730878,0.3651816 -0.2560224,0.5494418 -0.019531,0.04424 -0.039582,0.089053 -0.045734,0.1375024 -0.00862,0.057928 -0.00229,0.1197878 0.022818,0.1722198 0.015405,0.029344 0.042487,0.050253 0.071016,0.065767 0.019716,0.012162 0.042107,0.025569 0.066136,0.022427 0.020769,-0.011166 0.020485,-0.038254 0.028653,-0.057843 0.03127,-0.1058514 0.076538,-0.2065145 0.1223883,-0.3068974 0.06768,-0.14501 0.1440071,-0.2857605 0.2197678,-0.4266508 0.018641,-0.035384 0.042438,-0.070373 0.047018,-0.1109655 0.00441,-0.036728 -0.020513,-0.067648 -0.047071,-0.089872 -0.045723,-0.033591 -0.098143,-0.058377 -0.1510231,-0.079245 -0.012318,-0.00392 -0.024931,-0.00863 -0.038136,-0.00665 z"
         id="path199584" />
      <path
         inkscape:connector-curvature="0"
         style="font-style:normal;font-variant:normal;font-weight:normal;font-stretch:normal;font-size:197.26834106px;line-height:125%;font-family:'Zar2 casual';-inkscape-font-specification:'Zar2 casual';text-align:start;letter-spacing:0px;word-spacing:0px;writing-mode:lr-tb;text-anchor:start;display:inline;fill:none;stroke:#000000;stroke-width:0.04444445;stroke-linecap:round;stroke-linejoin:round;stroke-miterlimit:4;stroke-dasharray:none;stroke-opacity:1"
         d="m 2.2875366,5.875949 c 0.062051,0.00145 0.1261998,0.00701 0.1838146,0.030538 0.034953,0.01412 0.069874,0.034449 0.086687,0.069581 0.017448,0.032353 0.00937,0.07198 -0.00152,0.1054372 -0.022188,0.059685 -0.062507,0.111902 -0.1089118,0.1552076 C 2.4008704,6.2826808 2.3467292,6.3212108 2.2910092,6.35581 2.1923232,6.4163 2.0866377,6.4651088 1.9786965,6.5067814 c -0.068332,0.026666 -0.1404584,0.04993 -0.2126208,0.069197 -0.016281,0.00467 -0.032407,0.00986 -0.048678,0.014554 0.122126,-0.2159119 0.2420137,-0.4331643 0.3699074,-0.64575 0.012619,-0.020116 0.023872,-0.041692 0.040162,-0.059111 0.0528,-0.00857 0.1066678,-0.010057 0.1600694,-0.00972 z"
         id="path199590" />
      <path
         inkscape:connector-curvature="0"
         style="font-style:normal;font-variant:normal;font-weight:normal;font-stretch:normal;font-size:197.26834106px;line-height:125%;font-family:'Zar2 casual';-inkscape-font-specification:'Zar2 casual';text-align:start;letter-spacing:0px;word-spacing:0px;writing-mode:lr-tb;text-anchor:start;display:inline;fill:none;stroke:#000000;stroke-width:0.04444445;stroke-linecap:round;stroke-linejoin:round;stroke-miterlimit:4;stroke-dasharray:none;stroke-opacity:1"
         d="m 2.1167033,5.709977 c -0.09707,0.00425 -0.1944379,0.00513 -0.2911489,0.015042 -0.027437,0.0046 -0.056655,0.00827 -0.078432,0.026067 -0.00943,0.00825 0.0047,0.01745 0.00916,0.024516 0.01891,0.023435 0.048404,0.041493 0.063195,0.06875 0.00586,0.014568 -0.00956,0.025618 -0.014778,0.037995 C 1.7569523,5.96115 1.7094486,6.0396334 1.6595964,6.1171388 1.512371,6.3505983 1.3589693,6.58083 1.23397,6.8273245 1.18977,6.9168125 1.148227,7.0090659 1.1285927,7.1074557 c -0.00998,0.048408 -7.933e-4,0.1015352 0.029701,0.1410235 0.039187,0.054503 0.098163,0.090075 0.1558941,0.1231923 0.041982,0.021757 0.087472,0.034614 0.1346982,0.040611 0.1045715,0.014828 0.2109609,0.010821 0.3157089,-1.656e-4 0.1533846,-0.017218 0.3050854,-0.055258 0.4460007,-0.1187694 0.088272,-0.040289 0.1714346,-0.092999 0.2419858,-0.1599182 0.032336,-0.03365 0.063154,-0.071325 0.083566,-0.1144245 0.017116,-0.038393 0.027144,-0.082941 0.017881,-0.12541 C 2.5421246,6.8348418 2.5074706,6.7841508 2.4690536,6.739423 2.4406516,6.706742 2.4052746,6.679116 2.368154,6.654691 2.320937,6.624144 2.2674084,6.606696 2.2115946,6.599663 2.2027846,6.5993241 2.2063246,6.589289 2.2135746,6.589144 2.2941196,6.570886 2.3722511,6.543848 2.4493384,6.514491 2.5106734,6.490155 2.5721123,6.460559 2.6302412,6.427685 c 0.057301,-0.033774 0.1134125,-0.073011 0.1625,-0.1166667 0.041558,-0.03929 0.07894,-0.084544 0.1027813,-0.1368049 0.017595,-0.043111 0.026467,-0.092406 0.018613,-0.1394996 C 2.9051669,5.9714201 2.8699478,5.9141273 2.8211454,5.8728533 2.7641371,5.8226143 2.6933916,5.7900875 2.6218672,5.7682338 2.4816161,5.7239225 2.3336291,5.7114487 2.1872588,5.7096294 c -0.023519,8.89e-5 -0.047042,-2.577e-4 -0.070556,3.467e-4 z"
         id="path199596" />
      <path
         inkscape:connector-curvature="0"
         style="font-style:normal;font-variant:normal;font-weight:normal;font-stretch:normal;font-size:197.26834106px;line-height:125%;font-family:'Zar2 casual';-inkscape-font-specification:'Zar2 casual';text-align:start;letter-spacing:0px;word-spacing:0px;writing-mode:lr-tb;text-anchor:start;display:inline;fill:none;stroke:#000000;stroke-width:0.04444445;stroke-linecap:round;stroke-linejoin:round;stroke-miterlimit:4;stroke-dasharray:none;stroke-opacity:1"
         d="m 1.7007311,6.6269904 c 0.00335,0.011469 0.017672,0.015093 0.020833,0.026042 0.015395,0.013565 0.038401,0.00345 0.057118,0.00951 0.095396,0.012991 0.1904028,0.036037 0.2772573,0.077642 0.042568,0.021199 0.08482,0.049288 0.1072917,0.092361 0.018363,0.036813 0.012701,0.082905 -0.00702,0.1180493 -0.022591,0.047353 -0.061958,0.08361 -0.101099,0.1171636 -0.085548,0.069431 -0.1871596,0.1168096 -0.2896662,0.1545894 -0.1054687,0.035896 -0.2170372,0.058518 -0.3288721,0.053825 -0.023656,-0.00266 -0.051547,-7.845e-4 -0.069518,-0.017845 -0.00785,-0.00729 -0.00387,-0.01742 0.00126,-0.025299 0.036947,-0.072617 0.076837,-0.1436958 0.1150513,-0.2156514 0.071574,-0.1312831 0.1442102,-0.2619917 0.215977,-0.3931652 l 7.456e-4,0.00149 6.433e-4,0.00129 z"
         id="path199574" />
      <path
         inkscape:connector-curvature="0"
         style="font-style:normal;font-variant:normal;font-weight:normal;font-stretch:normal;font-size:197.26834106px;line-height:125%;font-family:'Zar2 casual';-inkscape-font-specification:'Zar2 casual';text-align:start;letter-spacing:0px;word-spacing:0px;writing-mode:lr-tb;text-anchor:start;display:inline;fill:none;stroke:#000000;stroke-width:0.04444445;stroke-linecap:round;stroke-linejoin:round;stroke-miterlimit:4;stroke-dasharray:none;stroke-opacity:1"
         d="m 3.4489949,3.6919207 c 0.038251,-8.022e-4 0.079905,0.01476 0.098611,0.049653 0.015969,0.028793 0.00579,0.064608 -0.00989,0.09136 -0.029623,0.04955 -0.069884,0.09179 -0.1054593,0.1370953 -0.055246,0.065903 -0.1106326,0.1317883 -0.1724087,0.19159 -0.072884,0.071505 -0.1512432,0.1395336 -0.2399518,0.1909327 -0.027355,0.013734 -0.05436,0.030122 -0.086184,0.026175 -0.024471,-0.00611 -0.036854,-0.033685 -0.037883,-0.057416 -0.00313,-0.049981 0.019703,-0.095706 0.04067,-0.1394776 0.048532,-0.094721 0.1126302,-0.1804063 0.1794139,-0.2629549 0.025378,-0.031054 0.052022,-0.059458 0.079794,-0.087157 0.032867,-0.031658 0.069271,-0.063963 0.1093079,-0.088433 0.043771,-0.026412 0.091715,-0.050632 0.143975,-0.051367 z"
         id="path199606" />
      <path
         inkscape:connector-curvature="0"
         style="font-style:normal;font-variant:normal;font-weight:normal;font-stretch:normal;font-size:197.26834106px;line-height:125%;font-family:'Zar2 casual';-inkscape-font-specification:'Zar2 casual';text-align:start;letter-spacing:0px;word-spacing:0px;writing-mode:lr-tb;text-anchor:start;display:inline;fill:none;stroke:#000000;stroke-width:0.04444445;stroke-linecap:round;stroke-linejoin:round;stroke-miterlimit:4;stroke-dasharray:none;stroke-opacity:1"
         d="m 3.4896199,3.5676147 c -0.068465,0.00408 -0.1350184,0.022534 -0.1989583,0.046528 -0.063346,0.023525 -0.124858,0.057255 -0.1822394,0.094027 -0.073217,0.047018 -0.1416015,0.1012976 -0.2059551,0.1597922 -0.021869,0.020078 -0.04494,0.043055 -0.064796,0.065354 -0.085255,0.091454 -0.1626214,0.1919014 -0.217621,0.3045683 -0.028178,0.059583 -0.050189,0.1225397 -0.054481,0.1890332 -0.00226,0.045968 0.00613,0.095417 0.0365,0.1315335 0.028203,0.035369 0.071814,0.057043 0.1171951,0.057721 0.054081,0.00289 0.1064672,-0.0148 0.1550781,-0.035363 0.074224,-0.0334 0.1416266,-0.079926 0.2059296,-0.1294749 0.054576,-0.043099 0.1077265,-0.088026 0.1579593,-0.1361501 0.00738,-0.00648 0.015882,-0.015376 0.023611,-0.022917 -0.021208,0.068224 -0.039125,0.1423265 -0.019237,0.21303 0.0093,0.037595 0.034078,0.069941 0.063254,0.092517 0.031564,0.023538 0.065766,0.049274 0.106678,0.051051 0.011542,-0.00126 0.021057,-0.010121 0.01962,-0.022426 -2.866e-4,-0.022748 6.67e-5,-0.045553 0.00614,-0.067624 0.013697,-0.064712 0.044984,-0.1235213 0.076732,-0.1811832 0.073082,-0.1377295 0.1445625,-0.2767668 0.2303154,-0.407109 0.01661,-0.025385 0.040928,-0.047464 0.047744,-0.077907 0.00405,-0.029269 -0.017386,-0.052747 -0.034375,-0.072917 -0.024156,-0.025228 -0.052963,-0.046634 -0.084028,-0.063889 -0.00956,-4.978e-4 -0.00492,-0.011783 3.844e-4,-0.015591 C 3.695613,3.7029557 3.69256,3.6491227 3.661707,3.6165126 3.639804,3.5887106 3.60484,3.5775486 3.570866,3.5717816 c -0.0269,-0.00422 -0.054058,-0.00531 -0.08125,-0.00417 z"
         id="path199610" />
      <path
         inkscape:connector-curvature="0"
         style="font-style:normal;font-variant:normal;font-weight:normal;font-stretch:normal;font-size:197.26834106px;line-height:125%;font-family:'Zar2 casual';-inkscape-font-specification:'Zar2 casual';text-align:start;letter-spacing:0px;word-spacing:0px;writing-mode:lr-tb;text-anchor:start;display:inline;fill:none;stroke:#000000;stroke-width:0.04444445;stroke-linecap:round;stroke-linejoin:round;stroke-miterlimit:4;stroke-dasharray:none;stroke-opacity:1"
         d="m 2.8465644,2.9908793 c -0.010382,0.00694 -0.014845,0.020229 -0.023868,0.02897 C 2.7245192,3.1455202 2.6334038,3.2764967 2.5416597,3.4068775 2.4599644,3.5238525 2.3803084,3.6422691 2.3028144,3.7620599 2.1345591,3.7800293 1.967129,3.8048778 1.7993422,3.8266432 1.9123547,3.6228101 2.0248049,3.4186429 2.1378838,3.2148377 c 0.00794,-0.026072 -0.00419,-0.051281 -0.013194,-0.074653 -0.023758,-0.045792 -0.0548,-0.089002 -0.090972,-0.1246528 -0.011738,-0.00945 -0.022169,-0.023208 -0.038194,-0.024653 -0.025821,0.034565 -0.047638,0.071867 -0.073008,0.106755 C 1.7387741,3.3668063 1.5451824,3.6300895 1.3825063,3.9128497 1.3073533,4.044115 1.2393052,4.1811915 1.1854538,4.3217817 c -0.024044,0.067119 -0.023245,0.1427594 0.00208,0.209375 0.012768,0.039272 0.037374,0.076038 0.066319,0.10625 0.018898,0.01767 0.041147,0.031214 0.067014,0.033681 0.021523,-0.00426 0.027613,-0.029936 0.037153,-0.047222 0.1064735,-0.2055067 0.2216865,-0.4062986 0.3335815,-0.6088649 0.00926,-0.01635 0.018252,-0.033283 0.028571,-0.048774 0.1700769,-0.028417 0.3401292,-0.057382 0.5111111,-0.079861 -0.059343,0.085261 -0.1026365,0.180216 -0.149449,0.2726593 -0.030663,0.062337 -0.059441,0.12558 -0.086662,0.1894935 -0.020293,0.058553 -0.014619,0.1282829 0.018535,0.1820027 0.018821,0.031629 0.042612,0.060725 0.069659,0.083969 0.025694,0.020848 0.050765,0.044999 0.082556,0.055762 0.016744,0.00403 0.030765,-0.00871 0.036939,-0.022878 0.00865,-0.019407 0.013974,-0.038787 0.024317,-0.057918 C 2.2852654,4.4657357 2.3538816,4.3473852 2.4189341,4.2272823 2.5974322,3.9045578 2.7834495,3.5860597 2.962324,3.2635491 2.972134,3.2434361 2.985861,3.2248541 2.992398,3.2033791 2.996558,3.1778971 2.984998,3.1529501 2.975037,3.1301151 2.953913,3.0880441 2.923493,3.0511281 2.891009,3.0172682 2.878168,3.0065732 2.865011,2.9940202 2.848301,2.9905322 l -0.00163,3.267e-4 -1e-4,2.22e-5 z"
         id="path199616" />
    </g>
  </g>
  <g
     inkscape:groupmode="layer"
     id="layer4"
     inkscape:label="3-altfill"
     style="display:inline">
    <path
       inkscape:connector-curvature="0"
       d="m 1.750309,2.6642741 0.0206,-0.011893 c 0.048113,-0.027778 0.084724,0.015235 0.036612,0.043012 L 1.6767581,2.7708888 M 1.6032072,2.8775033 1.8386604,2.7415644 c 0.048113,-0.027778 0.071952,0.022608 0.02384,0.050386 L 1.5299989,2.9839202 M 1.4576049,3.0898672 1.8423803,2.867717 c 0.048113,-0.027778 -0.00399,0.066456 -0.052107,0.094234 L 1.3877191,3.1943655 m -0.068552,0.1037289 0.418999,-0.2419092 c 0.048113,-0.027778 -0.00399,0.066456 -0.052107,0.094234 L 1.2565841,3.3983769 M 2.5639099,2.707742 2.6377529,2.665109 c 0.048113,-0.027778 0.084206,0.015534 0.036093,0.043312 L 2.4792835,2.8207508 M 1.1983837,3.4961285 1.6339514,3.2446533 c 0.048113,-0.027778 -0.00399,0.066456 -0.052107,0.094234 L 1.179843,3.570983 C 1.13173,3.598761 1.084899,3.6899491 1.133011,3.662171 L 1.5297371,3.4331214 c 0.048113,-0.027778 0.1176524,-0.00378 0.06954,0.024001 l -0.509082,0.2939189 c -0.048113,0.027778 -0.085823,0.1137003 -0.037711,0.085923 L 1.4220434,3.6235986 c 0.048113,-0.027778 -0.00501,0.067042 -0.053122,0.09482 L 1.0201322,3.9197922 c -0.048113,0.027778 -0.060058,0.098825 -0.011945,0.071047 L 1.3158,3.8132385 C 1.363913,3.7854605 1.31105,3.8801325 1.262935,3.9079105 L 1.0128241,4.0523116 c -0.048113,0.027778 -0.03217,0.082723 0.015943,0.054945 L 1.2124027,4.0012349 c 0.048113,-0.027778 -0.00242,0.065547 -0.050532,0.093325 l -0.1073863,0.062 c -0.048113,0.027778 -0.012245,0.07122 0.035868,0.043442 l 0.057071,-0.03295 M 2.4028687,2.9290189 2.7025436,2.7560014 c 0.048113,-0.027778 0.06401,0.027194 0.015897,0.054972 L 2.3267657,3.0371069 M 2.2559057,3.142168 2.6742166,2.9006562 c 0.048112,-0.027778 -0.00491,0.066983 -0.05302,0.094761 l -0.436151,0.251812 M 1.5862849,3.5287738 1.7791142,3.4174438 M 1.9221581,3.3990074 1.7405805,3.5038412 M 2.1141856,3.3522903 2.5681766,3.0901784 c 0.048112,-0.027778 -0.00491,0.066983 -0.05302,0.094761 L 2.0758059,3.4385988 c -0.048112,0.027778 -0.088966,0.1155147 -0.040854,0.087737 L 2.4613148,3.2801751 c 0.048113,-0.027778 -0.00573,0.06746 -0.053845,0.095238 L 1.9814216,3.6213916 c -0.048113,0.027778 -0.093463,0.118111 -0.04535,0.090333 L 2.3536244,3.4706504 c 0.048112,-0.027778 -0.00566,0.06742 -0.053776,0.095198 L 1.8931882,3.8006333 c -0.048113,0.027778 -0.088395,0.1151848 -0.040282,0.087407 L 2.2470885,3.660459 c 0.048113,-0.027778 -0.00465,0.066833 -0.05276,0.094611 L 1.8255224,3.9680002 c -0.048113,0.027778 -0.046131,0.090784 0.00198,0.063006 L 2.1415688,3.8496807 c 0.048113,-0.027778 -0.00439,0.066686 -0.052506,0.094464 L 1.8451903,4.084945 c -0.048113,0.027778 -0.018701,0.074947 0.029411,0.04717 L 2.0390447,4.037173 c 0.048112,-0.027778 5.56e-5,0.064117 -0.048054,0.091894 l -0.076193,0.04399 c -0.048113,0.027778 -3.322e-4,0.064342 0.04778,0.036564 L 1.9848137,4.196783 M 1.8909563,3.4811717 2.0647377,3.380839 M 2.7565447,3.430474 3.1373271,3.2106291 M 2.5979201,3.5862062 3.2570545,3.2056549 c 0.048112,-0.027778 0.1388791,-0.016032 0.090766,0.011746 l -0.056522,0.032633 c -0.048113,0.027778 0.016163,0.054819 0.064275,0.027041 l 0.042003,-0.02425 c 0.048112,-0.027778 0.065332,0.02643 0.01722,0.054208 l -0.025756,0.01487 c -0.048113,0.027778 -0.049308,0.092618 -0.0012,0.06484 l 0.012459,-0.00719 c 0.048112,-0.027778 0.096545,0.00841 0.048433,0.036187 l -0.1607177,0.09279 M 2.9160216,3.4667003 2.5056411,3.7036335 M 2.8184417,3.587188 2.4794225,3.782921 c -0.048113,0.027778 -0.09048,0.1163885 -0.042367,0.088611 L 2.7107058,3.7135394 c 0.048113,-0.027778 -0.00487,0.066963 -0.052984,0.09474 L 2.4136325,3.9492049 c -0.048113,0.027778 -0.056113,0.096547 -0.008,0.068769 L 2.6284085,3.889354 c 0.048112,-0.027778 0.045702,0.037764 -0.00241,0.065542 L 2.4140422,4.0772683 c -0.048113,0.027778 -0.020981,0.076264 0.027131,0.048486 l 0.248552,-0.1435016 m 1.2118419,-0.7638072 0.02202,-0.012714 c 0.048113,-0.027778 0.1040307,0.00409 0.055918,0.031866 l -0.070417,0.040655 c -0.048113,0.027778 -0.082177,0.1115947 -0.034064,0.083817 l 0.1417646,-0.081848 c 0.048113,-0.027778 0.063645,0.027405 0.015532,0.055183 l -0.193274,0.1115869 c -0.048113,0.027778 -0.084315,0.1128295 -0.036203,0.085052 L 4.0257998,3.4033198 c 0.048113,-0.027778 0.031868,0.045751 -0.016245,0.073529 L 3.7639356,3.6186572 c -0.048113,0.027778 -0.087022,0.1143923 -0.038909,0.086614 L 4.1343514,3.4689475 m -0.9490827,0.163053 0.3080261,-0.177839 c 0.048113,-0.027778 0.074533,0.021119 0.02642,0.048896 l -0.4591783,0.265107 m 0.4388671,-0.18923 -1.0083494,0.5821708 c -0.048113,0.027778 0.051944,0.03416 0.1000569,0.00638 L 2.9089971,3.9839561 M 3.4375996,3.6787673 3.1016608,3.8727216 c -0.048113,0.027778 -0.067906,0.1033557 -0.019794,0.075578 l 0.2654024,-0.15323 c 0.048112,-0.027778 -0.00192,0.06526 -0.050035,0.093038 L 3.0749997,4.0164145 c -0.048113,0.027778 -0.040932,0.087782 0.00718,0.060004 l 0.1650188,-0.095274 c 0.048113,-0.027778 0.00241,0.062761 -0.045707,0.090539 l -0.093754,0.054129 c -0.048112,0.027778 -0.00649,0.067898 0.041622,0.04012 l 0.057629,-0.033272 M 4.1187447,3.4138081 4.5179561,3.1833232 c 0.048113,-0.027778 0.1265714,-0.00893 0.078459,0.018852 l -0.1722914,0.099472 c -0.048113,0.027778 0.010465,0.058108 0.058577,0.03033 l 0.1618909,-0.093468 c 0.048113,-0.027778 0.077806,0.019229 0.029693,0.047007 l -0.1705351,0.098458 c -0.048113,0.027778 -0.051239,0.093733 -0.00313,0.065955 L 4.6896354,3.3408043 c 0.048112,-0.027778 0.050303,0.035108 0.00219,0.062885 l -0.208067,0.1201279 c -0.048113,0.027778 -0.078811,0.1096517 -0.030699,0.081874 L 4.6841702,3.4722597 c 0.048113,-0.027778 0.029432,0.047157 -0.01868,0.074935 L 4.3733782,3.7158455 M 4.0401996,3.5874562 3.6841926,3.7929969 c -0.048113,0.027778 -0.089107,0.1155961 -0.040995,0.087818 l 0.30097,-0.1737651 c 0.048113,-0.027778 -0.00649,0.067896 -0.0546,0.095674 L 3.6022035,3.9686335 c -0.048113,0.027778 -0.089107,0.115596 -0.040995,0.087818 L 3.8382834,3.8964826 c 0.048113,-0.027778 0.00101,0.063567 -0.047103,0.091345 l -0.271777,0.1569106 c -0.048113,0.027778 -0.090263,0.1162634 -0.042151,0.088486 L 3.7704536,4.0639443 c 0.048112,-0.027778 0.078361,0.018908 0.030248,0.046686 l 0.00631,-0.00364 c -0.048113,0.027778 0.00427,0.061682 0.052388,0.033904 l 0.039799,-0.022978 m 1.1152981,-0.9005208 0.020805,-0.012012 c 0.048113,-0.027778 0.1049098,0.00358 0.056797,0.031358 l -0.069567,0.040165 c -0.048113,0.027778 -0.081899,0.1114344 -0.033786,0.083657 l 0.1404141,-0.081068 c 0.048112,-0.027778 0.064686,0.026804 0.016573,0.054581 L 4.9529102,3.4454027 c -0.048113,0.027778 -0.084996,0.1132224 -0.036883,0.085445 l 0.2226005,-0.128519 c 0.048113,-0.027778 0.041815,0.040008 -0.0063,0.067786 L 4.8774128,3.6172911 c -0.048112,0.027778 -0.087582,0.1147153 -0.039469,0.086938 L 5.2505467,3.4660122 M 4.3174051,3.8123116 4.6356936,3.6285477 c 0.048112,-0.027778 0.00247,0.062722 -0.045639,0.0905 L 4.2395776,3.9213955 M 3.7330984,4.1496613 3.4375348,4.320305 C 3.3894218,4.348083 3.3506268,4.4346312 3.3987398,4.406853 L 3.6480392,4.26292 C 3.6961522,4.235142 3.6474714,4.327398 3.5993582,4.355176 L 3.3945119,4.473444 c -0.048113,0.027778 -0.037686,0.085908 0.010427,0.05813 l 0.154009,-0.088917 c 0.048112,-0.027778 0.013361,0.056437 -0.034752,0.084214 l -0.09464,0.05464 c -0.048112,0.027778 -0.00481,0.066924 0.043307,0.039147 l 0.054853,-0.031669 m -1.8510667,0.7479637 -0.055054,0.031785 c -0.048113,0.027778 -0.014501,0.072522 0.033612,0.044744 L 1.7987088,5.3306307 M 5.2366682,3.4098749 5.6288298,3.1834603 c 0.048113,-0.027778 0.1286547,-0.010129 0.080542,0.017649 L 5.5354956,3.3014969 c -0.048113,0.027778 0.01145,0.057539 0.059563,0.029761 l 0.1615549,-0.093274 c 0.048112,-0.027778 0.078599,0.018771 0.030486,0.046549 l -0.1706803,0.098542 c -0.048113,0.027778 -0.050887,0.093529 -0.00277,0.065752 L 5.8024867,3.3397995 c 0.048113,-0.027778 0.050675,0.034893 0.00256,0.062671 L 5.5970732,3.5225451 c -0.048113,0.027778 -0.078677,0.1095745 -0.030565,0.081797 L 5.7972441,3.4711264 c 0.048113,-0.027778 0.029372,0.047192 -0.01874,0.07497 L 5.4868235,3.714498 M 3.9018477,4.1805339 4.5583071,3.8015269 M 1.5884767,5.5161592 1.8805155,5.3475505 c 0.048113,-0.027778 0.1562119,-0.026039 0.1080993,0.00174 L 1.526526,5.6160765 M 4.4465862,3.930179 4.0136446,4.180138 M 5.1545187,3.5856041 4.7973998,3.7917866 c -0.048113,0.027778 -0.088656,0.1153359 -0.040544,0.087558 L 5.0584896,3.7051965 c 0.048112,-0.027778 -0.00659,0.067954 -0.054701,0.095732 L 4.7163124,3.9669026 c -0.048113,0.027778 -0.089494,0.1158195 -0.041381,0.088042 L 4.9526159,3.8946227 c 0.048112,-0.027778 7.723e-4,0.063704 -0.04734,0.091482 L 4.6330937,4.1432489 c -0.048112,0.027778 -0.089445,0.1157912 -0.041333,0.088013 l 0.29194,-0.168551 c 0.048113,-0.027778 0.077058,0.019661 0.028945,0.047439 l 0.00562,-0.00324 c -0.048112,0.027778 0.00495,0.061292 0.053062,0.033514 l 0.039602,-0.022864 M 1.4645752,5.7159939 2.0894175,5.3552411 c 0.048112,-0.027778 0.1406009,-0.017026 0.092488,0.010752 l -0.1156184,0.066752 c -0.048113,0.027778 0.056941,0.031275 0.1050537,0.0035 l 0.095476,-0.055123 c 0.048113,-0.027778 0.1265683,-0.00892 0.078456,0.018854 l -0.089159,0.051476 c -0.048113,0.027778 0.019894,0.052664 0.068006,0.024887 l 0.090498,-0.052249 c 0.048113,-0.027778 0.1096245,8.589e-4 0.061512,0.028636 l -0.1038112,0.059935 c -0.048113,0.027778 -0.019397,0.075349 0.028716,0.047571 l 0.1282945,-0.074071 c 0.048113,-0.027778 0.092858,0.010538 0.044746,0.038316 l -0.1708616,0.098647 c -0.048112,0.027778 -0.075305,0.1076271 -0.027192,0.079849 l 0.2329423,-0.134492 c 0.048113,-0.027778 0.071378,0.02294 0.023265,0.050718 L 2.2543874,5.837346 M 1.4008249,5.8169502 1.8337738,5.566987 M 1.3368217,5.9180525 1.7749105,5.6651217 M 1.2750129,6.0178877 1.6829107,5.782388 c 0.048113,-0.027778 -0.00684,0.0681 -0.054954,0.095878 L 1.214421,6.117021 m 4.9719267,-2.8705433 -0.040617,0.02345 c -0.048112,0.027778 -0.052398,0.094402 -0.00429,0.066624 l 0.069148,-0.039923 c 0.048113,-0.027778 0.098094,0.00752 0.049981,0.035294 l -0.1343998,0.077596 c -0.048113,0.027778 -0.074664,0.1072573 -0.026551,0.079479 L 6.2943002,3.3765992 c 0.048112,-0.027778 0.054929,0.032437 0.00682,0.060215 L 6.0633937,3.574065 c -0.048112,0.027778 -0.08658,0.1141372 -0.038468,0.086359 L 6.2856301,3.5099069 c 0.048113,-0.027778 0.014196,0.055954 -0.033917,0.083732 L 5.9857958,3.7471662 c -0.048112,0.027778 -0.085124,0.1132963 -0.037011,0.085519 L 6.2064685,3.6839109 c 0.048112,-0.027778 -0.00273,0.065724 -0.050838,0.093501 L 5.9190344,3.9140111 c -0.048113,0.027778 -0.072695,0.1061204 -0.024583,0.078343 l 0.213134,-0.123053 c 0.048113,-0.027778 0.00855,0.059212 -0.039559,0.086989 l -0.1761126,0.101679 c -0.048113,0.027778 -0.025277,0.078744 0.022835,0.050966 L 6.1271581,3.9863009 m -4.971433,2.2287578 0.41836,-0.2415402 c 0.048113,-0.027778 -0.00576,0.067475 -0.053872,0.095253 L 1.1373961,6.289791 c -0.048113,0.027778 -0.098319,0.1209146 -0.050207,0.093137 l 0.379152,-0.2189034 c 0.048113,-0.027778 -0.00269,0.065702 -0.050801,0.09348 L 1.0426463,6.4727949 c -0.048113,0.027778 -0.08372,0.1124858 -0.035608,0.084708 l 0.357311,-0.2062934 c 0.048113,-0.027778 -0.00308,0.065927 -0.051191,0.093705 L 0.98126198,6.6365352 c -0.048113,0.027778 -0.063895,0.1010397 -0.015782,0.073262 L 1.2619679,6.5386196 c 0.048113,-0.027778 -0.00308,0.065927 -0.051191,0.093705 L 0.97311688,6.7695379 c -0.048113,0.027778 -0.02207,0.076892 0.026043,0.049114 L 1.1595863,6.7260299 c 0.048113,-0.027778 -0.00155,0.065045 -0.049662,0.092823 l -0.070622,0.040773 c -0.048113,0.027778 -8.44e-5,0.064199 0.048028,0.036421 l 0.012637,-0.0073 c 0.048113,-0.027778 0.1199482,-0.0051 0.071836,0.022676 l -0.027989,0.01616 c -0.048113,0.027778 0.017032,0.054317 0.065144,0.026539 L 1.3224366,6.8886079 M 5.4310872,3.8108273 5.7483207,3.6276724 c 0.048113,-0.027778 0.00351,0.062122 -0.0446,0.0899 L 5.3539891,3.9194899 M 4.8490674,4.1468566 4.5512694,4.3187905 c -0.048113,0.027778 -0.086508,0.1140955 -0.038396,0.086318 l 0.249995,-0.1443348 c 0.048112,-0.027778 -0.00165,0.065103 -0.049763,0.092881 L 4.5073822,4.4724286 c -0.048112,0.027778 -0.038231,0.086223 0.00988,0.058445 l 0.1548015,-0.089374 c 0.048113,-0.027778 0.012918,0.056692 -0.035194,0.084469 l -0.094808,0.054737 c -0.048113,0.027778 -0.00543,0.067288 0.042678,0.03951 l 0.056768,-0.032775 M 5.0115342,4.1813565 5.6739905,3.7988871 M 5.5636892,3.9267196 5.1243439,4.1803756 M 1.7549633,6.1256885 1.5937859,6.2187443 c -0.048113,0.027778 0.038396,0.041982 0.086508,0.014205 L 2.6425595,5.6773847 c 0.048113,-0.027778 0.041383,0.040258 -0.00673,0.068035 L 1.7585289,6.25193 c -0.048113,0.027778 0.022409,0.051212 0.070521,0.023435 L 1.935088,6.214143 c 0.048113,-0.027778 0.1066677,0.00257 0.058555,0.030343 l -0.1025034,0.05918 c -0.048113,0.027778 0.00518,0.061161 0.053289,0.033383 L 2.0627723,6.268723 c 0.048113,-0.027778 0.1042113,0.00398 0.056099,0.031761 L 1.985734,6.377353 C 1.937621,6.405131 1.960186,6.456253 2.008298,6.428476 L 2.1660056,6.337423 c 0.048113,-0.027778 0.088532,0.013036 0.04042,0.040814 L 2.007849,6.4928852 C 1.959737,6.5206632 1.912958,6.6118206 1.96107,6.5840432 L 2.2403057,6.4228263 c 0.048112,-0.027778 0.07479,0.02097 0.026678,0.048748 l -0.874725,0.5050222 c -0.048113,0.027778 -0.148642,0.021668 -0.1005295,-0.00611 L 1.489382,6.8563722 m 5.2053509,-3.518511 0.1140623,-0.065854 c 0.048113,-0.027778 0.0987,0.00717 0.050587,0.034944 L 6.6399047,3.4336663 m -0.058887,0.098149 0.2909819,-0.1679984 c 0.048113,-0.027778 0.00871,0.05912 -0.0394,0.086898 l -0.319999,0.1847506 m -3.5059412,1.960006 0.1285793,-0.074235 c 0.048113,-0.027778 0.097466,0.00788 0.049353,0.035656 l -0.168259,0.097144 c -0.048113,0.027778 -0.053673,0.095138 -0.00556,0.067361 l 0.1670359,-0.096438 c 0.048113,-0.027778 0.011537,0.057489 -0.036576,0.085267 l -0.1333351,0.07698 M 2.6292586,5.813364 2.0439927,6.1512675 M 6.4325775,3.7458169 6.7999512,3.5337135 c 0.048113,-0.027778 0.01828,0.053596 -0.029833,0.081374 L 6.3300939,3.8691357 M 6.7771727,3.6751649 6.5062898,3.8315591 c -0.048113,0.027778 -0.064318,0.1012844 -0.016206,0.073507 l 0.221974,-0.1281572 c 0.048113,-0.027778 0.019082,0.053133 -0.02903,0.080911 L 6.4544274,3.989802 C 6.4063144,4.01758 6.3706584,4.1023161 6.4187704,4.074538 l 0.233716,-0.1349355 c 0.048112,-0.027778 0.013931,0.056107 -0.034181,0.083885 l -0.238782,0.1378609 c -0.048112,0.027778 -0.096893,0.1200915 -0.048781,0.092314 L 6.6034864,4.0961927 M 5.9337641,4.162107 6.3708779,3.9097391 m -3.6200874,2.0900585 0.048498,-0.028 c 0.048113,-0.027778 0.1070912,0.00232 0.058979,0.030099 l -0.1082643,0.062507 c -0.048113,0.027778 -0.086824,0.1142777 -0.038711,0.0865 L 2.9071821,6.037805 c 0.048113,-0.027778 0.074801,0.020964 0.026689,0.048741 L 2.6701473,6.238807 C 2.6220343,6.266585 2.5800793,6.3549579 2.6281913,6.32718 L 2.9079668,6.165652 c 0.048113,-0.027778 0.00131,0.063391 -0.046798,0.091169 L 2.5862726,6.4155322 c -0.048113,0.027778 -0.088297,0.1151283 -0.040184,0.08735 l 0.267356,-0.1543581 c 0.048113,-0.027778 3.933e-4,0.063923 -0.04772,0.091701 L 2.5074978,6.5893129 c -0.048113,0.027778 -0.078058,0.109217 -0.029946,0.081439 L 2.7180054,6.5319265 c 0.048113,-0.027778 0.00589,0.060748 -0.042219,0.088525 l -0.2089457,0.120635 c -0.048113,0.027778 -0.042889,0.088912 0.00522,0.061134 l 0.164133,-0.094762 c 0.048112,-0.027778 0.012591,0.056881 -0.035521,0.084658 l -0.1115195,0.064386 c -0.048113,0.027778 -0.01334,0.071852 0.034773,0.044074 l 0.082399,-0.047573 m 3.1022345,-2.3684246 -0.027122,0.015659 c -0.048113,0.027778 -0.00788,0.068701 0.040229,0.040924 l 0.00644,-0.00372 c 0.048112,-0.027778 0.1125069,-8.056e-4 0.064394,0.026972 l -0.00494,0.00285 c -0.048113,0.027778 0.035954,0.043392 0.084067,0.015614 l 0.04633,-0.026749 m -2.5725939,1.3569918 -0.024409,0.014093 c -0.048112,0.027778 -0.053458,0.095014 -0.00535,0.067236 l 0.066603,-0.038453 c 0.048113,-0.027778 0.1128687,-0.00101 0.064756,0.026763 l -0.150821,0.087077 c -0.048113,0.027778 -0.084235,0.1127828 -0.036122,0.085005 L 3.4931937,6.0202211 c 0.048113,-0.027778 0.052065,0.03409 0.00395,0.061868 L 3.2225968,6.2406003 c -0.048112,0.027778 -0.08554,0.1135364 -0.037427,0.085759 l 0.2950515,-0.170348 c 0.048113,-0.027778 0.037349,0.042586 -0.010763,0.070364 L 3.1478236,6.4120709 c -0.048113,0.027778 -0.083352,0.1122733 -0.03524,0.084496 L 3.5084049,6.268039 M 1.4730509,6.994101 2.2819657,6.5270739 c 0.048113,-0.027778 0.042558,0.039579 -0.00555,0.067357 L 1.6100843,6.9791349 M 6.2251241,4.3787905 6.5404765,4.1967216 M 1.7853206,6.9421121 2.2616485,6.6671041 M 6.4604469,4.3070766 5.9445418,4.6049346 M 6.1076402,4.5749197 6.3173391,4.4538501 m -1.8259176,1.054194 0.029325,-0.016931 c 0.048112,-0.027778 0.090044,0.012163 0.041932,0.039941 l -0.125153,0.072257 m -0.7756188,0.4478036 0.1831124,-0.10572 c 0.048113,-0.027778 0.091207,0.011491 0.043095,0.039269 L 3.5598427,6.1741915 M 4.3783209,5.7016427 4.6030122,5.5719172 c 0.048113,-0.027778 0.080766,0.01752 0.032653,0.045298 L 4.3191167,5.7999745 m 0.9066118,-0.5234326 0.048638,-0.028081 c 0.048113,-0.027778 0.1023572,0.00505 0.054245,0.032832 l -0.103525,0.05977 c -0.048112,0.027778 -0.087675,0.1147692 -0.039562,0.086991 L 5.3804758,5.3154985 c 0.048113,-0.027778 0.085929,0.014539 0.037816,0.042317 l -0.2773532,0.16013 c -0.048112,0.027778 -0.09772,0.1205684 -0.049607,0.092791 L 5.4040195,5.4302056 c 0.048113,-0.027778 0.00261,0.062644 -0.045504,0.090422 L 5.0392277,5.7049683 c -0.048113,0.027778 -0.100609,0.1222367 -0.052497,0.094459 l 0.354175,-0.204483 m -1.1518784,0.2801371 -0.03529,0.020375 c -0.048113,0.027778 0.052134,0.034051 0.1002465,0.00627 l 0.3709273,-0.214155 c 0.048113,-0.027778 0.00918,0.058852 -0.038935,0.08663 L 4.2131891,5.98943 M 3.9285459,6.025469 3.8188167,6.088821 c -0.048113,0.027778 -0.021213,0.076398 0.026899,0.04862 L 3.9101437,6.100243 M 3.4336864,6.3753279 3.0773444,6.5810621 c -0.048113,0.027778 -0.083352,0.1122734 -0.03524,0.084496 l 0.2921157,-0.168653 c 0.048112,-0.027778 -0.00467,0.066846 -0.052782,0.094624 L 3.0207675,6.7420267 c -0.048113,0.027778 -0.049742,0.092868 -0.00163,0.065091 L 3.2316115,6.684446 c 0.048112,-0.027778 0.00319,0.062311 -0.044928,0.090089 l -0.1471898,0.08498 c -0.048112,0.027778 0.0027,0.062589 0.050816,0.034812 L 3.1803777,6.842326 M 4.1515149,6.0891893 4.5350678,5.867745 C 4.5831808,5.839967 4.6871609,5.844084 4.6390485,5.871865 L 4.6031465,5.892593 M 4.5141075,5.944 4.1314247,6.164942 C 4.0833117,6.19272 4.0321037,6.2864351 4.0802167,6.258657 L 4.4555187,6.0419729 M 4.7232171,5.8874171 4.7751347,5.8574425 M 4.3976848,6.1395132 4.0337888,6.3496086 c -0.048112,0.027778 -0.086653,0.1141795 -0.038541,0.086402 L 4.3037667,6.257887 c 0.048112,-0.027778 -0.00628,0.067777 -0.054394,0.095554 l -0.285634,0.1649112 c -0.048113,0.027778 -0.071989,0.105713 -0.023877,0.077935 L 4.1967972,6.4479459 c 0.048113,-0.027778 0.00228,0.062831 -0.045828,0.090609 L 3.9248251,6.6691191 c -0.048112,0.027778 -0.05368,0.095142 -0.00557,0.067365 L 4.1064527,6.6284063 c 0.048113,-0.027778 0.00972,0.058539 -0.038393,0.086316 l -0.1444173,0.083379 c -0.048113,0.027778 -0.026784,0.079614 0.021328,0.051836 l 0.089642,-0.051755 c 0.048112,-0.027778 0.021905,0.051503 -0.026208,0.079281 l -0.061161,0.035311 m 1.3368283,-1.2208668 -0.3509306,0.20261 c -0.048112,0.027778 -0.1017026,0.122868 -0.05359,0.09509 L 5.2237927,5.7908596 m -0.060514,0.099087 -0.337328,0.1947567 c -0.048113,0.027778 -0.1025822,0.1233758 -0.05447,0.095598 L 5.0982912,5.9916181 m -0.063592,0.1008648 -0.3176876,0.183417 c -0.048112,0.027778 -0.1025821,0.1233757 -0.054469,0.095598 L 5.2139825,6.0531237 M 5.4590797,5.9116169 5.3412536,5.9796437 c -0.048113,0.027778 0.01586,0.054993 0.063972,0.027215 l 0.09698,-0.055991 c 0.048113,-0.027778 0.096854,0.00823 0.048741,0.036009 l -0.151655,0.087558 c -0.048113,0.027778 -0.087226,0.1145104 -0.039114,0.086733 L 5.5827127,6.0326875 c 0.048112,-0.027778 0.06029,0.029341 0.012178,0.057119 l -0.2805161,0.161956 c -0.048113,0.027778 -0.090401,0.1163431 -0.042289,0.088565 l 0.3071211,-0.177316 c 0.048113,-0.027778 0.017546,0.05402 -0.030567,0.081798 L 5.2357526,6.425455 c -0.048113,0.027778 -0.077897,0.1091242 -0.029785,0.081346 l 0.3051872,-0.1762 c 0.048113,-0.027778 0.00434,0.061643 -0.043771,0.089421 L 5.1847897,6.5831785 c -0.048113,0.027778 -0.062849,0.100436 -0.014737,0.072658 L 5.4227675,6.509932 c 0.048112,-0.027778 0.00271,0.062584 -0.045399,0.090361 L 5.1667457,6.7218962 c -0.048113,0.027778 -0.039596,0.087011 0.00852,0.059233 l 0.1604801,-0.092653 c 0.048113,-0.027778 0.00907,0.058913 -0.039041,0.08669 l -0.09399,0.054265 c -0.048112,0.027778 -0.00322,0.066006 0.044897,0.038228 l 0.059848,-0.034554 M 5.0248044,6.2264959 4.6093118,6.4663805 c -0.048112,0.027778 -0.09398,0.1184094 -0.045867,0.090631 L 4.9352505,6.3423499 m -0.060051,0.098821 -0.3473883,0.2005646 c -0.048113,0.027778 -0.073433,0.1065467 -0.025321,0.078769 l 0.2789676,-0.161062 c 0.048113,-0.027778 -0.00561,0.067387 -0.053719,0.095165 l -0.221832,0.128074 c -0.048112,0.027778 -0.024119,0.078075 0.023993,0.050298 l 0.1455381,-0.084026 c 0.048113,-0.027778 -4.322e-4,0.0644 -0.048545,0.092177 l -0.097888,0.056515 M 6.8010426,5.585884 6.8827306,5.538721 c 0.048112,-0.027778 0.1045451,0.00379 0.056433,0.031569 L 6.8032454,5.648762 C 6.7551334,5.67654 6.7182594,5.7619783 6.7663724,5.7342 l 0.224704,-0.1297315 c 0.048113,-0.027778 0.062255,0.028207 0.014143,0.055985 L 6.7228177,5.8234976 c -0.048113,0.027778 -0.1008055,0.1223501 -0.052693,0.094572 L 6.9715811,5.7440241 c 0.048113,-0.027778 0.00202,0.062986 -0.046096,0.090764 l -0.3589346,0.207231 c -0.048113,0.027778 -0.093087,-0.010406 -0.044974,-0.038184 l 0.028327,-0.016354 c 0.048113,-0.027778 -0.00144,-0.063318 -0.049553,-0.03554 l -0.091524,0.052841 m 0.023271,-0.077586 -0.485177,0.2801171 M 6.1382779,6.1609819 5.8284614,6.3398545 m 0.2240573,-0.06521 -0.3045473,0.1758306 m 0.2449078,-0.077248 -0.2645293,0.152726 c -0.048113,0.027778 -0.087534,0.1146878 -0.039421,0.08691 L 5.9083094,6.4862045 c 0.048112,-0.027778 0.0141,0.056009 -0.034013,0.083787 L 5.6638278,6.6915057 c -0.048112,0.027778 -0.061186,0.099476 -0.013074,0.071698 L 5.8549057,6.645337 c 0.048112,-0.027778 0.047704,0.036608 -4.089e-4,0.064386 L 5.6542145,6.8253562 c -0.048113,0.027778 -0.028314,0.080497 0.019799,0.052719 L 5.9149641,6.7389623 m 0.6240416,-0.6168908 0.340383,-0.19652 c 0.048113,-0.027778 -0.00107,0.064769 -0.049185,0.092547 L 6.4833407,6.2183599 M 6.4114956,6.3239896 6.7803824,6.1110127 c 0.048113,-0.027778 -0.00158,0.065063 -0.049695,0.092841 L 6.3269629,6.4369446 m -0.1056644,0.1251555 0.45999,-0.2655755 c 0.048112,-0.027778 -0.00129,0.064893 -0.049399,0.092671 l -0.916468,0.529123 c -0.048113,0.027778 0.033661,0.044715 0.081774,0.016938 l 0.3612939,-0.208593 m 0.99569,-0.574862 0.3329642,-0.192237 M 6.6204067,6.4599749 6.3458718,6.6184776 c -0.048113,0.027778 -0.060583,0.099128 -0.01247,0.07135 l 0.2034067,-0.117437 c 0.048113,-0.027778 0.00306,0.062381 -0.045048,0.090158 l -0.1645751,0.095017 c -0.048113,0.027778 -0.044745,0.089984 0.00337,0.062206 l 0.1181037,-0.068187 c 0.048113,-0.027778 0.010209,0.058256 -0.037904,0.086034 l -0.060394,0.034869 c -0.048113,0.027778 -0.013009,0.071661 0.035103,0.043883 l 0.028434,-0.016416 M 6.9834436,6.3145255 7.6221957,5.9457417 c 0.048113,-0.027778 0.1429208,-0.018365 0.094808,0.00941 l -0.058623,0.033846 c -0.048113,0.027778 0.020213,0.05248 0.068326,0.024702 l 0.04351,-0.025121 c 0.048113,-0.027778 0.067738,0.025041 0.019626,0.052819 l -0.026381,0.015231 c -0.048113,0.027778 -0.046357,0.090914 0.00176,0.063137 l 0.00923,-0.00533 c 0.048113,-0.027778 0.093522,0.010155 0.045409,0.037933 L 7.6685435,6.2397331 M 6.8888772,6.4332735 7.3012469,6.1951916 m -0.100102,0.121944 -0.3412868,0.197042 c -0.048112,0.027778 -0.092461,0.1175327 -0.044349,0.089755 l 0.2757114,-0.159182 c 0.048113,-0.027778 -0.00608,0.067661 -0.054194,0.095439 L 6.7912256,6.6821027 c -0.048113,0.027778 -0.057482,0.097337 -0.00937,0.069559 L 7.0049052,6.6228849 c 0.048113,-0.027778 0.043321,0.039138 -0.00479,0.066916 L 6.7882805,6.8121032 c -0.048113,0.027778 -0.022565,0.077178 0.025548,0.0494 L 7.0608797,6.718868 m 1.1736221,-0.7417411 -0.01733,0.010005 c -0.048112,0.027778 -0.048523,0.092165 -4.1e-4,0.064387 l 0.046527,-0.026862 c 0.048112,-0.027778 0.1005549,0.00609 0.052442,0.033872 l -0.11056,0.063832 c -0.048113,0.027778 -0.071224,0.1052714 -0.023112,0.077494 L 8.3565047,6.0991387 c 0.048112,-0.027778 0.065133,0.026545 0.017021,0.054323 L 8.1486735,6.2832802 c -0.048113,0.027778 -0.085148,0.1133103 -0.037036,0.085533 L 8.3665211,6.2216559 c 0.048113,-0.027778 0.018551,0.05344 -0.029562,0.081218 l -0.2652295,0.15313 c -0.048113,0.027778 -0.085409,0.1134607 -0.037296,0.085683 L 8.2957735,6.3908021 c 0.048113,-0.027778 -0.0012,0.064846 -0.049317,0.092623 L 8.0016837,6.6247449 c -0.048113,0.027778 -0.076358,0.1082352 -0.028245,0.080457 l 0.221922,-0.1281264 c 0.048112,-0.027778 0.00598,0.060695 -0.042129,0.088473 l -0.19057,0.1100257 c -0.048112,0.027778 -0.035175,0.084459 0.012937,0.056681 L 8.1823282,6.7128999 M 7.5700254,6.3607627 7.8648097,6.1905689 c 0.048112,-0.027778 0.077125,0.019622 0.029013,0.0474 l -0.4455441,0.257235 m 0.43267,-0.185652 -1.0190649,0.5883572 c -0.048113,0.027778 0.041498,0.040191 0.089611,0.012413 L 7.3054804,6.705948 M 9.5797011,5.392926 9.6531471,5.350522 c 0.048113,-0.027778 0.1015655,0.00551 0.053453,0.033289 L 9.5805717,5.456574 c -0.048113,0.027778 -0.08288,0.1120005 -0.034767,0.084223 l 0.208828,-0.1205678 c 0.048112,-0.027778 0.084879,0.015145 0.036766,0.042923 l -0.2803619,0.161867 c -0.048113,0.027778 -0.081354,0.1111199 -0.033242,0.083342 l 0.311517,-0.1798537 c 0.04811,-0.027778 0.0086,0.059168 -0.039484,0.086946 L 9.4445964,5.791679 C 9.3964834,5.819457 9.3647584,5.9019236 9.4128704,5.874146 L 9.6963001,5.7105076 c 0.048113,-0.027778 -0.00542,0.067277 -0.053528,0.095054 L 9.3827116,5.9557082 c -0.048113,0.027778 -0.078272,0.10934 -0.030159,0.081562 L 9.5892441,5.9006165 c 0.048113,-0.027778 -0.00307,0.06592 -0.051178,0.093698 L 9.3263056,6.1165742 c -0.048113,0.027778 -0.074015,0.1068825 -0.025902,0.079105 L 9.4876518,6.0875709 c 0.048113,-0.027778 -0.0023,0.065479 -0.050414,0.093257 l -0.1609261,0.09291 c -0.048112,0.027778 -0.062631,0.1003098 -0.014518,0.072532 l 0.1263069,-0.072923 c 0.048113,-0.027778 0.00226,0.062844 -0.04585,0.090622 l -0.084862,0.048995 c -0.048113,0.027778 -0.039662,0.087049 0.00845,0.059271 l 0.068225,-0.03939 M 7.8181442,6.4099613 7.4783519,6.6061405 c -0.048112,0.027778 -0.068538,0.1037204 -0.020425,0.075943 L 7.7270617,6.5266979 c 0.048113,-0.027778 -0.00226,0.065453 -0.05037,0.093231 L 7.4502557,6.750662 c -0.048113,0.027778 -0.042471,0.088671 0.00564,0.060893 L 7.6263224,6.71316 c 0.048113,-0.027778 0.00139,0.063348 -0.046723,0.091126 l -0.099315,0.05734 c -0.048113,0.027778 -0.00872,0.069184 0.039394,0.041406 l 0.065009,-0.037533 m 1.2010013,-0.8216985 0.074661,-0.043105 c 0.048112,-0.027778 0.1026644,0.00488 0.054552,0.032655 L 8.7325811,6.1386111 m -0.058599,0.097982 0.2766237,-0.1597089 c 0.048113,-0.027778 0.015584,0.055153 -0.032529,0.08293 L 8.6089947,6.3382639 m -0.07402,0.1068856 0.3482972,-0.2010894 c 0.048113,-0.027778 0.017323,0.054149 -0.03079,0.081927 L 8.4456279,6.5608836 M 7.9805522,6.8935453 8.8236065,6.4068077 c 0.048112,-0.027778 0.019237,0.053043 -0.028875,0.080821 L 8.5744934,6.6147833 c -0.048113,0.027778 -0.083695,0.1124714 -0.035583,0.084694 L 8.7653286,6.5687545 c 0.048112,-0.027778 0.017987,0.053765 -0.030125,0.081543 l -0.2318755,0.133873 c -0.048112,0.027778 -0.086048,0.1138301 -0.037936,0.086052 L 8.7028594,6.7331212 c 0.048112,-0.027778 0.00461,0.061486 -0.043499,0.089264 L 8.3867956,6.9797507 M 8.0794525,6.9005953 8.3053499,6.7701732 m -0.544464,0.4426465 -0.015749,0.00909 c -0.048113,0.027778 -0.016165,0.073483 0.031947,0.045705 l 0.00224,-0.00129 c 0.048113,-0.027778 0.108503,0.00151 0.06039,0.029284 l -0.00607,0.00351 c -0.048113,0.027778 0.028464,0.047716 0.076576,0.019939 l 0.042371,-0.024463 M 8.3269197,7.0784701 8.6360427,6.8999979 m 0.4037701,-0.1689668 0.043627,-0.025188 c 0.048112,-0.027778 0.1322359,-0.012196 0.084123,0.015581 l -0.1202581,0.069431 c -0.048113,0.027778 -0.039473,0.08694 0.00864,0.059162 l 0.1605107,-0.092671 c 0.048112,-0.027778 0.072062,0.022545 0.023949,0.050323 l -0.1544721,0.089184 c -0.048113,0.027778 0.015359,0.055283 0.063471,0.027505 L 9.2639658,6.8582165 M 8.5626225,7.0065371 8.1993809,7.2162546 m -0.2246402,0.1296961 0.1335065,-0.07708 m -8.356e-4,0.064632 0.3524387,-0.2034805"
       style="display:inline;fill:none;stroke:#0208ff;stroke-width:0.04444445;stroke-linecap:round;stroke-linejoin:round;stroke-miterlimit:4;stroke-dasharray:none;stroke-opacity:1"
       id="path201021" />
  </g>
  <WCB
     layer="0"
     node="0"
     lastpath="0"
     lastpathnc="0"
     lastknownposx="0"
     lastknownposy="0"
     pausedposx="0"
     pausedposy="0" />
</svg>
