<?xml version="1.0" encoding="UTF-8" standalone="no"?>
<!-- Created with Inkscape (http://www.inkscape.org/) -->

<svg
   xmlns:dc="http://purl.org/dc/elements/1.1/"
   xmlns:cc="http://creativecommons.org/ns#"
   xmlns:rdf="http://www.w3.org/1999/02/22-rdf-syntax-ns#"
   xmlns:svg="http://www.w3.org/2000/svg"
   xmlns="http://www.w3.org/2000/svg"
   xmlns:sodipodi="http://sodipodi.sourceforge.net/DTD/sodipodi-0.dtd"
   xmlns:inkscape="http://www.inkscape.org/namespaces/inkscape"
   width="11in"
   height="8.5in"
   viewBox="0 0 11 8.5"
   id="svg268702"
   version="1.1"
   inkscape:version="0.91 r13725"
   sodipodi:docname="Page-Size-Demo.svg">
  <sodipodi:namedview
     inkscape:document-units="in"
     pagecolor="#ffffff"
     bordercolor="#666666"
     borderopacity="1.0"
     inkscape:pageopacity="0.0"
     inkscape:pageshadow="2"
     inkscape:zoom="0.85359477"
     inkscape:cx="495"
     inkscape:cy="382.5"
     inkscape:current-layer="layer1"
     id="namedview268706"
     showgrid="false"
     inkscape:window-width="1436"
     inkscape:window-height="855"
     inkscape:window-x="0"
     inkscape:window-y="1"
     inkscape:window-maximized="1" />
  <defs
     id="defs268704" />
  <metadata
     id="metadata268708">
    <rdf:RDF>
      <cc:Work
         rdf:about="">
        <dc:format>image/svg+xml</dc:format>
        <dc:type
           rdf:resource="http://purl.org/dc/dcmitype/StillImage" />
        <dc:title></dc:title>
      </cc:Work>
    </rdf:RDF>
  </metadata>
  <g
     id="layer1"
     inkscape:groupmode="layer"
     inkscape:label="1 Letter"
     style="display:inline">
    <g
       inkscape:label="Hershey Text"
       transform="matrix(0.01619673,0,0,0.0168249,1.3844248,2.583512)"
       id="g269349"
       style="stroke:#4a5cca;stroke-width:3.02886677;stroke-linecap:round;stroke-linejoin:round;stroke-miterlimit:4;stroke-dasharray:none;stroke-opacity:1">
      <path
         inkscape:connector-curvature="0"
         d="M -6,-12 -6,9 M -6,9 6,9"
         style="fill:none;stroke:#4a5cca;stroke-width:3.02886677;stroke-linecap:round;stroke-linejoin:round;stroke-miterlimit:4;stroke-dasharray:none;stroke-opacity:1"
         transform="translate(10,0)"
         id="path269351" />
      <path
         inkscape:connector-curvature="0"
         d="M -6,1 6,1 6,-1 5,-3 4,-4 2,-5 l -3,0 -2,1 -2,2 -1,3 0,2 1,3 2,2 2,1 3,0 2,-1 2,-2"
         style="fill:none;stroke:#4a5cca;stroke-width:3.02886677;stroke-linecap:round;stroke-linejoin:round;stroke-miterlimit:4;stroke-dasharray:none;stroke-opacity:1"
         transform="translate(26,0)"
         id="path269353" />
      <path
         inkscape:connector-curvature="0"
         d="M 0,-12 0,5 1,8 3,9 5,9 m -8,-14 7,0"
         style="fill:none;stroke:#4a5cca;stroke-width:3.02886677;stroke-linecap:round;stroke-linejoin:round;stroke-miterlimit:4;stroke-dasharray:none;stroke-opacity:1"
         transform="translate(40,0)"
         id="path269355" />
      <path
         inkscape:connector-curvature="0"
         d="M 0,-12 0,5 1,8 3,9 5,9 m -8,-14 7,0"
         style="fill:none;stroke:#4a5cca;stroke-width:3.02886677;stroke-linecap:round;stroke-linejoin:round;stroke-miterlimit:4;stroke-dasharray:none;stroke-opacity:1"
         transform="translate(52,0)"
         id="path269357" />
      <path
         inkscape:connector-curvature="0"
         d="M -6,1 6,1 6,-1 5,-3 4,-4 2,-5 l -3,0 -2,1 -2,2 -1,3 0,2 1,3 2,2 2,1 3,0 2,-1 2,-2"
         style="fill:none;stroke:#4a5cca;stroke-width:3.02886677;stroke-linecap:round;stroke-linejoin:round;stroke-miterlimit:4;stroke-dasharray:none;stroke-opacity:1"
         transform="translate(68,0)"
         id="path269359" />
      <path
         inkscape:connector-curvature="0"
         d="m -3,-5 0,14 m 0,-8 1,-3 2,-2 2,-1 3,0"
         style="fill:none;stroke:#4a5cca;stroke-width:3.02886677;stroke-linecap:round;stroke-linejoin:round;stroke-miterlimit:4;stroke-dasharray:none;stroke-opacity:1"
         transform="translate(84,0)"
         id="path269361" />
      <path
         inkscape:connector-curvature="0"
         d=""
         style="fill:none;stroke:#4a5cca;stroke-width:3.02886677;stroke-linecap:round;stroke-linejoin:round;stroke-miterlimit:4;stroke-dasharray:none;stroke-opacity:1"
         transform="translate(98,0)"
         id="path269363" />
      <path
         inkscape:connector-curvature="0"
         d="m 4,-16 -2,2 -2,3 -2,4 -1,5 0,4 1,5 2,4 2,3 2,2"
         style="fill:none;stroke:#4a5cca;stroke-width:3.02886677;stroke-linecap:round;stroke-linejoin:round;stroke-miterlimit:4;stroke-dasharray:none;stroke-opacity:1"
         transform="translate(113,0)"
         id="path269365" />
      <path
         inkscape:connector-curvature="0"
         d="m -2,-12 -3,1 -1,2 0,2 1,2 2,1 4,1 3,1 L 6,0 7,2 7,5 6,7 5,8 2,9 -2,9 -5,8 -6,7 -7,5 l 0,-3 1,-2 2,-2 3,-1 4,-1 2,-1 1,-2 0,-2 -1,-2 -3,-1 -4,0"
         style="fill:none;stroke:#4a5cca;stroke-width:3.02886677;stroke-linecap:round;stroke-linejoin:round;stroke-miterlimit:4;stroke-dasharray:none;stroke-opacity:1"
         transform="translate(130,0)"
         id="path269367" />
      <path
         inkscape:connector-curvature="0"
         d="M 0,4 -1,5 0,6 1,5 0,4"
         style="fill:none;stroke:#4a5cca;stroke-width:3.02886677;stroke-linecap:round;stroke-linejoin:round;stroke-miterlimit:4;stroke-dasharray:none;stroke-opacity:1"
         transform="translate(144,0)"
         id="path269369" />
      <path
         inkscape:connector-curvature="0"
         d="m 5,-12 -10,0 -1,9 1,-1 3,-1 3,0 3,1 2,2 L 7,1 7,3 6,6 4,8 1,9 -2,9 -5,8 -6,7 -7,5"
         style="fill:none;stroke:#4a5cca;stroke-width:3.02886677;stroke-linecap:round;stroke-linejoin:round;stroke-miterlimit:4;stroke-dasharray:none;stroke-opacity:1"
         transform="translate(158,0)"
         id="path269371" />
      <path
         inkscape:connector-curvature="0"
         d=""
         style="fill:none;stroke:#4a5cca;stroke-width:3.02886677;stroke-linecap:round;stroke-linejoin:round;stroke-miterlimit:4;stroke-dasharray:none;stroke-opacity:1"
         transform="translate(176,0)"
         id="path269373" />
      <path
         inkscape:connector-curvature="0"
         d="M -5,-5 6,9 M 6,-5 -5,9"
         style="fill:none;stroke:#4a5cca;stroke-width:3.02886677;stroke-linecap:round;stroke-linejoin:round;stroke-miterlimit:4;stroke-dasharray:none;stroke-opacity:1"
         transform="translate(192,0)"
         id="path269375" />
      <path
         inkscape:connector-curvature="0"
         d=""
         style="fill:none;stroke:#4a5cca;stroke-width:3.02886677;stroke-linecap:round;stroke-linejoin:round;stroke-miterlimit:4;stroke-dasharray:none;stroke-opacity:1"
         transform="translate(209,0)"
         id="path269377" />
      <path
         inkscape:connector-curvature="0"
         d="m -4,-8 2,-1 3,-3 0,21"
         style="fill:none;stroke:#4a5cca;stroke-width:3.02886677;stroke-linecap:round;stroke-linejoin:round;stroke-miterlimit:4;stroke-dasharray:none;stroke-opacity:1"
         transform="translate(227,0)"
         id="path269379" />
      <path
         inkscape:connector-curvature="0"
         d="m -4,-8 2,-1 3,-3 0,21"
         style="fill:none;stroke:#4a5cca;stroke-width:3.02886677;stroke-linecap:round;stroke-linejoin:round;stroke-miterlimit:4;stroke-dasharray:none;stroke-opacity:1"
         transform="translate(247,0)"
         id="path269381" />
      <path
         inkscape:connector-curvature="0"
         d="m -4,-12 0,7 m 8,-7 0,7"
         style="fill:none;stroke:#4a5cca;stroke-width:3.02886677;stroke-linecap:round;stroke-linejoin:round;stroke-miterlimit:4;stroke-dasharray:none;stroke-opacity:1"
         transform="translate(265,0)"
         id="path269383" />
      <path
         inkscape:connector-curvature="0"
         d="m -4,-16 2,2 2,3 2,4 1,5 0,4 -1,5 -2,4 -2,3 -2,2"
         style="fill:none;stroke:#4a5cca;stroke-width:3.02886677;stroke-linecap:round;stroke-linejoin:round;stroke-miterlimit:4;stroke-dasharray:none;stroke-opacity:1"
         transform="translate(280,0)"
         id="path269385" />
    </g>
    <rect
       y="0.0075003435"
       x="0.0074999998"
       height="8.4849997"
       width="10.985001"
       id="rect269251"
       style="opacity:1;fill:none;fill-opacity:1;stroke:#4a5cca;stroke-width:0.05;stroke-linecap:round;stroke-linejoin:round;stroke-miterlimit:4;stroke-dasharray:none;stroke-opacity:1" />
    <rect
       style="opacity:1;fill:none;fill-opacity:1;stroke:#4a5cca;stroke-width:0.04999999;stroke-linecap:round;stroke-linejoin:round;stroke-miterlimit:4;stroke-dasharray:none;stroke-opacity:1"
       id="rect269624"
       width="5.1156197"
       height="0.91117907"
       x="1.1506705"
       y="2.1279225" />
    <path
       style="fill:none;fill-rule:evenodd;stroke:#4a5cca;stroke-width:0.05;stroke-linecap:round;stroke-linejoin:round;stroke-miterlimit:4;stroke-dasharray:none;stroke-opacity:1"
       d="m 1.1421166,2.5805892 -0.7549017,0"
       id="path269616"
       inkscape:connector-curvature="0" />
    <path
       inkscape:connector-curvature="0"
       id="path269622"
       d="m 10.628909,2.5805892 -4.336116,0"
       style="fill:none;fill-rule:evenodd;stroke:#4a5cca;stroke-width:0.05;stroke-linecap:round;stroke-linejoin:round;stroke-miterlimit:4;stroke-dasharray:none;stroke-opacity:1" />
    <path
       inkscape:connector-curvature="0"
       id="path269693"
       d="m 3.7084804,2.0776798 0,-1.70186049"
       style="fill:none;fill-rule:evenodd;stroke:#4a5cca;stroke-width:0.05;stroke-linecap:round;stroke-linejoin:round;stroke-miterlimit:4;stroke-dasharray:none;stroke-opacity:1" />
    <path
       style="fill:none;fill-rule:evenodd;stroke:#4a5cca;stroke-width:0.05;stroke-linecap:round;stroke-linejoin:round;stroke-miterlimit:4;stroke-dasharray:none;stroke-opacity:1"
       d="m 3.7084803,8.1235647 0,-5.0586097"
       id="path269695"
       inkscape:connector-curvature="0"
       sodipodi:nodetypes="cc" />
    <g
       id="g269792"
       style="stroke:#4a5cca;stroke-opacity:1"
       transform="translate(0,0.04403654)">
      <path
         inkscape:transform-center-x="0.052453748"
         transform="matrix(0.41385092,0,0,0.40902021,3.1320679,-0.15611139)"
         d="m 1.8370469,1.232748 -0.4442445,0 -0.44424455,0 L 1.1706801,0.84802101 1.3928024,0.46329397 1.6149246,0.84802099 Z"
         inkscape:randomized="0"
         inkscape:rounded="0"
         inkscape:flatsided="false"
         sodipodi:arg2="1.5707963"
         sodipodi:arg1="0.52359878"
         sodipodi:r2="0.25648469"
         sodipodi:r1="0.51296937"
         sodipodi:cy="0.97626334"
         sodipodi:cx="1.3928024"
         sodipodi:sides="3"
         id="path269697"
         style="opacity:1;fill:none;fill-opacity:1;stroke:#4a5cca;stroke-width:0.12152778;stroke-linecap:round;stroke-linejoin:round;stroke-miterlimit:4;stroke-dasharray:none;stroke-opacity:1"
         sodipodi:type="star" />
      <path
         d="M 1.395334,0.521534 1.383159,0.533853 M 1.356489,0.580047 1.402335,0.53366 m 0.007,0.012125 -0.079516,0.080456 M 1.303149,0.672434 1.416336,0.55791 m 0.007,0.012126 -0.146857,0.148592 m -0.02667,0.046193 0.180528,-0.18266 m 0.007,0.012125 -0.238706,0.241525 M 1.196469,0.857208 1.444338,0.606412 m 0.007,0.012125 L 1.1698,0.903401 M 1.14313,0.949595 1.45834,0.630663 m 0.007,0.012125 -0.34888,0.353 M 1.08979,1.041982 1.47234,0.654914 m 0.007,0.012125 -0.41622,0.421137 M 1.03645,1.134369 1.486341,0.679164 m 0.007,0.012126 -0.50829,0.514293 m 0.018985,0 0.496306,-0.502168 m 0.007,0.012126 -0.484322,0.490042 m 0.018984,0 0.472338,-0.477917 m 0.007,0.012125 -0.460354,0.465791 m 0.018984,1e-6 0.448371,-0.453666 m 0.007,0.012125 -0.436387,0.441541 m 0.018985,0 0.424403,-0.429415 m 0.007,0.012125 -0.412419,0.41729 m 0.018985,0 0.400435,-0.405164 m 0.007,0.012125 -0.388451,0.393039 m 0.018985,0 0.376467,-0.380914 m 0.007,0.012126 -0.364484,0.368788 m 0.018985,0 0.3525,-0.356663 m 0.007,0.012125 -0.340516,0.344537 m 0.018984,1e-6 0.328532,-0.332412 m 0.007,0.012125 -0.316548,0.320287 m 0.018984,0 0.304564,-0.308161 m 0.007,0.012125 -0.29258,0.296036 m 0.018984,0 0.280596,-0.28391 m 0.007,0.012125 -0.268613,0.271785 m 0.018985,0 0.256629,-0.25966 m 0.007,0.012126 -0.244645,0.247534 m 0.018984,0 0.232661,-0.235409 m 0.007,0.012125 -0.220677,0.223283 m 0.018984,1e-6 0.208693,-0.211158 m 0.007,0.012125 -0.196709,0.199033 m 0.018984,0 0.184726,-0.186907 m 0.007,0.012125 -0.172742,0.174782 m 0.018985,0 0.160758,-0.162656 m 0.007,0.012125 -0.148774,0.150531 m 0.018985,0 0.13679,-0.138406 m 0.007,0.012126 -0.124806,0.12628 m 0.018984,0 0.112822,-0.114155 m 0.007,0.012125 -0.100838,0.102029 m 0.018984,1e-6 0.088855,-0.089904 m 0.007,0.012125 -0.076871,0.077779 m 0.018985,0 0.064887,-0.065653 m 0.007,0.012125 -0.052903,0.053528 m 0.018985,0 0.040919,-0.041402 m 0.007,0.012125 -0.028935,0.029277 m 0.018984,0 0.016951,-0.017152 m 0.007,0.012126 -0.00497,0.00503"
         style="fill:none;stroke:#4a5cca;stroke-width:0.12152778;stroke-opacity:1"
         transform="matrix(0.41385092,0,0,0.40902021,3.1320679,-0.15611139)"
         id="path269795"
         inkscape:connector-curvature="0" />
    </g>
    <g
       id="g269797"
       style="stroke:#4a5cca;stroke-opacity:1"
       transform="translate(-0.04403654,0)">
      <path
         inkscape:transform-center-x="-0.052453747"
         transform="matrix(0,-0.41385092,-0.40902021,0,11.182146,3.1570017)"
         d="m 1.8370469,1.232748 -0.4442445,0 -0.44424455,0 L 1.1706801,0.84802101 1.3928024,0.46329397 1.6149246,0.84802099 Z"
         inkscape:randomized="0"
         inkscape:rounded="0"
         inkscape:flatsided="false"
         sodipodi:arg2="1.5707963"
         sodipodi:arg1="0.52359878"
         sodipodi:r2="0.25648469"
         sodipodi:r1="0.51296937"
         sodipodi:cy="0.97626334"
         sodipodi:cx="1.3928024"
         sodipodi:sides="3"
         id="path269665"
         style="opacity:1;fill:none;fill-opacity:1;stroke:#4a5cca;stroke-width:0.12152778;stroke-linecap:round;stroke-linejoin:round;stroke-miterlimit:4;stroke-dasharray:none;stroke-opacity:1"
         sodipodi:type="star" />
      <path
         d="m 1.78736,1.200543 -0.00498,0.00504 m -0.018985,0 L 1.78036,1.188418 M 1.773359,1.176292 1.74441,1.205583 m -0.018985,0 0.040933,-0.041416 M 1.759357,1.152041 1.70644,1.205583 m -0.018984,0 0.0649,-0.065667 M 1.745356,1.12779 1.668472,1.205582 m -0.018985,1e-6 0.088868,-0.089918 M 1.731355,1.10354 1.630503,1.205583 m -0.018985,0 0.112836,-0.114169 m -0.007,-0.012125 -0.12482,0.126294 m -0.018985,0 0.136804,-0.138419 m -0.007,-0.012126 -0.148788,0.150545 m -0.018984,0 0.160771,-0.16267 m -0.007,-0.012126 -0.172755,0.174796 m -0.018985,0 L 1.68235,1.018662 M 1.67535,1.006536 1.478627,1.205582 m -0.018984,1e-6 L 1.66835,0.994411 M 1.66135,0.982286 1.440659,1.205583 m -0.018984,0 L 1.65435,0.97016 M 1.64735,0.958035 1.402691,1.205583 m -0.018984,0 0.25664,-0.259673 M 1.633346,0.933784 1.36472,1.205583 m -0.018984,0 0.28061,-0.283924 m -0.007,-0.012126 -0.292594,0.29605 m -0.018984,0 0.304578,-0.308175 m -0.007,-0.012126 -0.316562,0.3203 m -0.018984,1e-6 0.328546,-0.332426 m -0.007,-0.012125 -0.340529,0.344551 m -0.018985,0 0.352513,-0.356677 m -0.007,-0.012125 -0.364497,0.368802 m -0.018985,0 0.376481,-0.380927 M 1.56334,0.81253 1.174875,1.205583 m -0.018984,0 L 1.55634,0.800405 M 1.54934,0.788279 1.136907,1.205583 m -0.018984,0 0.424417,-0.429429 m -0.007,-0.012126 -0.4364,0.441554 m -0.018985,1e-6 0.448384,-0.45368 m -0.007,-0.012125 -0.460368,0.465805 m -0.018985,0 0.472352,-0.477931 M 1.507336,0.715527 1.023,1.205583 m -0.018985,0 0.49632,-0.502182 M 1.493334,0.691276 0.98503,1.205583 M 1.036481,1.134316 1.486334,0.67915 M 1.479333,0.667025 1.063151,1.088123 M 1.089821,1.041929 1.472333,0.654899 M 1.465332,0.642774 1.11649,0.995735 M 1.14316,0.949542 1.458331,0.630649 M 1.451331,0.618523 1.16983,0.903348 M 1.1965,0.857155 1.44433,0.606398 M 1.43733,0.594273 1.19862,0.835802 M 1.24984,0.764768 1.430329,0.582147 M 1.423328,0.570022 1.276509,0.718575 M 1.303179,0.672381 1.416327,0.557896 M 1.409327,0.545771 1.329849,0.626188 M 1.356519,0.579994 1.402327,0.533645 M 1.395326,0.52152 1.383189,0.5338"
         style="fill:none;stroke:#4a5cca;stroke-width:0.12152778;stroke-opacity:1"
         transform="matrix(0,-0.41385092,-0.40902021,0,11.182146,3.1570017)"
         id="path269800"
         inkscape:connector-curvature="0" />
    </g>
    <g
       id="g269802"
       style="stroke:#4a5cca;stroke-opacity:1">
      <path
         sodipodi:type="star"
         style="opacity:1;fill:none;fill-opacity:1;stroke:#4a5cca;stroke-width:0.12152778;stroke-linecap:round;stroke-linejoin:round;stroke-miterlimit:4;stroke-dasharray:none;stroke-opacity:1"
         id="path269699"
         sodipodi:sides="3"
         sodipodi:cx="1.3928024"
         sodipodi:cy="0.97626334"
         sodipodi:r1="0.51296937"
         sodipodi:r2="0.25648469"
         sodipodi:arg1="0.52359878"
         sodipodi:arg2="1.5707963"
         inkscape:flatsided="false"
         inkscape:rounded="0"
         inkscape:randomized="0"
         d="m 1.8370469,1.232748 -0.4442445,0 -0.44424455,0 L 1.1706801,0.84802101 1.3928024,0.46329397 1.6149246,0.84802099 Z"
         transform="matrix(0.41385092,0,0,-0.40902021,3.1320679,8.637701)"
         inkscape:transform-center-x="-0.052453747" />
      <path
         inkscape:connector-curvature="0"
         d="M 1.008881,1.205583 1.00033,1.196931 m 0.007,-0.012125 0.020534,0.020777 m 0.018985,0 -0.032518,-0.032902 m 0.007,-0.012126 0.044502,0.045028 m 0.018985,0 L 1.028333,1.14843 m 0.007,-0.012126 0.06847,0.069279 m 0.018985,0 -0.080454,-0.081404 m 0.007,-0.012126 0.092438,0.093529 m 0.018985,1e-6 -0.104422,-0.105655 m 0.007,-0.012125 0.116405,0.11778 m 0.018984,0 -0.128389,-0.129906 m 0.007,-0.012125 0.140373,0.142031 m 0.018984,0 -0.152357,-0.154156 m 0.007,-0.012126 0.164341,0.166282 m 0.018984,0 -0.176325,-0.178407 m 0.007,-0.012126 0.188309,0.190533 m 0.018984,0 L 1.11234,1.002925 m 0.007,-0.012126 0.212276,0.214783 m 0.018985,1e-6 -0.22426,-0.226909 m 0.007,-0.012125 0.24154,0.244393 M 1.38857,1.205583 1.140342,0.954423 m 0.007,-0.012125 0.260212,0.263285 m 0.018984,0 -0.272196,-0.27541 m 0.007,-0.012126 0.28418,0.287536 m 0.018984,0 -0.296163,-0.299661 m 0.007,-0.012126 0.308147,0.311787 m 0.018985,0 -0.320131,-0.323912 m 0.007,-0.012126 0.332115,0.336037 m 0.018985,1e-6 L 1.196347,0.85742 m 0.007,-0.012125 0.356083,0.360288 m 0.018984,0 -0.368067,-0.372414 m 0.007,-0.012125 0.380051,0.384539 m 0.018984,0 L 1.22435,0.808919 m 0.007,-0.012126 0.404018,0.40879 m 0.018985,0 -0.416002,-0.420915 m 0.007,-0.012126 0.427986,0.433041 m 0.018985,0 -0.43997,-0.445166 m 0.007,-0.012126 0.451954,0.457291 m 0.018984,1e-6 -0.463938,-0.469417 m 0.007,-0.012125 0.475921,0.481542 m 0.018985,0 -0.487905,-0.493668 m 0.007,-0.012125 0.499889,0.505793 m 0.018985,0 -0.511873,-0.517919 m 0.007,-0.012125 0.439824,0.445019 M 1.71451,1.074364 1.308356,0.663414 M 1.315357,0.651288 1.68784,1.02817 M 1.661171,0.981977 1.322358,0.639163 M 1.329358,0.627037 1.6345,0.935783 M 1.607831,0.88959 1.336359,0.614912 m 0.007,-0.012126 0.237801,0.24061 M 1.590177,0.83331 1.35036,0.590661 M 1.35736,0.578536 1.52782,0.75101 M 1.501152,0.704816 1.364362,0.56641 m 0.007,-0.012125 0.10312,0.104337 M 1.447812,0.612429 1.378363,0.54216 m 0.007,-0.012126 0.035779,0.036201"
         style="fill:none;stroke:#4a5cca;stroke-width:0.12152778;stroke-opacity:1"
         transform="matrix(0.41385092,0,0,-0.40902021,3.1320679,8.637701)"
         id="path269805" />
    </g>
    <g
       id="g269807"
       style="stroke:#4a5cca;stroke-opacity:1"
       transform="translate(0.02201827,0)">
      <path
         sodipodi:type="star"
         style="opacity:1;fill:none;fill-opacity:1;stroke:#4a5cca;stroke-width:0.12152778;stroke-linecap:round;stroke-linejoin:round;stroke-miterlimit:4;stroke-dasharray:none;stroke-opacity:1"
         id="path269663"
         sodipodi:sides="3"
         sodipodi:cx="1.3928024"
         sodipodi:cy="0.97626334"
         sodipodi:r1="0.51296937"
         sodipodi:r2="0.25648469"
         sodipodi:arg1="0.52359878"
         sodipodi:arg2="1.5707963"
         inkscape:flatsided="false"
         inkscape:rounded="0"
         inkscape:randomized="0"
         d="m 1.8370469,1.232748 -0.4442445,0 -0.44424455,0 L 1.1706801,0.84802101 1.3928024,0.46329397 1.6149246,0.84802099 Z"
         transform="matrix(0,-0.41385092,0.40902021,0,-0.13006351,3.1570017)"
         inkscape:transform-center-x="0.052453748" />
      <path
         d="M 1.408894,0.545022 1.388578,0.524466 m -0.007,0.012125 0.053986,0.054624 M 1.462234,0.637409 1.374577,0.548717 m -0.007,0.012125 0.121327,0.12276 M 1.515574,0.729796 1.360576,0.572968 M 1.353576,0.585093 1.5951,0.829469 M 1.584382,0.837834 1.346575,0.597218 m -0.007,0.012125 0.256009,0.259033 M 1.622253,0.91457 1.332574,0.621469 m -0.007,0.012125 0.32335,0.327169 M 1.675593,1.006957 1.318573,0.64572 m -0.007,0.012125 0.390691,0.395305 M 1.728932,1.099344 1.304571,0.669971 m -0.007,0.012125 0.458032,0.463441 M 1.795963,1.205583 1.29057,0.694221 m -0.007,0.012126 0.493409,0.499236 m -0.018984,0 L 1.27657,0.718472 m -0.007,0.012125 0.469441,0.474985 m -0.018984,1e-6 -0.457457,-0.46286 m -0.007,0.012125 0.445473,0.450735 m -0.018984,0 L 1.24857,0.766974 m -0.007,0.012125 0.421506,0.426484 m -0.018985,0 -0.409522,-0.414358 m -0.007,0.012125 0.397538,0.402233 m -0.018984,0 -0.385554,-0.390107 m -0.007,0.012125 0.37357,0.377982 m -0.018984,0 -0.361586,-0.365857 m -0.007,0.012126 0.349602,0.353731 m -0.018984,0 -0.337618,-0.341606 m -0.007,0.012125 0.325635,0.32948 m -0.018985,1e-6 L 1.17856,0.888228 m -0.007,0.012125 0.301667,0.30523 m -0.018985,0 -0.289683,-0.293104 m -0.007,0.012125 0.277699,0.280979 m -0.018984,0 L 1.150558,0.93673 m -0.007,0.012125 0.253731,0.256728 m -0.018984,0 L 1.136556,0.96098 m -0.007,0.012126 0.229764,0.232477 m -0.018985,0 -0.21778,-0.220352 m -0.007,0.012125 0.205796,0.208226 m -0.018985,1e-6 -0.193812,-0.196101 m -0.007,0.012125 0.181828,0.183976 m -0.018985,0 -0.169844,-0.17185 m -0.007,0.012125 0.15786,0.159725 m -0.018984,0 -0.145877,-0.147599 m -0.007,0.012125 0.133893,0.135474 m -0.018985,0 -0.12191,-0.123349 m -0.007,0.012126 0.109925,0.111223 m -0.018985,0 -0.097941,-0.099098 m -0.007,0.012125 0.085957,0.086972 m -0.018985,1e-6 -0.073973,-0.074847 m -0.007,0.012125 0.061989,0.062722 m -0.018984,0 -0.050006,-0.050596 m -0.007,0.012125 0.038022,0.038471 m -0.018984,0 -0.026038,-0.026345 m -0.007,0.012125 0.014054,0.01422"
         style="fill:none;stroke:#4a5cca;stroke-width:0.12152778;stroke-opacity:1"
         transform="matrix(0,-0.41385092,0.40902021,0,-0.13006351,3.1570017)"
         id="path269810"
         inkscape:connector-curvature="0" />
    </g>
  </g>
  <g
     inkscape:groupmode="layer"
     id="layer5"
     inkscape:label="2- A4"
     style="display:inline">
    <g
       id="g269454"
       transform="matrix(0.01620493,0,0,0.01684475,4.6805229,5.2938883)"
       inkscape:label="Hershey Text"
       style="stroke:#ca4a4a;stroke-width:3.02631474;stroke-linecap:round;stroke-linejoin:round;stroke-miterlimit:4;stroke-dasharray:none;stroke-opacity:1">
      <path
         inkscape:connector-curvature="0"
         id="path269456"
         transform="translate(9,0)"
         style="fill:none;stroke:#ca4a4a;stroke-width:3.02631474;stroke-linecap:round;stroke-linejoin:round;stroke-miterlimit:4;stroke-dasharray:none;stroke-opacity:1"
         d="M 0,-12 -8,9 M 0,-12 8,9 M -5,2 5,2" />
      <path
         inkscape:connector-curvature="0"
         id="path269458"
         transform="translate(28,0)"
         style="fill:none;stroke:#ca4a4a;stroke-width:3.02631474;stroke-linecap:round;stroke-linejoin:round;stroke-miterlimit:4;stroke-dasharray:none;stroke-opacity:1"
         d="M 3,-12 -7,2 8,2 M 3,-12 3,9" />
      <path
         inkscape:connector-curvature="0"
         id="path269460"
         transform="translate(46,0)"
         style="fill:none;stroke:#ca4a4a;stroke-width:3.02631474;stroke-linecap:round;stroke-linejoin:round;stroke-miterlimit:4;stroke-dasharray:none;stroke-opacity:1"
         d="" />
      <path
         inkscape:connector-curvature="0"
         id="path269462"
         transform="translate(61,0)"
         style="fill:none;stroke:#ca4a4a;stroke-width:3.02631474;stroke-linecap:round;stroke-linejoin:round;stroke-miterlimit:4;stroke-dasharray:none;stroke-opacity:1"
         d="m 4,-16 -2,2 -2,3 -2,4 -1,5 0,4 1,5 2,4 2,3 2,2" />
      <path
         inkscape:connector-curvature="0"
         id="path269464"
         transform="translate(78,0)"
         style="fill:none;stroke:#ca4a4a;stroke-width:3.02631474;stroke-linecap:round;stroke-linejoin:round;stroke-miterlimit:4;stroke-dasharray:none;stroke-opacity:1"
         d="m -6,-7 0,-1 1,-2 1,-1 2,-1 4,0 2,1 1,1 1,2 0,2 L 5,-4 3,-1 -7,9 7,9" />
      <path
         inkscape:connector-curvature="0"
         id="path269466"
         transform="translate(98,0)"
         style="fill:none;stroke:#ca4a4a;stroke-width:3.02631474;stroke-linecap:round;stroke-linejoin:round;stroke-miterlimit:4;stroke-dasharray:none;stroke-opacity:1"
         d="m -4,-8 2,-1 3,-3 0,21" />
      <path
         inkscape:connector-curvature="0"
         id="path269468"
         transform="translate(118,0)"
         style="fill:none;stroke:#ca4a4a;stroke-width:3.02631474;stroke-linecap:round;stroke-linejoin:round;stroke-miterlimit:4;stroke-dasharray:none;stroke-opacity:1"
         d="m -1,-12 -3,1 -2,3 -1,5 0,3 1,5 2,3 3,1 2,0 3,-1 2,-3 1,-5 0,-3 -1,-5 -2,-3 -3,-1 -2,0" />
      <path
         inkscape:connector-curvature="0"
         id="path269470"
         transform="translate(136,0)"
         style="fill:none;stroke:#ca4a4a;stroke-width:3.02631474;stroke-linecap:round;stroke-linejoin:round;stroke-miterlimit:4;stroke-dasharray:none;stroke-opacity:1"
         d="" />
      <path
         inkscape:connector-curvature="0"
         id="path269472"
         transform="translate(152,0)"
         style="fill:none;stroke:#ca4a4a;stroke-width:3.02631474;stroke-linecap:round;stroke-linejoin:round;stroke-miterlimit:4;stroke-dasharray:none;stroke-opacity:1"
         d="M -5,-5 6,9 M 6,-5 -5,9" />
      <path
         inkscape:connector-curvature="0"
         id="path269474"
         transform="translate(169,0)"
         style="fill:none;stroke:#ca4a4a;stroke-width:3.02631474;stroke-linecap:round;stroke-linejoin:round;stroke-miterlimit:4;stroke-dasharray:none;stroke-opacity:1"
         d="" />
      <path
         inkscape:connector-curvature="0"
         id="path269476"
         transform="translate(187,0)"
         style="fill:none;stroke:#ca4a4a;stroke-width:3.02631474;stroke-linecap:round;stroke-linejoin:round;stroke-miterlimit:4;stroke-dasharray:none;stroke-opacity:1"
         d="m -6,-7 0,-1 1,-2 1,-1 2,-1 4,0 2,1 1,1 1,2 0,2 L 5,-4 3,-1 -7,9 7,9" />
      <path
         inkscape:connector-curvature="0"
         id="path269478"
         transform="translate(207,0)"
         style="fill:none;stroke:#ca4a4a;stroke-width:3.02631474;stroke-linecap:round;stroke-linejoin:round;stroke-miterlimit:4;stroke-dasharray:none;stroke-opacity:1"
         d="M 6,-5 5,-2 3,0 0,1 -1,1 -4,0 l -2,-2 -1,-3 0,-1 1,-3 2,-2 3,-1 1,0 3,1 2,2 1,4 L 6,0 5,5 3,8 0,9 -2,9 -5,8 -6,6" />
      <path
         inkscape:connector-curvature="0"
         id="path269480"
         transform="translate(227,0)"
         style="fill:none;stroke:#ca4a4a;stroke-width:3.02631474;stroke-linecap:round;stroke-linejoin:round;stroke-miterlimit:4;stroke-dasharray:none;stroke-opacity:1"
         d="M 7,-12 -3,9 m -4,-21 14,0" />
      <path
         inkscape:connector-curvature="0"
         id="path269482"
         transform="translate(245,0)"
         style="fill:none;stroke:#ca4a4a;stroke-width:3.02631474;stroke-linecap:round;stroke-linejoin:round;stroke-miterlimit:4;stroke-dasharray:none;stroke-opacity:1"
         d="" />
      <path
         inkscape:connector-curvature="0"
         id="path269484"
         transform="translate(268,0)"
         style="fill:none;stroke:#ca4a4a;stroke-width:3.02631474;stroke-linecap:round;stroke-linejoin:round;stroke-miterlimit:4;stroke-dasharray:none;stroke-opacity:1"
         d="m -11,-5 0,14 m 0,-10 3,-3 2,-1 3,0 2,1 1,3 0,10 m 0,-10 3,-3 2,-1 3,0 2,1 1,3 0,10" />
      <path
         inkscape:connector-curvature="0"
         id="path269486"
         transform="translate(298,0)"
         style="fill:none;stroke:#ca4a4a;stroke-width:3.02631474;stroke-linecap:round;stroke-linejoin:round;stroke-miterlimit:4;stroke-dasharray:none;stroke-opacity:1"
         d="m -11,-5 0,14 m 0,-10 3,-3 2,-1 3,0 2,1 1,3 0,10 m 0,-10 3,-3 2,-1 3,0 2,1 1,3 0,10" />
      <path
         inkscape:connector-curvature="0"
         id="path269488"
         transform="translate(320,0)"
         style="fill:none;stroke:#ca4a4a;stroke-width:3.02631474;stroke-linecap:round;stroke-linejoin:round;stroke-miterlimit:4;stroke-dasharray:none;stroke-opacity:1"
         d="m -4,-16 2,2 2,3 2,4 1,5 0,4 -1,5 -2,4 -2,3 -2,2" />
    </g>
    <path
       style="opacity:1;fill:none;fill-opacity:1;stroke:#ca4a4a;stroke-width:0.05;stroke-linecap:round;stroke-linejoin:round;stroke-miterlimit:4;stroke-dasharray:none;stroke-opacity:1"
       d="m 3.5394761,8.2252166 -3.5319761,0 0,-8.21771627 11.642913,0 0,8.21771627 -7.7735152,0"
       id="rect269251-3"
       inkscape:connector-curvature="0"
       sodipodi:nodetypes="cccccc" />
    <rect
       style="opacity:1;fill:none;fill-opacity:1;stroke:#ca4a4a;stroke-width:0.04999999;stroke-linecap:round;stroke-linejoin:round;stroke-miterlimit:4;stroke-dasharray:none;stroke-opacity:1"
       id="rect269624-3"
       width="5.5842261"
       height="0.91117913"
       x="4.5135465"
       y="4.8382988" />
    <path
       style="fill:none;fill-rule:evenodd;stroke:#ca4a4a;stroke-width:0.05;stroke-linecap:round;stroke-linejoin:round;stroke-miterlimit:4;stroke-dasharray:none;stroke-opacity:1"
       d="m 4.4887174,5.2938888 -4.08987925,0"
       id="path269616-0"
       inkscape:connector-curvature="0" />
    <path
       inkscape:connector-curvature="0"
       id="path269661"
       d="m 11.315234,5.2938885 -1.196713,0"
       style="fill:none;fill-rule:evenodd;stroke:#ca4a4a;stroke-width:0.05;stroke-linecap:round;stroke-linejoin:round;stroke-miterlimit:4;stroke-dasharray:none;stroke-opacity:1" />
    <path
       inkscape:connector-curvature="0"
       id="path269693-1"
       d="m 7.3056592,4.7996297 0,-4.4382564"
       style="fill:none;fill-rule:evenodd;stroke:#ca4a4a;stroke-width:0.04999999;stroke-linecap:round;stroke-linejoin:round;stroke-miterlimit:4;stroke-dasharray:none;stroke-opacity:1" />
    <path
       style="fill:none;fill-rule:evenodd;stroke:#ca4a4a;stroke-width:0.05;stroke-linecap:round;stroke-linejoin:round;stroke-miterlimit:4;stroke-dasharray:none;stroke-opacity:1"
       d="m 7.3056595,7.8642566 0,-2.1034846"
       id="path269695-3"
       inkscape:connector-curvature="0" />
    <g
       id="g269977"
       style="stroke:#ca4a4a;stroke-opacity:1"
       transform="translate(0,0.04403654)">
      <path
         inkscape:transform-center-x="0.052453748"
         transform="matrix(0.41385092,0,0,0.40902021,6.729247,-0.15611142)"
         d="m 1.8370469,1.232748 -0.4442445,0 -0.44424455,0 L 1.1706801,0.84802101 1.3928024,0.46329397 1.6149246,0.84802099 Z"
         inkscape:randomized="0"
         inkscape:rounded="0"
         inkscape:flatsided="false"
         sodipodi:arg2="1.5707963"
         sodipodi:arg1="0.52359878"
         sodipodi:r2="0.25648469"
         sodipodi:r1="0.51296937"
         sodipodi:cy="0.97626334"
         sodipodi:cx="1.3928024"
         sodipodi:sides="3"
         id="path269697-7"
         style="opacity:1;fill:none;fill-opacity:1;stroke:#ca4a4a;stroke-width:0.12152778;stroke-linecap:round;stroke-linejoin:round;stroke-miterlimit:4;stroke-dasharray:none;stroke-opacity:1"
         sodipodi:type="star" />
      <path
         id="path269980"
         transform="matrix(0.41385092,0,0,0.40902021,6.729247,-0.15611142)"
         style="fill:none;stroke:#ca4a4a;stroke-width:0.12152778;stroke-opacity:1"
         d="M 1.400072,0.529742 1.365106,0.565121 M 1.338436,0.611314 1.407073,0.541867 m 0.007,0.012125 -0.102307,0.103516 M 1.285097,0.703701 1.421075,0.566117 m 0.007,0.012126 -0.169648,0.171652 M 1.195169,0.833108 1.435076,0.590368 m 0.007,0.012126 -0.236989,0.239788 M 1.178417,0.888475 1.449076,0.614619 m 0.007,0.012126 -0.30433,0.307924 m -0.026669,0.046193 0.338,-0.341992 m 0.007,0.012126 -0.371671,0.37606 M 1.071738,1.073249 1.477079,0.66312 m 0.007,0.012126 -0.439012,0.444197 M 0.978918,1.205583 1.49108,0.687372 m 0.007,0.012125 -0.500178,0.506086 m 0.018984,0 0.488194,-0.49396 m 0.007,0.012125 -0.476211,0.481835 m 0.018985,0 0.464227,-0.469709 m 0.007,0.012125 -0.452243,0.457584 m 0.018985,0 0.440259,-0.445459 m 0.007,0.012126 -0.428275,0.433333 m 0.018984,0 0.416291,-0.421208 m 0.007,0.012125 -0.404307,0.409082 m 0.018984,1e-6 0.392323,-0.396957 m 0.007,0.012125 -0.38034,0.384832 m 0.018985,0 0.368356,-0.372706 m 0.007,0.012125 -0.356372,0.360581 m 0.018985,0 0.344388,-0.348455 m 0.007,0.012125 -0.332404,0.33633 m 0.018985,0 0.32042,-0.324205 m 0.007,0.012126 -0.308436,0.312079 m 0.018984,0 0.296453,-0.299954 m 0.007,0.012125 -0.284469,0.287828 m 0.018985,1e-6 0.272485,-0.275703 m 0.007,0.012125 -0.260501,0.263578 m 0.018985,0 0.248517,-0.251452 m 0.007,0.012125 -0.241505,0.244357 M 1.434545,1.205583 1.659094,0.978382 m 0.007,0.012125 -0.212565,0.215076 m 0.018984,0 0.200582,-0.202951 m 0.007,0.012126 -0.188598,0.190825 m 0.018984,0 0.176614,-0.1787 m 0.007,0.012125 -0.16463,0.166574 m 0.018984,1e-6 0.152646,-0.154449 m 0.007,0.012125 -0.140662,0.142324 m 0.018984,0 0.128678,-0.130198 M 1.7221,1.08751 1.605405,1.205583 m 0.018985,0 0.104711,-0.105947 m 0.007,0.012125 -0.092727,0.093822 m 0.018985,0 0.080743,-0.081697 m 0.007,0.012126 -0.068759,0.069571 m 0.018984,0 0.056775,-0.057446 m 0.007,0.012125 -0.044791,0.04532 m 0.018984,1e-6 0.032807,-0.033195 m 0.007,0.012125 -0.020824,0.02107 m 0.018985,0 0.00884,-0.00894"
         inkscape:connector-curvature="0" />
    </g>
    <g
       id="g269982"
       style="stroke:#ca4a4a;stroke-opacity:1"
       transform="translate(-0.02201827,0)">
      <path
         inkscape:transform-center-x="-0.052453747"
         transform="matrix(0,-0.41385092,-0.40902021,0,11.840056,5.8703013)"
         d="m 1.8370469,1.232748 -0.4442445,0 -0.44424455,0 L 1.1706801,0.84802101 1.3928024,0.46329397 1.6149246,0.84802099 Z"
         inkscape:randomized="0"
         inkscape:rounded="0"
         inkscape:flatsided="false"
         sodipodi:arg2="1.5707963"
         sodipodi:arg1="0.52359878"
         sodipodi:r2="0.25648469"
         sodipodi:r1="0.51296937"
         sodipodi:cy="0.97626334"
         sodipodi:cx="1.3928024"
         sodipodi:sides="3"
         id="path269665-3"
         style="opacity:1;fill:none;fill-opacity:1;stroke:#ca4a4a;stroke-width:0.12152778;stroke-linecap:round;stroke-linejoin:round;stroke-miterlimit:4;stroke-dasharray:none;stroke-opacity:1"
         sodipodi:type="star" />
      <path
         id="path269985"
         transform="matrix(0,-0.41385092,-0.40902021,0,11.840056,5.8703013)"
         style="fill:none;stroke:#ca4a4a;stroke-width:0.12152778;stroke-opacity:1"
         d="M 1.784293,1.195231 1.774062,1.205583 m -0.018985,0 0.022215,-0.022478 M 1.770292,1.17098 1.736093,1.205583 m -0.018985,0 0.046183,-0.046728 M 1.75629,1.146729 1.698123,1.205583 m -0.018984,0 L 1.74929,1.134604 M 1.74229,1.122478 1.660156,1.205583 m -0.018985,0 0.094118,-0.09523 m -0.007,-0.012126 -0.106102,0.107355 m -0.018985,1e-6 0.118086,-0.119481 m -0.007,-0.012125 -0.13007,0.131606 m -0.018985,0 0.142054,-0.143732 m -0.007,-0.012125 -0.154038,0.155857 m -0.018985,0 0.166022,-0.167982 m -0.007,-0.012126 -0.178005,0.180108 m -0.018985,0 L 1.679283,1.01335 M 1.672283,1.001224 1.47031,1.205583 m -0.018985,0 0.213957,-0.216484 M 1.658282,0.976973 1.432341,1.205582 M 1.409943,1.209036 1.651281,0.964848 m -0.007,-0.012125 -0.249909,0.25286 m -0.018984,0 0.261893,-0.264986 m -0.007,-0.012125 -0.273876,0.277111 m -0.018984,0 0.28586,-0.289236 m -0.007,-0.012126 -0.297844,0.301362 m -0.018984,0 0.309828,-0.313487 M 1.602277,0.87997 1.280465,1.205583 m -0.018984,0 0.33441,-0.33836 M 1.588276,0.855719 1.242496,1.205582 m -0.018984,1e-6 0.357763,-0.361989 m -0.007,-0.012125 -0.369747,0.374114 m -0.018985,0 0.381731,-0.38624 m -0.007,-0.012125 -0.393715,0.398365 m -0.018984,0 0.405699,-0.41049 m -0.007,-0.012126 -0.417683,0.422616 m -0.018984,0 0.429667,-0.434741 M 1.532271,0.758716 1.09062,1.205583 m -0.018984,0 L 1.52527,0.746591 M 1.51827,0.734465 1.052652,1.205582 m -0.018985,1e-6 0.477602,-0.483243 m -0.007,-0.012125 -0.489586,0.495368 m -0.018985,0 0.50157,-0.507494 M 1.490267,0.685964 0.976713,1.205583 M 1.048165,1.114079 1.483267,0.673838 M 1.476266,0.661713 1.074835,1.067886 M 1.101505,1.021692 1.469266,0.649588 m -0.007,-0.012126 -0.334091,0.338036 m 0.02667,-0.046193 0.30042,-0.303968 m -0.007,-0.012126 -0.26675,0.2699 M 1.204642,0.840502 1.441263,0.601086 M 1.434263,0.588961 1.193925,0.832138 M 1.261524,0.744531 1.427262,0.576835 M 1.420261,0.56471 1.288193,0.698338 M 1.314863,0.652144 1.41326,0.552584 M 1.40626,0.540459 1.341533,0.60595 M 1.368203,0.559757 1.39926,0.528334"
         inkscape:connector-curvature="0" />
    </g>
    <g
       id="g269987"
       style="stroke:#ca4a4a;stroke-opacity:1"
       transform="translate(0,-0.02201827)">
      <path
         sodipodi:type="star"
         style="opacity:1;fill:none;fill-opacity:1;stroke:#ca4a4a;stroke-width:0.12152778;stroke-linecap:round;stroke-linejoin:round;stroke-miterlimit:4;stroke-dasharray:none;stroke-opacity:1"
         id="path269699-1"
         sodipodi:sides="3"
         sodipodi:cx="1.3928024"
         sodipodi:cy="0.97626334"
         sodipodi:r1="0.51296937"
         sodipodi:r2="0.25648469"
         sodipodi:arg1="0.52359878"
         sodipodi:arg2="1.5707963"
         inkscape:flatsided="false"
         inkscape:rounded="0"
         inkscape:randomized="0"
         d="m 1.8370469,1.232748 -0.4442445,0 -0.44424455,0 L 1.1706801,0.84802101 1.3928024,0.46329397 1.6149246,0.84802099 Z"
         transform="matrix(0.41385092,0,0,-0.40902021,6.729247,8.379623)"
         inkscape:transform-center-x="-0.052453747" />
      <path
         id="path269990"
         transform="matrix(0.41385092,0,0,-0.40902021,6.729247,8.379623)"
         style="fill:none;stroke:#ca4a4a;stroke-width:0.12152778;stroke-opacity:1"
         d="M 0.99986,1.205583 0.997004,1.202693 m 0.007,-0.012126 0.01484,0.015016 m 0.018985,0 -0.026824,-0.027141 m 0.007,-0.012126 0.038808,0.039266 m 0.018984,1e-6 -0.050792,-0.051392 m 0.007,-0.012125 0.062776,0.063517 m 0.018984,0 -0.07476,-0.075643 m 0.007,-0.012125 0.086743,0.087768 m 0.018985,0 L 1.053009,1.10569 m 0.007,-0.012126 0.110711,0.112019 m 0.018985,0 L 1.06701,1.081439 m 0.007,-0.012126 0.134679,0.13627 m 0.018985,0 -0.146663,-0.148395 m 0.007,-0.012126 0.158647,0.16052 m 0.018984,1e-6 -0.170631,-0.172646 m 0.007,-0.012125 0.182614,0.184771 m 0.018985,0 -0.194598,-0.196897 m 0.007,-0.012125 0.206582,0.209022 m 0.018985,0 -0.218566,-0.221147 m 0.007,-0.012126 0.23055,0.233273 m 0.018985,0 -0.242534,-0.245398 m 0.007,-0.012126 0.254518,0.257524 m 0.018985,0 -0.266501,-0.269649 m 0.007,-0.012126 0.278485,0.281774 m 0.018984,1e-6 -0.290469,-0.2939 m 0.007,-0.012125 0.302453,0.306025 m 0.018984,0 -0.314437,-0.318151 m 0.007,-0.012125 0.326421,0.330276 m 0.018984,0 L 1.19302,0.863182 m 0.007,-0.012126 0.350389,0.354527 m 0.018984,0 -0.362372,-0.366652 m 0.007,-0.012126 0.374356,0.378778 m 0.018984,0 -0.38634,-0.390903 m 0.007,-0.012126 0.398324,0.403028 m 0.018984,1e-6 -0.410308,-0.415154 m 0.007,-0.012125 0.422292,0.427279 m 0.018984,0 -0.434276,-0.439405 m 0.007,-0.012125 0.44626,0.45153 m 0.018984,0 -0.458243,-0.463655 m 0.007,-0.012126 0.470227,0.475781 m 0.018985,0 -0.482211,-0.487906 m 0.007,-0.012126 0.494195,0.500032 m 0.018984,0 L 1.291029,0.693426 M 1.29803,0.6813 1.753853,1.142506 M 1.727183,1.096313 1.305031,0.669175 m 0.007,-0.012125 0.388482,0.39307 M 1.673843,1.003926 1.319032,0.644924 m 0.007,-0.012125 0.321141,0.324934 M 1.620503,0.911539 1.333033,0.620673 m 0.007,-0.012125 0.2538,0.256797 M 1.585085,0.837285 1.347034,0.596423 m 0.007,-0.012126 0.241767,0.244623 M 1.513824,0.726765 1.361035,0.572172 m 0.007,-0.012126 0.119118,0.120525 M 1.460484,0.634378 1.375036,0.547921 m 0.007,-0.012125 0.051777,0.052389 M 1.407145,0.541991 1.389038,0.52367"
         inkscape:connector-curvature="0" />
    </g>
    <g
       id="g269992"
       style="stroke:#ca4a4a;stroke-opacity:1"
       transform="translate(0.02201827,0)">
      <path
         sodipodi:type="star"
         style="opacity:1;fill:none;fill-opacity:1;stroke:#ca4a4a;stroke-width:0.12152778;stroke-linecap:round;stroke-linejoin:round;stroke-miterlimit:4;stroke-dasharray:none;stroke-opacity:1"
         id="path269663-7"
         sodipodi:sides="3"
         sodipodi:cx="1.3928024"
         sodipodi:cy="0.97626334"
         sodipodi:r1="0.51296937"
         sodipodi:r2="0.25648469"
         sodipodi:arg1="0.52359878"
         sodipodi:arg2="1.5707963"
         inkscape:flatsided="false"
         inkscape:rounded="0"
         inkscape:randomized="0"
         d="m 1.8370469,1.232748 -0.4442445,0 -0.44424455,0 L 1.1706801,0.84802101 1.3928024,0.46329397 1.6149246,0.84802099 Z"
         transform="matrix(0,-0.41385092,0.40902021,0,-0.13006351,5.8703013)"
         inkscape:transform-center-x="0.052453748" />
      <path
         id="path269995"
         transform="matrix(0,-0.41385092,0.40902021,0,-0.13006351,5.8703013)"
         style="fill:none;stroke:#ca4a4a;stroke-width:0.12152778;stroke-opacity:1"
         d="M 1.413598,0.553169 1.387343,0.526604 m -0.007,0.012126 0.059925,0.060633 M 1.466938,0.645556 1.373343,0.550855 m -0.007,0.012125 0.127266,0.128769 M 1.520277,0.737943 1.359341,0.575106 m -0.007,0.012125 0.240868,0.243713 M 1.582491,0.839309 1.34534,0.599357 m -0.007,0.012125 0.261948,0.265041 M 1.626957,0.922717 1.331339,0.623608 m -0.007,0.012125 0.329288,0.333177 M 1.680296,1.015104 1.317337,0.647858 m -0.007,0.012126 0.396629,0.401314 m 0.02667,0.046193 -0.4303,-0.435382 m -0.007,0.012125 0.46397,0.46945 M 1.792614,1.205583 1.289335,0.69636 m -0.007,0.012125 0.491295,0.497098 m -0.018985,0 -0.479311,-0.484972 m -0.007,0.012125 0.467327,0.472847 m -0.018984,0 -0.455344,-0.460721 m -0.007,0.012125 0.44336,0.448596 m -0.018985,0 -0.431376,-0.436471 m -0.007,0.012126 0.419392,0.424345 m -0.018985,0 -0.407408,-0.41222 m -0.007,0.012125 0.395424,0.400094 m -0.018985,1e-6 -0.38344,-0.387969 m -0.007,0.012125 0.371456,0.375844 m -0.018984,0 -0.359473,-0.363718 m -0.007,0.012125 0.347489,0.351593 m -0.018984,0 -0.335505,-0.339467 m -0.007,0.012125 0.323521,0.327342 m -0.018984,0 -0.311537,-0.315217 m -0.007,0.012126 0.299553,0.303091 m -0.018984,0 -0.287569,-0.290966 m -0.007,0.012126 0.275586,0.27884 m -0.018985,0 -0.263602,-0.266715 m -0.007,0.012125 0.251618,0.254589 M 1.376454,1.207099 1.135321,0.963119 m -0.007,0.012125 0.22765,0.230339 m -0.018984,0 L 1.121321,0.98737 m -0.007,0.012125 0.203682,0.206088 m -0.018984,0 L 1.10732,1.011621 m -0.007,0.012125 0.179715,0.181837 m -0.018985,0 -0.167731,-0.169712 m -0.007,0.012126 0.155747,0.157586 m -0.018985,0 -0.143763,-0.145461 m -0.007,0.012125 0.131779,0.133335 m -0.018984,1e-6 -0.119795,-0.12121 m -0.007,0.012125 0.107811,0.109085 m -0.018984,0 -0.095827,-0.096959 m -0.007,0.012125 0.083844,0.084834 m -0.018985,0 -0.07186,-0.072708 M 1.030313,1.145 1.090189,1.205583 m -0.018985,0 -0.047892,-0.048458 m -0.007,0.012126 0.035908,0.036332 m -0.018985,0 -0.023924,-0.024207 m -0.007,0.012125 0.01194,0.012081"
         inkscape:connector-curvature="0" />
    </g>
  </g>
  <WCB
     layer="0"
     node="0"
     lastpath="0"
     lastpathnc="0"
     lastknownposx="0"
     lastknownposy="0"
     pausedposx="0"
     pausedposy="0" />
</svg>
