<?xml version="1.0" encoding="UTF-8" standalone="no"?>
<!-- Created with Inkscape (http://www.inkscape.org/) -->

<svg
   xmlns:dc="http://purl.org/dc/elements/1.1/"
   xmlns:cc="http://creativecommons.org/ns#"
   xmlns:rdf="http://www.w3.org/1999/02/22-rdf-syntax-ns#"
   xmlns:svg="http://www.w3.org/2000/svg"
   xmlns="http://www.w3.org/2000/svg"
   xmlns:sodipodi="http://sodipodi.sourceforge.net/DTD/sodipodi-0.dtd"
   xmlns:inkscape="http://www.inkscape.org/namespaces/inkscape"
   width="11in"
   height="8.5in"
   viewBox="0 0 11 8.5"
   id="svg6959"
   version="1.1"
   inkscape:version="0.91 r13725"
   sodipodi:docname="signatures.svg">
  <defs
     id="defs6961" />
  <sodipodi:namedview
     inkscape:document-units="in"
     pagecolor="#ffffff"
     bordercolor="#666666"
     borderopacity="1.0"
     inkscape:pageopacity="0.0"
     inkscape:pageshadow="2"
     inkscape:zoom="0.85359477"
     inkscape:cx="495"
     inkscape:cy="382.5"
     inkscape:current-layer="layer1"
     id="namedview6963"
     showgrid="false"
     inkscape:window-width="1436"
     inkscape:window-height="855"
     inkscape:window-x="0"
     inkscape:window-y="1"
     inkscape:window-maximized="1" />
  <metadata
     id="metadata6965">
    <rdf:RDF>
      <cc:Work
         rdf:about="">
        <dc:format>image/svg+xml</dc:format>
        <dc:type
           rdf:resource="http://purl.org/dc/dcmitype/StillImage" />
        <dc:title />
      </cc:Work>
    </rdf:RDF>
  </metadata>
  <g
     inkscape:label="Layer 1"
     inkscape:groupmode="layer"
     id="layer1">
    <g
       transform="matrix(0.00849241,0,0,0.00849241,1.379002,-1.6914937)"
       id="g194721"
       style="fill:none;stroke:#000000;stroke-width:1.64853084;stroke-linecap:round;stroke-linejoin:round;stroke-miterlimit:4;stroke-dasharray:none;stroke-opacity:1">
      <path
         style="fill:none;stroke:#000000;stroke-width:1.64853084;stroke-linecap:round;stroke-linejoin:round;stroke-miterlimit:4;stroke-dasharray:none;stroke-opacity:1"
         inkscape:connector-curvature="0"
         d="m 84.229849,705.84107 c -3.314687,1.74522 -6.557584,3.63155 -9.711364,5.65774 -4.493022,2.88643 -8.804095,6.05754 -12.920842,9.45887 -3.03248,2.5052 -5.959752,5.13417 -8.951387,7.68393 -3.876624,3.30355 -7.859694,6.47342 -12.076698,9.37346 -3.782556,2.60298 -7.753248,4.98688 -11.738794,7.09353 -3.76894,1.99153 -7.551495,3.73552 -12.076698,4.72943 -2.688387,0.59041 -5.640414,0.91593 -7.6839344,-0.59164 -1.1560558,-0.85157 -2.0237165,-2.29107 -2.2799302,-3.71572 -0.5012875,-2.77379 1.3058232,-5.49807 3.2094783,-7.85351 3.0015363,-3.71571 6.2419583,-6.5155 9.7113633,-9.20512 3.984308,-3.08942 8.269389,-6.03278 12.667104,-8.69889 5.60947,-3.40009 11.402127,-6.3484 17.396536,-9.03555 4.713341,-2.11284 9.551694,-4.06352 14.524962,-5.1515 3.260226,-0.71295 6.578626,-1.05457 10.049269,-1.01372 2.266315,0.026 4.59823,0.21661 6.417718,1.51995 0.759977,0.54461 1.432074,1.28355 1.773692,2.1116 0.699327,1.692 0.02104,3.75533 -0.844144,5.57358 -1.485296,3.11912 -3.522628,5.51911 -6.079813,7.5156 -2.521291,1.96801 -5.546345,3.54243 -8.275577,4.72943 -2.494061,1.08303 -4.740572,1.84424 -8.191411,2.95574 -1.740272,0.5607 -3.787506,1.20928 -4.391526,0 -0.141104,-0.28345 -0.204229,-0.66839 -0.169572,-1.01372 0.112635,-1.12511 1.2526,-1.83681 2.365335,-2.36409 1.944501,-0.92213 3.80731,-1.28107 5.741909,-1.09789 1.272404,0.1213 2.576989,0.47654 3.63155,1.26622 0.950589,0.71294 1.699426,1.77864 1.942025,2.87157 0.45054,2.02991 -0.841668,4.15388 -2.111597,6.08105 -1.9445,2.94832 -3.837016,5.43248 -6.165218,7.68394 -2.313349,2.23785 -5.057435,4.24671 -8.107243,5.48941 -1.77493,0.72284 -3.65383,1.187 -5.573576,1.18205 -1.188237,-0.002 -2.392565,-0.18567 -3.377812,-1.01372 -0.392365,-0.32924 -0.750074,-0.76121 -0.759976,-1.18205 -0.01114,-0.49015 0.451777,-0.96544 0.92831,-1.35162 1.470444,-1.187 3.08199,-1.52614 4.729432,-1.77369 2.45569,-0.36761 4.991834,-0.52852 7.5156,-0.50624 3.001537,0.026 5.986983,0.31191 8.951387,0.33791 2.210617,0.0186 4.410093,-0.10645 6.671457,-0.33791 2.684674,-0.27478 5.457227,-0.69933 7.685172,-1.94202 1.021141,-0.56937 1.927172,-1.31202 2.95574,-2.1116 0.339143,-0.26364 0.693138,-0.53471 0.759977,-0.92831 0.05446,-0.32429 -0.08293,-0.73151 -0.337905,-0.92831 -0.283444,-0.21908 -0.711705,-0.17576 -1.097882,-0.0842 -0.781018,0.18443 -1.392466,0.56565 -2.026192,0.92831 -1.323152,0.75874 -2.749036,1.44445 -4.053622,2.27993 -1.018666,0.6523 -1.963067,1.39742 -2.95574,2.1116 -1.289732,0.92831 -2.662394,1.8034 -3.209478,3.46198 -0.344094,1.04466 -0.360185,2.40123 0.337905,2.95574 0.443113,0.35152 1.173384,0.37999 1.857858,0.3379 1.559562,-0.0965 2.875287,-0.55946 4.137789,-1.18205 1.699427,-0.83795 3.297358,-1.96554 4.981932,-2.95574 2.14254,-1.25878 4.424946,-2.29602 6.503123,-3.46197 1.610309,-0.90232 3.096843,-1.88262 4.981932,-2.78617 0.954303,-0.45797 2.011339,-0.89613 2.871574,-0.33667 0.361422,0.23517 0.689425,0.64734 0.675809,1.01248 -0.01485,0.38122 -0.398554,0.71046 -0.759976,1.01371 -0.927073,0.77483 -1.709329,1.36771 -2.533669,2.02743 -0.608971,0.48767 -1.240222,1.01 -1.857858,1.51996 0.732746,-0.39237 1.465493,-0.7934 2.169771,-1.23033 1.141202,-0.70799 2.210616,-1.51252 3.379049,-2.2168 1.658581,-0.99886 3.518915,-1.79721 5.374297,-1.99525 0.72532,-0.0767 1.4494,-0.0619 2.21681,0.33296 0.4691,0.24136 0.95306,0.6263 0.99762,0.94192 0.0681,0.4852 -0.90232,0.80825 -1.71799,1.21918 -1.22042,0.61516 -2.09798,1.42589 -1.99401,2.43836 0.0631,0.61764 0.49014,1.30954 1.05332,1.6066 0.53594,0.28344 1.19566,0.20918 1.82815,0.1114 1.42712,-0.22032 2.71933,-0.55823 4.0103,-0.98773 1.38257,-0.46044 2.76265,-1.02609 4.10066,-1.66229 1.45435,-0.6919 2.85796,-1.46673 4.21081,-2.32696 -1.11521,1.39122 -2.25641,2.76265 -3.43474,4.10065 -2.68468,3.0461 -5.56615,5.91272 -8.45629,8.77192 -2.86167,2.83072 -5.730771,5.65155 -8.613484,8.44514 -2.526242,2.44827 -5.061148,4.87301 -7.601005,7.34727 -1.825677,1.77864 -3.652592,3.58204 -5.657742,5.06734 -0.908506,0.67209 -1.852907,1.27983 -3.124074,1.43578 -0.668383,0.0817 -1.425884,0.0396 -1.773691,-0.3379 -0.407219,-0.44064 -0.252501,-1.33924 0,-2.1116 0.643628,-1.96306 1.92841,-3.10798 3.209478,-4.30612 2.40618,-2.25518 4.795032,-4.70591 7.347267,-6.92519 3.822163,-3.32336 8.014412,-6.12685 12.245032,-8.86723 5.296319,-3.43103 10.656999,-6.76305 15.876579,-10.303 4.05858,-2.75275 8.03298,-5.62928 11.9913,-8.52932 5.5711,-4.08085 11.11373,-8.20874 16.63656,-12.3292 4.21205,-3.14264 8.41172,-6.28156 12.58293,-9.54179 2.16358,-1.692 4.31974,-3.41618 6.08105,-5.48941 0.30201,-0.35647 0.59288,-0.7216 0.75998,-1.18205 0.17081,-0.47034 0.21289,-1.0397 0,-1.43578 -0.29087,-0.54214 -1.06075,-0.75874 -1.77369,-0.84415 -1.10902,-0.13243 -2.07818,0.0569 -3.03991,0.33791 -1.16843,0.34162 -2.32696,0.81939 -3.46198,1.35038 -2.48663,1.16596 -4.86558,2.59432 -7.00936,4.13779 -1.76503,1.27117 -3.37162,2.62031 -4.98193,4.47569 -0.3639,0.41836 -0.72656,0.86271 -0.67581,1.35162 0.0223,0.20794 0.11882,0.42331 0.25374,0.59165 0.40722,0.50871 1.15234,0.57679 1.85786,0.59164 0.98524,0.0198 1.89251,-0.0693 2.70324,-0.33791 1.13501,-0.37503 2.08065,-1.10407 3.37781,-1.77369 0.58917,-0.30448 1.25136,-0.59659 1.26621,-1.18205 0.002,-0.11758 -0.0198,-0.24754 -0.0842,-0.3379 -0.1572,-0.22032 -0.56318,-0.20794 -0.84415,-0.0842 -0.44311,0.19433 -0.57926,0.6622 -0.75997,1.09788 -0.31439,0.75751 -0.76246,1.41475 -0.75998,2.19453 10e-4,0.66096 0.32553,1.40856 0.84414,1.77369 0.58422,0.41093 1.41351,0.33543 2.19577,0.25374 1.4494,-0.15472 2.73666,-0.33667 4.05362,-0.59164 1.56699,-0.30201 3.17606,-0.70304 4.72943,-1.18205"
         id="path194723" />
      <path
         style="fill:none;stroke:#000000;stroke-width:1.64853084;stroke-linecap:round;stroke-linejoin:round;stroke-miterlimit:4;stroke-dasharray:none;stroke-opacity:1"
         inkscape:connector-curvature="0"
         d="m 118.63427,747.11499 c 0.61021,-0.55451 1.21918,-1.10903 1.82939,-1.6623"
         id="path194725" />
      <path
         style="fill:none;stroke:#000000;stroke-width:1.64853084;stroke-linecap:round;stroke-linejoin:round;stroke-miterlimit:4;stroke-dasharray:none;stroke-opacity:1"
         inkscape:connector-curvature="0"
         d="m 152.88397,751.74045 c 0.78102,-1.6821 1.34171,-3.4298 1.98411,-5.19854 0.75873,-2.08932 1.63135,-4.2071 1.36771,-6.4301 -0.16958,-1.42712 -0.80701,-2.89756 -1.9148,-3.76275 -1.20556,-0.93945 -2.96688,-1.16224 -4.51406,-0.82062 -1.65735,0.36637 -3.06961,1.3838 -4.0363,2.80473 -1.04094,1.53233 -1.56203,3.53501 -1.02609,5.19854 0.56937,1.76379 2.32697,3.14635 4.17369,3.76275 1.70809,0.5706 3.49292,0.48396 5.19853,0.13615 2.2428,-0.45796 4.34945,-1.36771 6.4301,-2.32573 2.83196,-1.30334 5.6169,-2.69581 8.20874,-4.37791 3.91375,-2.53985 7.38811,-5.73943 10.87608,-8.89197 3.63279,-3.28498 7.28043,-6.51922 10.94416,-9.71384 3.67735,-3.207 7.37202,-6.3744 11.08155,-9.64453 2.83692,-2.50148 5.68126,-5.06238 8.96129,-6.77171 3.31469,-1.7279 7.07249,-2.58565 10.94416,-3.0102 2.75399,-0.30201 5.56491,-0.38494 8.07135,0.13615 1.59669,0.33295 3.06837,0.90974 4.65145,2.18957 0.4852,0.39237 0.9803,0.85034 0.88871,1.29964 -0.0483,0.23765 -0.26117,0.47529 -0.47901,0.68324 -0.45054,0.43197 -0.92089,0.74759 -1.43703,0.95801 -0.99019,0.40475 -2.14749,0.42455 -3.2825,0.47901 -2.95698,0.1411 -5.7679,0.51614 -8.61844,0.6164 -3.45579,0.12006 -6.96727,-0.16586 -10.46639,-0.34162 -3.0857,-0.15596 -6.15902,-0.22775 -9.23483,-0.13615 -3.27136,0.0965 -6.54644,0.37627 -9.78191,0.8887 -2.30221,0.36514 -4.58585,0.84909 -6.83979,1.43702"
         id="path194727" />
      <path
         style="fill:none;stroke:#000000;stroke-width:1.64853084;stroke-linecap:round;stroke-linejoin:round;stroke-miterlimit:4;stroke-dasharray:none;stroke-opacity:1"
         inkscape:connector-curvature="0"
         d="m 170.25327,733.91194 c 1.7477,-0.74141 3.66126,-1.15111 5.56491,-1.21176 1.57813,-0.0507 3.15007,0.13987 4.66755,0.7179 0.69685,0.26487 1.38009,0.61268 1.79597,1.21175 0.20051,0.29087 0.3379,0.64115 0.35895,0.98772 0.0297,0.51119 -0.19309,1.01248 -0.44807,1.48159 -0.35399,0.64858 -0.76616,1.23155 -1.30211,1.70437"
         id="path194729" />
      <path
         style="fill:none;stroke:#000000;stroke-width:1.64853084;stroke-linecap:round;stroke-linejoin:round;stroke-miterlimit:4;stroke-dasharray:none;stroke-opacity:1"
         inkscape:connector-curvature="0"
         d="m 191.02267,740.66137 c 0.25745,0.39732 0.44559,0.85652 0.49881,1.32934 0.0644,0.58422 -0.0767,1.18948 -0.33295,1.718 -0.45921,0.95059 -1.28478,1.64991 -2.04971,2.38266 -0.85033,0.81196 -1.6264,1.66353 -2.49283,2.43712 0.52605,-0.64981 1.07684,-1.28107 1.62269,-1.91355 0.98772,-1.14492 1.96183,-2.29479 3.15007,-3.26889 1.12511,-0.91965 2.44083,-1.6821 3.73428,-2.11779 0.74265,-0.25126 1.47663,-0.3936 2.42351,-0.4493 0.13863,-0.007 0.28344,-0.0136 0.35895,0.0458 0.14357,0.11015 0.0507,0.45054 -0.0891,0.67209 -0.21785,0.3441 -0.54956,0.40351 -0.80825,0.67334 -0.24384,0.25497 -0.42083,0.69685 -0.31439,0.94316 0.13863,0.31686 0.75131,0.30696 1.25755,0.26859 0.67086,-0.0495 1.15235,-0.14605 1.65982,-0.4035"
         id="path194731" />
      <path
         id="path194733"
         style="fill:none;stroke:#000000;stroke-width:1.64853084;stroke-linecap:round;stroke-linejoin:round;stroke-miterlimit:4;stroke-dasharray:none;stroke-opacity:1"
         d="m 206.72349,749.44071 c -1.44569,0.84662 -3.08818,1.50758 -4.62298,1.97421 -1.60413,0.48891 -3.08942,0.76369 -5.20597,0.71789 -0.70799,-0.0148 -1.48777,-0.0668 -1.65982,-0.58298 -0.0396,-0.11882 -0.047,-0.26364 -0.0446,-0.4035 0.004,-0.22032 0.0297,-0.43074 0.0891,-0.62878 0.22156,-0.74265 0.89489,-1.29221 1.5707,-1.79473 2.14749,-1.59546 4.33088,-2.702 6.59719,-3.72562 1.95936,-0.88375 3.9806,-1.70438 6.14913,-2.24403 0.86271,-0.21414 1.74894,-0.38494 2.60298,-0.0891 0.36761,0.12749 0.73027,0.34038 0.89737,0.67333 0.1411,0.27973 0.14482,0.64487 0.0446,0.94193 -0.21413,0.64239 -0.90727,0.97163 -1.52614,1.34667 -1.10531,0.67086 -1.97297,1.48777 -2.82702,2.28859 -0.71913,0.6721 -1.42836,1.33429 -1.9742,2.33315 -0.24755,0.45302 -0.46168,0.97411 -0.31439,1.34667 0.18318,0.4654 0.92831,0.69685 1.5707,0.7179 0.83919,0.0272 1.50386,-0.30697 2.15368,-0.6721 1.63506,-0.92088 3.17977,-2.04352 4.7579,-3.09684 2.04228,-1.364 4.1415,-2.61041 6.2828,-3.81474 1.31697,-0.74141 2.65002,-1.46673 4.12913,-1.84053 0.97039,-0.24507 2.00267,-0.34038 2.96193,-0.0904 0.50128,0.13121 0.98153,0.35648 1.34667,0.76369 0.28468,0.31811 0.49881,0.7476 0.44806,1.1214 -0.052,0.38989 -0.39113,0.72037 -0.71789,1.03228 -0.91717,0.87633 -1.73904,1.6066 -2.64754,2.3344 -0.32182,0.25745 -0.65353,0.5149 -0.98773,0.76245 0.4097,-0.47035 0.84786,-0.91222 1.30211,-1.34543 1.01248,-0.96792 2.11036,-1.89995 3.36544,-2.46931 1.32562,-0.60154 2.82825,-0.79958 4.3086,-0.94192 0.57431,-0.0557 1.14491,-0.10274 1.70561,0.13367 0.51985,0.22032 1.02981,0.68695 1.07684,1.1672 0.0483,0.48643 -0.37875,0.98772 -0.80825,1.39123 -0.79092,0.74512 -1.58927,1.161 -2.42351,1.70561 -0.67952,0.44311 -1.38256,0.97287 -1.70437,1.70562 -0.0879,0.19927 -1.10801,1.46883 1.11761,1.74884 1.36904,-0.11252 2.75532,-0.31056 4.08961,-0.67075 2.57946,-0.69685 4.96089,-2.00267 7.36954,-3.21319 3.9447,-1.98411 7.96119,-3.71571 11.93807,-5.55624 4.54872,-2.10541 9.04546,-4.35192 13.44936,-6.77667 3.46075,-1.90613 6.86579,-3.92118 10.1124,-6.1516 3.22185,-2.21186 6.28899,-4.63537 9.27939,-7.19379 2.44207,-2.08932 4.83216,-4.26899 7.00812,-6.54149 0.46168,-0.48272 0.91346,-0.96916 1.34543,-1.52614 0.078,-0.099 0.15348,-0.20052 0.18071,-0.31439 0.0532,-0.23394 -0.10273,-0.52109 -0.31438,-0.67334 -0.20918,-0.14976 -0.47282,-0.16833 -0.71913,-0.13367 -0.28592,0.0396 -0.54833,0.151 -0.80702,0.26859 -0.67828,0.3082 -1.33552,0.656 -1.9742,1.03228 -2.73914,1.61278 -5.14408,3.73923 -7.62948,5.74438 -3.39266,2.73542 -6.93633,5.24186 -10.36736,7.89931 -3.81474,2.95326 -7.49209,6.09342 -11.20533,9.18532 -3.22433,2.68591 -6.47713,5.33716 -9.6272,8.10724 -2.09426,1.84177 -4.14274,3.738 -6.16521,5.65774 1.16348,-1.35162 2.44702,-2.53738 3.71076,-3.85682 1.49768,-1.56451 2.96812,-3.3184 4.91757,-4.00411 0.82063,-0.2884 1.72542,-0.38865 2.60546,-0.57308 1.16472,-0.24383 2.28735,-0.6362 3.32706,-1.17833 1.06694,-0.55575 2.046,-1.26869 3.23919,-1.61898 0.62135,-0.18318 1.30087,-0.26735 1.88385,-0.0891 0.47777,0.14605 0.89118,0.4691 1.26621,0.88375 0.21785,0.24012 0.42207,0.51243 0.41217,0.79463 -0.006,0.17948 -0.099,0.3639 -0.2067,0.531 -0.48148,0.74759 -1.25879,1.1511 -1.97297,1.61897 -0.77112,0.505 -1.46797,1.08674 -2.26755,1.5608 -0.47035,0.27973 -0.97782,0.51985 -1.5311,0.53099 -0.23269,0.004 -0.47158,-0.0322 -0.67704,0.0285 -0.29087,0.0866 -0.51243,0.36761 -0.70676,0.64734 -0.69685,1.00629 -1.03228,1.99896 -1.24641,3.21195 -0.24631,1.39742 -0.33171,3.08695 0.40474,3.94842 0.89366,1.04837 3.00154,0.87261 4.80123,0.49386 2.81092,-0.59041 4.87301,-1.67096 7.00193,-2.78246 5.70849,-2.97925 11.89599,-6.17388 17.8248,-9.50713 5.54139,-3.11541 10.85628,-6.35336 15.87658,-10.21884 5.04629,-3.88529 9.79429,-8.40554 14.35663,-12.41337 1.60536,-1.41103 3.1872,-2.7577 4.83216,-4.61061 0.42579,-0.479 0.85405,-0.99143 0.80825,-1.5249 -0.0173,-0.20299 -0.10273,-0.40846 -0.17947,-0.62878 -0.12873,-0.3738 -0.23022,-0.79092 -0.49386,-0.98772 -0.31068,-0.23146 -0.8491,-0.15472 -1.30088,0 -0.74512,0.25374 -1.26126,0.71666 -1.79597,1.1672 -1.73656,1.46425 -3.66992,2.80473 -5.56491,4.17368 -3.12655,2.25889 -6.15036,4.59328 -9.03308,7.08239 -3.96574,3.42361 -7.66784,7.1418 -11.73879,10.55551 -3.29612,2.76389 -6.8336,5.33097 -9.8797,8.10724 -2.15244,1.96059 -4.05981,4.02763 -6.67145,6.08105 -1.48159,1.16348 -3.18844,2.32449 -3.12408,4.05362 0.0248,0.6523 0.30078,1.38504 0.75998,1.7737 0.74512,0.62877 1.97297,0.35523 3.12407,0.0842 3.84197,-0.90232 6.83361,-1.76007 10.04927,-2.78617 2.93099,-0.93573 6.04763,-2.01134 8.78306,-3.63155 1.04589,-0.62011 2.03733,-1.31943 2.99287,-2.06332 -0.66715,0.57803 -1.11645,1.20557 -1.79597,1.94326 -0.68695,0.74636 -1.60907,1.60412 -1.32563,2.32573 0.14234,0.36142 0.58545,0.68819 1.03104,0.85404 0.85776,0.31934 1.7279,0.0408 2.5609,-0.26487 1.86157,-0.68076 3.5511,-1.49396 5.27528,-2.27746 2.17348,-0.98896 4.40143,-1.93088 6.55263,-3.09684 1.59298,-0.86395 3.14388,-1.85167 4.93614,-2.10912 0.77607,-0.1114 1.59793,-0.0866 2.28859,0.4035 0.3441,0.24384 0.65725,0.60402 0.67334,0.94193 0.021,0.43321 -0.44188,0.83053 -0.85281,1.21175 -0.94069,0.87385 -1.60165,1.65735 -2.42351,2.37895 -0.81072,0.71171 -1.7774,1.36153 -2.73666,1.92965 0.83301,-0.83053 1.72542,-1.60041 2.64754,-2.33315 1.37638,-1.09417 2.81959,-2.10789 4.44228,-2.82825 1.06075,-0.47035 2.197,-0.81692 3.32211,-0.89737 0.7674,-0.0557 1.52986,0.0124 2.33315,0.26983 0.39237,0.12501 0.79464,0.29582 0.98773,0.58298 0.31315,0.46663 0.0767,1.24393 -0.26983,1.84053 -0.49015,0.84414 -1.1969,1.32439 -1.88509,1.83929 -0.72532,0.54461 -1.4296,1.12635 -2.19948,1.70561 -0.50005,0.37752 -1.0298,0.75255 -1.21175,1.34667 -0.14234,0.46292 -0.073,1.05704 0.22403,1.39123 0.3082,0.34657 0.86271,0.41217 1.39123,0.4493 1.34543,0.0941 2.51634,0.002 3.72438,-0.0458 2.08189,-0.0829 4.27518,-0.0371 6.41895,0.0904 2.67601,0.15843 5.27652,0.44435 7.86465,1.53728 2.00267,0.84539 3.99792,2.17349 4.66754,4.08333 0.4654,1.33058 0.28716,2.94213 -0.26859,4.3086 -0.84909,2.08189 -2.57575,3.5907 -4.39771,4.89158 -3.15873,2.25393 -6.60338,3.8791 -10.1879,5.11684 -4.91014,1.69448 -10.08021,2.65992 -15.25895,3.32088 -5.25918,0.67086 -10.52703,1.02857 -15.7986,1.39123 -6.91777,0.47529 -13.84296,0.96049 -20.76692,1.43207 -6.41524,0.43692 -12.83172,0.86271 -19.25439,1.09788 -7.42649,0.2723 -14.86163,0.2884 -22.2943,0.25374 -6.42886,-0.0297 -12.85648,-0.0978 -19.28287,-0.25745 -5.58966,-0.13863 -11.17809,-0.34657 -16.75909,-0.68324 -11.0469,-0.66714 -22.05913,-1.83434 -33.0726,-2.95203 -9.86732,-1.00133 -19.73588,-1.96306 -29.6032,-2.96069 -10.50971,-1.06198 -21.01942,-2.16605 -31.53532,-3.08941 -12.452976,-1.09417 -24.912139,-1.93584 -37.455468,-2.18834 -12.266074,-0.24631 -24.611363,0.0718 -36.683111,0.77235 -10.439159,0.6065 -20.674089,1.49768 -31.4065946,4.5054 -2.0645621,0.57803 -4.1464528,1.23527 -5.4052416,2.83197 -0.73027076,0.92707 -1.18452394,2.16977 -1.15853125,3.34687 0.0457966,2.13511 1.66848305,4.05238 3.47559385,5.40648 2.6475411,1.98287 5.6923989,2.75275 8.7521096,3.47559 6.876923,1.62269 13.836775,3.00154 20.851088,3.60432 9.132098,0.78473 18.358265,0.25374 27.544824,-0.38618 14.088037,-0.98029 28.082006,-2.21433 42.089591,-3.60432 13.50877,-1.34048 27.02992,-2.82454 40.4372,-4.96089 15.66369,-2.4953 31.17142,-5.8793 46.74475,-8.96129 14.05462,-2.78245 28.16246,-5.31983 42.33343,-7.30023 14.58561,-2.03733 29.23806,-3.48426 43.94374,-4.90395 9.26577,-0.89489 18.55382,-1.77988 27.85797,-0.39237 1.29468,0.19309 2.58937,0.4295 3.75285,0.96916 1.70314,0.78968 3.12779,2.22547 4.05362,3.96945 1.07189,2.01753 1.47911,4.44723 0.92831,6.50189 -0.74265,2.77379 -3.22804,4.86682 -5.74315,6.75562 -8.75211,6.57368 -17.85945,10.67309 -27.36163,14.27123 -11.34396,4.29498 -23.25108,7.87578 -35.3154,10.48248 -12.53838,2.70819 -25.24633,4.36429 -37.97037,4.89157 -18.23697,0.75627 -36.50488,-0.80577 -54.7208,-4.12788 -5.58224,-1.01867 -11.15953,-2.20196 -16.08948,-4.89158 -4.40266,-2.40123 -8.29043,-6.00555 -10.55426,-10.683 -1.61155,-3.3283 -2.40123,-7.20245 -1.67344,-10.55427 1.23651,-5.68497 6.83979,-9.86979 12.35643,-13.25751 6.02412,-3.69962 11.94302,-6.44866 18.27781,-7.59357 7.84361,-1.41846 16.32217,-0.37504 24.45541,1.67343 4.47569,1.12635 8.84494,2.55842 12.35643,5.40524 3.0857,2.50273 5.50797,6.10086 6.30632,10.03937 0.88623,4.36925 -0.22651,9.15933 -2.70324,12.87133 -1.87147,2.80597 -4.52273,4.99431 -7.46485,6.56501 -3.42361,1.82692 -7.24206,2.81464 -11.06917,3.34687 -3.62165,0.50252 -7.25197,0.59536 -10.94045,0.12873 -2.223,-0.28097 -4.46703,-0.76617 -6.30632,-1.93089 -1.21918,-0.77235 -2.26013,-1.84177 -2.96069,-3.21814 -0.44064,-0.86519 -0.74637,-1.85291 -0.51491,-2.70324 0.20794,-0.76493 0.85034,-1.41846 1.54471,-1.93089 1.68086,-1.23898 3.67116,-1.6462 5.66393,-1.93088 4.84454,-0.6919 9.70023,-0.66096 14.54477,-0.38618 4.61432,0.26116 9.21626,0.74512 13.77241,1.54471 4.87177,0.85528 9.68908,2.07322 14.54477,2.83196 6.97223,1.08922 14.0212,1.23156 21.23726,1.28726 5.97832,0.0458 12.07175,0.0309 17.50546,-2.05961 2.19205,-0.84291 4.27641,-2.02496 6.05011,-3.73305 1.16719,-1.12511 2.20071,-2.47673 2.44578,-3.99049 0.20547,-1.27241 -0.14729,-2.65868 -0.77235,-3.86177 -0.89489,-1.72419 -2.34677,-3.07209 -3.9905,-3.9905 -2.14625,-1.19938 -4.62051,-1.66477 -7.07867,-2.05961 -3.66373,-0.58917 -7.29652,-1.02114 -10.94045,-1.02981 -3.85063,-0.009 -7.71735,0.45549 -11.58407,0.77236 -3.95956,0.32429 -7.91911,0.4951 -11.84153,1.0298 -2.54976,0.34657 -5.08219,0.84786 -7.59358,1.41599"
         inkscape:connector-curvature="0"
         sodipodi:nodetypes="cccccccccccccccccccccccccccccccccccccccccsccccccccccccccccccccccccccccccscccccccccccccccccccccccccccccccccccccccccccccccccccsccccscccccccccscscccccccccccccccccccccccccccccccccccccccccccc" />
      <path
         style="fill:none;stroke:#000000;stroke-width:1.64853084;stroke-linecap:round;stroke-linejoin:round;stroke-miterlimit:4;stroke-dasharray:none;stroke-opacity:1"
         inkscape:connector-curvature="0"
         d="m 313.04968,736.32183 c -0.37999,0.29954 -0.72656,0.64487 -1.02609,1.02609 -0.27354,0.34781 -0.50748,0.72656 -0.69933,1.12512"
         id="path194735" />
    </g>
    <g
       transform="translate(-1.2293711,1.3346584)"
       inkscape:label="Layer 1"
       id="layer1-5"
       style="fill:none;stroke:#000000;stroke-opacity:1;stroke-width:0.014;stroke-miterlimit:4;stroke-dasharray:none;stroke-linejoin:round;stroke-linecap:round">
      <g
         transform="matrix(0.00885324,0,0,0.00885324,2.4071361,-4.6561951)"
         id="g3067"
         style="fill:none;stroke:#000000;stroke-opacity:1;stroke-width:1.58134197;stroke-miterlimit:4;stroke-dasharray:none;stroke-linejoin:round;stroke-linecap:round">
        <path
           id="path3072"
           d="m 361.83311,742.7453 c -6.72426,-6.21157 -14.27185,-11.75893 -22.4824,-15.77329 -9.0023,-4.40202 -18.80268,-6.9604 -28.59548,-9.45058 -26.85664,-6.82908 -53.65394,-13.14294 -80.93866,-16.47792 -22.91174,-2.80083 -46.1657,-3.50041 -69.306,-2.66571 -20.15259,0.72735 -40.2193,2.61899 -60.09786,6.05752 -16.746892,2.89806 -33.359926,6.89473 -49.206457,12.96488 -9.921602,3.79968 -19.543928,8.41385 -28.77732,13.6733 -5.894621,3.35771 -11.630134,6.97808 -15.7404578,12.87775 -1.7577791,2.52428 -3.217544,5.46402 -2.7023329,8.26737 0.3598901,1.96235 1.6870639,3.85651 3.3387702,5.08771 2.5432236,1.89542 5.8554755,2.21743 9.0629175,2.38412 3.972682,0.20709 7.784992,0.17552 11.606141,-0.31696 3.54334,-0.45712 7.095518,-1.31202 10.334529,-3.02181 2.271728,-1.19837 4.389397,-2.81725 5.724148,-4.9286 1.154174,-1.82597 1.722421,-4.02067 2.067158,-6.20148 0.276547,-1.75273 0.409138,-3.49662 0.318219,-5.24682"
           inkscape:connector-curvature="0"
           style="fill:none;stroke:#000000;stroke-width:1.58134197;stroke-linecap:round;stroke-linejoin:round;stroke-opacity:1;stroke-miterlimit:4;stroke-dasharray:none" />
        <path
           id="path3074"
           d="m 45.450537,747.18395 c -0.596029,0.49122 -1.210999,0.78671 -1.976239,1.21226 -0.542992,0.30307 -1.163013,0.6718 -1.572152,0.49374 -0.358627,-0.15658 -0.555619,-0.73367 -0.62886,-1.30191 -0.103548,-0.80565 0.0442,-1.59362 0.539204,-1.97624 0.469751,-0.36368 1.253933,-0.36116 1.930779,-0.22478 0.757663,0.1528 1.381473,0.47481 2.020435,0.80818 0.933189,0.48617 1.896685,0.99633 2.91953,1.25772 0.942028,0.23993 1.933305,0.27023 2.918267,0.22477 1.139021,-0.053 2.269202,-0.20583 3.323617,-0.62886 0.556883,-0.22351 1.092298,-0.52152 1.572152,-0.85363 0.02652,-0.0177 0.05177,-0.0366 0.08082,-0.0543 0.03536,-0.0227 0.0745,-0.0442 0.08713,-0.0808 0.01389,-0.0417 -0.0051,-0.10102 -0.04041,-0.1288 -0.03031,-0.024 -0.07324,-0.0227 -0.114912,-0.0202 -0.448285,0.0278 -0.805649,0.27908 -1.116291,0.57078 -0.520263,0.48995 -0.904145,1.09482 -1.192057,1.73757 -0.607394,1.35622 -0.784182,2.87912 -0.776605,4.37803 0.01136,2.44094 0.512685,4.81369 1.164276,7.15108 0.560671,2.01034 1.231203,3.99668 1.2754,6.09793 0.03788,1.83734 -0.402825,3.7618 -1.386524,5.26703 -0.809437,1.23878 -1.987604,2.19217 -3.437267,2.88291 -0.89278,0.42555 -1.886582,0.75135 -2.716223,0.49879 -0.882678,-0.26897 -1.578466,-1.19206 -2.050743,-2.1063 -0.338423,-0.65412 -0.560671,-1.30192 -0.665481,-1.99645"
           inkscape:connector-curvature="0"
           style="fill:none;stroke:#000000;stroke-width:1.58134197;stroke-linecap:round;stroke-linejoin:round;stroke-opacity:1;stroke-miterlimit:4;stroke-dasharray:none" />
        <path
           id="path3070"
           d="m 46.782762,765.38429 c 0.117438,-1.03169 0.431868,-2.11009 1.026634,-2.94352 0.877626,-1.22868 2.362647,-1.92573 3.832514,-2.53186 2.204801,-0.91046 4.372981,-1.61635 6.638394,-1.84744 1.556999,-0.15911 3.16072,-0.0934 4.722769,-0.34221 1.909312,-0.30433 3.754223,-1.07588 5.269549,-2.39548 1.044313,-0.9092 1.933305,-2.07852 2.053268,-3.42211 0.09218,-1.02032 -0.258868,-2.13914 -0.958444,-2.87407 -0.774079,-0.81449 -1.976239,-1.1567 -3.148092,-1.16302 -1.512801,-0.009 -2.976354,0.54047 -4.038346,1.57468 -0.727357,0.70842 -1.265298,1.64539 -1.437035,2.60131 -0.280335,1.56331 0.421766,3.18093 0.820802,4.79096 0.440708,1.78304 0.51016,3.55849 0.684423,5.339 0.200781,2.04696 0.542992,4.0977 0.616233,6.15981 0.06693,1.87269 -0.08713,3.75548 -0.342211,5.61176"
           inkscape:connector-curvature="0"
           style="fill:none;stroke:#000000;stroke-width:1.58134197;stroke-linecap:round;stroke-linejoin:round;stroke-opacity:1;stroke-miterlimit:4;stroke-dasharray:none" />
        <path
           id="path3066"
           d="m 62.879322,768.84555 c 0.800597,-0.38262 1.640341,-0.73999 2.425785,-1.09356 1.171853,-0.52658 2.221217,-1.04305 3.710026,-1.41936 0.61497,-0.15532 1.305706,-0.28665 1.636553,0.1086 0.07577,0.0909 0.132591,0.20836 0.181839,0.32706 0.352313,0.84984 0.306854,1.75778 0.327058,2.65561 0.03662,1.66433 0.295489,3.29457 0.363678,4.94628"
           inkscape:connector-curvature="0"
           style="fill:none;stroke:#000000;stroke-width:1.58134197;stroke-linecap:round;stroke-linejoin:round;stroke-opacity:1;stroke-miterlimit:4;stroke-dasharray:none" />
        <path
           id="path3082"
           d="m 82.223732,767.80629 c -0.395248,-0.57457 -0.955919,-1.1163 -1.599933,-1.34612 -0.95213,-0.33842 -2.087363,0.006 -3.019289,0.65538 -1.010217,0.7021 -1.781771,1.76157 -1.781771,2.83745 0,1.40168 1.308232,2.8324 2.61899,3.49156 0.74251,0.37378 1.486283,0.50006 2.328552,0.83722 0.520262,0.2071 1.077145,0.49501 1.491334,0.32706 0.292963,-0.1187 0.513948,-0.4647 0.727357,-0.8006 0.645277,-1.01779 1.21605,-1.93835 1.091035,-3.09126 -0.08208,-0.75767 -0.463437,-1.61383 -0.145219,-2.14672 0.208358,-0.34726 0.713467,-0.55562 1.199634,-0.72735 1.078408,-0.38136 2.060845,-0.58088 3.091267,-0.36368 0.668007,0.14017 1.35748,0.45586 1.783035,0.94581 0.673057,0.77282 0.689473,1.97877 0.776605,3.09253 0.10481,1.33854 0.310642,2.54323 0.290437,3.81863 -0.01642,-0.92688 0.09218,-1.87143 0.327058,-2.76421 0.301803,-1.14786 0.814489,-2.21112 1.526692,-3.23649 0.676846,-0.97359 1.534269,-1.9131 2.690968,-2.07347 0.866262,-0.11996 1.900473,0.19573 2.400531,0.83596 0.482379,0.61875 0.465963,1.53805 0.508897,2.40053 0.07198,1.4484 0.311905,2.73642 0.290438,4.11032 0.07829,-0.78166 0.250028,-1.57341 0.545517,-2.29193 0.334635,-0.8107 0.827113,-1.52922 1.346113,-2.29067 0.52279,-0.7665 1.06957,-1.57847 1.92699,-1.85501 0.6718,-0.21594 1.53175,-0.10608 2.07348,0.29043 0.7665,0.56446 0.89025,1.70601 0.87257,2.83745 -0.0189,1.19206 -0.19447,2.37275 0.47354,3.09127 0.3258,0.35105 0.85364,0.59224 1.34485,0.72736"
           inkscape:connector-curvature="0"
           style="fill:none;stroke:#000000;stroke-width:1.58134197;stroke-linecap:round;stroke-linejoin:round;stroke-opacity:1;stroke-miterlimit:4;stroke-dasharray:none" />
        <path
           id="path3084"
           d="m 120.83174,769.31782 c -0.26014,-0.39146 -0.59603,-0.75892 -0.99759,-0.99759 -0.79176,-0.47101 -1.84239,-0.44197 -2.77179,-0.22224 -1.07715,0.25508 -1.99139,0.76524 -2.88291,1.44208 -0.76398,0.57835 -1.51028,1.27919 -1.71863,2.16187 -0.25508,1.08346 0.3018,2.4422 1.21984,3.15945 0.87131,0.68316 2.06842,0.78671 3.15945,0.60992 1.16933,-0.18815 2.21617,-0.69831 3.15946,-1.38652 1.16175,-0.84606 2.16439,-1.96109 2.71622,-3.27058 0.26013,-0.6175 0.41924,-1.27793 0.4988,-1.94088 -0.21846,0.69831 -0.30812,1.41683 -0.28286,2.17828 0.0391,1.14028 0.33968,2.37906 1.12007,3.09379 0.68064,0.62255 1.72495,0.84732 2.73896,0.85364 1.22362,0.009 2.40432,-0.29928 3.32993,-0.94329 1.13902,-0.79303 1.89037,-2.09873 2.66571,-3.32993 0.75261,-1.19459 1.52922,-2.32098 2.07852,-3.57996 0.22604,-0.519 0.41419,-1.05947 0.57962,-1.60499 -0.0366,0.68821 0.024,1.41557 0.27023,2.04948 0.29423,0.75388 0.8549,1.3739 1.33349,2.06842 0.57456,0.83343 1.03042,1.77293 1.10998,2.73643 0.0657,0.80691 -0.1326,1.63024 -0.53037,2.41695 -0.41545,0.8208 -1.04936,1.60372 -1.85627,1.79692 -0.69453,0.16669 -1.51659,-0.10355 -2.15051,-0.55941 -0.44575,-0.32074 -0.79807,-0.73367 -0.82459,-1.32591 -0.0227,-0.50006 0.18816,-1.12892 0.64781,-1.14912 0.12122,-0.005 0.25886,0.0303 0.32453,0.11744 0.0846,0.11112 0.053,0.30433 0,0.44197"
           inkscape:connector-curvature="0"
           style="fill:none;stroke:#000000;stroke-width:1.58134197;stroke-linecap:round;stroke-linejoin:round;stroke-opacity:1;stroke-miterlimit:4;stroke-dasharray:none" />
        <path
           id="path3076"
           d="m 144.38623,775.35135 c 0.47859,0.52531 0.95844,1.04936 1.43703,1.57468"
           inkscape:connector-curvature="0"
           style="fill:none;stroke:#000000;stroke-width:1.58134197;stroke-linecap:round;stroke-linejoin:round;stroke-opacity:1;stroke-miterlimit:4;stroke-dasharray:none" />
        <path
           id="path3060"
           d="m 172.28213,761.92177 c -0.87383,-1.04305 -1.95477,-1.87017 -3.14809,-2.60132 -0.69073,-0.42302 -1.41935,-0.81448 -2.18965,-0.89025 -0.60865,-0.0606 -1.24509,0.077 -1.84743,0.27402 -1.42441,0.46596 -2.66824,1.27161 -3.83252,2.18965 -1.62518,1.28171 -3.09631,2.78441 -4.03834,4.65458 -1.02032,2.02549 -1.41936,4.48158 -0.68442,6.63839 0.6036,1.77041 1.96866,3.33877 3.62794,4.10654 1.07715,0.49879 2.27678,0.6579 3.4903,0.68442 1.93457,0.0417 3.90576,-0.25887 5.54357,-1.16301 1.15165,-0.63518 2.13788,-1.56963 3.01172,-2.60131 0.57077,-0.67432 1.09356,-1.39158 1.50522,-2.12146 0.99885,-1.77167 1.34359,-3.62795 1.36885,-6.1598 0.005,-0.5733 -0.005,-1.18196 -0.4104,-1.36885 -0.19447,-0.0897 -0.47859,-0.0821 -0.68443,0 -0.59224,0.2374 -0.52278,1.10493 -0.47859,1.91689 0.14522,2.67455 0.0114,4.73918 1.02664,6.43382 0.86247,1.44083 2.55585,2.61268 4.24291,3.5585 2.07221,1.16048 4.13684,1.97876 6.36564,2.39548"
           inkscape:connector-curvature="0"
           style="fill:none;stroke:#000000;stroke-width:1.58134197;stroke-linecap:round;stroke-linejoin:round;stroke-opacity:1;stroke-miterlimit:4;stroke-dasharray:none" />
        <path
           id="path3078"
           d="m 242.13744,750.08075 c 0.27276,0.62002 0.78544,1.34611 1.43704,1.43703 0.48995,0.0682 1.0582,-0.22224 1.39157,-0.62886 0.49627,-0.6036 0.47607,-1.46355 0.31443,-2.24521 -0.3119,-1.50269 -1.15291,-2.71117 -2.11009,-3.81609 -2.34623,-2.70865 -5.39204,-4.7897 -8.66009,-6.26714 -3.83378,-1.73379 -7.97189,-2.63667 -12.16682,-3.04202 -3.77695,-0.36494 -7.60189,-0.32453 -11.23741,1.09861 -2.3033,0.90162 -4.53209,2.35886 -5.5764,4.47779 -0.80565,1.63403 -0.90793,3.6633 -0.50764,5.4918 0.5632,2.571 2.1202,4.74297 3.80221,6.75962 2.02044,2.422 4.22019,4.61922 7.26599,5.83022 1.05568,0.4205 2.21238,0.72104 3.20997,0.33842 0.79429,-0.30559 1.48755,-1.04431 1.7742,-1.8588 0.322,-0.91172 0.13385,-1.91941 -0.16921,-2.87281 -0.51016,-1.60877 -1.34738,-3.06601 -2.53439,-4.14063 -1.52795,-1.38273 -3.63805,-2.13282 -5.74561,-2.44978 -1.8828,-0.28412 -3.76433,-0.22224 -5.57767,0.16922 -2.23763,0.48238 -4.37045,1.46734 -6.33785,2.70359 -2.7478,1.72747 -5.17232,3.94743 -7.09805,6.50581 -2.37275,3.1544 -3.98783,6.82528 -5.07003,10.73103 -1.10998,4.00931 -1.65802,8.26485 -0.59098,12.16682 1.03548,3.79084 3.59385,7.24705 6.75962,9.71703 2.53691,1.97876 5.46276,3.32614 8.53382,4.14063 3.23775,0.85869 6.63587,1.12766 9.97085,0.76145 1.84617,-0.2033 3.67214,-0.60108 5.32259,-1.52164 1.30192,-0.72609 2.49397,-1.77798 3.05212,-3.12031 0.33463,-0.80438 0.44197,-1.71232 0.4003,-2.58237"
           inkscape:connector-curvature="0"
           style="fill:none;stroke:#000000;stroke-width:1.58134197;stroke-linecap:round;stroke-linejoin:round;stroke-opacity:1;stroke-miterlimit:4;stroke-dasharray:none" />
        <path
           id="path3064"
           d="m 204.94627,771.12359 c -0.51395,-0.47102 -1.12766,-0.87384 -1.78177,-1.09104 -1.21227,-0.4003 -2.56722,-0.15658 -3.85525,0.32706 -0.95213,0.35737 -1.86764,0.84606 -2.29067,1.7098 -0.2917,0.59476 -0.35105,1.36758 -0.14522,1.96487 0.33464,0.97486 1.3739,1.48376 2.36391,2.18207 0.56067,0.39525 1.10493,0.85237 1.63656,0.8006 0.43818,-0.0429 0.86752,-0.43313 1.27287,-0.8006 1.00517,-0.91298 1.86006,-1.69085 2.76421,-2.50913 0.72357,-0.65538 1.47871,-1.33475 2.67076,-2.29319"
           inkscape:connector-curvature="0"
           style="fill:none;stroke:#000000;stroke-width:1.58134197;stroke-linecap:round;stroke-linejoin:round;stroke-opacity:1;stroke-miterlimit:4;stroke-dasharray:none" />
        <path
           id="path3058"
           d="m 206.98312,763.95862 c 0.1932,0.52152 0.35736,1.05568 0.47354,1.59993 0.27276,1.28171 0.27655,2.61268 0.21846,3.92849 -0.0417,0.9496 -0.11618,1.89289 -0.1086,2.83745 0.0114,1.53805 0.23614,3.08242 0.58088,4.5826"
           inkscape:connector-curvature="0"
           style="fill:none;stroke:#000000;stroke-width:1.58134197;stroke-linecap:round;stroke-linejoin:round;stroke-opacity:1;stroke-miterlimit:4;stroke-dasharray:none" />
        <path
           id="path3062"
           d="m 216.27839,770.52251 c -0.79934,0.21467 -1.66813,0.61497 -2.10883,1.30949 -0.62381,0.98244 -0.3902,2.55207 0.36368,3.49157 0.57708,0.71852 1.45724,1.06957 2.36391,1.27287 1.65044,0.37126 3.38296,0.25887 4.8743,-0.40029 1.45219,-0.64276 2.67455,-1.80324 3.74538,-2.94605 0.79681,-0.84985 1.50901,-1.68959 1.96487,-2.94605 0.16795,-0.4647 0.30181,-0.98749 -0.0366,-1.3095 -0.149,-0.14143 -0.38767,-0.24497 -0.54551,-0.18183 -0.17427,0.0694 -0.24877,0.34094 -0.25508,0.58213 -0.0114,0.47607 0.24371,0.83722 0.54551,1.12766 0.54047,0.52026 1.22868,0.81701 1.89164,1.2009 0.71473,0.41418 1.39789,0.92813 1.74515,1.67317 0.35989,0.77282 0.35736,1.7944 -0.0366,2.50913 -0.37883,0.68695 -1.11882,1.09103 -1.92699,1.45471 -0.66927,0.30054 -1.38526,0.57583 -1.96488,0.36368 -0.51647,-0.18815 -0.92435,-0.76398 -1.16301,-1.34485 -0.22856,-0.5531 -0.30307,-1.11124 -0.25508,-1.67318"
           inkscape:connector-curvature="0"
           style="fill:none;stroke:#000000;stroke-width:1.58134197;stroke-linecap:round;stroke-linejoin:round;stroke-opacity:1;stroke-miterlimit:4;stroke-dasharray:none" />
        <path
           id="path3068"
           d="m 217.29618,763.3588 c 0.27781,0.0417 0.57204,0.15027 0.7665,0.35358 0.22352,0.23361 0.3157,0.59097 0.32327,0.91424"
           inkscape:connector-curvature="0"
           style="fill:none;stroke:#000000;stroke-width:1.58134197;stroke-linecap:round;stroke-linejoin:round;stroke-opacity:1;stroke-miterlimit:4;stroke-dasharray:none" />
        <path
           id="path3080"
           d="m 240.76102,771.1539 c -0.53921,-0.1869 -1.1466,-0.26645 -1.70727,-0.13386 -0.78292,0.18437 -1.47239,0.78166 -1.84112,1.52669 -0.35484,0.71599 -0.41293,1.56837 -0.22478,2.28941 0.27024,1.038 1.05189,1.8045 1.93078,2.69349 0.55815,0.56572 1.1567,1.1807 1.75147,1.16807 0.54299,-0.0114 1.08219,-0.54552 1.61635,-1.03295 0.72862,-0.66422 1.44713,-1.24131 1.66054,-2.02044 0.18437,-0.67305 -0.006,-1.49638 -0.22477,-2.24521 -0.17174,-0.58971 -0.35863,-1.13397 -0.62886,-1.66054 0.28665,0.28917 0.62128,0.55057 0.98749,0.71852 0.79554,0.3662 1.7401,0.30054 2.64929,0.13385 0.77029,-0.14017 1.51659,-0.35358 2.24521,-0.13385 0.38767,0.11617 0.76903,0.35484 0.98749,0.67305 0.37126,0.54047 0.27655,1.30824 0.17931,2.0217 -0.12501,0.92183 -0.24876,1.7502 -0.5834,2.55964 0.5733,-0.31822 1.12135,-0.69326 1.61635,-1.1226 0.81954,-0.70968 1.50018,-1.56584 2.0659,-2.51418 0.54046,-0.90667 0.97612,-1.89795 1.88532,-2.46999 0.81701,-0.51268 2.01664,-0.68694 2.78441,-0.17931 0.45586,0.3018 0.76019,0.84353 0.89783,1.39284 0.25129,0.99506 -0.0455,2.00654 -0.0455,3.00792 0,0.73999 0.16164,1.47492 0.31443,2.20102"
           inkscape:connector-curvature="0"
           style="fill:none;stroke:#000000;stroke-width:1.58134197;stroke-linecap:round;stroke-linejoin:round;stroke-opacity:1;stroke-miterlimit:4;stroke-dasharray:none" />
      </g>
    </g>
    <g
       inkscape:label="Layer 1"
       id="layer1-51"
       transform="translate(-0.85743684,0.18888323)"
       style="fill:none;stroke:#000000;stroke-opacity:1;stroke-width:0.014;stroke-miterlimit:4;stroke-dasharray:none;stroke-linejoin:round;stroke-linecap:round">
      <g
         id="g3947"
         transform="matrix(0.01072457,0,0,0.01072457,2.0918858,-5.949291)"
         style="fill:none;stroke:#000000;stroke-opacity:1;stroke-width:1.30541364;stroke-miterlimit:4;stroke-dasharray:none;stroke-linejoin:round;stroke-linecap:round">
        <path
           id="path3907"
           d="m 15.054213,755.31379 c 4.463,-3.991 9.02,-7.86 13.705,-11.59 4.677,-3.724 9.531,-7.214 14.231,-10.907 2.369,-1.861 4.613,-3.795 6.571,-6.113 0.976,-1.155 1.836,-2.36 2.546,-3.701 0.365,-0.69 1.097,-1.396 0.068,-1.964 -1.016,-0.562 -1.201,0.429 -1.531,1.135 -2.537,5.427 -4.782,10.964 -6.929,16.552 -0.959,2.495 -1.854,5.013 -2.918,7.469 -1.317,3.04 -2.924,5.932 -4.321,8.93 -0.355,0.763 -0.746,1.507 -1.141,2.249 -0.098,0.184 -0.482,0.921 -0.297,0.549 0.037,-0.074 0.074,-0.148 0.111,-0.222 0.075,-0.147 0.152,-0.293 0.23,-0.439 0.313,-0.583 0.649,-1.15 1.008,-1.705 0.72,-1.115 1.517,-2.16 2.385,-3.163 1.744,-2.016 3.7,-3.765 5.743,-5.456 4.613,-3.819 9.43,-7.368 14.159,-11.034 5.411,-4.195 8.9,-6.612 15.822,-8.049"
           inkscape:connector-curvature="0"
           style="fill:none;stroke:#000000;stroke-linecap:round;stroke-linejoin:round;stroke-opacity:1;stroke-width:1.30541364;stroke-miterlimit:4;stroke-dasharray:none" />
        <path
           id="path3903"
           d="m 74.022213,742.42079 c -1.164,2.325 -2.255,4.745 -3.311,7.063 -0.862,1.893 -1.7,3.717 -2.428,5.886 -0.111,0.33 -0.219,0.667 -0.147,0.957 0.133,0.537 0.885,0.907 1.472,1.03"
           inkscape:connector-curvature="0"
           style="fill:none;stroke:#000000;stroke-linecap:round;stroke-linejoin:round;stroke-opacity:1;stroke-width:1.30541364;stroke-miterlimit:4;stroke-dasharray:none" />
        <path
           id="path3909"
           d="m 83.733213,725.71879 c -0.172,0.368 -0.343,0.736 -0.515,1.104"
           inkscape:connector-curvature="0"
           style="fill:none;stroke:#000000;stroke-linecap:round;stroke-linejoin:round;stroke-opacity:1;stroke-width:1.30541364;stroke-miterlimit:4;stroke-dasharray:none" />
        <path
           id="path3905"
           d="m 99.699213,728.36779 c -0.87,0.271 -1.736,0.674 -2.428,1.25 -1.158,0.965 -1.825,2.414 -2.501,3.826 -1.728,3.609 -3.511,6.978 -5.371,10.374 -1.387,2.531 -2.816,5.077 -4.415,7.504 -1.573,2.388 -3.309,4.661 -5.15,6.843"
           inkscape:connector-curvature="0"
           style="fill:none;stroke:#000000;stroke-linecap:round;stroke-linejoin:round;stroke-opacity:1;stroke-width:1.30541364;stroke-miterlimit:4;stroke-dasharray:none" />
        <path
           id="path3893"
           d="m 101.90621,738.22679 c -1.373,0.331 -2.770997,1.42135 -4.225535,2.35588 -2.302866,1.59554 -3.718462,2.66912 -6.000462,4.63412 -2.027,1.745 -4.588,3.296 -4.856,5.591 -0.089,0.758 0.073,1.598 0.294,2.428 0.432,1.621 1.093,3.208 2.281,4.194 1.292,1.072 3.209,1.432 5.003,1.398 2.336,-0.044 4.462,-0.755 6.621997,-1.398 1.129,-0.336 2.267,-0.653 3.384,-1.03"
           inkscape:connector-curvature="0"
           style="fill:none;stroke:#000000;stroke-linecap:round;stroke-linejoin:round;stroke-opacity:1;stroke-width:1.30541364;stroke-miterlimit:4;stroke-dasharray:none"
           sodipodi:nodetypes="ccccccccc" />
        <path
           id="path3913"
           d="m 114.77221,747.55479 c -0.903,-0.662 -2.256,-0.489 -3.384,-0.073 -1.51,0.556 -2.616,1.546 -3.679,2.648 -1.148,1.191 -2.246,2.512 -2.649,4.12 -0.249,0.995 -0.233,2.1 0.294,3.017 0.364,0.633 0.971,1.176 1.619,1.324 0.981,0.225 2.055,-0.46 2.943,-1.177 1.079,-0.871 1.884,-1.789 2.722,-2.723 0.891,-0.992 1.82,-2.002 2.502,-3.237 0.393,-0.711 0.704,-1.497 0.588,-2.281 -0.091,-0.625 -0.454,-1.25 -0.956,-1.618 z"
           inkscape:connector-curvature="0"
           style="fill:none;stroke:#000000;stroke-linecap:round;stroke-linejoin:round;stroke-opacity:1;stroke-width:1.30541364;stroke-miterlimit:4;stroke-dasharray:none" />
        <path
           id="path3895"
           d="m 116.68521,748.58479 c 2.268,-0.841 4.515,-1.759 6.695,-2.796 2.521,-1.199 4.952,-2.557 7.431,-3.899 2.675,-1.449 5.406,-2.881 7.946,-4.341 1.67,-0.96 3.258,-1.933 4.562,-3.826 0.423,-0.614 0.816,-1.325 0.589,-1.839 -0.168,-0.38 -0.676,-0.652 -1.177,-0.809 -1.388,-0.435 -2.726,0.013 -3.899,0.662 -2.254,1.248 -3.9,3.241 -5.444,5.297 -2.112,2.813 -4.034,5.745 -5.592,8.755 -1.096,2.117 -2.012,4.272 -2.354,6.916 -0.252,1.948 -0.192,4.161 0.957,5.297 1.118,1.105 3.268,1.191 5.15,0.957 2.449,-0.305 4.445,-1.153 6.475,-2.134 0.892,-0.431 1.791,-0.888 2.649,-1.398"
           inkscape:connector-curvature="0"
           style="fill:none;stroke:#000000;stroke-linecap:round;stroke-linejoin:round;stroke-opacity:1;stroke-width:1.30541364;stroke-miterlimit:4;stroke-dasharray:none" />
        <path
           id="path3897"
           d="m 149.35221,752.33679 c -0.189,1.026 -0.59,2 -1.25,2.87 -0.939,1.235 -2.403,2.26 -3.899,2.134 -1.21,-0.102 -2.441,-0.956 -2.943,-2.06 -0.453,-0.996 -0.313,-2.194 0.074,-3.237 0.515,-1.389 1.467,-2.502 2.575,-3.458 0.956,-0.825 2.027,-1.534 3.384,-1.545 1.093,-0.01 2.372,0.435 2.722,1.25 0.276,0.644 -0.026,1.521 -0.221,2.354 -0.248,1.064 -0.32,2.059 -0.073,3.017 0.287,1.114 1.003,2.176 1.913,2.943 1.066,0.899 2.396,1.391 3.752,1.692 1.24,0.275 2.501,0.392 3.752,0.294"
           inkscape:connector-curvature="0"
           style="fill:none;stroke:#000000;stroke-linecap:round;stroke-linejoin:round;stroke-opacity:1;stroke-width:1.30541364;stroke-miterlimit:4;stroke-dasharray:none" />
        <path
           id="path3899"
           d="m 202.61621,729.94379 c -1.938,2.906 -3.835,5.829 -5.813,8.72 -2.349,3.433 -4.811,6.823 -6.903,10.355 -1.553,2.622 -2.903,5.323 -4.632,7.993 -0.594,0.917 -1.232,1.831 -1.271,2.907 -0.022,0.614 0.15,1.28 0.545,1.726 0.654,0.737 1.918,0.87 2.907,0.727"
           inkscape:connector-curvature="0"
           style="fill:none;stroke:#000000;stroke-linecap:round;stroke-linejoin:round;stroke-opacity:1;stroke-width:1.30541364;stroke-miterlimit:4;stroke-dasharray:none" />
        <path
           id="path3901"
           d="m 192.44221,727.30879 c 2.673,-0.532 5.344,-1.086 7.993,-1.726 3.555,-0.858 7.07,-1.869 10.627,-2.725 2.34,-0.563 4.698,-1.058 7.085,-1.362 1.293,-0.165 2.595,-0.273 3.906,0.091 0.795,0.221 1.593,0.616 1.998,1.271 0.452,0.731 0.414,1.786 0.182,2.634"
           inkscape:connector-curvature="0"
           style="fill:none;stroke:#000000;stroke-linecap:round;stroke-linejoin:round;stroke-opacity:1;stroke-width:1.30541364;stroke-miterlimit:4;stroke-dasharray:none" />
        <path
           id="path3911"
           d="m 200.07221,760.55379 c 1.171,-0.676 2.204,-1.498 3.361,-2.271 2.603,-1.739 5.83,-3.233 6.177,-6.721 0.107,-1.078 -0.061,-2.346 -0.727,-2.725 -0.614,-0.35 -1.652,0.057 -2.543,0.545 -1.388,0.76 -2.422,1.716 -2.725,2.998 -0.31,1.31 0.143,2.96 1.09,3.997 0.987,1.081 2.511,1.496 3.997,1.635 2.016,0.189 3.961,-0.129 5.813,-0.727 2.044,-0.659 3.976,-1.656 5.904,-2.634 1.987,-1.007 3.972,-1.994 5.995,-2.906 1.644,-0.742 3.313,-1.435 4.996,-2.089 1.532,-0.597 3.075,-1.162 4.616,-1.726 0.222,1.406 0.206,2.865 -0.091,4.269 -0.333,1.577 -1.019,3.084 -1.998,4.36 -0.669,0.871 -1.474,1.634 -2.362,2.271 0.121,-1.454 0.242,-2.907 0.363,-4.36 1.084,0.392 2.217,0.686 3.361,0.817 2.141,0.246 4.322,-0.081 6.449,-0.545 2.945,-0.643 5.786,-1.552 8.539,-2.725 2.837,-1.208 5.582,-2.697 7.993,-4.633 2.23,-1.79 4.175,-3.962 6.086,-5.995 1.3,-1.384 2.584,-2.703 3.633,-4.542 0.337,-0.592 0.65,-1.238 0.454,-1.816 -0.135,-0.397 -0.509,-0.762 -0.949,-0.952 -0.695,-0.3 -1.553,-0.162 -2.329,0.048 -1.849,0.499 -3.23,1.402 -4.447,2.441 -2.511,2.145 -4.327,4.868 -6.106,7.566 -1.208,1.833 -2.401,3.653 -3.155,5.884 -0.656,1.941 -0.981,4.193 0,5.904 0.67,1.169 1.95,2.086 3.27,2.361 1.674,0.35 3.414,-0.332 4.996,-1.09 1.147,-0.549 2.211,-1.139 3.179,-1.907"
           inkscape:connector-curvature="0"
           style="fill:none;stroke:#000000;stroke-linecap:round;stroke-linejoin:round;stroke-opacity:1;stroke-width:1.30541364;stroke-miterlimit:4;stroke-dasharray:none" />
        <path
           id="path3891"
           d="m 271.08721,752.56079 c -0.488,1.247 -1.231,2.378 -2.453,3.179 -1.444,0.947 -3.555,1.432 -4.723,0.454 -0.652,-0.546 -1.01,-1.548 -1,-2.453 0.016,-1.346 0.849,-2.478 1.726,-3.542 0.955,-1.158 1.962,-2.236 3.452,-2.543 0.897,-0.186 1.969,-0.09 2.543,0.454 0.588,0.557 0.653,1.585 0.727,2.543 0.077,1.007 0.164,1.936 0.545,2.725 0.646,1.339 2.14,2.278 3.633,2.998 2.67,1.287 5.337,1.873 8.084,2.362 3.033,0.539 6.164,0.959 9.265,0.817 1.897,-0.087 3.785,-0.384 5.631,-0.817"
           inkscape:connector-curvature="0"
           style="fill:none;stroke:#000000;stroke-linecap:round;stroke-linejoin:round;stroke-opacity:1;stroke-width:1.30541364;stroke-miterlimit:4;stroke-dasharray:none" />
      </g>
    </g>
  </g>
</svg>
